<svg width="357" height="96" viewBox="0 0 357 96" fill="none" xmlns="http://www.w3.org/2000/svg">
<g filter="url(#filter0_d_930_4433)">
<rect x="16" y="12" width="325" height="64" rx="32" fill="url(#paint0_linear_930_4433)"/>
<rect x="16.5" y="12.5" width="324" height="63" rx="31.5" stroke="url(#paint1_linear_930_4433)" stroke-opacity="0.16"/>
<path d="M42.0009 52.5V37.5858H44.3632V44.152H51.2698V37.5858H53.612V52.5H51.2698V46.254H44.3632V52.5H42.0009ZM56.4822 52.5V41.6697H58.7444V52.5H56.4822ZM56.4822 40.1882V37.5858H58.7444V40.1882H56.4822ZM61.3893 52.5V41.6697H63.5513V43.8517L63.3511 43.5314C63.5914 42.8241 63.9784 42.3169 64.5122 42.01C65.0461 41.6897 65.6867 41.5295 66.4341 41.5295H67.0947V43.5915H66.1538C65.4064 43.5915 64.7992 43.8251 64.3321 44.2922C63.8783 44.7459 63.6514 45.3999 63.6514 46.254V52.5H61.3893ZM73.7271 52.7402C72.6461 52.7402 71.6852 52.4933 70.8444 51.9995C70.0169 51.4924 69.3696 50.8117 68.9025 49.9576C68.4354 49.0901 68.2019 48.1225 68.2019 47.0548C68.2019 45.9604 68.4354 44.9928 68.9025 44.152C69.383 43.3112 70.0236 42.6506 70.8244 42.1701C71.6251 41.6763 72.5327 41.4294 73.547 41.4294C74.3611 41.4294 75.0884 41.5696 75.7291 41.8498C76.3697 42.1301 76.9102 42.5171 77.3506 43.0109C77.791 43.4914 78.1247 44.0453 78.3516 44.6725C78.5918 45.2998 78.7119 45.9671 78.7119 46.6744C78.7119 46.8479 78.7052 47.0281 78.6919 47.215C78.6785 47.4018 78.6518 47.5753 78.6118 47.7355H69.9836V45.9337H77.3306L76.2495 46.7545C76.383 46.1006 76.3363 45.52 76.1094 45.0129C75.8959 44.4924 75.5622 44.0853 75.1085 43.7917C74.668 43.4847 74.1475 43.3312 73.547 43.3312C72.9464 43.3312 72.4126 43.4847 71.9454 43.7917C71.4783 44.0853 71.118 44.5124 70.8644 45.0729C70.6108 45.6201 70.5107 46.2874 70.5641 47.0748C70.4974 47.8089 70.5975 48.4495 70.8644 48.9967C71.1447 49.5438 71.5317 49.9709 72.0255 50.2779C72.5327 50.5848 73.1065 50.7383 73.7472 50.7383C74.4011 50.7383 74.955 50.5915 75.4087 50.2979C75.8759 50.0043 76.2429 49.6239 76.5098 49.1568L78.3516 50.0577C78.138 50.5648 77.8044 51.0253 77.3506 51.439C76.9102 51.8394 76.3763 52.1597 75.7491 52.3999C75.1352 52.6268 74.4612 52.7402 73.7271 52.7402ZM89.5039 52.7402C88.4229 52.7402 87.462 52.4933 86.6212 51.9995C85.7937 51.4924 85.1464 50.8117 84.6793 49.9576C84.2122 49.0901 83.9786 48.1225 83.9786 47.0548C83.9786 45.9604 84.2122 44.9928 84.6793 44.152C85.1598 43.3112 85.8004 42.6506 86.6011 42.1701C87.4019 41.6763 88.3094 41.4294 89.3237 41.4294C90.1379 41.4294 90.8652 41.5696 91.5058 41.8498C92.1464 42.1301 92.687 42.5171 93.1274 43.0109C93.5678 43.4914 93.9015 44.0453 94.1283 44.6725C94.3686 45.2998 94.4887 45.9671 94.4887 46.6744C94.4887 46.8479 94.482 47.0281 94.4687 47.215C94.4553 47.4018 94.4286 47.5753 94.3886 47.7355H85.7603V45.9337H93.1074L92.0263 46.7545C92.1598 46.1006 92.1131 45.52 91.8862 45.0129C91.6727 44.4924 91.339 44.0853 90.8852 43.7917C90.4448 43.4847 89.9243 43.3312 89.3237 43.3312C88.7232 43.3312 88.1893 43.4847 87.7222 43.7917C87.2551 44.0853 86.8948 44.5124 86.6412 45.0729C86.3876 45.6201 86.2875 46.2874 86.3409 47.0748C86.2742 47.8089 86.3743 48.4495 86.6412 48.9967C86.9215 49.5438 87.3085 49.9709 87.8023 50.2779C88.3094 50.5848 88.8833 50.7383 89.5239 50.7383C90.1779 50.7383 90.7318 50.5915 91.1855 50.2979C91.6526 50.0043 92.0197 49.6239 92.2866 49.1568L94.1283 50.0577C93.9148 50.5648 93.5811 51.0253 93.1274 51.439C92.687 51.8394 92.1531 52.1597 91.5259 52.3999C90.9119 52.6268 90.238 52.7402 89.5039 52.7402ZM99.8418 52.7402C99.1077 52.7402 98.4604 52.6134 97.8999 52.3599C97.3527 52.0929 96.9256 51.7326 96.6187 51.2788C96.3117 50.8117 96.1582 50.2645 96.1582 49.6373C96.1582 49.05 96.285 48.5229 96.5386 48.0558C96.8055 47.5886 97.2126 47.1949 97.7598 46.8746C98.307 46.5543 98.9943 46.3274 99.8217 46.194L103.585 45.5734V47.3551L100.262 47.9356C99.6616 48.0424 99.2212 48.2359 98.9409 48.5162C98.6606 48.7831 98.5205 49.1301 98.5205 49.5572C98.5205 49.9709 98.674 50.3112 98.9809 50.5782C99.3012 50.8317 99.7083 50.9585 100.202 50.9585C100.816 50.9585 101.35 50.8251 101.804 50.5581C102.271 50.2912 102.631 49.9376 102.885 49.4971C103.138 49.0434 103.265 48.5429 103.265 47.9957V45.213C103.265 44.6792 103.065 44.2455 102.664 43.9118C102.277 43.5648 101.757 43.3913 101.103 43.3913C100.502 43.3913 99.9752 43.5515 99.5215 43.8718C99.081 44.1787 98.7541 44.5791 98.5405 45.0729L96.6587 44.132C96.8589 43.5982 97.1859 43.1311 97.6397 42.7307C98.0934 42.3169 98.6206 41.9966 99.2212 41.7698C99.8351 41.5429 100.482 41.4294 101.163 41.4294C102.017 41.4294 102.771 41.5896 103.425 41.9099C104.092 42.2302 104.606 42.6773 104.967 43.2512C105.34 43.8117 105.527 44.4657 105.527 45.213V52.5H103.365V50.5381L103.826 50.5982C103.572 51.0386 103.245 51.419 102.845 51.7393C102.458 52.0596 102.01 52.3065 101.503 52.48C101.01 52.6535 100.456 52.7402 99.8418 52.7402ZM108.172 52.5V41.6697H110.334V43.8517L110.134 43.5314C110.374 42.8241 110.761 42.3169 111.295 42.01C111.829 41.6897 112.47 41.5295 113.217 41.5295H113.878V43.5915H112.937C112.189 43.5915 111.582 43.8251 111.115 44.2922C110.661 44.7459 110.434 45.3999 110.434 46.254V52.5H108.172ZM115.425 52.5V37.3455H117.687V52.5H115.425ZM121.293 56.9042C121.026 56.9042 120.759 56.8775 120.492 56.8241C120.239 56.7841 120.005 56.7174 119.792 56.6239V54.6821C119.952 54.7221 120.145 54.7555 120.372 54.7822C120.599 54.8222 120.819 54.8422 121.033 54.8422C121.66 54.8422 122.121 54.7021 122.414 54.4218C122.721 54.1549 122.995 53.7412 123.235 53.1806L123.956 51.5391L123.916 53.4409L119.231 41.6697H121.654L125.117 50.6983H124.296L127.739 41.6697H130.182L125.397 53.6811C125.144 54.3217 124.823 54.8823 124.436 55.3627C124.062 55.8565 123.615 56.2369 123.095 56.5038C122.588 56.7707 121.987 56.9042 121.293 56.9042ZM132.07 48.0758V46.0739H140.078V48.0758H132.07ZM148.214 52.7402C147.133 52.7402 146.172 52.4933 145.331 51.9995C144.504 51.4924 143.843 50.8117 143.349 49.9576C142.869 49.1034 142.628 48.1358 142.628 47.0548C142.628 45.9871 142.869 45.0262 143.349 44.172C143.83 43.3179 144.49 42.6506 145.331 42.1701C146.172 41.6763 147.133 41.4294 148.214 41.4294C148.948 41.4294 149.635 41.5629 150.276 41.8298C150.916 42.0834 151.47 42.4371 151.937 42.8908C152.418 43.3446 152.771 43.8718 152.998 44.4723L151.016 45.3932C150.79 44.8327 150.422 44.3856 149.915 44.0519C149.422 43.7049 148.854 43.5314 148.214 43.5314C147.6 43.5314 147.046 43.6849 146.552 43.9919C146.072 44.2855 145.691 44.7059 145.411 45.2531C145.131 45.7869 144.991 46.3942 144.991 47.0748C144.991 47.7555 145.131 48.3694 145.411 48.9166C145.691 49.4504 146.072 49.8708 146.552 50.1778C147.046 50.4847 147.6 50.6382 148.214 50.6382C148.868 50.6382 149.435 50.4714 149.915 50.1377C150.409 49.7907 150.776 49.3303 151.016 48.7564L152.998 49.6973C152.785 50.2712 152.438 50.7917 151.957 51.2588C151.49 51.7126 150.936 52.0729 150.296 52.3398C149.655 52.6068 148.961 52.7402 148.214 52.7402ZM158.355 52.7402C157.621 52.7402 156.973 52.6134 156.413 52.3599C155.866 52.0929 155.439 51.7326 155.132 51.2788C154.825 50.8117 154.671 50.2645 154.671 49.6373C154.671 49.05 154.798 48.5229 155.051 48.0558C155.318 47.5886 155.725 47.1949 156.273 46.8746C156.82 46.5543 157.507 46.3274 158.335 46.194L162.098 45.5734V47.3551L158.775 47.9356C158.174 48.0424 157.734 48.2359 157.454 48.5162C157.174 48.7831 157.033 49.1301 157.033 49.5572C157.033 49.9709 157.187 50.3112 157.494 50.5782C157.814 50.8317 158.221 50.9585 158.715 50.9585C159.329 50.9585 159.863 50.8251 160.317 50.5581C160.784 50.2912 161.144 49.9376 161.398 49.4971C161.651 49.0434 161.778 48.5429 161.778 47.9957V45.213C161.778 44.6792 161.578 44.2455 161.177 43.9118C160.79 43.5648 160.27 43.3913 159.616 43.3913C159.015 43.3913 158.488 43.5515 158.034 43.8718C157.594 44.1787 157.267 44.5791 157.053 45.0729L155.172 44.132C155.372 43.5982 155.699 43.1311 156.153 42.7307C156.606 42.3169 157.133 41.9966 157.734 41.7698C158.348 41.5429 158.995 41.4294 159.676 41.4294C160.53 41.4294 161.284 41.5896 161.938 41.9099C162.605 42.2302 163.119 42.6773 163.48 43.2512C163.853 43.8117 164.04 44.4657 164.04 45.213V52.5H161.878V50.5381L162.338 50.5982C162.085 51.0386 161.758 51.419 161.358 51.7393C160.97 52.0596 160.523 52.3065 160.016 52.48C159.522 52.6535 158.969 52.7402 158.355 52.7402ZM166.685 52.5V41.6697H168.847V43.8517L168.647 43.5314C168.887 42.8241 169.274 42.3169 169.808 42.01C170.342 41.6897 170.983 41.5295 171.73 41.5295H172.391V43.5915H171.45C170.702 43.5915 170.095 43.8251 169.628 44.2922C169.174 44.7459 168.947 45.3999 168.947 46.254V52.5H166.685ZM179.023 52.7402C177.942 52.7402 176.981 52.4933 176.14 51.9995C175.313 51.4924 174.665 50.8117 174.198 49.9576C173.731 49.0901 173.498 48.1225 173.498 47.0548C173.498 45.9604 173.731 44.9928 174.198 44.152C174.679 43.3112 175.319 42.6506 176.12 42.1701C176.921 41.6763 177.828 41.4294 178.843 41.4294C179.657 41.4294 180.384 41.5696 181.025 41.8498C181.665 42.1301 182.206 42.5171 182.646 43.0109C183.087 43.4914 183.42 44.0453 183.647 44.6725C183.888 45.2998 184.008 45.9671 184.008 46.6744C184.008 46.8479 184.001 47.0281 183.988 47.215C183.974 47.4018 183.948 47.5753 183.908 47.7355H175.279V45.9337H182.626L181.545 46.7545C181.679 46.1006 181.632 45.52 181.405 45.0129C181.192 44.4924 180.858 44.0853 180.404 43.7917C179.964 43.4847 179.443 43.3312 178.843 43.3312C178.242 43.3312 177.708 43.4847 177.241 43.7917C176.774 44.0853 176.414 44.5124 176.16 45.0729C175.907 45.6201 175.807 46.2874 175.86 47.0748C175.793 47.8089 175.893 48.4495 176.16 48.9967C176.441 49.5438 176.828 49.9709 177.321 50.2779C177.828 50.5848 178.402 50.7383 179.043 50.7383C179.697 50.7383 180.251 50.5915 180.705 50.2979C181.172 50.0043 181.539 49.6239 181.806 49.1568L183.647 50.0577C183.434 50.5648 183.1 51.0253 182.646 51.439C182.206 51.8394 181.672 52.1597 181.045 52.3999C180.431 52.6268 179.757 52.7402 179.023 52.7402ZM191.3 52.7402C190.219 52.7402 189.258 52.4933 188.418 51.9995C187.59 51.4924 186.943 50.8117 186.476 49.9576C186.009 49.0901 185.775 48.1225 185.775 47.0548C185.775 45.9604 186.009 44.9928 186.476 44.152C186.956 43.3112 187.597 42.6506 188.398 42.1701C189.198 41.6763 190.106 41.4294 191.12 41.4294C191.934 41.4294 192.662 41.5696 193.302 41.8498C193.943 42.1301 194.483 42.5171 194.924 43.0109C195.364 43.4914 195.698 44.0453 195.925 44.6725C196.165 45.2998 196.285 45.9671 196.285 46.6744C196.285 46.8479 196.278 47.0281 196.265 47.215C196.252 47.4018 196.225 47.5753 196.185 47.7355H187.557V45.9337H194.904L193.823 46.7545C193.956 46.1006 193.909 45.52 193.683 45.0129C193.469 44.4924 193.135 44.0853 192.682 43.7917C192.241 43.4847 191.721 43.3312 191.12 43.3312C190.52 43.3312 189.986 43.4847 189.519 43.7917C189.052 44.0853 188.691 44.5124 188.438 45.0729C188.184 45.6201 188.084 46.2874 188.137 47.0748C188.071 47.8089 188.171 48.4495 188.438 48.9967C188.718 49.5438 189.105 49.9709 189.599 50.2779C190.106 50.5848 190.68 50.7383 191.32 50.7383C191.974 50.7383 192.528 50.5915 192.982 50.2979C193.449 50.0043 193.816 49.6239 194.083 49.1568L195.925 50.0577C195.711 50.5648 195.378 51.0253 194.924 51.439C194.483 51.8394 193.95 52.1597 193.322 52.3999C192.708 52.6268 192.034 52.7402 191.3 52.7402ZM198.493 52.5V41.6697H200.655V43.8517L200.455 43.5314C200.695 42.8241 201.082 42.3169 201.616 42.01C202.15 41.6897 202.79 41.5295 203.538 41.5295H204.198V43.5915H203.257C202.51 43.5915 201.903 43.8251 201.436 44.2922C200.982 44.7459 200.755 45.3999 200.755 46.254V52.5H198.493ZM213.93 52.6201C212.795 52.6201 211.914 52.2998 211.287 51.6592C210.66 51.0186 210.346 50.1177 210.346 48.9566V43.7116H208.444V41.6697H208.745C209.252 41.6697 209.646 41.5229 209.926 41.2292C210.206 40.9356 210.346 40.5352 210.346 40.0281V39.1873H212.608V41.6697H215.071V43.7116H212.608V48.8565C212.608 49.2302 212.669 49.5505 212.789 49.8174C212.909 50.071 213.102 50.2712 213.369 50.418C213.636 50.5515 213.983 50.6182 214.41 50.6182C214.517 50.6182 214.637 50.6115 214.771 50.5982C214.904 50.5848 215.031 50.5715 215.151 50.5581V52.5C214.964 52.5267 214.757 52.5534 214.53 52.5801C214.303 52.6068 214.103 52.6201 213.93 52.6201ZM220.504 52.7402C219.77 52.7402 219.123 52.6134 218.562 52.3599C218.015 52.0929 217.588 51.7326 217.281 51.2788C216.974 50.8117 216.82 50.2645 216.82 49.6373C216.82 49.05 216.947 48.5229 217.201 48.0558C217.468 47.5886 217.875 47.1949 218.422 46.8746C218.969 46.5543 219.656 46.3274 220.484 46.194L224.247 45.5734V47.3551L220.924 47.9356C220.324 48.0424 219.883 48.2359 219.603 48.5162C219.323 48.7831 219.183 49.1301 219.183 49.5572C219.183 49.9709 219.336 50.3112 219.643 50.5782C219.963 50.8317 220.37 50.9585 220.864 50.9585C221.478 50.9585 222.012 50.8251 222.466 50.5581C222.933 50.2912 223.293 49.9376 223.547 49.4971C223.8 49.0434 223.927 48.5429 223.927 47.9957V45.213C223.927 44.6792 223.727 44.2455 223.327 43.9118C222.939 43.5648 222.419 43.3913 221.765 43.3913C221.164 43.3913 220.637 43.5515 220.184 43.8718C219.743 44.1787 219.416 44.5791 219.203 45.0729L217.321 44.132C217.521 43.5982 217.848 43.1311 218.302 42.7307C218.755 42.3169 219.283 41.9966 219.883 41.7698C220.497 41.5429 221.144 41.4294 221.825 41.4294C222.679 41.4294 223.433 41.5896 224.087 41.9099C224.755 42.2302 225.268 42.6773 225.629 43.2512C226.002 43.8117 226.189 44.4657 226.189 45.213V52.5H224.027V50.5381L224.488 50.5982C224.234 51.0386 223.907 51.419 223.507 51.7393C223.12 52.0596 222.673 52.3065 222.165 52.48C221.672 52.6535 221.118 52.7402 220.504 52.7402ZM228.834 52.5V37.3455H231.096V52.5H228.834ZM238.826 52.7402C237.745 52.7402 236.784 52.4933 235.943 51.9995C235.116 51.4924 234.469 50.8117 234.002 49.9576C233.534 49.0901 233.301 48.1225 233.301 47.0548C233.301 45.9604 233.534 44.9928 234.002 44.152C234.482 43.3112 235.123 42.6506 235.923 42.1701C236.724 41.6763 237.632 41.4294 238.646 41.4294C239.46 41.4294 240.187 41.5696 240.828 41.8498C241.469 42.1301 242.009 42.5171 242.45 43.0109C242.89 43.4914 243.224 44.0453 243.451 44.6725C243.691 45.2998 243.811 45.9671 243.811 46.6744C243.811 46.8479 243.804 47.0281 243.791 47.215C243.778 47.4018 243.751 47.5753 243.711 47.7355H235.083V45.9337H242.43L241.349 46.7545C241.482 46.1006 241.435 45.52 241.208 45.0129C240.995 44.4924 240.661 44.0853 240.207 43.7917C239.767 43.4847 239.247 43.3312 238.646 43.3312C238.045 43.3312 237.512 43.4847 237.044 43.7917C236.577 44.0853 236.217 44.5124 235.963 45.0729C235.71 45.6201 235.61 46.2874 235.663 47.0748C235.596 47.8089 235.697 48.4495 235.963 48.9967C236.244 49.5438 236.631 49.9709 237.125 50.2779C237.632 50.5848 238.206 50.7383 238.846 50.7383C239.5 50.7383 240.054 50.5915 240.508 50.2979C240.975 50.0043 241.342 49.6239 241.609 49.1568L243.451 50.0577C243.237 50.5648 242.903 51.0253 242.45 51.439C242.009 51.8394 241.475 52.1597 240.848 52.3999C240.234 52.6268 239.56 52.7402 238.826 52.7402ZM246.019 52.5V41.6697H248.181V43.7917L247.92 43.5114C248.187 42.8308 248.614 42.3169 249.202 41.9699C249.789 41.6096 250.47 41.4294 251.244 41.4294C252.044 41.4294 252.752 41.6029 253.366 41.9499C253.98 42.2969 254.46 42.7774 254.807 43.3913C255.154 44.0052 255.328 44.7126 255.328 45.5133V52.5H253.085V46.1139C253.085 45.5667 252.985 45.1063 252.785 44.7326C252.585 44.3455 252.298 44.0519 251.924 43.8517C251.564 43.6382 251.15 43.5314 250.683 43.5314C250.216 43.5314 249.796 43.6382 249.422 43.8517C249.062 44.0519 248.781 44.3455 248.581 44.7326C248.381 45.1196 248.281 45.5801 248.281 46.1139V52.5H246.019ZM262.433 52.6201C261.299 52.6201 260.418 52.2998 259.791 51.6592C259.163 51.0186 258.85 50.1177 258.85 48.9566V43.7116H256.948V41.6697H257.248C257.755 41.6697 258.149 41.5229 258.429 41.2292C258.71 40.9356 258.85 40.5352 258.85 40.0281V39.1873H261.112V41.6697H263.574V43.7116H261.112V48.8565C261.112 49.2302 261.172 49.5505 261.292 49.8174C261.412 50.071 261.606 50.2712 261.873 50.418C262.139 50.5515 262.486 50.6182 262.914 50.6182C263.02 50.6182 263.14 50.6115 263.274 50.5982C263.407 50.5848 263.534 50.5715 263.654 50.5581V52.5C263.467 52.5267 263.261 52.5534 263.034 52.5801C262.807 52.6068 262.607 52.6201 262.433 52.6201Z" fill="white"/>
<g clip-path="url(#clip0_930_4433)">
<rect x="285" y="20" width="48" height="48" rx="24" fill="white" fill-opacity="0.16"/>
<path d="M322.061 45.0607C322.646 44.4749 322.646 43.5251 322.061 42.9393L312.515 33.3934C311.929 32.8076 310.979 32.8076 310.393 33.3934C309.808 33.9792 309.808 34.9289 310.393 35.5147L318.879 44L310.393 52.4853C309.808 53.0711 309.808 54.0208 310.393 54.6066C310.979 55.1924 311.929 55.1924 312.515 54.6066L322.061 45.0607ZM297 44V45.5H321V44V42.5H297V44Z" fill="white"/>
</g>
</g>
<defs>
<filter id="filter0_d_930_4433" x="0" y="-4" width="357" height="100" filterUnits="userSpaceOnUse" color-interpolation-filters="sRGB">
<feFlood flood-opacity="0" result="BackgroundImageFix"/>
<feColorMatrix in="SourceAlpha" type="matrix" values="0 0 0 0 0 0 0 0 0 0 0 0 0 0 0 0 0 0 127 0" result="hardAlpha"/>
<feOffset dy="4"/>
<feGaussianBlur stdDeviation="8"/>
<feComposite in2="hardAlpha" operator="out"/>
<feColorMatrix type="matrix" values="0 0 0 0 0 0 0 0 0 0 0 0 0 0 0 0 0 0 0.16 0"/>
<feBlend mode="normal" in2="BackgroundImageFix" result="effect1_dropShadow_930_4433"/>
<feBlend mode="normal" in="SourceGraphic" in2="effect1_dropShadow_930_4433" result="shape"/>
</filter>
<linearGradient id="paint0_linear_930_4433" x1="16" y1="44" x2="341" y2="44" gradientUnits="userSpaceOnUse">
<stop stop-color="#2B476D"/>
<stop offset="1" stop-color="#182434"/>
</linearGradient>
<linearGradient id="paint1_linear_930_4433" x1="234.115" y1="76" x2="178.784" y2="-20.1634" gradientUnits="userSpaceOnUse">
<stop stop-color="white"/>
<stop offset="1"/>
</linearGradient>
<clipPath id="clip0_930_4433">
<rect x="285" y="20" width="48" height="48" rx="24" fill="white"/>
</clipPath>
</defs>
</svg>
