<svg width="389" height="64" viewBox="0 0 389 64" fill="none" xmlns="http://www.w3.org/2000/svg">
<rect width="389" height="64" rx="32" fill="url(#paint0_linear_2718_4277)"/>
<rect x="0.5" y="0.5" width="388" height="63" rx="31.5" stroke="url(#paint1_linear_2718_4277)" stroke-opacity="0.16"/>
<path d="M25.6849 40.5V25.5858H31.9709C32.9051 25.5858 33.7126 25.7526 34.3932 26.0862C35.0739 26.4065 35.5944 26.8737 35.9547 27.4876C36.3151 28.0882 36.4952 28.8022 36.4952 29.6296C36.4952 30.3503 36.3084 31.0109 35.9347 31.6115C35.5743 32.1987 35.0071 32.6659 34.2331 33.0129V32.0119C34.9137 32.2788 35.4676 32.6191 35.8947 33.0329C36.3217 33.4333 36.6287 33.887 36.8155 34.3942C37.0157 34.9013 37.1158 35.4352 37.1158 35.9957C37.1158 37.397 36.6554 38.4981 35.7345 39.2989C34.827 40.0996 33.5791 40.5 31.9909 40.5H25.6849ZM28.0472 38.398H32.1711C32.9585 38.398 33.5858 38.1845 34.0529 37.7574C34.52 37.317 34.7536 36.7364 34.7536 36.0157C34.7536 35.2817 34.52 34.7011 34.0529 34.2741C33.5858 33.8336 32.9585 33.6134 32.1711 33.6134H28.0472V38.398ZM28.0472 31.5314H32.031C32.6716 31.5314 33.1854 31.3513 33.5724 30.9909C33.9595 30.6172 34.153 30.1301 34.153 29.5295C34.153 28.929 33.9595 28.4618 33.5724 28.1282C33.1854 27.7945 32.6716 27.6277 32.031 27.6277H28.0472V31.5314ZM39.3256 40.5V29.6697H41.4876V31.8517L41.2875 31.5314C41.5277 30.8241 41.9147 30.3169 42.4486 30.01C42.9824 29.6897 43.623 29.5295 44.3704 29.5295H45.031V31.5915H44.0901C43.3428 31.5915 42.7355 31.8251 42.2684 32.2922C41.8146 32.7459 41.5877 33.3999 41.5877 34.254V40.5H39.3256ZM51.8036 40.7402C50.7626 40.7402 49.8084 40.4933 48.9409 39.9995C48.0867 39.5057 47.4061 38.8317 46.8989 37.9776C46.3918 37.1234 46.1382 36.1559 46.1382 35.0748C46.1382 33.9804 46.3918 33.0129 46.8989 32.172C47.4061 31.3179 48.0867 30.6506 48.9409 30.1701C49.795 29.6763 50.7492 29.4294 51.8036 29.4294C52.8713 29.4294 53.8255 29.6763 54.6663 30.1701C55.5205 30.6506 56.1944 31.3179 56.6883 32.172C57.1954 33.0129 57.449 33.9804 57.449 35.0748C57.449 36.1692 57.1954 37.1435 56.6883 37.9976C56.1811 38.8518 55.5005 39.5257 54.6463 40.0195C53.7922 40.5 52.8446 40.7402 51.8036 40.7402ZM51.8036 38.6382C52.4442 38.6382 53.0114 38.4847 53.5052 38.1778C53.999 37.8708 54.3861 37.4504 54.6663 36.9166C54.9599 36.3694 55.1067 35.7555 55.1067 35.0748C55.1067 34.3942 54.9599 33.7869 54.6663 33.2531C54.3861 32.7192 53.999 32.2988 53.5052 31.9919C53.0114 31.6849 52.4442 31.5314 51.8036 31.5314C51.1763 31.5314 50.6091 31.6849 50.102 31.9919C49.6082 32.2988 49.2145 32.7192 48.9208 33.2531C48.6406 33.7869 48.5004 34.3942 48.5004 35.0748C48.5004 35.7555 48.6406 36.3694 48.9208 36.9166C49.2145 37.4504 49.6082 37.8708 50.102 38.1778C50.6091 38.4847 51.1763 38.6382 51.8036 38.6382ZM62.0845 40.5L58.3609 29.6697H60.7632L63.6059 38.2979H62.7651L65.6679 29.6697H67.7299L70.6126 38.2979H69.7718L72.6346 29.6697H75.0369L71.2933 40.5H69.2513L66.3285 31.6716H67.0693L64.1465 40.5H62.0845ZM80.5915 40.7402C79.4838 40.7402 78.5096 40.4666 77.6688 39.9194C76.8413 39.3723 76.2607 38.6382 75.9271 37.7173L77.6688 36.8966C77.9624 37.5105 78.3627 37.9976 78.8699 38.358C79.3904 38.7183 79.9643 38.8985 80.5915 38.8985C81.1254 38.8985 81.5591 38.7784 81.8928 38.5381C82.2264 38.2979 82.3933 37.9709 82.3933 37.5572C82.3933 37.2903 82.3199 37.0767 82.1731 36.9166C82.0262 36.7431 81.8394 36.6029 81.6125 36.4962C81.399 36.3894 81.1788 36.3093 80.9519 36.2559L79.2503 35.7755C78.316 35.5086 77.6154 35.1082 77.1483 34.5743C76.6945 34.0272 76.4676 33.3932 76.4676 32.6725C76.4676 32.0186 76.6344 31.4514 76.9681 30.9709C77.3017 30.4771 77.7622 30.0967 78.3494 29.8298C78.9366 29.5629 79.5973 29.4294 80.3313 29.4294C81.3189 29.4294 82.1997 29.6763 82.9738 30.1701C83.7479 30.6506 84.2951 31.3246 84.6154 32.1921L82.8737 33.0129C82.6602 32.4924 82.3199 32.0786 81.8527 31.7717C81.399 31.4647 80.8852 31.3112 80.3113 31.3112C79.8175 31.3112 79.4238 31.4313 79.1301 31.6716C78.8365 31.8985 78.6897 32.1987 78.6897 32.5724C78.6897 32.826 78.7565 33.0395 78.8899 33.213C79.0234 33.3732 79.1969 33.5067 79.4104 33.6134C79.624 33.7068 79.8442 33.7869 80.071 33.8537L81.8327 34.3742C82.7269 34.6277 83.4142 35.0281 83.8947 35.5753C84.3752 36.1091 84.6154 36.7498 84.6154 37.4971C84.6154 38.1377 84.4419 38.705 84.0949 39.1988C83.7612 39.6792 83.2941 40.0596 82.6935 40.3398C82.093 40.6068 81.3923 40.7402 80.5915 40.7402ZM91.9167 40.7402C90.8357 40.7402 89.8748 40.4933 89.034 39.9995C88.2065 39.4924 87.5592 38.8117 87.0921 37.9576C86.625 37.0901 86.3915 36.1225 86.3915 35.0548C86.3915 33.9604 86.625 32.9928 87.0921 32.152C87.5726 31.3112 88.2132 30.6506 89.014 30.1701C89.8147 29.6763 90.7223 29.4294 91.7366 29.4294C92.5507 29.4294 93.278 29.5696 93.9186 29.8498C94.5593 30.1301 95.0998 30.5171 95.5402 31.0109C95.9806 31.4914 96.3143 32.0453 96.5411 32.6725C96.7814 33.2998 96.9015 33.9671 96.9015 34.6744C96.9015 34.8479 96.8948 35.0281 96.8815 35.215C96.8681 35.4018 96.8414 35.5753 96.8014 35.7355H88.1732V33.9337H95.5202L94.4391 34.7545C94.5726 34.1006 94.5259 33.52 94.299 33.0129C94.0855 32.4924 93.7518 32.0853 93.298 31.7917C92.8576 31.4847 92.3371 31.3312 91.7366 31.3312C91.136 31.3312 90.6021 31.4847 90.135 31.7917C89.6679 32.0853 89.3076 32.5124 89.054 33.0729C88.8004 33.6201 88.7003 34.2874 88.7537 35.0748C88.687 35.8089 88.7871 36.4495 89.054 36.9967C89.3343 37.5438 89.7213 37.9709 90.2151 38.2779C90.7223 38.5848 91.2961 38.7383 91.9367 38.7383C92.5907 38.7383 93.1446 38.5915 93.5983 38.2979C94.0654 38.0043 94.4325 37.6239 94.6994 37.1568L96.5411 38.0577C96.3276 38.5648 95.994 39.0253 95.5402 39.439C95.0998 39.8394 94.5659 40.1597 93.9387 40.3999C93.3247 40.6268 92.6508 40.7402 91.9167 40.7402ZM106.612 40.7402C105.505 40.7402 104.53 40.4666 103.69 39.9194C102.862 39.3723 102.282 38.6382 101.948 37.7173L103.69 36.8966C103.983 37.5105 104.384 37.9976 104.891 38.358C105.411 38.7183 105.985 38.8985 106.612 38.8985C107.146 38.8985 107.58 38.7784 107.914 38.5381C108.247 38.2979 108.414 37.9709 108.414 37.5572C108.414 37.2903 108.341 37.0767 108.194 36.9166C108.047 36.7431 107.86 36.6029 107.633 36.4962C107.42 36.3894 107.2 36.3093 106.973 36.2559L105.271 35.7755C104.337 35.5086 103.636 35.1082 103.169 34.5743C102.715 34.0272 102.489 33.3932 102.489 32.6725C102.489 32.0186 102.655 31.4514 102.989 30.9709C103.323 30.4771 103.783 30.0967 104.37 29.8298C104.958 29.5629 105.618 29.4294 106.352 29.4294C107.34 29.4294 108.221 29.6763 108.995 30.1701C109.769 30.6506 110.316 31.3246 110.636 32.1921L108.895 33.0129C108.681 32.4924 108.341 32.0786 107.874 31.7717C107.42 31.4647 106.906 31.3112 106.332 31.3112C105.838 31.3112 105.445 31.4313 105.151 31.6716C104.857 31.8985 104.711 32.1987 104.711 32.5724C104.711 32.826 104.777 33.0395 104.911 33.213C105.044 33.3732 105.218 33.5067 105.431 33.6134C105.645 33.7068 105.865 33.7869 106.092 33.8537L107.854 34.3742C108.748 34.6277 109.435 35.0281 109.916 35.5753C110.396 36.1091 110.636 36.7498 110.636 37.4971C110.636 38.1377 110.463 38.705 110.116 39.1988C109.782 39.6792 109.315 40.0596 108.714 40.3398C108.114 40.6068 107.413 40.7402 106.612 40.7402ZM117.537 40.6201C116.403 40.6201 115.522 40.2998 114.895 39.6592C114.267 39.0186 113.954 38.1177 113.954 36.9566V31.7116H112.052V29.6697H112.352C112.859 29.6697 113.253 29.5229 113.533 29.2292C113.814 28.9356 113.954 28.5352 113.954 28.0281V27.1873H116.216V29.6697H118.678V31.7116H116.216V36.8565C116.216 37.2302 116.276 37.5505 116.396 37.8174C116.516 38.071 116.71 38.2712 116.977 38.418C117.244 38.5515 117.591 38.6182 118.018 38.6182C118.125 38.6182 118.245 38.6115 118.378 38.5982C118.512 38.5848 118.638 38.5715 118.758 38.5581V40.5C118.572 40.5267 118.365 40.5534 118.138 40.5801C117.911 40.6068 117.711 40.6201 117.537 40.6201ZM124.83 40.7402C124.016 40.7402 123.302 40.5601 122.688 40.1997C122.074 39.826 121.593 39.3122 121.246 38.6582C120.913 37.9909 120.746 37.2235 120.746 36.356V29.6697H123.008V36.1559C123.008 36.6497 123.108 37.0834 123.308 37.4571C123.508 37.8308 123.789 38.1244 124.149 38.3379C124.509 38.5381 124.923 38.6382 125.39 38.6382C125.871 38.6382 126.291 38.5315 126.651 38.3179C127.012 38.1044 127.292 37.8041 127.492 37.4171C127.706 37.03 127.813 36.5763 127.813 36.0558V29.6697H130.055V40.5H127.913V38.378L128.153 38.6582C127.899 39.3255 127.479 39.8394 126.892 40.1997C126.304 40.5601 125.617 40.7402 124.83 40.7402ZM137.701 40.7402C136.66 40.7402 135.726 40.4933 134.898 39.9995C134.084 39.4924 133.437 38.8117 132.956 37.9576C132.489 37.1034 132.256 36.1425 132.256 35.0748C132.256 34.0071 132.496 33.0462 132.976 32.1921C133.457 31.3379 134.104 30.6639 134.918 30.1701C135.732 29.6763 136.653 29.4294 137.681 29.4294C138.548 29.4294 139.316 29.6029 139.983 29.9499C140.65 30.2969 141.177 30.7774 141.564 31.3913L141.224 31.9118V25.3455H143.466V40.5H141.324V38.2979L141.584 38.7183C141.211 39.3723 140.677 39.8727 139.983 40.2197C139.289 40.5667 138.528 40.7402 137.701 40.7402ZM137.921 38.6382C138.548 38.6382 139.109 38.4847 139.603 38.1778C140.11 37.8708 140.503 37.4504 140.784 36.9166C141.077 36.3694 141.224 35.7555 141.224 35.0748C141.224 34.3942 141.077 33.7869 140.784 33.2531C140.503 32.7192 140.11 32.2988 139.603 31.9919C139.109 31.6849 138.548 31.5314 137.921 31.5314C137.294 31.5314 136.726 31.6849 136.219 31.9919C135.712 32.2988 135.318 32.7192 135.038 33.2531C134.758 33.7869 134.618 34.3942 134.618 35.0748C134.618 35.7555 134.758 36.3694 135.038 36.9166C135.318 37.4504 135.706 37.8708 136.199 38.1778C136.706 38.4847 137.28 38.6382 137.921 38.6382ZM151.192 40.7402C150.111 40.7402 149.15 40.4933 148.309 39.9995C147.482 39.4924 146.835 38.8117 146.367 37.9576C145.9 37.0901 145.667 36.1225 145.667 35.0548C145.667 33.9604 145.9 32.9928 146.367 32.152C146.848 31.3112 147.489 30.6506 148.289 30.1701C149.09 29.6763 149.998 29.4294 151.012 29.4294C151.826 29.4294 152.553 29.5696 153.194 29.8498C153.835 30.1301 154.375 30.5171 154.816 31.0109C155.256 31.4914 155.59 32.0453 155.816 32.6725C156.057 33.2998 156.177 33.9671 156.177 34.6744C156.177 34.8479 156.17 35.0281 156.157 35.215C156.143 35.4018 156.117 35.5753 156.077 35.7355H147.448V33.9337H154.796L153.714 34.7545C153.848 34.1006 153.801 33.52 153.574 33.0129C153.361 32.4924 153.027 32.0853 152.573 31.7917C152.133 31.4847 151.612 31.3312 151.012 31.3312C150.411 31.3312 149.877 31.4847 149.41 31.7917C148.943 32.0853 148.583 32.5124 148.329 33.0729C148.076 33.6201 147.976 34.2874 148.029 35.0748C147.962 35.8089 148.062 36.4495 148.329 36.9967C148.61 37.5438 148.997 37.9709 149.49 38.2779C149.998 38.5848 150.571 38.7383 151.212 38.7383C151.866 38.7383 152.42 38.5915 152.874 38.2979C153.341 38.0043 153.708 37.6239 153.975 37.1568L155.816 38.0577C155.603 38.5648 155.269 39.0253 154.816 39.439C154.375 39.8394 153.841 40.1597 153.214 40.3999C152.6 40.6268 151.926 40.7402 151.192 40.7402ZM158.385 40.5V29.6697H160.547V31.7917L160.286 31.5114C160.553 30.8308 160.98 30.3169 161.568 29.9699C162.155 29.6096 162.835 29.4294 163.61 29.4294C164.41 29.4294 165.118 29.6029 165.732 29.9499C166.345 30.2969 166.826 30.7774 167.173 31.3913C167.52 32.0052 167.693 32.7126 167.693 33.5133V40.5H165.451V34.1139C165.451 33.5667 165.351 33.1063 165.151 32.7326C164.951 32.3455 164.664 32.0519 164.29 31.8517C163.93 31.6382 163.516 31.5314 163.049 31.5314C162.582 31.5314 162.161 31.6382 161.788 31.8517C161.427 32.0519 161.147 32.3455 160.947 32.7326C160.747 33.1196 160.647 33.5801 160.647 34.1139V40.5H158.385ZM174.799 40.6201C173.665 40.6201 172.784 40.2998 172.156 39.6592C171.529 39.0186 171.216 38.1177 171.216 36.9566V31.7116H169.314V29.6697H169.614C170.121 29.6697 170.515 29.5229 170.795 29.2292C171.075 28.9356 171.216 28.5352 171.216 28.0281V27.1873H173.478V29.6697H175.94V31.7116H173.478V36.8565C173.478 37.2302 173.538 37.5505 173.658 37.8174C173.778 38.071 173.972 38.2712 174.238 38.418C174.505 38.5515 174.852 38.6182 175.279 38.6182C175.386 38.6182 175.506 38.6115 175.64 38.5982C175.773 38.5848 175.9 38.5715 176.02 38.5581V40.5C175.833 40.5267 175.626 40.5534 175.4 40.5801C175.173 40.6068 174.972 40.6201 174.799 40.6201ZM186.952 40.7402C185.911 40.7402 184.957 40.4933 184.089 39.9995C183.235 39.5057 182.555 38.8317 182.047 37.9776C181.54 37.1234 181.287 36.1559 181.287 35.0748C181.287 33.9804 181.54 33.0129 182.047 32.172C182.555 31.3179 183.235 30.6506 184.089 30.1701C184.944 29.6763 185.898 29.4294 186.952 29.4294C188.02 29.4294 188.974 29.6763 189.815 30.1701C190.669 30.6506 191.343 31.3179 191.837 32.172C192.344 33.0129 192.598 33.9804 192.598 35.0748C192.598 36.1692 192.344 37.1435 191.837 37.9976C191.33 38.8518 190.649 39.5257 189.795 40.0195C188.941 40.5 187.993 40.7402 186.952 40.7402ZM186.952 38.6382C187.593 38.6382 188.16 38.4847 188.654 38.1778C189.148 37.8708 189.535 37.4504 189.815 36.9166C190.108 36.3694 190.255 35.7555 190.255 35.0748C190.255 34.3942 190.108 33.7869 189.815 33.2531C189.535 32.7192 189.148 32.2988 188.654 31.9919C188.16 31.6849 187.593 31.5314 186.952 31.5314C186.325 31.5314 185.758 31.6849 185.251 31.9919C184.757 32.2988 184.363 32.7192 184.069 33.2531C183.789 33.7869 183.649 34.3942 183.649 35.0748C183.649 35.7555 183.789 36.3694 184.069 36.9166C184.363 37.4504 184.757 37.8708 185.251 38.1778C185.758 38.4847 186.325 38.6382 186.952 38.6382ZM194.806 44.5038V29.6697H196.968V31.9118L196.708 31.3913C197.108 30.7774 197.642 30.2969 198.309 29.9499C198.977 29.6029 199.737 29.4294 200.592 29.4294C201.619 29.4294 202.54 29.6763 203.354 30.1701C204.182 30.6639 204.829 31.3379 205.296 32.1921C205.777 33.0462 206.017 34.0071 206.017 35.0748C206.017 36.1425 205.777 37.1034 205.296 37.9576C204.829 38.8117 204.188 39.4924 203.374 39.9995C202.56 40.4933 201.633 40.7402 200.592 40.7402C199.751 40.7402 198.983 40.5667 198.289 40.2197C197.609 39.8727 197.082 39.3723 196.708 38.7183L197.068 38.2979V44.5038H194.806ZM200.371 38.6382C201.012 38.6382 201.579 38.4847 202.073 38.1778C202.567 37.8708 202.954 37.4504 203.234 36.9166C203.528 36.3694 203.675 35.7555 203.675 35.0748C203.675 34.3942 203.528 33.7869 203.234 33.2531C202.954 32.7192 202.567 32.2988 202.073 31.9919C201.579 31.6849 201.012 31.5314 200.371 31.5314C199.744 31.5314 199.177 31.6849 198.67 31.9919C198.176 32.2988 197.782 32.7192 197.489 33.2531C197.208 33.7869 197.068 34.3942 197.068 35.0748C197.068 35.7555 197.208 36.3694 197.489 36.9166C197.782 37.4504 198.176 37.8708 198.67 38.1778C199.177 38.4847 199.744 38.6382 200.371 38.6382ZM208.217 44.5038V29.6697H210.379V31.9118L210.119 31.3913C210.519 30.7774 211.053 30.2969 211.721 29.9499C212.388 29.6029 213.149 29.4294 214.003 29.4294C215.03 29.4294 215.951 29.6763 216.765 30.1701C217.593 30.6639 218.24 31.3379 218.707 32.1921C219.188 33.0462 219.428 34.0071 219.428 35.0748C219.428 36.1425 219.188 37.1034 218.707 37.9576C218.24 38.8117 217.6 39.4924 216.785 39.9995C215.971 40.4933 215.044 40.7402 214.003 40.7402C213.162 40.7402 212.395 40.5667 211.701 40.2197C211.02 39.8727 210.493 39.3723 210.119 38.7183L210.479 38.2979V44.5038H208.217ZM213.783 38.6382C214.423 38.6382 214.99 38.4847 215.484 38.1778C215.978 37.8708 216.365 37.4504 216.645 36.9166C216.939 36.3694 217.086 35.7555 217.086 35.0748C217.086 34.3942 216.939 33.7869 216.645 33.2531C216.365 32.7192 215.978 32.2988 215.484 31.9919C214.99 31.6849 214.423 31.5314 213.783 31.5314C213.155 31.5314 212.588 31.6849 212.081 31.9919C211.587 32.2988 211.193 32.7192 210.9 33.2531C210.62 33.7869 210.479 34.3942 210.479 35.0748C210.479 35.7555 210.62 36.3694 210.9 36.9166C211.193 37.4504 211.587 37.8708 212.081 38.1778C212.588 38.4847 213.155 38.6382 213.783 38.6382ZM226.854 40.7402C225.813 40.7402 224.858 40.4933 223.991 39.9995C223.137 39.5057 222.456 38.8317 221.949 37.9776C221.442 37.1234 221.188 36.1559 221.188 35.0748C221.188 33.9804 221.442 33.0129 221.949 32.172C222.456 31.3179 223.137 30.6506 223.991 30.1701C224.845 29.6763 225.799 29.4294 226.854 29.4294C227.921 29.4294 228.875 29.6763 229.716 30.1701C230.57 30.6506 231.244 31.3179 231.738 32.172C232.245 33.0129 232.499 33.9804 232.499 35.0748C232.499 36.1692 232.245 37.1435 231.738 37.9976C231.231 38.8518 230.55 39.5257 229.696 40.0195C228.842 40.5 227.895 40.7402 226.854 40.7402ZM226.854 38.6382C227.494 38.6382 228.061 38.4847 228.555 38.1778C229.049 37.8708 229.436 37.4504 229.716 36.9166C230.01 36.3694 230.157 35.7555 230.157 35.0748C230.157 34.3942 230.01 33.7869 229.716 33.2531C229.436 32.7192 229.049 32.2988 228.555 31.9919C228.061 31.6849 227.494 31.5314 226.854 31.5314C226.226 31.5314 225.659 31.6849 225.152 31.9919C224.658 32.2988 224.264 32.7192 223.971 33.2531C223.69 33.7869 223.55 34.3942 223.55 35.0748C223.55 35.7555 223.69 36.3694 223.971 36.9166C224.264 37.4504 224.658 37.8708 225.152 38.1778C225.659 38.4847 226.226 38.6382 226.854 38.6382ZM234.707 40.5V29.6697H236.869V31.8517L236.669 31.5314C236.91 30.8241 237.297 30.3169 237.83 30.01C238.364 29.6897 239.005 29.5295 239.752 29.5295H240.413V31.5915H239.472C238.725 31.5915 238.117 31.8251 237.65 32.2922C237.196 32.7459 236.97 33.3999 236.97 34.254V40.5H234.707ZM246.84 40.6201C245.706 40.6201 244.825 40.2998 244.198 39.6592C243.571 39.0186 243.257 38.1177 243.257 36.9566V31.7116H241.355V29.6697H241.655C242.163 29.6697 242.556 29.5229 242.837 29.2292C243.117 28.9356 243.257 28.5352 243.257 28.0281V27.1873H245.519V29.6697H247.981V31.7116H245.519V36.8565C245.519 37.2302 245.579 37.5505 245.699 37.8174C245.819 38.071 246.013 38.2712 246.28 38.418C246.547 38.5515 246.894 38.6182 247.321 38.6182C247.428 38.6182 247.548 38.6115 247.681 38.5982C247.815 38.5848 247.941 38.5715 248.062 38.5581V40.5C247.875 40.5267 247.668 40.5534 247.441 40.5801C247.214 40.6068 247.014 40.6201 246.84 40.6201ZM254.133 40.7402C253.319 40.7402 252.605 40.5601 251.991 40.1997C251.377 39.826 250.896 39.3122 250.549 38.6582C250.216 37.9909 250.049 37.2235 250.049 36.356V29.6697H252.311V36.1559C252.311 36.6497 252.411 37.0834 252.611 37.4571C252.812 37.8308 253.092 38.1244 253.452 38.3379C253.813 38.5381 254.226 38.6382 254.693 38.6382C255.174 38.6382 255.594 38.5315 255.955 38.3179C256.315 38.1044 256.595 37.8041 256.795 37.4171C257.009 37.03 257.116 36.5763 257.116 36.0558V29.6697H259.358V40.5H257.216V38.378L257.456 38.6582C257.202 39.3255 256.782 39.8394 256.195 40.1997C255.608 40.5601 254.92 40.7402 254.133 40.7402ZM261.999 40.5V29.6697H264.161V31.7917L263.901 31.5114C264.168 30.8308 264.595 30.3169 265.182 29.9699C265.769 29.6096 266.45 29.4294 267.224 29.4294C268.025 29.4294 268.732 29.6029 269.346 29.9499C269.96 30.2969 270.44 30.7774 270.787 31.3913C271.134 32.0052 271.308 32.7126 271.308 33.5133V40.5H269.066V34.1139C269.066 33.5667 268.966 33.1063 268.766 32.7326C268.565 32.3455 268.278 32.0519 267.905 31.8517C267.544 31.6382 267.131 31.5314 266.664 31.5314C266.196 31.5314 265.776 31.6382 265.402 31.8517C265.042 32.0519 264.762 32.3455 264.562 32.7326C264.361 33.1196 264.261 33.5801 264.261 34.1139V40.5H261.999ZM273.729 40.5V29.6697H275.991V40.5H273.729ZM273.729 28.1882V25.5858H275.991V28.1882H273.729ZM283.321 40.6201C282.186 40.6201 281.305 40.2998 280.678 39.6592C280.051 39.0186 279.737 38.1177 279.737 36.9566V31.7116H277.835V29.6697H278.136C278.643 29.6697 279.036 29.5229 279.317 29.2292C279.597 28.9356 279.737 28.5352 279.737 28.0281V27.1873H281.999V29.6697H284.462V31.7116H281.999V36.8565C281.999 37.2302 282.059 37.5505 282.179 37.8174C282.3 38.071 282.493 38.2712 282.76 38.418C283.027 38.5515 283.374 38.6182 283.801 38.6182C283.908 38.6182 284.028 38.6115 284.161 38.5982C284.295 38.5848 284.422 38.5715 284.542 38.5581V40.5C284.355 40.5267 284.148 40.5534 283.921 40.5801C283.694 40.6068 283.494 40.6201 283.321 40.6201ZM286.749 40.5V29.6697H289.011V40.5H286.749ZM286.749 28.1882V25.5858H289.011V28.1882H286.749ZM296.741 40.7402C295.66 40.7402 294.699 40.4933 293.858 39.9995C293.031 39.4924 292.384 38.8117 291.917 37.9576C291.449 37.0901 291.216 36.1225 291.216 35.0548C291.216 33.9604 291.449 32.9928 291.917 32.152C292.397 31.3112 293.038 30.6506 293.838 30.1701C294.639 29.6763 295.547 29.4294 296.561 29.4294C297.375 29.4294 298.102 29.5696 298.743 29.8498C299.384 30.1301 299.924 30.5171 300.365 31.0109C300.805 31.4914 301.139 32.0453 301.366 32.6725C301.606 33.2998 301.726 33.9671 301.726 34.6744C301.726 34.8479 301.719 35.0281 301.706 35.215C301.693 35.4018 301.666 35.5753 301.626 35.7355H292.998V33.9337H300.345L299.264 34.7545C299.397 34.1006 299.35 33.52 299.123 33.0129C298.91 32.4924 298.576 32.0853 298.122 31.7917C297.682 31.4847 297.162 31.3312 296.561 31.3312C295.96 31.3312 295.427 31.4847 294.959 31.7917C294.492 32.0853 294.132 32.5124 293.878 33.0729C293.625 33.6201 293.525 34.2874 293.578 35.0748C293.511 35.8089 293.612 36.4495 293.878 36.9967C294.159 37.5438 294.546 37.9709 295.04 38.2779C295.547 38.5848 296.121 38.7383 296.761 38.7383C297.415 38.7383 297.969 38.5915 298.423 38.2979C298.89 38.0043 299.257 37.6239 299.524 37.1568L301.366 38.0577C301.152 38.5648 300.818 39.0253 300.365 39.439C299.924 39.8394 299.39 40.1597 298.763 40.3999C298.149 40.6268 297.475 40.7402 296.741 40.7402ZM307.937 40.7402C306.83 40.7402 305.855 40.4666 305.015 39.9194C304.187 39.3723 303.607 38.6382 303.273 37.7173L305.015 36.8966C305.308 37.5105 305.709 37.9976 306.216 38.358C306.736 38.7183 307.31 38.8985 307.937 38.8985C308.471 38.8985 308.905 38.7784 309.239 38.5381C309.572 38.2979 309.739 37.9709 309.739 37.5572C309.739 37.2903 309.666 37.0767 309.519 36.9166C309.372 36.7431 309.185 36.6029 308.958 36.4962C308.745 36.3894 308.525 36.3093 308.298 36.2559L306.596 35.7755C305.662 35.5086 304.961 35.1082 304.494 34.5743C304.04 34.0272 303.814 33.3932 303.814 32.6725C303.814 32.0186 303.98 31.4514 304.314 30.9709C304.648 30.4771 305.108 30.0967 305.695 29.8298C306.283 29.5629 306.943 29.4294 307.677 29.4294C308.665 29.4294 309.546 29.6763 310.32 30.1701C311.094 30.6506 311.641 31.3246 311.961 32.1921L310.22 33.0129C310.006 32.4924 309.666 32.0786 309.199 31.7717C308.745 31.4647 308.231 31.3112 307.657 31.3112C307.163 31.3112 306.77 31.4313 306.476 31.6716C306.182 31.8985 306.036 32.1987 306.036 32.5724C306.036 32.826 306.102 33.0395 306.236 33.213C306.369 33.3732 306.543 33.5067 306.756 33.6134C306.97 33.7068 307.19 33.7869 307.417 33.8537L309.179 34.3742C310.073 34.6277 310.76 35.0281 311.241 35.5753C311.721 36.1091 311.961 36.7498 311.961 37.4971C311.961 38.1377 311.788 38.705 311.441 39.1988C311.107 39.6792 310.64 40.0596 310.039 40.3398C309.439 40.6068 308.738 40.7402 307.937 40.7402Z" fill="white"/>
<g clip-path="url(#clip0_2718_4277)">
<rect x="333" y="8" width="48" height="48" rx="24" fill="white" fill-opacity="0.16"/>
<path d="M370.061 33.0607C370.646 32.4749 370.646 31.5251 370.061 30.9393L360.515 21.3934C359.929 20.8076 358.979 20.8076 358.393 21.3934C357.808 21.9792 357.808 22.9289 358.393 23.5147L366.879 32L358.393 40.4853C357.808 41.0711 357.808 42.0208 358.393 42.6066C358.979 43.1924 359.929 43.1924 360.515 42.6066L370.061 33.0607ZM345 32V33.5H369V32V30.5H345V32Z" fill="white"/>
</g>
<defs>
<linearGradient id="paint0_linear_2718_4277" x1="0" y1="32" x2="389" y2="32" gradientUnits="userSpaceOnUse">
<stop stop-color="#2B476D"/>
<stop offset="1" stop-color="#182434"/>
</linearGradient>
<linearGradient id="paint1_linear_2718_4277" x1="261.067" y1="64" x2="211.085" y2="-39.9728" gradientUnits="userSpaceOnUse">
<stop stop-color="white"/>
<stop offset="1"/>
</linearGradient>
<clipPath id="clip0_2718_4277">
<rect x="333" y="8" width="48" height="48" rx="24" fill="white"/>
</clipPath>
</defs>
</svg>
