<svg width="70" height="70" viewBox="0 0 70 70" fill="none" xmlns="http://www.w3.org/2000/svg">
<g clip-path="url(#clip0_909_4405)">
<rect x="70" y="70" width="70" height="70" rx="35" transform="rotate(180 70 70)" fill="#1B2A3D"/>
<path d="M15.9532 33.4532C15.0989 34.3075 15.0989 35.6925 15.9532 36.5468L29.8744 50.468C30.7286 51.3222 32.1137 51.3222 32.968 50.468C33.8222 49.6137 33.8222 48.2286 32.968 47.3744L20.5936 35L32.968 22.6256C33.8222 21.7714 33.8222 20.3863 32.968 19.532C32.1137 18.6778 30.7286 18.6778 29.8744 19.532L15.9532 33.4532ZM52.5 35V32.8125H17.5V35V37.1875H52.5V35Z" fill="white"/>
</g>
<defs>
<clipPath id="clip0_909_4405">
<rect x="70" y="70" width="70" height="70" rx="35" transform="rotate(180 70 70)" fill="white"/>
</clipPath>
</defs>
</svg>
