<svg width="32" height="32" viewBox="0 0 32 32" fill="none" xmlns="http://www.w3.org/2000/svg">
<path d="M19.239 16.161C18.693 16.9954 18.2069 17.7561 17.6971 18.4993C17.6072 18.6318 17.4285 18.7467 17.271 18.7816C15.1544 19.2538 13.1977 21.1949 13.3389 24.0679C13.4026 25.3507 13.3501 26.6398 13.3501 27.9638C13.0877 27.9776 12.8866 27.9951 12.6841 27.9951C8.89566 27.9976 5.10719 27.9976 1.31871 27.9963C0.340354 27.9963 0.00298999 27.6628 0.00174049 26.696C0.000490997 25.2383 -0.002008 23.7818 0.00298999 22.3241C0.0117365 18.8354 2.82436 16.0086 6.30296 16.0011C10.0914 15.9949 13.8799 15.9936 17.6684 16.0074C18.2194 16.0099 18.7692 16.1123 19.239 16.161Z" fill="url(#paint0_linear_1138_3926)"/>
<path d="M18.6468 6.67903C18.6393 10.3614 15.6417 13.3593 11.9832 13.3455C8.31467 13.3318 5.34462 10.3327 5.34962 6.6503C5.35586 2.93171 8.33591 -0.0149324 12.0757 5.69329e-05C15.7042 0.0137971 18.6543 3.0129 18.6468 6.67903Z" fill="url(#paint1_linear_1138_3926)"/>
<path d="M31.9936 29.6276C31.9849 30.9879 30.984 31.9909 29.6208 31.9934C25.8723 32.0022 22.1251 32.0022 18.3778 31.9934C17.0146 31.9909 16.0113 30.9879 16.0038 29.6289C15.9925 27.7764 16.0013 25.924 16.0013 23.9542C17.6419 24.8086 19.1863 25.6105 20.7294 26.4149C21.5778 26.8558 22.4349 27.2793 23.2659 27.7502C23.7732 28.0362 24.2155 28.0275 24.729 27.7539C26.9106 26.5923 29.1085 25.4606 31.3001 24.3189C31.5001 24.2152 31.7025 24.1178 31.9961 23.9704V24.5687C31.9961 26.255 32.0048 27.9413 31.9936 29.6276Z" fill="url(#paint2_linear_1138_3926)"/>
<path d="M27.9947 21.2861C27.9947 20.9688 27.9984 20.6791 27.9947 20.3905C27.9772 19.0202 26.9938 18.016 25.6394 18.0022C24.5361 17.991 23.4315 17.9897 22.327 18.0035C21.0087 18.0197 20.0204 19.0265 19.9991 20.3543C19.9941 20.6616 19.9991 20.9688 19.9991 21.2899C18.8683 21.4935 17.6276 21.0001 16.6992 22.0631C19.097 23.3122 21.4511 24.5463 23.8189 25.7529C23.9663 25.8279 24.2474 25.7292 24.4286 25.6355C26.4428 24.5987 28.4495 23.5483 30.4574 22.5002C30.7261 22.3591 30.9935 22.2155 31.2983 22.0543C30.3487 21.0001 29.1042 21.5022 27.9947 21.2861ZM25.998 20.8115C25.998 20.9551 25.9855 21.1 25.9767 21.2949H22.0421C22.0208 21.2099 22.0046 21.1699 22.0021 21.1287C21.9646 20.3743 22.3265 19.997 23.0879 19.997C23.7964 19.997 24.5036 19.9958 25.2108 19.997C25.9955 19.9983 26.0042 20.0083 25.998 20.8115Z" fill="url(#paint3_linear_1138_3926)"/>
<defs>
<linearGradient id="paint0_linear_1138_3926" x1="1.73829" y1="20.7857" x2="19.0786" y2="27.3765" gradientUnits="userSpaceOnUse">
<stop stop-color="#C0412C"/>
<stop offset="1" stop-color="#F4C15D"/>
</linearGradient>
<linearGradient id="paint1_linear_1138_3926" x1="6.55104" y1="5.32585" x2="19.5424" y2="8.39469" gradientUnits="userSpaceOnUse">
<stop stop-color="#C0412C"/>
<stop offset="1" stop-color="#F4C15D"/>
</linearGradient>
<linearGradient id="paint2_linear_1138_3926" x1="17.4438" y1="27.165" x2="30.9474" y2="33.532" gradientUnits="userSpaceOnUse">
<stop stop-color="#C0412C"/>
<stop offset="1" stop-color="#F4C15D"/>
</linearGradient>
<linearGradient id="paint3_linear_1138_3926" x1="18.0183" y1="21.1006" x2="30.5926" y2="26.6905" gradientUnits="userSpaceOnUse">
<stop stop-color="#C0412C"/>
<stop offset="1" stop-color="#F4C15D"/>
</linearGradient>
</defs>
</svg>
