<svg width="84" height="84" viewBox="0 0 84 84" fill="none" xmlns="http://www.w3.org/2000/svg">
<path d="M41.5576 0C64.5092 0 83.1152 18.607 83.1152 41.5586C83.115 64.51 64.5091 83.1162 41.5576 83.1162C18.6062 83.1161 0.000260635 64.51 0 41.5586C8.75369e-05 18.6071 18.6061 0.000107309 41.5576 0ZM41.5576 5.56055C21.6765 5.56065 5.55966 21.6775 5.55957 41.5586C5.55983 61.4395 21.6767 77.5565 41.5576 77.5566C43.2128 77.5566 44.8416 77.4419 46.4375 77.2256C44.0235 76.085 41.9687 74.635 40.2373 72.9453C36.3473 69.149 34.324 64.3807 33.3135 59.8926C32.3036 55.407 32.2689 51.0469 32.4707 47.8506C32.5349 46.8342 32.6257 45.9255 32.7178 45.1553C30.217 44.2687 28.1318 43.0687 26.4121 41.6377C23.5573 39.262 21.8626 36.39 20.876 33.6768C19.8959 30.9814 19.6028 28.4148 19.5469 26.5449C19.5187 25.6033 19.5497 24.8185 19.5898 24.2568C19.6099 23.9757 19.6328 23.7486 19.6514 23.584C19.6607 23.5016 19.6691 23.4342 19.6758 23.3838C19.679 23.359 19.6812 23.338 19.6836 23.3213C19.6848 23.3129 19.6866 23.3051 19.6875 23.2988C19.688 23.2957 19.6881 23.2926 19.6885 23.29C19.6887 23.2887 19.6894 23.2868 19.6895 23.2861C19.695 23.2853 19.818 23.3022 22.6582 23.7266L25.6289 24.168L25.6182 24.2568C25.6082 24.3455 25.593 24.4915 25.5791 24.6855C25.5513 25.0748 25.5276 25.6543 25.5488 26.3652C25.5918 27.8017 25.8177 29.6975 26.5186 31.625C27.213 33.5347 28.3615 35.4474 30.2529 37.0215C32.1376 38.5897 34.9183 39.9548 39.0898 40.5322L39.498 40.5898C48.0082 41.8595 53.2854 45.5794 56.4395 49.1826C58.0206 50.9889 59.035 52.7279 59.6611 54.0391C59.9744 54.6951 60.1928 55.248 60.3369 55.6543C60.4089 55.8574 60.4627 56.0247 60.501 56.1504C60.5201 56.2132 60.5352 56.266 60.5469 56.3076L60.5674 56.3828C60.5682 56.3859 60.5696 56.3889 60.5703 56.3916C60.5707 56.393 60.5711 56.3949 60.5713 56.3955C60.5712 56.3975 60.5295 56.4106 57.666 57.1533C54.8361 57.8874 54.7622 57.908 54.7607 57.9102L54.7637 57.9189C54.7646 57.9223 54.7651 57.9256 54.7656 57.9277C54.7663 57.9303 54.7664 57.9321 54.7666 57.9326C54.766 57.9305 54.7632 57.9184 54.7568 57.8975C54.7438 57.8547 54.7179 57.7745 54.6777 57.6611C54.5971 57.4337 54.458 57.0759 54.2432 56.626C53.8127 55.7246 53.0847 54.4661 51.9219 53.1377C49.6736 50.5692 45.6665 47.5813 38.6055 46.5293C38.5525 47.0431 38.5018 47.613 38.4629 48.2295C38.2828 51.0822 38.3288 54.8288 39.1719 58.5732C40.0144 62.3152 41.6158 65.9014 44.4307 68.6484C47.1339 71.2865 51.1825 73.3726 57.3857 73.8955C69.3307 68.0378 77.5555 55.7599 77.5557 41.5586C77.5556 21.6775 61.4388 5.56055 41.5576 5.56055ZM41.8291 12.6318C46.2447 12.632 50.1036 15.0019 52.209 18.5264L52.4072 18.8711L52.4355 18.9219L52.4619 18.9736L52.5303 19.1211C52.8482 19.8587 52.7869 20.5777 52.624 21.0869C52.4673 21.5766 52.1297 22.1496 51.5195 22.5605L51.3936 22.6406L51.2803 22.708L43.5898 26.3818L41.1934 21.3652L45.4873 19.3135C44.443 18.6051 43.1838 18.1925 41.8291 18.1924C37.3417 18.1924 33.8444 22.7232 35.9258 27.6436L36.0303 27.8779V27.8789L36.1357 28.0957C36.6504 29.0956 37.4803 29.9177 38.4951 30.4307L38.7158 30.5361H38.7168L38.9277 30.6289C43.3539 32.4838 47.4411 29.8288 48.2188 26.0322L53.665 27.1465C52.1899 34.3513 44.3206 39.1579 36.4346 35.6055C34.0327 34.5248 32.0788 32.6031 30.9756 30.1924C26.9497 21.4037 33.3269 12.6318 41.8291 12.6318Z" fill="white"/>
</svg>
