<svg width="40" height="40" viewBox="0 0 40 40" fill="none" xmlns="http://www.w3.org/2000/svg">
<g clip-path="url(#clip0_2865_2188)">
<path d="M34.1426 5.85833C30.3648 2.08056 25.3426 0 20 0C14.6574 0 9.63611 2.08056 5.85833 5.85833C2.08056 9.63519 0 14.6583 0 20C0 25.3417 2.08056 30.3648 5.85833 34.1426C6.69074 34.975 7.58333 35.7241 8.52685 36.387V36.4037L8.8787 36.6296C11.3389 38.2824 14.1259 39.3593 17.0713 39.787C17.2574 39.8139 17.4444 39.8389 17.6315 39.8611C17.9407 39.8972 18.2528 39.9269 18.5648 39.9491C18.6843 39.9574 18.8028 39.9648 18.9222 39.9713C19.0324 39.9769 19.1417 39.9824 19.2509 39.9861C19.3435 39.9898 19.4352 39.9926 19.5269 39.9944C19.5991 39.9963 19.6704 39.9972 19.7426 39.9981C19.8287 39.9981 19.9139 40 20 40C20.0861 40 20.1713 39.9991 20.2574 39.9981C20.3296 39.9972 20.4009 39.9963 20.4731 39.9944C20.5648 39.9926 20.6565 39.9898 20.7491 39.9861C20.8583 39.9824 20.9676 39.9769 21.0778 39.9713C21.1963 39.9648 21.3157 39.9574 21.4352 39.9491C21.5389 39.9417 21.6435 39.9333 21.7472 39.9241C21.8509 39.9157 21.9546 39.9056 22.0583 39.8954C22.162 39.8843 22.2657 39.8731 22.3685 39.8611C22.4676 39.8491 22.5657 39.837 22.6648 39.8241C25.7213 39.4204 28.6148 38.3213 31.1574 36.6056L31.4741 36.4028V36.387C32.4176 35.7241 33.3102 34.975 34.1426 34.1426C37.9204 30.3648 40 25.3426 40 20C40 14.6574 37.9204 9.63519 34.1426 5.85833ZM31.4741 32.5843V29.6481C31.4741 25.6407 28.213 22.3796 24.2056 22.3796H15.7944C11.787 22.3796 8.52685 25.6407 8.52685 29.6481V32.5843C5.11018 29.4657 2.96296 24.9787 2.96296 20C2.96296 10.6056 10.6065 2.96296 20 2.96296C29.3935 2.96296 37.037 10.6056 37.037 20C37.037 24.9787 34.8898 29.4657 31.4741 32.5843ZM21.9537 36.9259C21.862 36.9361 21.7713 36.9454 21.6806 36.9546C21.5935 36.963 21.5065 36.9713 21.4194 36.9778C21.4074 36.9796 21.3963 36.9806 21.3852 36.9806C21.2157 36.9954 21.0454 37.0065 20.875 37.0148C20.8 37.0185 20.7241 37.0222 20.6491 37.0241C20.5981 37.0268 20.5472 37.0287 20.4963 37.0296C20.4611 37.0306 20.4269 37.0315 20.3926 37.0324C20.3352 37.0343 20.2769 37.0352 20.2194 37.0352C20.1463 37.0352 20.0731 37.037 20 37.037C19.9269 37.037 19.8537 37.0361 19.7806 37.0352C19.7231 37.0352 19.6648 37.0343 19.6074 37.0324C19.5731 37.0315 19.5389 37.0306 19.5037 37.0296C19.4528 37.0287 19.4019 37.0268 19.3509 37.0241C19.2759 37.0222 19.2 37.0185 19.125 37.0148C18.9546 37.0065 18.7843 36.9954 18.6148 36.9806C18.6037 36.9806 18.5917 36.9796 18.5806 36.9778C18.4935 36.9713 18.4065 36.963 18.3194 36.9546C18.2287 36.9454 18.138 36.9361 18.0463 36.9259C18.0463 36.9259 18.0435 36.925 18.0417 36.925C17.95 36.9148 17.8574 36.9028 17.7648 36.8907C17.6602 36.8778 17.5556 36.863 17.4509 36.8472C17.3898 36.838 17.3296 36.8278 17.2694 36.8176C17.1741 36.8037 17.0796 36.787 16.9852 36.7694C16.9185 36.7583 16.8528 36.7463 16.7861 36.7324C16.7824 36.7324 16.7778 36.7324 16.7741 36.7306C16.7213 36.7204 16.6676 36.7102 16.6148 36.6991C16.5741 36.6917 16.5324 36.6833 16.4917 36.6741C16.4491 36.6657 16.4056 36.6565 16.363 36.6463C16.225 36.6176 16.088 36.5852 15.9519 36.5509C15.8833 36.5343 15.8148 36.5176 15.7472 36.5C15.6787 36.4833 15.6111 36.4657 15.5435 36.4463C14.1083 36.0565 12.7481 35.4843 11.4898 34.7556V29.6481C11.4898 27.2741 13.4204 25.3426 15.7944 25.3426H24.2056C26.5796 25.3426 28.5111 27.2741 28.5111 29.6481V34.7556C27.3435 35.4315 26.0889 35.9722 24.7685 36.3583C24.6648 36.3889 24.5611 36.4185 24.4565 36.4463C24.3889 36.4657 24.3204 36.4833 24.2528 36.5C24.1852 36.5176 24.1167 36.5343 24.0481 36.5509C23.9111 36.5852 23.7741 36.6176 23.637 36.6463C23.5944 36.6565 23.5509 36.6657 23.5083 36.6741C23.4667 36.6833 23.4259 36.6917 23.3852 36.6991C23.3324 36.7102 23.2787 36.7204 23.2259 36.7306C23.2213 36.7324 23.2176 36.7324 23.2139 36.7324C23.1472 36.7463 23.0815 36.7583 23.0148 36.7694C22.9194 36.787 22.825 36.8037 22.7306 36.8176C22.6704 36.8278 22.6102 36.838 22.5491 36.8472C22.4444 36.863 22.3398 36.8778 22.2352 36.8907C22.1426 36.9028 22.05 36.9148 21.9583 36.925C21.9565 36.925 21.9546 36.9259 21.9537 36.9259Z" fill="url(#paint0_linear_2865_2188)"/>
<path d="M20 7.15234C16.6908 7.15234 13.9982 9.84494 13.9982 13.1551C13.9982 16.4653 16.6908 19.1579 20 19.1579C23.3093 19.1579 26.0028 16.4653 26.0028 13.1551C26.0028 9.84494 23.3102 7.15234 20 7.15234ZM20 16.1949C18.3241 16.1949 16.9611 14.831 16.9611 13.1551C16.9611 11.4792 18.3241 10.1153 20 10.1153C21.6759 10.1153 23.0398 11.4792 23.0398 13.1551C23.0398 14.831 21.6769 16.1949 20 16.1949Z" fill="url(#paint1_linear_2865_2188)"/>
</g>
<defs>
<linearGradient id="paint0_linear_2865_2188" x1="3.6141" y1="15.9629" x2="42.679" y2="25.2245" gradientUnits="userSpaceOnUse">
<stop stop-color="#C0412C"/>
<stop offset="1" stop-color="#FFA15D"/>
</linearGradient>
<linearGradient id="paint1_linear_2865_2188" x1="15.0828" y1="11.9434" x2="26.8069" y2="14.7228" gradientUnits="userSpaceOnUse">
<stop stop-color="#C0412C"/>
<stop offset="1" stop-color="#FFA15D"/>
</linearGradient>
<clipPath id="clip0_2865_2188">
<rect width="40" height="40" fill="white"/>
</clipPath>
</defs>
</svg>
