<svg width="38" height="35" viewBox="0 0 38 35" fill="none" xmlns="http://www.w3.org/2000/svg">
<g clip-path="url(#clip0_2865_3327)">
<path d="M30.0833 6.10672H26.3803V4.37C26.3803 1.96036 24.4199 0 22.0103 0H15.9907C13.581 0 11.6207 1.96036 11.6207 4.37V6.10672H7.91667C3.55161 6.10672 0 9.65833 0 14.0234V26.8672C0 31.2322 3.55161 34.7839 7.91667 34.7839H30.0833C34.4484 34.7839 38 31.2322 38 26.8672V14.0234C38 9.65833 34.4484 6.10672 30.0833 6.10672ZM14.7873 4.37099C14.7873 3.70797 15.3267 3.16766 15.9907 3.16766H22.0103C22.6733 3.16766 23.2136 3.70698 23.2136 4.37099V6.10771H14.7873V4.37099ZM3.16667 26.8672V14.0234C3.16667 11.404 5.29724 9.27339 7.91667 9.27339H11.6207V30.4139C11.6207 30.8315 11.681 31.2342 11.7909 31.6172H7.91766C5.29823 31.6172 3.16766 29.4866 3.16766 26.8672H3.16667ZM15.9897 31.6172C15.3267 31.6172 14.7864 31.0779 14.7864 30.4139V9.27339H23.2127V30.4139C23.2127 31.0769 22.6733 31.6172 22.0093 31.6172H15.9897ZM34.8333 26.8672C34.8333 29.4866 32.7028 31.6172 30.0833 31.6172H26.2101C26.3199 31.2352 26.3803 30.8315 26.3803 30.4139V9.27339H30.0833C32.7028 9.27339 34.8333 11.404 34.8333 14.0234V26.8672Z" fill="url(#paint0_linear_2865_3327)"/>
</g>
<defs>
<linearGradient id="paint0_linear_2865_3327" x1="1.60807" y1="-6.49708e-07" x2="36.3919" y2="34.7839" gradientUnits="userSpaceOnUse">
<stop stop-color="#59A7FF"/>
<stop offset="1" stop-color="#356499"/>
</linearGradient>
<clipPath id="clip0_2865_3327">
<rect width="38" height="34.7829" fill="white"/>
</clipPath>
</defs>
</svg>
