<svg width="253" height="64" viewBox="0 0 253 64" fill="none" xmlns="http://www.w3.org/2000/svg">
<rect width="253" height="64" rx="32" fill="url(#paint0_linear_2718_559)" fill-opacity="0.5"/>
<rect x="0.5" y="0.5" width="252" height="63" rx="31.5" stroke="url(#paint1_linear_2718_559)" stroke-opacity="0.16"/>
<path d="M28.6253 40.5V27.7H24.6653V25.6H34.8653V27.7H30.9653V40.5H28.6253ZM38.4584 40.74C37.7251 40.74 37.0784 40.6133 36.5184 40.36C35.9718 40.0933 35.5451 39.7333 35.2384 39.28C34.9318 38.8133 34.7784 38.2667 34.7784 37.64C34.7784 37.0533 34.9051 36.5267 35.1584 36.06C35.4251 35.5933 35.8318 35.2 36.3784 34.88C36.9251 34.56 37.6118 34.3333 38.4384 34.2L42.1984 33.58V35.36L38.8784 35.94C38.2784 36.0467 37.8384 36.24 37.5584 36.52C37.2784 36.7867 37.1384 37.1333 37.1384 37.56C37.1384 37.9733 37.2918 38.3133 37.5984 38.58C37.9184 38.8333 38.3251 38.96 38.8184 38.96C39.4318 38.96 39.9651 38.8267 40.4184 38.56C40.8851 38.2933 41.2451 37.94 41.4984 37.5C41.7518 37.0467 41.8784 36.5467 41.8784 36V33.22C41.8784 32.6867 41.6784 32.2533 41.2784 31.92C40.8918 31.5733 40.3718 31.4 39.7184 31.4C39.1184 31.4 38.5918 31.56 38.1384 31.88C37.6984 32.1867 37.3718 32.5867 37.1584 33.08L35.2784 32.14C35.4784 31.6067 35.8051 31.14 36.2584 30.74C36.7118 30.3267 37.2384 30.0067 37.8384 29.78C38.4518 29.5533 39.0984 29.44 39.7784 29.44C40.6318 29.44 41.3851 29.6 42.0384 29.92C42.7051 30.24 43.2184 30.6867 43.5784 31.26C43.9518 31.82 44.1384 32.4733 44.1384 33.22V40.5H41.9784V38.54L42.4384 38.6C42.1851 39.04 41.8584 39.42 41.4584 39.74C41.0718 40.06 40.6251 40.3067 40.1184 40.48C39.6251 40.6533 39.0718 40.74 38.4584 40.74ZM46.7809 40.5V25.36H49.0409V40.5H46.7809ZM51.6833 40.5V25.36H53.9433V35.5L53.0633 35.28L58.4833 29.68H61.3033L57.2233 34.02L61.4833 40.5H58.8833L55.0833 34.76L56.4233 34.58L53.2233 37.98L53.9433 36.48V40.5H51.6833ZM71.207 40.62C70.0737 40.62 69.1937 40.3 68.567 39.66C67.9404 39.02 67.627 38.12 67.627 36.96V31.72H65.727V29.68H66.027C66.5337 29.68 66.927 29.5333 67.207 29.24C67.487 28.9467 67.627 28.5467 67.627 28.04V27.2H69.887V29.68H72.347V31.72H69.887V36.86C69.887 37.2333 69.947 37.5533 70.067 37.82C70.187 38.0733 70.3804 38.2733 70.647 38.42C70.9137 38.5533 71.2604 38.62 71.687 38.62C71.7937 38.62 71.9137 38.6133 72.047 38.6C72.1804 38.5867 72.307 38.5733 72.427 38.56V40.5C72.2404 40.5267 72.0337 40.5533 71.807 40.58C71.5804 40.6067 71.3804 40.62 71.207 40.62ZM79.6572 40.74C78.6172 40.74 77.6639 40.4933 76.7972 40C75.9439 39.5067 75.2639 38.8333 74.7572 37.98C74.2505 37.1267 73.9972 36.16 73.9972 35.08C73.9972 33.9867 74.2505 33.02 74.7572 32.18C75.2639 31.3267 75.9439 30.66 76.7972 30.18C77.6505 29.6867 78.6039 29.44 79.6572 29.44C80.7239 29.44 81.6772 29.6867 82.5172 30.18C83.3705 30.66 84.0439 31.3267 84.5372 32.18C85.0439 33.02 85.2972 33.9867 85.2972 35.08C85.2972 36.1733 85.0439 37.1467 84.5372 38C84.0305 38.8533 83.3505 39.5267 82.4972 40.02C81.6439 40.5 80.6972 40.74 79.6572 40.74ZM79.6572 38.64C80.2972 38.64 80.8639 38.4867 81.3572 38.18C81.8505 37.8733 82.2372 37.4533 82.5172 36.92C82.8105 36.3733 82.9572 35.76 82.9572 35.08C82.9572 34.4 82.8105 33.7933 82.5172 33.26C82.2372 32.7267 81.8505 32.3067 81.3572 32C80.8639 31.6933 80.2972 31.54 79.6572 31.54C79.0305 31.54 78.4639 31.6933 77.9572 32C77.4639 32.3067 77.0705 32.7267 76.7772 33.26C76.4972 33.7933 76.3572 34.4 76.3572 35.08C76.3572 35.76 76.4972 36.3733 76.7772 36.92C77.0705 37.4533 77.4639 37.8733 77.9572 38.18C78.4639 38.4867 79.0305 38.64 79.6572 38.64ZM96.2197 40.74C95.1797 40.74 94.2264 40.4933 93.3597 40C92.5064 39.5067 91.8264 38.8333 91.3197 37.98C90.813 37.1267 90.5597 36.16 90.5597 35.08C90.5597 33.9867 90.813 33.02 91.3197 32.18C91.8264 31.3267 92.5064 30.66 93.3597 30.18C94.213 29.6867 95.1664 29.44 96.2197 29.44C97.2864 29.44 98.2397 29.6867 99.0797 30.18C99.933 30.66 100.606 31.3267 101.1 32.18C101.606 33.02 101.86 33.9867 101.86 35.08C101.86 36.1733 101.606 37.1467 101.1 38C100.593 38.8533 99.913 39.5267 99.0597 40.02C98.2064 40.5 97.2597 40.74 96.2197 40.74ZM96.2197 38.64C96.8597 38.64 97.4264 38.4867 97.9197 38.18C98.413 37.8733 98.7997 37.4533 99.0797 36.92C99.373 36.3733 99.5197 35.76 99.5197 35.08C99.5197 34.4 99.373 33.7933 99.0797 33.26C98.7997 32.7267 98.413 32.3067 97.9197 32C97.4264 31.6933 96.8597 31.54 96.2197 31.54C95.593 31.54 95.0264 31.6933 94.5197 32C94.0264 32.3067 93.633 32.7267 93.3397 33.26C93.0597 33.7933 92.9197 34.4 92.9197 35.08C92.9197 35.76 93.0597 36.3733 93.3397 36.92C93.633 37.4533 94.0264 37.8733 94.5197 38.18C95.0264 38.4867 95.593 38.64 96.2197 38.64ZM107.926 40.74C107.113 40.74 106.399 40.56 105.786 40.2C105.173 39.8267 104.693 39.3133 104.346 38.66C104.013 37.9933 103.846 37.2267 103.846 36.36V29.68H106.106V36.16C106.106 36.6533 106.206 37.0867 106.406 37.46C106.606 37.8333 106.886 38.1267 107.246 38.34C107.606 38.54 108.019 38.64 108.486 38.64C108.966 38.64 109.386 38.5333 109.746 38.32C110.106 38.1067 110.386 37.8067 110.586 37.42C110.799 37.0333 110.906 36.58 110.906 36.06V29.68H113.146V40.5H111.006V38.38L111.246 38.66C110.993 39.3267 110.573 39.84 109.986 40.2C109.399 40.56 108.713 40.74 107.926 40.74ZM115.785 40.5V29.68H117.945V31.86L117.745 31.54C117.985 30.8333 118.372 30.3267 118.905 30.02C119.438 29.7 120.078 29.54 120.825 29.54H121.485V31.6H120.545C119.798 31.6 119.192 31.8333 118.725 32.3C118.272 32.7533 118.045 33.4067 118.045 34.26V40.5H115.785ZM129.387 40.5V27.7H125.427V25.6H135.627V27.7H131.727V40.5H129.387ZM140.845 40.74C139.765 40.74 138.805 40.4933 137.965 40C137.139 39.4933 136.492 38.8133 136.025 37.96C135.559 37.0933 135.325 36.1267 135.325 35.06C135.325 33.9667 135.559 33 136.025 32.16C136.505 31.32 137.145 30.66 137.945 30.18C138.745 29.6867 139.652 29.44 140.665 29.44C141.479 29.44 142.205 29.58 142.845 29.86C143.485 30.14 144.025 30.5267 144.465 31.02C144.905 31.5 145.239 32.0533 145.465 32.68C145.705 33.3067 145.825 33.9733 145.825 34.68C145.825 34.8533 145.819 35.0333 145.805 35.22C145.792 35.4067 145.765 35.58 145.725 35.74H137.105V33.94H144.445L143.365 34.76C143.499 34.1067 143.452 33.5267 143.225 33.02C143.012 32.5 142.679 32.0933 142.225 31.8C141.785 31.4933 141.265 31.34 140.665 31.34C140.065 31.34 139.532 31.4933 139.065 31.8C138.599 32.0933 138.239 32.52 137.985 33.08C137.732 33.6267 137.632 34.2933 137.685 35.08C137.619 35.8133 137.719 36.4533 137.985 37C138.265 37.5467 138.652 37.9733 139.145 38.28C139.652 38.5867 140.225 38.74 140.865 38.74C141.519 38.74 142.072 38.5933 142.525 38.3C142.992 38.0067 143.359 37.6267 143.625 37.16L145.465 38.06C145.252 38.5667 144.919 39.0267 144.465 39.44C144.025 39.84 143.492 40.16 142.865 40.4C142.252 40.6267 141.579 40.74 140.845 40.74ZM151.173 40.74C150.44 40.74 149.793 40.6133 149.233 40.36C148.687 40.0933 148.26 39.7333 147.953 39.28C147.647 38.8133 147.493 38.2667 147.493 37.64C147.493 37.0533 147.62 36.5267 147.873 36.06C148.14 35.5933 148.547 35.2 149.093 34.88C149.64 34.56 150.327 34.3333 151.153 34.2L154.913 33.58V35.36L151.593 35.94C150.993 36.0467 150.553 36.24 150.273 36.52C149.993 36.7867 149.853 37.1333 149.853 37.56C149.853 37.9733 150.007 38.3133 150.313 38.58C150.633 38.8333 151.04 38.96 151.533 38.96C152.147 38.96 152.68 38.8267 153.133 38.56C153.6 38.2933 153.96 37.94 154.213 37.5C154.467 37.0467 154.593 36.5467 154.593 36V33.22C154.593 32.6867 154.393 32.2533 153.993 31.92C153.607 31.5733 153.087 31.4 152.433 31.4C151.833 31.4 151.307 31.56 150.853 31.88C150.413 32.1867 150.087 32.5867 149.873 33.08L147.993 32.14C148.193 31.6067 148.52 31.14 148.973 30.74C149.427 30.3267 149.953 30.0067 150.553 29.78C151.167 29.5533 151.813 29.44 152.493 29.44C153.347 29.44 154.1 29.6 154.753 29.92C155.42 30.24 155.933 30.6867 156.293 31.26C156.667 31.82 156.853 32.4733 156.853 33.22V40.5H154.693V38.54L155.153 38.6C154.9 39.04 154.573 39.42 154.173 39.74C153.787 40.06 153.34 40.3067 152.833 40.48C152.34 40.6533 151.787 40.74 151.173 40.74ZM159.496 40.5V29.68H161.656V32.02L161.376 31.66C161.602 30.9267 162.016 30.3733 162.616 30C163.216 29.6267 163.902 29.44 164.676 29.44C165.542 29.44 166.309 29.6733 166.976 30.14C167.656 30.5933 168.109 31.2 168.336 31.96L167.696 32.02C168.016 31.1533 168.502 30.5067 169.156 30.08C169.822 29.6533 170.582 29.44 171.436 29.44C172.182 29.44 172.856 29.6133 173.456 29.96C174.069 30.3067 174.556 30.7867 174.916 31.4C175.276 32.0133 175.456 32.7133 175.456 33.5V40.5H173.196V34.12C173.196 33.5733 173.096 33.1133 172.896 32.74C172.709 32.3533 172.442 32.06 172.096 31.86C171.762 31.6467 171.369 31.54 170.916 31.54C170.462 31.54 170.062 31.6467 169.716 31.86C169.369 32.06 169.096 32.3533 168.896 32.74C168.696 33.1267 168.596 33.5867 168.596 34.12V40.5H166.356V34.12C166.356 33.5733 166.256 33.1133 166.056 32.74C165.869 32.3533 165.602 32.06 165.256 31.86C164.922 31.6467 164.522 31.54 164.056 31.54C163.602 31.54 163.202 31.6467 162.856 31.86C162.509 32.06 162.236 32.3533 162.036 32.74C161.849 33.1267 161.756 33.5867 161.756 34.12V40.5H159.496Z" fill="white"/>
<g clip-path="url(#clip0_2718_559)">
<rect x="197" y="8" width="48" height="48" rx="24" fill="white" fill-opacity="0.16"/>
<path d="M234.061 33.0607C234.646 32.4749 234.646 31.5251 234.061 30.9393L224.515 21.3934C223.929 20.8076 222.979 20.8076 222.393 21.3934C221.808 21.9792 221.808 22.9289 222.393 23.5147L230.879 32L222.393 40.4853C221.808 41.0711 221.808 42.0208 222.393 42.6066C222.979 43.1924 223.929 43.1924 224.515 42.6066L234.061 33.0607ZM209 32V33.5H233V32V30.5H209V32Z" fill="white"/>
</g>
<defs>
<linearGradient id="paint0_linear_2718_559" x1="0" y1="32" x2="253" y2="32" gradientUnits="userSpaceOnUse">
<stop stop-color="#777777"/>
<stop offset="1" stop-color="#3B3B3B"/>
</linearGradient>
<linearGradient id="paint1_linear_2718_559" x1="169.794" y1="64" x2="108.611" y2="-18.7775" gradientUnits="userSpaceOnUse">
<stop stop-color="white"/>
<stop offset="1"/>
</linearGradient>
<clipPath id="clip0_2718_559">
<rect x="197" y="8" width="48" height="48" rx="24" fill="white"/>
</clipPath>
</defs>
</svg>
