<svg width="273" height="64" viewBox="0 0 273 64" fill="none" xmlns="http://www.w3.org/2000/svg">
<rect width="273" height="64" rx="32" fill="url(#paint0_linear_2718_444)"/>
<rect x="0.5" y="0.5" width="272" height="63" rx="31.5" stroke="url(#paint1_linear_2718_444)" stroke-opacity="0.16"/>
<path d="M28.1859 40.5V27.7H24.2259V25.6H34.4259V27.7H30.5259V40.5H28.1859ZM34.779 40.5V29.68H36.939V31.86L36.739 31.54C36.979 30.8333 37.3657 30.3267 37.899 30.02C38.4323 29.7 39.0723 29.54 39.819 29.54H40.479V31.6H39.539C38.7923 31.6 38.1857 31.8333 37.719 32.3C37.2657 32.7533 37.039 33.4067 37.039 34.26V40.5H34.779ZM42.9851 44.9C42.7184 44.9 42.4517 44.8733 42.1851 44.82C41.9317 44.78 41.6984 44.7133 41.4851 44.62V42.68C41.6451 42.72 41.8384 42.7533 42.0651 42.78C42.2917 42.82 42.5117 42.84 42.7251 42.84C43.3517 42.84 43.8117 42.7 44.1051 42.42C44.4117 42.1533 44.6851 41.74 44.9251 41.18L45.6451 39.54L45.6051 41.44L40.9251 29.68H43.3451L46.8051 38.7H45.9851L49.4251 29.68H51.8651L47.0851 41.68C46.8317 42.32 46.5117 42.88 46.1251 43.36C45.7517 43.8533 45.3051 44.2333 44.7851 44.5C44.2784 44.7667 43.6784 44.9 42.9851 44.9ZM57.1279 40.5V25.6H66.9479V27.7H59.4879V31.98H66.5479V34.08H59.4879V38.4H66.9479V40.5H57.1279ZM68.9196 40.5V29.68H71.0796V31.8L70.8196 31.52C71.0863 30.84 71.5129 30.3267 72.0996 29.98C72.6863 29.62 73.3663 29.44 74.1396 29.44C74.9396 29.44 75.6463 29.6133 76.2596 29.96C76.8729 30.3067 77.3529 30.7867 77.6996 31.4C78.0463 32.0133 78.2196 32.72 78.2196 33.52V40.5H75.9796V34.12C75.9796 33.5733 75.8796 33.1133 75.6796 32.74C75.4796 32.3533 75.1929 32.06 74.8196 31.86C74.4596 31.6467 74.0463 31.54 73.5796 31.54C73.1129 31.54 72.6929 31.6467 72.3196 31.86C71.9596 32.06 71.6796 32.3533 71.4796 32.74C71.2796 33.1267 71.1796 33.5867 71.1796 34.12V40.5H68.9196ZM83.8784 40.74C83.145 40.74 82.4984 40.6133 81.9384 40.36C81.3917 40.0933 80.965 39.7333 80.6584 39.28C80.3517 38.8133 80.1984 38.2667 80.1984 37.64C80.1984 37.0533 80.325 36.5267 80.5784 36.06C80.845 35.5933 81.2517 35.2 81.7984 34.88C82.345 34.56 83.0317 34.3333 83.8584 34.2L87.6184 33.58V35.36L84.2984 35.94C83.6984 36.0467 83.2584 36.24 82.9784 36.52C82.6984 36.7867 82.5584 37.1333 82.5584 37.56C82.5584 37.9733 82.7117 38.3133 83.0184 38.58C83.3384 38.8333 83.745 38.96 84.2384 38.96C84.8517 38.96 85.385 38.8267 85.8384 38.56C86.305 38.2933 86.665 37.94 86.9184 37.5C87.1717 37.0467 87.2984 36.5467 87.2984 36V33.22C87.2984 32.6867 87.0984 32.2533 86.6984 31.92C86.3117 31.5733 85.7917 31.4 85.1384 31.4C84.5384 31.4 84.0117 31.56 83.5584 31.88C83.1184 32.1867 82.7917 32.5867 82.5784 33.08L80.6984 32.14C80.8984 31.6067 81.225 31.14 81.6784 30.74C82.1317 30.3267 82.6584 30.0067 83.2584 29.78C83.8717 29.5533 84.5184 29.44 85.1984 29.44C86.0517 29.44 86.805 29.6 87.4584 29.92C88.125 30.24 88.6384 30.6867 88.9984 31.26C89.3717 31.82 89.5584 32.4733 89.5584 33.22V40.5H87.3984V38.54L87.8584 38.6C87.605 39.04 87.2784 39.42 86.8784 39.74C86.4917 40.06 86.045 40.3067 85.5384 40.48C85.045 40.6533 84.4917 40.74 83.8784 40.74ZM97.9809 40.74C97.1409 40.74 96.3742 40.5667 95.6809 40.22C95.0009 39.8733 94.4742 39.3733 94.1009 38.72L94.3609 38.3V40.5H92.2009V25.36H94.4609V31.92L94.1009 31.4C94.5009 30.7867 95.0342 30.3067 95.7009 29.96C96.3675 29.6133 97.1275 29.44 97.9809 29.44C99.0075 29.44 99.9275 29.6867 100.741 30.18C101.568 30.6733 102.214 31.3467 102.681 32.2C103.161 33.0533 103.401 34.0133 103.401 35.08C103.401 36.1467 103.161 37.1067 102.681 37.96C102.214 38.8133 101.574 39.4933 100.761 40C99.9475 40.4933 99.0209 40.74 97.9809 40.74ZM97.7609 38.64C98.4009 38.64 98.9675 38.4867 99.4609 38.18C99.9542 37.8733 100.341 37.4533 100.621 36.92C100.914 36.3733 101.061 35.76 101.061 35.08C101.061 34.4 100.914 33.7933 100.621 33.26C100.341 32.7267 99.9542 32.3067 99.4609 32C98.9675 31.6933 98.4009 31.54 97.7609 31.54C97.1342 31.54 96.5675 31.6933 96.0609 32C95.5675 32.3067 95.1742 32.7267 94.8809 33.26C94.6009 33.7933 94.4609 34.4 94.4609 35.08C94.4609 35.76 94.6009 36.3733 94.8809 36.92C95.1742 37.4533 95.5675 37.8733 96.0609 38.18C96.5675 38.4867 97.1342 38.64 97.7609 38.64ZM105.599 40.5V25.36H107.859V40.5H105.599ZM115.582 40.74C114.502 40.74 113.542 40.4933 112.702 40C111.875 39.4933 111.228 38.8133 110.762 37.96C110.295 37.0933 110.062 36.1267 110.062 35.06C110.062 33.9667 110.295 33 110.762 32.16C111.242 31.32 111.882 30.66 112.682 30.18C113.482 29.6867 114.388 29.44 115.402 29.44C116.215 29.44 116.942 29.58 117.582 29.86C118.222 30.14 118.762 30.5267 119.202 31.02C119.642 31.5 119.975 32.0533 120.202 32.68C120.442 33.3067 120.562 33.9733 120.562 34.68C120.562 34.8533 120.555 35.0333 120.542 35.22C120.528 35.4067 120.502 35.58 120.462 35.74H111.842V33.94H119.182L118.102 34.76C118.235 34.1067 118.188 33.5267 117.962 33.02C117.748 32.5 117.415 32.0933 116.962 31.8C116.522 31.4933 116.002 31.34 115.402 31.34C114.802 31.34 114.268 31.4933 113.802 31.8C113.335 32.0933 112.975 32.52 112.722 33.08C112.468 33.6267 112.368 34.2933 112.422 35.08C112.355 35.8133 112.455 36.4533 112.722 37C113.002 37.5467 113.388 37.9733 113.882 38.28C114.388 38.5867 114.962 38.74 115.602 38.74C116.255 38.74 116.808 38.5933 117.262 38.3C117.728 38.0067 118.095 37.6267 118.362 37.16L120.202 38.06C119.988 38.5667 119.655 39.0267 119.202 39.44C118.762 39.84 118.228 40.16 117.602 40.4C116.988 40.6267 116.315 40.74 115.582 40.74ZM127.767 40.74C126.727 40.74 125.794 40.4933 124.967 40C124.154 39.4933 123.507 38.8133 123.027 37.96C122.561 37.1067 122.327 36.1467 122.327 35.08C122.327 34.0133 122.567 33.0533 123.047 32.2C123.527 31.3467 124.174 30.6733 124.987 30.18C125.801 29.6867 126.721 29.44 127.747 29.44C128.614 29.44 129.381 29.6133 130.047 29.96C130.714 30.3067 131.241 30.7867 131.627 31.4L131.287 31.92V25.36H133.527V40.5H131.387V38.3L131.647 38.72C131.274 39.3733 130.741 39.8733 130.047 40.22C129.354 40.5667 128.594 40.74 127.767 40.74ZM127.987 38.64C128.614 38.64 129.174 38.4867 129.667 38.18C130.174 37.8733 130.567 37.4533 130.847 36.92C131.141 36.3733 131.287 35.76 131.287 35.08C131.287 34.4 131.141 33.7933 130.847 33.26C130.567 32.7267 130.174 32.3067 129.667 32C129.174 31.6933 128.614 31.54 127.987 31.54C127.361 31.54 126.794 31.6933 126.287 32C125.781 32.3067 125.387 32.7267 125.107 33.26C124.827 33.7933 124.687 34.4 124.687 35.08C124.687 35.76 124.827 36.3733 125.107 36.92C125.387 37.4533 125.774 37.8733 126.267 38.18C126.774 38.4867 127.347 38.64 127.987 38.64ZM138.562 40.5L143.802 25.6H146.722L151.962 40.5H149.442L148.302 37.16H142.242L141.082 40.5H138.562ZM142.922 35.06H147.582L144.942 27.26H145.602L142.922 35.06ZM158.339 44.9C157.552 44.9 156.825 44.7733 156.159 44.52C155.492 44.2667 154.919 43.9133 154.439 43.46C153.959 43.02 153.599 42.5 153.359 41.9L155.439 41.04C155.625 41.5467 155.965 41.9667 156.459 42.3C156.965 42.6333 157.585 42.8 158.319 42.8C158.892 42.8 159.405 42.6867 159.859 42.46C160.312 42.2467 160.672 41.9267 160.939 41.5C161.205 41.0867 161.339 40.5867 161.339 40V37.56L161.739 38.02C161.365 38.7133 160.845 39.24 160.179 39.6C159.525 39.96 158.785 40.14 157.959 40.14C156.959 40.14 156.059 39.9067 155.259 39.44C154.459 38.9733 153.825 38.3333 153.359 37.52C152.905 36.7067 152.679 35.7933 152.679 34.78C152.679 33.7533 152.905 32.84 153.359 32.04C153.825 31.24 154.452 30.6067 155.239 30.14C156.025 29.6733 156.925 29.44 157.939 29.44C158.765 29.44 159.499 29.62 160.139 29.98C160.792 30.3267 161.325 30.8333 161.739 31.5L161.439 32.06V29.68H163.579V40C163.579 40.9333 163.352 41.7667 162.899 42.5C162.459 43.2467 161.845 43.8333 161.059 44.26C160.272 44.6867 159.365 44.9 158.339 44.9ZM158.219 38.04C158.819 38.04 159.352 37.9 159.819 37.62C160.285 37.3267 160.652 36.94 160.919 36.46C161.199 35.9667 161.339 35.4133 161.339 34.8C161.339 34.1867 161.199 33.6333 160.919 33.14C160.639 32.6467 160.265 32.26 159.799 31.98C159.332 31.6867 158.805 31.54 158.219 31.54C157.605 31.54 157.059 31.6867 156.579 31.98C156.099 32.26 155.719 32.6467 155.439 33.14C155.172 33.62 155.039 34.1733 155.039 34.8C155.039 35.4 155.172 35.9467 155.439 36.44C155.719 36.9333 156.099 37.3267 156.579 37.62C157.059 37.9 157.605 38.04 158.219 38.04ZM171.304 40.74C170.224 40.74 169.264 40.4933 168.424 40C167.598 39.4933 166.951 38.8133 166.484 37.96C166.018 37.0933 165.784 36.1267 165.784 35.06C165.784 33.9667 166.018 33 166.484 32.16C166.964 31.32 167.604 30.66 168.404 30.18C169.204 29.6867 170.111 29.44 171.124 29.44C171.938 29.44 172.664 29.58 173.304 29.86C173.944 30.14 174.484 30.5267 174.924 31.02C175.364 31.5 175.698 32.0533 175.924 32.68C176.164 33.3067 176.284 33.9733 176.284 34.68C176.284 34.8533 176.278 35.0333 176.264 35.22C176.251 35.4067 176.224 35.58 176.184 35.74H167.564V33.94H174.904L173.824 34.76C173.958 34.1067 173.911 33.5267 173.684 33.02C173.471 32.5 173.138 32.0933 172.684 31.8C172.244 31.4933 171.724 31.34 171.124 31.34C170.524 31.34 169.991 31.4933 169.524 31.8C169.058 32.0933 168.698 32.52 168.444 33.08C168.191 33.6267 168.091 34.2933 168.144 35.08C168.078 35.8133 168.178 36.4533 168.444 37C168.724 37.5467 169.111 37.9733 169.604 38.28C170.111 38.5867 170.684 38.74 171.324 38.74C171.978 38.74 172.531 38.5933 172.984 38.3C173.451 38.0067 173.818 37.6267 174.084 37.16L175.924 38.06C175.711 38.5667 175.378 39.0267 174.924 39.44C174.484 39.84 173.951 40.16 173.324 40.4C172.711 40.6267 172.038 40.74 171.304 40.74ZM178.49 40.5V29.68H180.65V31.8L180.39 31.52C180.657 30.84 181.083 30.3267 181.67 29.98C182.257 29.62 182.937 29.44 183.71 29.44C184.51 29.44 185.217 29.6133 185.83 29.96C186.443 30.3067 186.923 30.7867 187.27 31.4C187.617 32.0133 187.79 32.72 187.79 33.52V40.5H185.55V34.12C185.55 33.5733 185.45 33.1133 185.25 32.74C185.05 32.3533 184.763 32.06 184.39 31.86C184.03 31.6467 183.617 31.54 183.15 31.54C182.683 31.54 182.263 31.6467 181.89 31.86C181.53 32.06 181.25 32.3533 181.05 32.74C180.85 33.1267 180.75 33.5867 180.75 34.12V40.5H178.49ZM194.889 40.62C193.755 40.62 192.875 40.3 192.249 39.66C191.622 39.02 191.309 38.12 191.309 36.96V31.72H189.409V29.68H189.709C190.215 29.68 190.609 29.5333 190.889 29.24C191.169 28.9467 191.309 28.5467 191.309 28.04V27.2H193.569V29.68H196.029V31.72H193.569V36.86C193.569 37.2333 193.629 37.5533 193.749 37.82C193.869 38.0733 194.062 38.2733 194.329 38.42C194.595 38.5533 194.942 38.62 195.369 38.62C195.475 38.62 195.595 38.6133 195.729 38.6C195.862 38.5867 195.989 38.5733 196.109 38.56V40.5C195.922 40.5267 195.715 40.5533 195.489 40.58C195.262 40.6067 195.062 40.62 194.889 40.62Z" fill="black"/>
<g clip-path="url(#clip0_2718_444)">
<rect x="217" y="8" width="48" height="48" rx="24" fill="black" fill-opacity="0.16"/>
<path d="M254.061 33.0607C254.646 32.4749 254.646 31.5251 254.061 30.9393L244.515 21.3934C243.929 20.8076 242.979 20.8076 242.393 21.3934C241.808 21.9792 241.808 22.9289 242.393 23.5147L250.879 32L242.393 40.4853C241.808 41.0711 241.808 42.0208 242.393 42.6066C242.979 43.1924 243.929 43.1924 244.515 42.6066L254.061 33.0607ZM229 32V33.5H253V32V30.5H229V32Z" fill="#182434"/>
</g>
<defs>
<linearGradient id="paint0_linear_2718_444" x1="0" y1="32" x2="273" y2="32" gradientUnits="userSpaceOnUse">
<stop stop-color="#FFD071"/>
<stop offset="1" stop-color="#EFB745"/>
</linearGradient>
<linearGradient id="paint1_linear_2718_444" x1="183.217" y1="64" x2="123.539" y2="-23.1222" gradientUnits="userSpaceOnUse">
<stop stop-color="white"/>
<stop offset="1"/>
</linearGradient>
<clipPath id="clip0_2718_444">
<rect x="217" y="8" width="48" height="48" rx="24" fill="white"/>
</clipPath>
</defs>
</svg>
