<svg width="81" height="81" viewBox="0 0 81 81" fill="none" xmlns="http://www.w3.org/2000/svg">
<path d="M40.0986 0C62.2446 0 80.1982 17.9536 80.1982 40.0996C80.1981 55.6433 71.3526 69.1198 58.4219 75.7744C52.2317 75.0391 48.1015 72.8352 45.2881 70.0898C42.172 67.0488 40.3986 63.0779 39.4658 58.9355C38.5326 54.7905 38.4823 50.6424 38.6816 47.4844C38.7247 46.8024 38.7803 46.171 38.8389 45.6025C46.6561 46.7672 51.092 50.0754 53.5811 52.9189C54.8681 54.3894 55.6748 55.7824 56.1514 56.7803C56.3891 57.2781 56.5436 57.6751 56.6328 57.9268C56.6771 58.0517 56.7054 58.1413 56.7197 58.1885C56.7239 58.2023 56.7267 58.2133 56.7285 58.2197C56.7281 58.2179 56.7281 58.2145 56.7275 58.2119C56.7271 58.2103 56.7261 58.2079 56.7256 58.2061L56.7246 58.2021C56.7263 58.1997 56.8084 58.177 59.9414 57.3643C63.0272 56.5638 63.1526 56.5287 63.1572 56.5254C63.1571 56.5248 63.1558 56.5228 63.1553 56.5215C63.1545 56.5186 63.1541 56.5141 63.1533 56.5107C63.1516 56.5042 63.1487 56.4963 63.1465 56.4883C63.142 56.4717 63.1362 56.4512 63.1299 56.4287C63.117 56.3828 63.1002 56.3232 63.0791 56.2539C63.0368 56.1148 62.9771 55.9288 62.8975 55.7041C62.738 55.2544 62.4961 54.6421 62.1494 53.916C61.4562 52.4645 60.3331 50.5395 58.583 48.54C55.0912 44.551 49.2485 40.433 39.8271 39.0273L39.376 38.9629C34.7581 38.3237 31.6792 36.8131 29.5928 35.0771C27.4988 33.3347 26.2269 31.2166 25.458 29.1025C24.6822 26.969 24.4324 24.8695 24.3848 23.2793C24.3612 22.4924 24.3882 21.8499 24.4189 21.4189C24.4343 21.2048 24.4499 21.0435 24.4609 20.9453L24.4727 20.8467L21.1855 20.3584C18.0566 19.8909 17.905 19.8704 17.8975 19.8711C17.8975 19.8721 17.8976 19.8741 17.8975 19.875C17.897 19.8778 17.896 19.8816 17.8955 19.8848C17.8945 19.8916 17.8929 19.9003 17.8916 19.9092C17.889 19.9276 17.8864 19.9513 17.8828 19.9785C17.8755 20.0343 17.8657 20.1094 17.8555 20.2002C17.8349 20.3823 17.8103 20.6344 17.7881 20.9453C17.7437 21.5671 17.7091 22.4364 17.7402 23.4785C17.8022 25.5486 18.1261 28.3904 19.2109 31.374C20.3033 34.3776 22.1806 37.5567 25.3408 40.1865C27.2446 41.7706 29.552 43.1025 32.3203 44.084C32.2186 44.9357 32.1188 45.941 32.0479 47.0645C31.8245 50.6029 31.8635 55.431 32.9814 60.3965C34.1003 65.3649 36.3402 70.6441 40.6465 74.8467C42.5369 76.6914 44.7756 78.2776 47.4004 79.5322C46.9997 79.606 46.5972 79.6756 46.1924 79.7373C46.109 79.7458 46.0259 79.7566 45.9424 79.7646C45.9528 79.7661 45.9632 79.7671 45.9736 79.7686C44.0561 80.0501 42.0944 80.1982 40.0986 80.1982C17.953 80.1981 0.00025165 62.2453 0 40.0996C0 17.9537 17.9528 0.000160826 40.0986 0ZM42.4082 8.07617C33.1428 8.07636 26.157 17.4857 30.1924 27.0605L30.3926 27.5166C31.614 30.1851 33.7777 32.3125 36.4365 33.5088C45.1666 37.4413 53.8793 32.1204 55.5127 24.1445L49.4824 22.9102C48.6215 27.113 44.097 30.052 39.1973 27.999L38.9629 27.8975L38.9619 27.8965L38.7178 27.7803C37.5945 27.2125 36.6752 26.302 36.1055 25.1953L35.9893 24.9561L35.9883 24.9551L35.874 24.6953C33.5696 19.248 37.4403 14.2316 42.4082 14.2314C43.9081 14.2315 45.3027 14.6883 46.459 15.4727L41.7051 17.7441L44.3574 23.2979L52.8721 19.2305L52.9971 19.1562L53.1367 19.0674C53.8119 18.6127 54.1857 17.9785 54.3594 17.4365C54.5397 16.8729 54.6076 16.0762 54.2559 15.2598L54.1797 15.0967L54.1504 15.0391L54.1201 14.9834L53.9004 14.6016C51.5696 10.6996 47.2966 8.0763 42.4082 8.07617ZM24.4727 20.8467L24.4736 20.8428C24.4738 20.8416 24.4736 20.8398 24.4736 20.8389L24.4727 20.8467Z" fill="url(#paint0_linear_1023_4410)"/>
<defs>
<linearGradient id="paint0_linear_1023_4410" x1="7.24611" y1="32.0049" x2="85.5696" y2="50.574" gradientUnits="userSpaceOnUse">
<stop stop-color="#C0412C"/>
<stop offset="1" stop-color="#F4C15D"/>
</linearGradient>
</defs>
</svg>
