<svg width="240" height="64" viewBox="0 0 240 64" fill="none" xmlns="http://www.w3.org/2000/svg">
<rect width="240" height="64" rx="32" fill="url(#paint0_linear_2782_601)"/>
<rect x="0.5" y="0.5" width="239" height="63" rx="31.5" stroke="url(#paint1_linear_2782_601)" stroke-opacity="0.16"/>
<path d="M25.212 40.5V38.3H26.072C26.7387 38.3 27.272 38.1067 27.672 37.72C28.072 37.32 28.272 36.7867 28.272 36.12V25.6H30.612V36.04C30.612 36.9467 30.4254 37.7333 30.052 38.4C29.692 39.0667 29.1654 39.5867 28.472 39.96C27.792 40.32 26.992 40.5 26.072 40.5H25.212ZM38.665 40.74C37.625 40.74 36.6717 40.4933 35.805 40C34.9517 39.5067 34.2717 38.8333 33.765 37.98C33.2583 37.1267 33.005 36.16 33.005 35.08C33.005 33.9867 33.2583 33.02 33.765 32.18C34.2717 31.3267 34.9517 30.66 35.805 30.18C36.6583 29.6867 37.6117 29.44 38.665 29.44C39.7317 29.44 40.685 29.6867 41.525 30.18C42.3783 30.66 43.0517 31.3267 43.545 32.18C44.0517 33.02 44.305 33.9867 44.305 35.08C44.305 36.1733 44.0517 37.1467 43.545 38C43.0383 38.8533 42.3583 39.5267 41.505 40.02C40.6517 40.5 39.705 40.74 38.665 40.74ZM38.665 38.64C39.305 38.64 39.8717 38.4867 40.365 38.18C40.8583 37.8733 41.245 37.4533 41.525 36.92C41.8183 36.3733 41.965 35.76 41.965 35.08C41.965 34.4 41.8183 33.7933 41.525 33.26C41.245 32.7267 40.8583 32.3067 40.365 32C39.8717 31.6933 39.305 31.54 38.665 31.54C38.0383 31.54 37.4717 31.6933 36.965 32C36.4717 32.3067 36.0783 32.7267 35.785 33.26C35.505 33.7933 35.365 34.4 35.365 35.08C35.365 35.76 35.505 36.3733 35.785 36.92C36.0783 37.4533 36.4717 37.8733 36.965 38.18C37.4717 38.4867 38.0383 38.64 38.665 38.64ZM46.5114 40.5V29.68H48.7714V40.5H46.5114ZM46.5114 28.2V25.6H48.7714V28.2H46.5114ZM51.4137 40.5V29.68H53.5738V31.8L53.3138 31.52C53.5804 30.84 54.0071 30.3267 54.5938 29.98C55.1804 29.62 55.8604 29.44 56.6338 29.44C57.4338 29.44 58.1404 29.6133 58.7538 29.96C59.3671 30.3067 59.8471 30.7867 60.1937 31.4C60.5404 32.0133 60.7138 32.72 60.7138 33.52V40.5H58.4738V34.12C58.4738 33.5733 58.3738 33.1133 58.1738 32.74C57.9738 32.3533 57.6871 32.06 57.3138 31.86C56.9538 31.6467 56.5404 31.54 56.0738 31.54C55.6071 31.54 55.1871 31.6467 54.8138 31.86C54.4538 32.06 54.1738 32.3533 53.9738 32.74C53.7738 33.1267 53.6738 33.5867 53.6738 34.12V40.5H51.4137ZM69.8686 40.74C69.1353 40.74 68.4886 40.6133 67.9286 40.36C67.3819 40.0933 66.9553 39.7333 66.6486 39.28C66.3419 38.8133 66.1886 38.2667 66.1886 37.64C66.1886 37.0533 66.3153 36.5267 66.5686 36.06C66.8353 35.5933 67.2419 35.2 67.7886 34.88C68.3353 34.56 69.0219 34.3333 69.8486 34.2L73.6086 33.58V35.36L70.2886 35.94C69.6886 36.0467 69.2486 36.24 68.9686 36.52C68.6886 36.7867 68.5486 37.1333 68.5486 37.56C68.5486 37.9733 68.7019 38.3133 69.0086 38.58C69.3286 38.8333 69.7353 38.96 70.2286 38.96C70.8419 38.96 71.3753 38.8267 71.8286 38.56C72.2953 38.2933 72.6553 37.94 72.9086 37.5C73.1619 37.0467 73.2886 36.5467 73.2886 36V33.22C73.2886 32.6867 73.0886 32.2533 72.6886 31.92C72.3019 31.5733 71.7819 31.4 71.1286 31.4C70.5286 31.4 70.0019 31.56 69.5486 31.88C69.1086 32.1867 68.7819 32.5867 68.5686 33.08L66.6886 32.14C66.8886 31.6067 67.2153 31.14 67.6686 30.74C68.1219 30.3267 68.6486 30.0067 69.2486 29.78C69.8619 29.5533 70.5086 29.44 71.1886 29.44C72.0419 29.44 72.7953 29.6 73.4486 29.92C74.1153 30.24 74.6286 30.6867 74.9886 31.26C75.3619 31.82 75.5486 32.4733 75.5486 33.22V40.5H73.3886V38.54L73.8486 38.6C73.5953 39.04 73.2686 39.42 72.8686 39.74C72.4819 40.06 72.0353 40.3067 71.5286 40.48C71.0353 40.6533 70.4819 40.74 69.8686 40.74ZM82.1911 40.74C81.0844 40.74 80.1111 40.4667 79.2711 39.92C78.4444 39.3733 77.8644 38.64 77.5311 37.72L79.2711 36.9C79.5644 37.5133 79.9644 38 80.4711 38.36C80.9911 38.72 81.5644 38.9 82.1911 38.9C82.7244 38.9 83.1578 38.78 83.4911 38.54C83.8244 38.3 83.9911 37.9733 83.9911 37.56C83.9911 37.2933 83.9178 37.08 83.7711 36.92C83.6244 36.7467 83.4378 36.6067 83.2111 36.5C82.9978 36.3933 82.7778 36.3133 82.5511 36.26L80.8511 35.78C79.9178 35.5133 79.2178 35.1133 78.7511 34.58C78.2978 34.0333 78.0711 33.4 78.0711 32.68C78.0711 32.0267 78.2378 31.46 78.5711 30.98C78.9044 30.4867 79.3644 30.1067 79.9511 29.84C80.5378 29.5733 81.1978 29.44 81.9311 29.44C82.9178 29.44 83.7978 29.6867 84.5711 30.18C85.3444 30.66 85.8911 31.3333 86.2111 32.2L84.4711 33.02C84.2578 32.5 83.9178 32.0867 83.4511 31.78C82.9978 31.4733 82.4844 31.32 81.9111 31.32C81.4178 31.32 81.0244 31.44 80.7311 31.68C80.4378 31.9067 80.2911 32.2067 80.2911 32.58C80.2911 32.8333 80.3578 33.0467 80.4911 33.22C80.6244 33.38 80.7978 33.5133 81.0111 33.62C81.2244 33.7133 81.4444 33.7933 81.6711 33.86L83.4311 34.38C84.3244 34.6333 85.0111 35.0333 85.4911 35.58C85.9711 36.1133 86.2111 36.7533 86.2111 37.5C86.2111 38.14 86.0378 38.7067 85.6911 39.2C85.3578 39.68 84.8911 40.06 84.2911 40.34C83.6911 40.6067 82.9911 40.74 82.1911 40.74ZM95.1616 40.74C94.4282 40.74 93.7816 40.6133 93.2216 40.36C92.6749 40.0933 92.2482 39.7333 91.9416 39.28C91.6349 38.8133 91.4816 38.2667 91.4816 37.64C91.4816 37.0533 91.6082 36.5267 91.8616 36.06C92.1282 35.5933 92.5349 35.2 93.0816 34.88C93.6282 34.56 94.3149 34.3333 95.1416 34.2L98.9016 33.58V35.36L95.5816 35.94C94.9816 36.0467 94.5416 36.24 94.2616 36.52C93.9816 36.7867 93.8416 37.1333 93.8416 37.56C93.8416 37.9733 93.9949 38.3133 94.3016 38.58C94.6216 38.8333 95.0282 38.96 95.5216 38.96C96.1349 38.96 96.6682 38.8267 97.1216 38.56C97.5882 38.2933 97.9482 37.94 98.2016 37.5C98.4549 37.0467 98.5816 36.5467 98.5816 36V33.22C98.5816 32.6867 98.3816 32.2533 97.9816 31.92C97.5949 31.5733 97.0749 31.4 96.4216 31.4C95.8216 31.4 95.2949 31.56 94.8416 31.88C94.4016 32.1867 94.0749 32.5867 93.8616 33.08L91.9816 32.14C92.1816 31.6067 92.5082 31.14 92.9616 30.74C93.4149 30.3267 93.9416 30.0067 94.5416 29.78C95.1549 29.5533 95.8016 29.44 96.4816 29.44C97.3349 29.44 98.0882 29.6 98.7416 29.92C99.4082 30.24 99.9216 30.6867 100.282 31.26C100.655 31.82 100.842 32.4733 100.842 33.22V40.5H98.6816V38.54L99.1416 38.6C98.8882 39.04 98.5616 39.42 98.1616 39.74C97.7749 40.06 97.3282 40.3067 96.8216 40.48C96.3282 40.6533 95.7749 40.74 95.1616 40.74ZM109.84 40.5V27.7H105.88V25.6H116.08V27.7H112.18V40.5H109.84ZM119.673 40.74C118.94 40.74 118.293 40.6133 117.733 40.36C117.187 40.0933 116.76 39.7333 116.453 39.28C116.147 38.8133 115.993 38.2667 115.993 37.64C115.993 37.0533 116.12 36.5267 116.373 36.06C116.64 35.5933 117.047 35.2 117.593 34.88C118.14 34.56 118.827 34.3333 119.653 34.2L123.413 33.58V35.36L120.093 35.94C119.493 36.0467 119.053 36.24 118.773 36.52C118.493 36.7867 118.353 37.1333 118.353 37.56C118.353 37.9733 118.507 38.3133 118.813 38.58C119.133 38.8333 119.54 38.96 120.033 38.96C120.647 38.96 121.18 38.8267 121.633 38.56C122.1 38.2933 122.46 37.94 122.713 37.5C122.967 37.0467 123.093 36.5467 123.093 36V33.22C123.093 32.6867 122.893 32.2533 122.493 31.92C122.107 31.5733 121.587 31.4 120.933 31.4C120.333 31.4 119.807 31.56 119.353 31.88C118.913 32.1867 118.587 32.5867 118.373 33.08L116.493 32.14C116.693 31.6067 117.02 31.14 117.473 30.74C117.927 30.3267 118.453 30.0067 119.053 29.78C119.667 29.5533 120.313 29.44 120.993 29.44C121.847 29.44 122.6 29.6 123.253 29.92C123.92 30.24 124.433 30.6867 124.793 31.26C125.167 31.82 125.353 32.4733 125.353 33.22V40.5H123.193V38.54L123.653 38.6C123.4 39.04 123.073 39.42 122.673 39.74C122.287 40.06 121.84 40.3067 121.333 40.48C120.84 40.6533 120.287 40.74 119.673 40.74ZM127.996 40.5V25.36H130.256V40.5H127.996ZM137.978 40.74C136.898 40.74 135.938 40.4933 135.098 40C134.271 39.4933 133.625 38.8133 133.158 37.96C132.691 37.0933 132.458 36.1267 132.458 35.06C132.458 33.9667 132.691 33 133.158 32.16C133.638 31.32 134.278 30.66 135.078 30.18C135.878 29.6867 136.785 29.44 137.798 29.44C138.611 29.44 139.338 29.58 139.978 29.86C140.618 30.14 141.158 30.5267 141.598 31.02C142.038 31.5 142.371 32.0533 142.598 32.68C142.838 33.3067 142.958 33.9733 142.958 34.68C142.958 34.8533 142.951 35.0333 142.938 35.22C142.925 35.4067 142.898 35.58 142.858 35.74H134.238V33.94H141.578L140.498 34.76C140.631 34.1067 140.585 33.5267 140.358 33.02C140.145 32.5 139.811 32.0933 139.358 31.8C138.918 31.4933 138.398 31.34 137.798 31.34C137.198 31.34 136.665 31.4933 136.198 31.8C135.731 32.0933 135.371 32.52 135.118 33.08C134.865 33.6267 134.765 34.2933 134.818 35.08C134.751 35.8133 134.851 36.4533 135.118 37C135.398 37.5467 135.785 37.9733 136.278 38.28C136.785 38.5867 137.358 38.74 137.998 38.74C138.651 38.74 139.205 38.5933 139.658 38.3C140.125 38.0067 140.491 37.6267 140.758 37.16L142.598 38.06C142.385 38.5667 142.051 39.0267 141.598 39.44C141.158 39.84 140.625 40.16 139.998 40.4C139.385 40.6267 138.711 40.74 137.978 40.74ZM145.164 40.5V29.68H147.324V31.8L147.064 31.52C147.33 30.84 147.757 30.3267 148.344 29.98C148.93 29.62 149.61 29.44 150.384 29.44C151.184 29.44 151.89 29.6133 152.504 29.96C153.117 30.3067 153.597 30.7867 153.944 31.4C154.29 32.0133 154.464 32.72 154.464 33.52V40.5H152.224V34.12C152.224 33.5733 152.124 33.1133 151.924 32.74C151.724 32.3533 151.437 32.06 151.064 31.86C150.704 31.6467 150.29 31.54 149.824 31.54C149.357 31.54 148.937 31.6467 148.564 31.86C148.204 32.06 147.924 32.3533 147.724 32.74C147.524 33.1267 147.424 33.5867 147.424 34.12V40.5H145.164ZM161.563 40.62C160.429 40.62 159.549 40.3 158.923 39.66C158.296 39.02 157.983 38.12 157.983 36.96V31.72H156.083V29.68H156.383C156.889 29.68 157.283 29.5333 157.563 29.24C157.843 28.9467 157.983 28.5467 157.983 28.04V27.2H160.243V29.68H162.703V31.72H160.243V36.86C160.243 37.2333 160.303 37.5533 160.423 37.82C160.543 38.0733 160.736 38.2733 161.003 38.42C161.269 38.5533 161.616 38.62 162.043 38.62C162.149 38.62 162.269 38.6133 162.403 38.6C162.536 38.5867 162.663 38.5733 162.783 38.56V40.5C162.596 40.5267 162.389 40.5533 162.163 40.58C161.936 40.6067 161.736 40.62 161.563 40.62Z" fill="black"/>
<g clip-path="url(#clip0_2782_601)">
<rect x="184" y="8" width="48" height="48" rx="24" fill="black" fill-opacity="0.16"/>
<path d="M221.061 33.0607C221.646 32.4749 221.646 31.5251 221.061 30.9393L211.515 21.3934C210.929 20.8076 209.979 20.8076 209.393 21.3934C208.808 21.9792 208.808 22.9289 209.393 23.5147L217.879 32L209.393 40.4853C208.808 41.0711 208.808 42.0208 209.393 42.6066C209.979 43.1924 210.929 43.1924 211.515 42.6066L221.061 33.0607ZM196 32V33.5H220V32V30.5H196V32Z" fill="#182434"/>
</g>
<defs>
<linearGradient id="paint0_linear_2782_601" x1="0" y1="32" x2="240" y2="32" gradientUnits="userSpaceOnUse">
<stop stop-color="#FFD071"/>
<stop offset="1" stop-color="#EFB745"/>
</linearGradient>
<linearGradient id="paint1_linear_2782_601" x1="161.07" y1="64" x2="99.0116" y2="-15.6465" gradientUnits="userSpaceOnUse">
<stop stop-color="white"/>
<stop offset="1"/>
</linearGradient>
<clipPath id="clip0_2782_601">
<rect x="184" y="8" width="48" height="48" rx="24" fill="white"/>
</clipPath>
</defs>
</svg>
