<svg width="319" height="64" viewBox="0 0 319 64" fill="none" xmlns="http://www.w3.org/2000/svg">
<rect width="319" height="64" rx="32" fill="url(#paint0_linear_2782_4326)"/>
<rect x="0.5" y="0.5" width="318" height="63" rx="31.5" stroke="url(#paint1_linear_2782_4326)" stroke-opacity="0.16"/>
<path d="M25.8408 40.5V25.6H31.2608C32.2608 25.6 33.1408 25.7867 33.9008 26.16C34.6741 26.52 35.2741 27.0533 35.7008 27.76C36.1274 28.4533 36.3408 29.2867 36.3408 30.26C36.3408 31.22 36.1208 32.0467 35.6808 32.74C35.2541 33.4333 34.6608 33.9667 33.9008 34.34C33.1408 34.7133 32.2608 34.9 31.2608 34.9H28.2008V40.5H25.8408ZM28.2008 32.8H31.3208C31.8541 32.8 32.3208 32.6933 32.7208 32.48C33.1208 32.2667 33.4341 31.9733 33.6608 31.6C33.8874 31.2133 34.0008 30.76 34.0008 30.24C34.0008 29.72 33.8874 29.2733 33.6608 28.9C33.4341 28.5133 33.1208 28.22 32.7208 28.02C32.3208 27.8067 31.8541 27.7 31.3208 27.7H28.2008V32.8ZM41.0873 40.74C40.354 40.74 39.7073 40.6133 39.1473 40.36C38.6007 40.0933 38.174 39.7333 37.8673 39.28C37.5607 38.8133 37.4073 38.2667 37.4073 37.64C37.4073 37.0533 37.534 36.5267 37.7873 36.06C38.054 35.5933 38.4607 35.2 39.0073 34.88C39.554 34.56 40.2407 34.3333 41.0673 34.2L44.8273 33.58V35.36L41.5073 35.94C40.9073 36.0467 40.4673 36.24 40.1873 36.52C39.9073 36.7867 39.7673 37.1333 39.7673 37.56C39.7673 37.9733 39.9207 38.3133 40.2273 38.58C40.5473 38.8333 40.954 38.96 41.4473 38.96C42.0607 38.96 42.594 38.8267 43.0473 38.56C43.514 38.2933 43.874 37.94 44.1273 37.5C44.3807 37.0467 44.5073 36.5467 44.5073 36V33.22C44.5073 32.6867 44.3073 32.2533 43.9073 31.92C43.5207 31.5733 43.0007 31.4 42.3473 31.4C41.7473 31.4 41.2207 31.56 40.7673 31.88C40.3273 32.1867 40.0007 32.5867 39.7873 33.08L37.9073 32.14C38.1073 31.6067 38.434 31.14 38.8873 30.74C39.3407 30.3267 39.8673 30.0067 40.4673 29.78C41.0807 29.5533 41.7273 29.44 42.4073 29.44C43.2607 29.44 44.014 29.6 44.6673 29.92C45.334 30.24 45.8473 30.6867 46.2073 31.26C46.5807 31.82 46.7673 32.4733 46.7673 33.22V40.5H44.6073V38.54L45.0673 38.6C44.814 39.04 44.4873 39.42 44.0873 39.74C43.7007 40.06 43.254 40.3067 42.7473 40.48C42.254 40.6533 41.7007 40.74 41.0873 40.74ZM49.4098 40.5V29.68H51.5698V31.86L51.3698 31.54C51.6098 30.8333 51.9965 30.3267 52.5298 30.02C53.0632 29.7 53.7032 29.54 54.4498 29.54H55.1098V31.6H54.1698C53.4232 31.6 52.8165 31.8333 52.3498 32.3C51.8965 32.7533 51.6698 33.4067 51.6698 34.26V40.5H49.4098ZM61.5313 40.62C60.3979 40.62 59.5179 40.3 58.8913 39.66C58.2646 39.02 57.9513 38.12 57.9513 36.96V31.72H56.0513V29.68H56.3513C56.8579 29.68 57.2513 29.5333 57.5313 29.24C57.8113 28.9467 57.9513 28.5467 57.9513 28.04V27.2H60.2113V29.68H62.6713V31.72H60.2113V36.86C60.2113 37.2333 60.2713 37.5533 60.3913 37.82C60.5113 38.0733 60.7046 38.2733 60.9713 38.42C61.2379 38.5533 61.5846 38.62 62.0113 38.62C62.1179 38.62 62.2379 38.6133 62.3713 38.6C62.5046 38.5867 62.6313 38.5733 62.7513 38.56V40.5C62.5646 40.5267 62.3579 40.5533 62.1313 40.58C61.9046 40.6067 61.7046 40.62 61.5313 40.62ZM64.9567 40.5V29.68H67.1167V31.8L66.8567 31.52C67.1234 30.84 67.5501 30.3267 68.1367 29.98C68.7234 29.62 69.4034 29.44 70.1767 29.44C70.9767 29.44 71.6834 29.6133 72.2967 29.96C72.9101 30.3067 73.3901 30.7867 73.7367 31.4C74.0834 32.0133 74.2567 32.72 74.2567 33.52V40.5H72.0167V34.12C72.0167 33.5733 71.9167 33.1133 71.7167 32.74C71.5167 32.3533 71.2301 32.06 70.8567 31.86C70.4967 31.6467 70.0834 31.54 69.6167 31.54C69.1501 31.54 68.7301 31.6467 68.3567 31.86C67.9967 32.06 67.7167 32.3533 67.5167 32.74C67.3167 33.1267 67.2167 33.5867 67.2167 34.12V40.5H64.9567ZM81.7555 40.74C80.6755 40.74 79.7155 40.4933 78.8755 40C78.0488 39.4933 77.4021 38.8133 76.9355 37.96C76.4688 37.0933 76.2355 36.1267 76.2355 35.06C76.2355 33.9667 76.4688 33 76.9355 32.16C77.4155 31.32 78.0555 30.66 78.8555 30.18C79.6555 29.6867 80.5621 29.44 81.5755 29.44C82.3888 29.44 83.1155 29.58 83.7555 29.86C84.3955 30.14 84.9355 30.5267 85.3755 31.02C85.8155 31.5 86.1488 32.0533 86.3755 32.68C86.6155 33.3067 86.7355 33.9733 86.7355 34.68C86.7355 34.8533 86.7288 35.0333 86.7155 35.22C86.7021 35.4067 86.6755 35.58 86.6355 35.74H78.0155V33.94H85.3555L84.2755 34.76C84.4088 34.1067 84.3621 33.5267 84.1355 33.02C83.9221 32.5 83.5888 32.0933 83.1355 31.8C82.6955 31.4933 82.1755 31.34 81.5755 31.34C80.9755 31.34 80.4421 31.4933 79.9755 31.8C79.5088 32.0933 79.1488 32.52 78.8955 33.08C78.6421 33.6267 78.5421 34.2933 78.5955 35.08C78.5288 35.8133 78.6288 36.4533 78.8955 37C79.1755 37.5467 79.5621 37.9733 80.0555 38.28C80.5621 38.5867 81.1355 38.74 81.7755 38.74C82.4288 38.74 82.9821 38.5933 83.4355 38.3C83.9021 38.0067 84.2688 37.6267 84.5355 37.16L86.3755 38.06C86.1621 38.5667 85.8288 39.0267 85.3755 39.44C84.9355 39.84 84.4021 40.16 83.7755 40.4C83.1621 40.6267 82.4888 40.74 81.7555 40.74ZM88.9411 40.5V29.68H91.1011V31.86L90.9011 31.54C91.1411 30.8333 91.5278 30.3267 92.0611 30.02C92.5944 29.7 93.2344 29.54 93.9811 29.54H94.6411V31.6H93.7011C92.9544 31.6 92.3478 31.8333 91.8811 32.3C91.4278 32.7533 91.2011 33.4067 91.2011 34.26V40.5H88.9411ZM102.923 40.74C102.19 40.74 101.543 40.6133 100.983 40.36C100.437 40.0933 100.01 39.7333 99.7033 39.28C99.3966 38.8133 99.2433 38.2667 99.2433 37.64C99.2433 37.0533 99.3699 36.5267 99.6233 36.06C99.8899 35.5933 100.297 35.2 100.843 34.88C101.39 34.56 102.077 34.3333 102.903 34.2L106.663 33.58V35.36L103.343 35.94C102.743 36.0467 102.303 36.24 102.023 36.52C101.743 36.7867 101.603 37.1333 101.603 37.56C101.603 37.9733 101.757 38.3133 102.063 38.58C102.383 38.8333 102.79 38.96 103.283 38.96C103.897 38.96 104.43 38.8267 104.883 38.56C105.35 38.2933 105.71 37.94 105.963 37.5C106.217 37.0467 106.343 36.5467 106.343 36V33.22C106.343 32.6867 106.143 32.2533 105.743 31.92C105.357 31.5733 104.837 31.4 104.183 31.4C103.583 31.4 103.057 31.56 102.603 31.88C102.163 32.1867 101.837 32.5867 101.623 33.08L99.7433 32.14C99.9433 31.6067 100.27 31.14 100.723 30.74C101.177 30.3267 101.703 30.0067 102.303 29.78C102.917 29.5533 103.563 29.44 104.243 29.44C105.097 29.44 105.85 29.6 106.503 29.92C107.17 30.24 107.683 30.6867 108.043 31.26C108.417 31.82 108.603 32.4733 108.603 33.22V40.5H106.443V38.54L106.903 38.6C106.65 39.04 106.323 39.42 105.923 39.74C105.537 40.06 105.09 40.3067 104.583 40.48C104.09 40.6533 103.537 40.74 102.923 40.74ZM115.246 40.74C114.139 40.74 113.166 40.4667 112.326 39.92C111.499 39.3733 110.919 38.64 110.586 37.72L112.326 36.9C112.619 37.5133 113.019 38 113.526 38.36C114.046 38.72 114.619 38.9 115.246 38.9C115.779 38.9 116.212 38.78 116.546 38.54C116.879 38.3 117.046 37.9733 117.046 37.56C117.046 37.2933 116.972 37.08 116.826 36.92C116.679 36.7467 116.492 36.6067 116.266 36.5C116.052 36.3933 115.832 36.3133 115.606 36.26L113.906 35.78C112.972 35.5133 112.272 35.1133 111.806 34.58C111.352 34.0333 111.126 33.4 111.126 32.68C111.126 32.0267 111.292 31.46 111.626 30.98C111.959 30.4867 112.419 30.1067 113.006 29.84C113.592 29.5733 114.252 29.44 114.986 29.44C115.972 29.44 116.852 29.6867 117.626 30.18C118.399 30.66 118.946 31.3333 119.266 32.2L117.526 33.02C117.312 32.5 116.972 32.0867 116.506 31.78C116.052 31.4733 115.539 31.32 114.966 31.32C114.472 31.32 114.079 31.44 113.786 31.68C113.492 31.9067 113.346 32.2067 113.346 32.58C113.346 32.8333 113.412 33.0467 113.546 33.22C113.679 33.38 113.852 33.5133 114.066 33.62C114.279 33.7133 114.499 33.7933 114.726 33.86L116.486 34.38C117.379 34.6333 118.066 35.0333 118.546 35.58C119.026 36.1133 119.266 36.7533 119.266 37.5C119.266 38.14 119.092 38.7067 118.746 39.2C118.412 39.68 117.946 40.06 117.346 40.34C116.746 40.6067 116.046 40.74 115.246 40.74ZM128.216 40.74C127.483 40.74 126.836 40.6133 126.276 40.36C125.73 40.0933 125.303 39.7333 124.996 39.28C124.69 38.8133 124.536 38.2667 124.536 37.64C124.536 37.0533 124.663 36.5267 124.916 36.06C125.183 35.5933 125.59 35.2 126.136 34.88C126.683 34.56 127.37 34.3333 128.196 34.2L131.956 33.58V35.36L128.636 35.94C128.036 36.0467 127.596 36.24 127.316 36.52C127.036 36.7867 126.896 37.1333 126.896 37.56C126.896 37.9733 127.05 38.3133 127.356 38.58C127.676 38.8333 128.083 38.96 128.576 38.96C129.19 38.96 129.723 38.8267 130.176 38.56C130.643 38.2933 131.003 37.94 131.256 37.5C131.51 37.0467 131.636 36.5467 131.636 36V33.22C131.636 32.6867 131.436 32.2533 131.036 31.92C130.65 31.5733 130.13 31.4 129.476 31.4C128.876 31.4 128.35 31.56 127.896 31.88C127.456 32.1867 127.13 32.5867 126.916 33.08L125.036 32.14C125.236 31.6067 125.563 31.14 126.016 30.74C126.47 30.3267 126.996 30.0067 127.596 29.78C128.21 29.5533 128.856 29.44 129.536 29.44C130.39 29.44 131.143 29.6 131.796 29.92C132.463 30.24 132.976 30.6867 133.336 31.26C133.71 31.82 133.896 32.4733 133.896 33.22V40.5H131.736V38.54L132.196 38.6C131.943 39.04 131.616 39.42 131.216 39.74C130.83 40.06 130.383 40.3067 129.876 40.48C129.383 40.6533 128.83 40.74 128.216 40.74ZM136.539 40.5V29.68H138.699V31.8L138.439 31.52C138.705 30.84 139.132 30.3267 139.719 29.98C140.305 29.62 140.985 29.44 141.759 29.44C142.559 29.44 143.265 29.6133 143.879 29.96C144.492 30.3067 144.972 30.7867 145.319 31.4C145.665 32.0133 145.839 32.72 145.839 33.52V40.5H143.599V34.12C143.599 33.5733 143.499 33.1133 143.299 32.74C143.099 32.3533 142.812 32.06 142.439 31.86C142.079 31.6467 141.665 31.54 141.199 31.54C140.732 31.54 140.312 31.6467 139.939 31.86C139.579 32.06 139.299 32.3533 139.099 32.74C138.899 33.1267 138.799 33.5867 138.799 34.12V40.5H136.539ZM151.974 40.5V25.6H161.794V27.7H154.334V31.98H161.394V34.08H154.334V38.4H161.794V40.5H151.974ZM163.765 40.5V29.68H165.925V32.02L165.645 31.66C165.872 30.9267 166.285 30.3733 166.885 30C167.485 29.6267 168.172 29.44 168.945 29.44C169.812 29.44 170.579 29.6733 171.245 30.14C171.925 30.5933 172.379 31.2 172.605 31.96L171.965 32.02C172.285 31.1533 172.772 30.5067 173.425 30.08C174.092 29.6533 174.852 29.44 175.705 29.44C176.452 29.44 177.125 29.6133 177.725 29.96C178.339 30.3067 178.825 30.7867 179.185 31.4C179.545 32.0133 179.725 32.7133 179.725 33.5V40.5H177.465V34.12C177.465 33.5733 177.365 33.1133 177.165 32.74C176.979 32.3533 176.712 32.06 176.365 31.86C176.032 31.6467 175.639 31.54 175.185 31.54C174.732 31.54 174.332 31.6467 173.985 31.86C173.639 32.06 173.365 32.3533 173.165 32.74C172.965 33.1267 172.865 33.5867 172.865 34.12V40.5H170.625V34.12C170.625 33.5733 170.525 33.1133 170.325 32.74C170.139 32.3533 169.872 32.06 169.525 31.86C169.192 31.6467 168.792 31.54 168.325 31.54C167.872 31.54 167.472 31.6467 167.125 31.86C166.779 32.06 166.505 32.3533 166.305 32.74C166.119 33.1267 166.025 33.5867 166.025 34.12V40.5H163.765ZM182.144 44.5V29.68H184.304V31.92L184.044 31.4C184.444 30.7867 184.978 30.3067 185.644 29.96C186.311 29.6133 187.071 29.44 187.924 29.44C188.951 29.44 189.871 29.6867 190.684 30.18C191.511 30.6733 192.158 31.3467 192.624 32.2C193.104 33.0533 193.344 34.0133 193.344 35.08C193.344 36.1467 193.104 37.1067 192.624 37.96C192.158 38.8133 191.518 39.4933 190.704 40C189.891 40.4933 188.964 40.74 187.924 40.74C187.084 40.74 186.318 40.5667 185.624 40.22C184.944 39.8733 184.418 39.3733 184.044 38.72L184.404 38.3V44.5H182.144ZM187.704 38.64C188.344 38.64 188.911 38.4867 189.404 38.18C189.898 37.8733 190.284 37.4533 190.564 36.92C190.858 36.3733 191.004 35.76 191.004 35.08C191.004 34.4 190.858 33.7933 190.564 33.26C190.284 32.7267 189.898 32.3067 189.404 32C188.911 31.6933 188.344 31.54 187.704 31.54C187.078 31.54 186.511 31.6933 186.004 32C185.511 32.3067 185.118 32.7267 184.824 33.26C184.544 33.7933 184.404 34.4 184.404 35.08C184.404 35.76 184.544 36.3733 184.824 36.92C185.118 37.4533 185.511 37.8733 186.004 38.18C186.511 38.4867 187.078 38.64 187.704 38.64ZM195.543 40.5V25.36H197.803V40.5H195.543ZM205.665 40.74C204.625 40.74 203.672 40.4933 202.805 40C201.952 39.5067 201.272 38.8333 200.765 37.98C200.258 37.1267 200.005 36.16 200.005 35.08C200.005 33.9867 200.258 33.02 200.765 32.18C201.272 31.3267 201.952 30.66 202.805 30.18C203.658 29.6867 204.612 29.44 205.665 29.44C206.732 29.44 207.685 29.6867 208.525 30.18C209.378 30.66 210.052 31.3267 210.545 32.18C211.052 33.02 211.305 33.9867 211.305 35.08C211.305 36.1733 211.052 37.1467 210.545 38C210.038 38.8533 209.358 39.5267 208.505 40.02C207.652 40.5 206.705 40.74 205.665 40.74ZM205.665 38.64C206.305 38.64 206.872 38.4867 207.365 38.18C207.858 37.8733 208.245 37.4533 208.525 36.92C208.818 36.3733 208.965 35.76 208.965 35.08C208.965 34.4 208.818 33.7933 208.525 33.26C208.245 32.7267 207.858 32.3067 207.365 32C206.872 31.6933 206.305 31.54 205.665 31.54C205.038 31.54 204.472 31.6933 203.965 32C203.472 32.3067 203.078 32.7267 202.785 33.26C202.505 33.7933 202.365 34.4 202.365 35.08C202.365 35.76 202.505 36.3733 202.785 36.92C203.078 37.4533 203.472 37.8733 203.965 38.18C204.472 38.4867 205.038 38.64 205.665 38.64ZM214.276 44.9C214.009 44.9 213.743 44.8733 213.476 44.82C213.223 44.78 212.989 44.7133 212.776 44.62V42.68C212.936 42.72 213.129 42.7533 213.356 42.78C213.583 42.82 213.803 42.84 214.016 42.84C214.643 42.84 215.103 42.7 215.396 42.42C215.703 42.1533 215.976 41.74 216.216 41.18L216.936 39.54L216.896 41.44L212.216 29.68H214.636L218.096 38.7H217.276L220.716 29.68H223.156L218.376 41.68C218.123 42.32 217.803 42.88 217.416 43.36C217.043 43.8533 216.596 44.2333 216.076 44.5C215.569 44.7667 214.969 44.9 214.276 44.9ZM229.588 40.74C228.508 40.74 227.548 40.4933 226.708 40C225.881 39.4933 225.234 38.8133 224.768 37.96C224.301 37.0933 224.068 36.1267 224.068 35.06C224.068 33.9667 224.301 33 224.768 32.16C225.248 31.32 225.888 30.66 226.688 30.18C227.488 29.6867 228.394 29.44 229.408 29.44C230.221 29.44 230.948 29.58 231.588 29.86C232.228 30.14 232.768 30.5267 233.208 31.02C233.648 31.5 233.981 32.0533 234.207 32.68C234.448 33.3067 234.568 33.9733 234.568 34.68C234.568 34.8533 234.561 35.0333 234.548 35.22C234.534 35.4067 234.508 35.58 234.468 35.74H225.848V33.94H233.188L232.108 34.76C232.241 34.1067 232.194 33.5267 231.968 33.02C231.754 32.5 231.421 32.0933 230.968 31.8C230.528 31.4933 230.008 31.34 229.408 31.34C228.808 31.34 228.274 31.4933 227.808 31.8C227.341 32.0933 226.981 32.52 226.728 33.08C226.474 33.6267 226.374 34.2933 226.428 35.08C226.361 35.8133 226.461 36.4533 226.728 37C227.008 37.5467 227.394 37.9733 227.888 38.28C228.394 38.5867 228.968 38.74 229.608 38.74C230.261 38.74 230.814 38.5933 231.268 38.3C231.734 38.0067 232.101 37.6267 232.368 37.16L234.207 38.06C233.994 38.5667 233.661 39.0267 233.208 39.44C232.768 39.84 232.234 40.16 231.608 40.4C230.994 40.6267 230.321 40.74 229.588 40.74ZM236.773 40.5V29.68H238.933V31.86L238.733 31.54C238.973 30.8333 239.36 30.3267 239.893 30.02C240.426 29.7 241.066 29.54 241.813 29.54H242.473V31.6H241.533C240.786 31.6 240.18 31.8333 239.713 32.3C239.26 32.7533 239.033 33.4067 239.033 34.26V40.5H236.773Z" fill="white"/>
<g clip-path="url(#clip0_2782_4326)">
<rect x="263" y="8" width="48" height="48" rx="24" fill="white" fill-opacity="0.16"/>
<path d="M300.061 33.0607C300.646 32.4749 300.646 31.5251 300.061 30.9393L290.515 21.3934C289.929 20.8076 288.979 20.8076 288.393 21.3934C287.808 21.9792 287.808 22.9289 288.393 23.5147L296.879 32L288.393 40.4853C287.808 41.0711 287.808 42.0208 288.393 42.6066C288.979 43.1924 289.929 43.1924 290.515 42.6066L300.061 33.0607ZM275 32V33.5H299V32V30.5H275V32Z" fill="white"/>
</g>
<defs>
<linearGradient id="paint0_linear_2782_4326" x1="0" y1="32" x2="319" y2="32" gradientUnits="userSpaceOnUse">
<stop stop-color="#2B476D"/>
<stop offset="1" stop-color="#182434"/>
</linearGradient>
<linearGradient id="paint1_linear_2782_4326" x1="214.088" y1="64" x2="158.244" y2="-31.2637" gradientUnits="userSpaceOnUse">
<stop stop-color="white"/>
<stop offset="1"/>
</linearGradient>
<clipPath id="clip0_2782_4326">
<rect x="263" y="8" width="48" height="48" rx="24" fill="white"/>
</clipPath>
</defs>
</svg>
