<svg width="258" height="96" viewBox="0 0 258 96" fill="none" xmlns="http://www.w3.org/2000/svg">
<g filter="url(#filter0_d_417_993)">
<rect x="16" y="12" width="226" height="64" rx="32" fill="url(#paint0_linear_417_993)"/>
<rect x="16.5" y="12.5" width="225" height="63" rx="31.5" stroke="url(#paint1_linear_417_993)" stroke-opacity="0.16"/>
<path d="M41.7373 52.5V37.6H47.1573C48.1573 37.6 49.0373 37.7867 49.7973 38.16C50.5573 38.52 51.1506 39.0533 51.5773 39.76C52.0173 40.4533 52.2373 41.2867 52.2373 42.26C52.2373 43.2867 51.9773 44.1667 51.4573 44.9C50.9506 45.6333 50.2639 46.1667 49.3973 46.5L52.8373 52.5H50.1573L46.4973 46L48.0373 46.9H44.0973V52.5H41.7373ZM44.0973 44.8H47.1973C47.7439 44.8 48.2173 44.6933 48.6173 44.48C49.0173 44.2667 49.3239 43.9733 49.5373 43.6C49.7639 43.2133 49.8773 42.76 49.8773 42.24C49.8773 41.72 49.7639 41.2733 49.5373 40.9C49.3239 40.5133 49.0173 40.22 48.6173 40.02C48.2173 39.8067 47.7439 39.7 47.1973 39.7H44.0973V44.8ZM59.0777 52.74C57.9977 52.74 57.0377 52.4933 56.1977 52C55.3711 51.4933 54.7244 50.8133 54.2577 49.96C53.7911 49.0933 53.5577 48.1267 53.5577 47.06C53.5577 45.9667 53.7911 45 54.2577 44.16C54.7377 43.32 55.3777 42.66 56.1777 42.18C56.9777 41.6867 57.8844 41.44 58.8977 41.44C59.7111 41.44 60.4377 41.58 61.0777 41.86C61.7177 42.14 62.2577 42.5267 62.6977 43.02C63.1377 43.5 63.4711 44.0533 63.6977 44.68C63.9377 45.3067 64.0577 45.9733 64.0577 46.68C64.0577 46.8533 64.0511 47.0333 64.0377 47.22C64.0244 47.4067 63.9977 47.58 63.9577 47.74H55.3377V45.94H62.6777L61.5977 46.76C61.7311 46.1067 61.6844 45.5267 61.4577 45.02C61.2444 44.5 60.9111 44.0933 60.4577 43.8C60.0177 43.4933 59.4977 43.34 58.8977 43.34C58.2977 43.34 57.7644 43.4933 57.2977 43.8C56.8311 44.0933 56.4711 44.52 56.2177 45.08C55.9644 45.6267 55.8644 46.2933 55.9177 47.08C55.8511 47.8133 55.9511 48.4533 56.2177 49C56.4977 49.5467 56.8844 49.9733 57.3777 50.28C57.8844 50.5867 58.4577 50.74 59.0977 50.74C59.7511 50.74 60.3044 50.5933 60.7577 50.3C61.2244 50.0067 61.5911 49.6267 61.8577 49.16L63.6977 50.06C63.4844 50.5667 63.1511 51.0267 62.6977 51.44C62.2577 51.84 61.7244 52.16 61.0977 52.4C60.4844 52.6267 59.8111 52.74 59.0777 52.74ZM71.4834 56.9C70.6967 56.9 69.97 56.7733 69.3034 56.52C68.6367 56.2667 68.0634 55.9133 67.5834 55.46C67.1034 55.02 66.7434 54.5 66.5034 53.9L68.5834 53.04C68.77 53.5467 69.11 53.9667 69.6034 54.3C70.11 54.6333 70.73 54.8 71.4634 54.8C72.0367 54.8 72.55 54.6867 73.0034 54.46C73.4567 54.2467 73.8167 53.9267 74.0834 53.5C74.35 53.0867 74.4834 52.5867 74.4834 52V49.56L74.8834 50.02C74.51 50.7133 73.99 51.24 73.3234 51.6C72.67 51.96 71.93 52.14 71.1034 52.14C70.1034 52.14 69.2034 51.9067 68.4034 51.44C67.6034 50.9733 66.97 50.3333 66.5034 49.52C66.05 48.7067 65.8234 47.7933 65.8234 46.78C65.8234 45.7533 66.05 44.84 66.5034 44.04C66.97 43.24 67.5967 42.6067 68.3834 42.14C69.17 41.6733 70.07 41.44 71.0834 41.44C71.91 41.44 72.6434 41.62 73.2834 41.98C73.9367 42.3267 74.47 42.8333 74.8834 43.5L74.5834 44.06V41.68H76.7234V52C76.7234 52.9333 76.4967 53.7667 76.0434 54.5C75.6034 55.2467 74.99 55.8333 74.2034 56.26C73.4167 56.6867 72.51 56.9 71.4834 56.9ZM71.3634 50.04C71.9634 50.04 72.4967 49.9 72.9634 49.62C73.43 49.3267 73.7967 48.94 74.0634 48.46C74.3434 47.9667 74.4834 47.4133 74.4834 46.8C74.4834 46.1867 74.3434 45.6333 74.0634 45.14C73.7834 44.6467 73.41 44.26 72.9434 43.98C72.4767 43.6867 71.95 43.54 71.3634 43.54C70.75 43.54 70.2034 43.6867 69.7234 43.98C69.2434 44.26 68.8634 44.6467 68.5834 45.14C68.3167 45.62 68.1834 46.1733 68.1834 46.8C68.1834 47.4 68.3167 47.9467 68.5834 48.44C68.8634 48.9333 69.2434 49.3267 69.7234 49.62C70.2034 49.9 70.75 50.04 71.3634 50.04ZM79.3688 52.5V41.68H81.6288V52.5H79.3688ZM79.3688 40.2V37.6H81.6288V40.2H79.3688ZM88.2712 52.74C87.1645 52.74 86.1912 52.4667 85.3512 51.92C84.5245 51.3733 83.9445 50.64 83.6112 49.72L85.3512 48.9C85.6445 49.5133 86.0445 50 86.5512 50.36C87.0712 50.72 87.6445 50.9 88.2712 50.9C88.8045 50.9 89.2378 50.78 89.5712 50.54C89.9045 50.3 90.0712 49.9733 90.0712 49.56C90.0712 49.2933 89.9978 49.08 89.8512 48.92C89.7045 48.7467 89.5178 48.6067 89.2912 48.5C89.0778 48.3933 88.8578 48.3133 88.6312 48.26L86.9312 47.78C85.9978 47.5133 85.2978 47.1133 84.8312 46.58C84.3778 46.0333 84.1512 45.4 84.1512 44.68C84.1512 44.0267 84.3178 43.46 84.6512 42.98C84.9845 42.4867 85.4445 42.1067 86.0312 41.84C86.6178 41.5733 87.2778 41.44 88.0112 41.44C88.9978 41.44 89.8778 41.6867 90.6512 42.18C91.4245 42.66 91.9712 43.3333 92.2912 44.2L90.5512 45.02C90.3378 44.5 89.9978 44.0867 89.5312 43.78C89.0778 43.4733 88.5645 43.32 87.9912 43.32C87.4978 43.32 87.1045 43.44 86.8112 43.68C86.5178 43.9067 86.3712 44.2067 86.3712 44.58C86.3712 44.8333 86.4378 45.0467 86.5712 45.22C86.7045 45.38 86.8778 45.5133 87.0912 45.62C87.3045 45.7133 87.5245 45.7933 87.7512 45.86L89.5112 46.38C90.4045 46.6333 91.0912 47.0333 91.5712 47.58C92.0512 48.1133 92.2912 48.7533 92.2912 49.5C92.2912 50.14 92.1178 50.7067 91.7712 51.2C91.4378 51.68 90.9712 52.06 90.3712 52.34C89.7712 52.6067 89.0712 52.74 88.2712 52.74ZM99.1855 52.62C98.0522 52.62 97.1722 52.3 96.5455 51.66C95.9189 51.02 95.6055 50.12 95.6055 48.96V43.72H93.7055V41.68H94.0055C94.5122 41.68 94.9055 41.5333 95.1855 41.24C95.4655 40.9467 95.6055 40.5467 95.6055 40.04V39.2H97.8655V41.68H100.326V43.72H97.8655V48.86C97.8655 49.2333 97.9255 49.5533 98.0455 49.82C98.1655 50.0733 98.3589 50.2733 98.6255 50.42C98.8922 50.5533 99.2389 50.62 99.6655 50.62C99.7722 50.62 99.8922 50.6133 100.026 50.6C100.159 50.5867 100.286 50.5733 100.406 50.56V52.5C100.219 52.5267 100.012 52.5533 99.7855 52.58C99.5589 52.6067 99.3589 52.62 99.1855 52.62ZM107.496 52.74C106.416 52.74 105.456 52.4933 104.616 52C103.789 51.4933 103.142 50.8133 102.676 49.96C102.209 49.0933 101.976 48.1267 101.976 47.06C101.976 45.9667 102.209 45 102.676 44.16C103.156 43.32 103.796 42.66 104.596 42.18C105.396 41.6867 106.302 41.44 107.316 41.44C108.129 41.44 108.856 41.58 109.496 41.86C110.136 42.14 110.676 42.5267 111.116 43.02C111.556 43.5 111.889 44.0533 112.116 44.68C112.356 45.3067 112.476 45.9733 112.476 46.68C112.476 46.8533 112.469 47.0333 112.456 47.22C112.442 47.4067 112.416 47.58 112.376 47.74H103.756V45.94H111.096L110.016 46.76C110.149 46.1067 110.102 45.5267 109.876 45.02C109.662 44.5 109.329 44.0933 108.876 43.8C108.436 43.4933 107.916 43.34 107.316 43.34C106.716 43.34 106.182 43.4933 105.716 43.8C105.249 44.0933 104.889 44.52 104.636 45.08C104.382 45.6267 104.282 46.2933 104.336 47.08C104.269 47.8133 104.369 48.4533 104.636 49C104.916 49.5467 105.302 49.9733 105.796 50.28C106.302 50.5867 106.876 50.74 107.516 50.74C108.169 50.74 108.722 50.5933 109.176 50.3C109.642 50.0067 110.009 49.6267 110.276 49.16L112.116 50.06C111.902 50.5667 111.569 51.0267 111.116 51.44C110.676 51.84 110.142 52.16 109.516 52.4C108.902 52.6267 108.229 52.74 107.496 52.74ZM114.681 52.5V41.68H116.841V43.86L116.641 43.54C116.881 42.8333 117.268 42.3267 117.801 42.02C118.335 41.7 118.975 41.54 119.721 41.54H120.381V43.6H119.441C118.695 43.6 118.088 43.8333 117.621 44.3C117.168 44.7533 116.941 45.4067 116.941 46.26V52.5H114.681ZM125.424 52.5V41.68H127.584V43.8L127.324 43.52C127.59 42.84 128.017 42.3267 128.604 41.98C129.19 41.62 129.87 41.44 130.644 41.44C131.444 41.44 132.15 41.6133 132.764 41.96C133.377 42.3067 133.857 42.7867 134.204 43.4C134.55 44.0133 134.724 44.72 134.724 45.52V52.5H132.484V46.12C132.484 45.5733 132.384 45.1133 132.184 44.74C131.984 44.3533 131.697 44.06 131.324 43.86C130.964 43.6467 130.55 43.54 130.084 43.54C129.617 43.54 129.197 43.6467 128.824 43.86C128.464 44.06 128.184 44.3533 127.984 44.74C127.784 45.1267 127.684 45.5867 127.684 46.12V52.5H125.424ZM142.362 52.74C141.322 52.74 140.369 52.4933 139.502 52C138.649 51.5067 137.969 50.8333 137.462 49.98C136.956 49.1267 136.702 48.16 136.702 47.08C136.702 45.9867 136.956 45.02 137.462 44.18C137.969 43.3267 138.649 42.66 139.502 42.18C140.356 41.6867 141.309 41.44 142.362 41.44C143.429 41.44 144.382 41.6867 145.222 42.18C146.076 42.66 146.749 43.3267 147.242 44.18C147.749 45.02 148.002 45.9867 148.002 47.08C148.002 48.1733 147.749 49.1467 147.242 50C146.736 50.8533 146.056 51.5267 145.202 52.02C144.349 52.5 143.402 52.74 142.362 52.74ZM142.362 50.64C143.002 50.64 143.569 50.4867 144.062 50.18C144.556 49.8733 144.942 49.4533 145.222 48.92C145.516 48.3733 145.662 47.76 145.662 47.08C145.662 46.4 145.516 45.7933 145.222 45.26C144.942 44.7267 144.556 44.3067 144.062 44C143.569 43.6933 143.002 43.54 142.362 43.54C141.736 43.54 141.169 43.6933 140.662 44C140.169 44.3067 139.776 44.7267 139.482 45.26C139.202 45.7933 139.062 46.4 139.062 47.08C139.062 47.76 139.202 48.3733 139.482 48.92C139.776 49.4533 140.169 49.8733 140.662 50.18C141.169 50.4867 141.736 50.64 142.362 50.64ZM152.633 52.5L148.913 41.68H151.313L154.153 50.3H153.313L156.213 41.68H158.273L161.153 50.3H160.313L163.173 41.68H165.573L161.833 52.5H159.793L156.873 43.68H157.613L154.693 52.5H152.633Z" fill="white"/>
<g clip-path="url(#clip0_417_993)">
<rect x="186" y="20" width="48" height="48" rx="24" fill="white" fill-opacity="0.16"/>
<path d="M223.061 45.0607C223.646 44.4749 223.646 43.5251 223.061 42.9393L213.515 33.3934C212.929 32.8076 211.979 32.8076 211.393 33.3934C210.808 33.9792 210.808 34.9289 211.393 35.5147L219.879 44L211.393 52.4853C210.808 53.0711 210.808 54.0208 211.393 54.6066C211.979 55.1924 212.929 55.1924 213.515 54.6066L223.061 45.0607ZM198 44V45.5H222V44V42.5H198V44Z" fill="white"/>
</g>
</g>
<defs>
<filter id="filter0_d_417_993" x="0" y="-4" width="258" height="100" filterUnits="userSpaceOnUse" color-interpolation-filters="sRGB">
<feFlood flood-opacity="0" result="BackgroundImageFix"/>
<feColorMatrix in="SourceAlpha" type="matrix" values="0 0 0 0 0 0 0 0 0 0 0 0 0 0 0 0 0 0 127 0" result="hardAlpha"/>
<feOffset dy="4"/>
<feGaussianBlur stdDeviation="8"/>
<feComposite in2="hardAlpha" operator="out"/>
<feColorMatrix type="matrix" values="0 0 0 0 0 0 0 0 0 0 0 0 0 0 0 0 0 0 0.16 0"/>
<feBlend mode="normal" in2="BackgroundImageFix" result="effect1_dropShadow_417_993"/>
<feBlend mode="normal" in="SourceGraphic" in2="effect1_dropShadow_417_993" result="shape"/>
</filter>
<linearGradient id="paint0_linear_417_993" x1="16" y1="44" x2="242" y2="44" gradientUnits="userSpaceOnUse">
<stop stop-color="#2B476D"/>
<stop offset="1" stop-color="#182434"/>
</linearGradient>
<linearGradient id="paint1_linear_417_993" x1="167.674" y1="76" x2="104.805" y2="0.0196694" gradientUnits="userSpaceOnUse">
<stop stop-color="white"/>
<stop offset="1"/>
</linearGradient>
<clipPath id="clip0_417_993">
<rect x="186" y="20" width="48" height="48" rx="24" fill="white"/>
</clipPath>
</defs>
</svg>
