<svg width="777" height="54" viewBox="0 0 777 54" fill="none" xmlns="http://www.w3.org/2000/svg">
<g style="mix-blend-mode:difference">
<path d="M727.168 11.6555C725.503 11.6555 724.17 11.156 723.171 10.157C722.228 9.15792 721.756 7.71486 721.756 5.82777C721.756 4.05169 722.228 2.63637 723.171 1.58183C724.115 0.527275 725.447 0 727.168 0C728.777 0 730.054 0.499525 730.997 1.49857C731.996 2.49762 732.496 3.94068 732.496 5.82777C732.496 7.65935 731.996 9.10242 730.997 10.157C730.054 11.156 728.777 11.6555 727.168 11.6555ZM704.939 11.6555C703.274 11.6555 701.942 11.156 700.943 10.157C699.999 9.15792 699.527 7.71486 699.527 5.82777C699.527 4.05169 699.999 2.63637 700.943 1.58183C701.886 0.527275 703.218 0 704.939 0C706.548 0 707.825 0.499525 708.769 1.49857C709.768 2.49762 710.267 3.94068 710.267 5.82777C710.267 7.65935 709.768 9.10242 708.769 10.157C707.825 11.156 706.548 11.6555 704.939 11.6555ZM727.168 32.469C725.503 32.469 724.17 31.9695 723.171 30.9704C722.228 29.9714 721.756 28.5283 721.756 26.6412C721.756 24.8651 722.228 23.4498 723.171 22.3953C724.115 21.3407 725.447 20.8135 727.168 20.8135C728.777 20.8135 730.054 21.313 730.997 22.312C731.996 23.3111 732.496 24.7541 732.496 26.6412C732.496 28.4728 731.996 29.9159 730.997 30.9704C730.054 31.9695 728.777 32.469 727.168 32.469ZM704.939 53.2824C703.274 53.2824 701.942 52.7829 700.943 51.7839C699.999 50.7848 699.527 49.3417 699.527 47.4547C699.527 45.6786 699.999 44.2633 700.943 43.2087C701.886 42.1542 703.218 41.6269 704.939 41.6269C706.548 41.6269 707.825 42.1264 708.769 43.1255C709.768 44.1245 710.267 45.5676 710.267 47.4547C710.267 49.2862 709.768 50.7293 708.769 51.7839C707.825 52.7829 706.548 53.2824 704.939 53.2824ZM727.168 53.2824C725.503 53.2824 724.17 52.7829 723.171 51.7839C722.228 50.7848 721.756 49.3417 721.756 47.4547C721.756 45.6786 722.228 44.2633 723.171 43.2087C724.115 42.1542 725.447 41.6269 727.168 41.6269C728.777 41.6269 730.054 42.1264 730.997 43.1255C731.996 44.1245 732.496 45.5676 732.496 47.4547C732.496 49.2862 731.996 50.7293 730.997 51.7839C730.054 52.7829 728.777 53.2824 727.168 53.2824Z" fill="black" fill-opacity="0.2"/>
<path d="M668.874 11.6555C667.209 11.6555 665.877 11.156 664.878 10.157C663.934 9.15792 663.462 7.71486 663.462 5.82777C663.462 4.05169 663.934 2.63637 664.878 1.58183C665.821 0.527275 667.153 0 668.874 0C670.483 0 671.76 0.499525 672.703 1.49857C673.702 2.49762 674.202 3.94068 674.202 5.82777C674.202 7.65935 673.702 9.10242 672.703 10.157C671.76 11.156 670.483 11.6555 668.874 11.6555ZM646.645 32.469C644.98 32.469 643.648 31.9695 642.649 30.9704C641.705 29.9714 641.233 28.5283 641.233 26.6412C641.233 24.8651 641.705 23.4498 642.649 22.3953C643.592 21.3407 644.924 20.8135 646.645 20.8135C648.254 20.8135 649.531 21.313 650.475 22.312C651.474 23.3111 651.973 24.7541 651.973 26.6412C651.973 28.4728 651.474 29.9159 650.475 30.9704C649.531 31.9695 648.254 32.469 646.645 32.469ZM668.874 32.469C667.209 32.469 665.877 31.9695 664.878 30.9704C663.934 29.9714 663.462 28.5283 663.462 26.6412C663.462 24.8651 663.934 23.4498 664.878 22.3953C665.821 21.3407 667.153 20.8135 668.874 20.8135C670.483 20.8135 671.76 21.313 672.703 22.312C673.702 23.3111 674.202 24.7541 674.202 26.6412C674.202 28.4728 673.702 29.9159 672.703 30.9704C671.76 31.9695 670.483 32.469 668.874 32.469ZM646.645 53.2824C644.98 53.2824 643.648 52.7829 642.649 51.7839C641.705 50.7848 641.233 49.3417 641.233 47.4547C641.233 45.6786 641.705 44.2633 642.649 43.2087C643.592 42.1542 644.924 41.6269 646.645 41.6269C648.254 41.6269 649.531 42.1264 650.475 43.1255C651.474 44.1245 651.973 45.5676 651.973 47.4547C651.973 49.2862 651.474 50.7293 650.475 51.7839C649.531 52.7829 648.254 53.2824 646.645 53.2824Z" fill="black" fill-opacity="0.2"/>
<path d="M610.58 11.6555C608.915 11.6555 607.583 11.156 606.584 10.157C605.64 9.15792 605.168 7.71486 605.168 5.82777C605.168 4.05169 605.64 2.63637 606.584 1.58183C607.527 0.527276 608.859 0 610.58 0C612.189 0 613.466 0.499525 614.409 1.49857C615.408 2.49762 615.908 3.94068 615.908 5.82777C615.908 7.65935 615.408 9.10242 614.409 10.157C613.466 11.156 612.189 11.6555 610.58 11.6555ZM588.351 32.469C586.686 32.469 585.354 31.9695 584.355 30.9704C583.411 29.9714 582.939 28.5283 582.939 26.6412C582.939 24.8651 583.411 23.4498 584.355 22.3953C585.298 21.3407 586.63 20.8135 588.351 20.8135C589.961 20.8135 591.237 21.313 592.181 22.312C593.18 23.3111 593.679 24.7541 593.679 26.6412C593.679 28.4728 593.18 29.9159 592.181 30.9704C591.237 31.9695 589.961 32.469 588.351 32.469Z" fill="black" fill-opacity="0.2"/>
<path d="M530.057 11.6555C528.392 11.6555 527.06 11.156 526.061 10.157C525.117 9.15792 524.646 7.71486 524.646 5.82777C524.646 4.05169 525.117 2.63637 526.061 1.58183C527.004 0.527275 528.336 0 530.057 0C531.667 0 532.943 0.499525 533.887 1.49857C534.886 2.49762 535.385 3.94068 535.385 5.82777C535.385 7.65935 534.886 9.10242 533.887 10.157C532.943 11.156 531.667 11.6555 530.057 11.6555ZM530.057 32.469C528.392 32.469 527.06 31.9695 526.061 30.9704C525.117 29.9714 524.646 28.5283 524.646 26.6412C524.646 24.8651 525.117 23.4498 526.061 22.3953C527.004 21.3407 528.336 20.8135 530.057 20.8135C531.667 20.8135 532.943 21.313 533.887 22.312C534.886 23.3111 535.385 24.7541 535.385 26.6412C535.385 28.4728 534.886 29.9159 533.887 30.9704C532.943 31.9695 531.667 32.469 530.057 32.469ZM530.057 53.2824C528.392 53.2824 527.06 52.7829 526.061 51.7839C525.117 50.7848 524.646 49.3417 524.646 47.4547C524.646 45.6786 525.117 44.2633 526.061 43.2087C527.004 42.1542 528.336 41.6269 530.057 41.6269C531.667 41.6269 532.943 42.1264 533.887 43.1255C534.886 44.1245 535.385 45.5676 535.385 47.4547C535.385 49.2862 534.886 50.7293 533.887 51.7839C532.943 52.7829 531.667 53.2824 530.057 53.2824Z" fill="black" fill-opacity="0.2"/>
<path d="M493.992 11.6555C492.327 11.6555 490.995 11.156 489.996 10.157C489.052 9.15792 488.58 7.71486 488.58 5.82777C488.58 4.05169 489.052 2.63637 489.996 1.58183C490.939 0.527276 492.271 0 493.992 0C495.601 0 496.878 0.499525 497.821 1.49857C498.821 2.49762 499.32 3.94068 499.32 5.82777C499.32 7.65935 498.821 9.10242 497.821 10.157C496.878 11.156 495.601 11.6555 493.992 11.6555ZM471.763 32.469C470.098 32.469 468.766 31.9695 467.767 30.9704C466.823 29.9714 466.352 28.5283 466.352 26.6412C466.352 24.8651 466.823 23.4498 467.767 22.3953C468.71 21.3407 470.042 20.8135 471.763 20.8135C473.373 20.8135 474.649 21.313 475.593 22.312C476.592 23.3111 477.091 24.7541 477.091 26.6412C477.091 28.4728 476.592 29.9159 475.593 30.9704C474.649 31.9695 473.373 32.469 471.763 32.469Z" fill="black" fill-opacity="0.2"/>
<path d="M413.469 11.6555C411.804 11.6555 410.472 11.156 409.473 10.157C408.529 9.15792 408.058 7.71486 408.058 5.82777C408.058 4.05169 408.529 2.63637 409.473 1.58183C410.416 0.527276 411.749 0 413.469 0C415.079 0 416.355 0.499525 417.299 1.49857C418.298 2.49762 418.797 3.94068 418.797 5.82777C418.797 7.65935 418.298 9.10242 417.299 10.157C416.355 11.156 415.079 11.6555 413.469 11.6555ZM413.469 32.469C411.804 32.469 410.472 31.9695 409.473 30.9704C408.529 29.9714 408.058 28.5283 408.058 26.6412C408.058 24.8651 408.529 23.4498 409.473 22.3953C410.416 21.3407 411.749 20.8135 413.469 20.8135C415.079 20.8135 416.355 21.313 417.299 22.312C418.298 23.3111 418.797 24.7541 418.797 26.6412C418.797 28.4728 418.298 29.9159 417.299 30.9704C416.355 31.9695 415.079 32.469 413.469 32.469Z" fill="black" fill-opacity="0.2"/>
<path d="M377.404 11.6555C375.739 11.6555 374.407 11.156 373.408 10.157C372.464 9.15792 371.992 7.71486 371.992 5.82777C371.992 4.05169 372.464 2.63637 373.408 1.58183C374.351 0.527276 375.683 0 377.404 0C379.013 0 380.29 0.499525 381.234 1.49857C382.233 2.49762 382.732 3.94068 382.732 5.82777C382.732 7.65935 382.233 9.10242 381.234 10.157C380.29 11.156 379.013 11.6555 377.404 11.6555ZM355.175 32.469C353.51 32.469 352.178 31.9695 351.179 30.9704C350.235 29.9714 349.764 28.5283 349.764 26.6412C349.764 24.8651 350.235 23.4498 351.179 22.3953C352.123 21.3407 353.455 20.8135 355.175 20.8135C356.785 20.8135 358.061 21.313 359.005 22.312C360.004 23.3111 360.503 24.7541 360.503 26.6412C360.503 28.4728 360.004 29.9159 359.005 30.9704C358.061 31.9695 356.785 32.469 355.175 32.469Z" fill="black" fill-opacity="0.2"/>
<path d="M319.11 11.6555C317.445 11.6555 316.113 11.156 315.114 10.157C314.17 9.15792 313.698 7.71486 313.698 5.82777C313.698 4.05169 314.17 2.63637 315.114 1.58183C316.057 0.527275 317.389 0 319.11 0C320.72 0 321.996 0.499525 322.94 1.49857C323.939 2.49762 324.438 3.94068 324.438 5.82777C324.438 7.65935 323.939 9.10242 322.94 10.157C321.996 11.156 320.72 11.6555 319.11 11.6555ZM296.881 32.469C295.216 32.469 293.884 31.9695 292.885 30.9704C291.941 29.9714 291.47 28.5283 291.47 26.6412C291.47 24.8651 291.941 23.4498 292.885 22.3953C293.829 21.3407 295.161 20.8135 296.881 20.8135C298.491 20.8135 299.767 21.313 300.711 22.312C301.71 23.3111 302.209 24.7541 302.209 26.6412C302.209 28.4728 301.71 29.9159 300.711 30.9704C299.767 31.9695 298.491 32.469 296.881 32.469ZM296.881 53.2824C295.216 53.2824 293.884 52.7829 292.885 51.7839C291.941 50.7848 291.47 49.3417 291.47 47.4547C291.47 45.6786 291.941 44.2633 292.885 43.2087C293.829 42.1542 295.161 41.6269 296.881 41.6269C298.491 41.6269 299.767 42.1264 300.711 43.1255C301.71 44.1245 302.209 45.5676 302.209 47.4547C302.209 49.2862 301.71 50.7293 300.711 51.7839C299.767 52.7829 298.491 53.2824 296.881 53.2824Z" fill="black" fill-opacity="0.2"/>
<path d="M260.816 11.6555C259.151 11.6555 257.819 11.156 256.82 10.157C255.876 9.15792 255.405 7.71486 255.405 5.82777C255.405 4.05169 255.876 2.63637 256.82 1.58183C257.763 0.527275 259.095 0 260.816 0C262.426 0 263.702 0.499525 264.646 1.49857C265.645 2.49762 266.144 3.94068 266.144 5.82777C266.144 7.65935 265.645 9.10242 264.646 10.157C263.702 11.156 262.426 11.6555 260.816 11.6555ZM238.587 32.469C236.922 32.469 235.59 31.9695 234.591 30.9704C233.648 29.9714 233.176 28.5283 233.176 26.6412C233.176 24.8651 233.648 23.4498 234.591 22.3953C235.535 21.3407 236.867 20.8135 238.587 20.8135C240.197 20.8135 241.473 21.313 242.417 22.312C243.416 23.3111 243.916 24.7541 243.916 26.6412C243.916 28.4728 243.416 29.9159 242.417 30.9704C241.473 31.9695 240.197 32.469 238.587 32.469ZM238.587 53.2824C236.922 53.2824 235.59 52.7829 234.591 51.7839C233.648 50.7848 233.176 49.3417 233.176 47.4547C233.176 45.6786 233.648 44.2633 234.591 43.2087C235.535 42.1542 236.867 41.6269 238.587 41.6269C240.197 41.6269 241.473 42.1264 242.417 43.1255C243.416 44.1245 243.916 45.5676 243.916 47.4547C243.916 49.2862 243.416 50.7293 242.417 51.7839C241.473 52.7829 240.197 53.2824 238.587 53.2824Z" fill="black" fill-opacity="0.2"/>
<path d="M180.293 11.6555C178.628 11.6555 177.296 11.156 176.297 10.157C175.354 9.15792 174.882 7.71486 174.882 5.82777C174.882 4.05169 175.354 2.63637 176.297 1.58183C177.241 0.527276 178.573 0 180.293 0C181.903 0 183.179 0.499525 184.123 1.49857C185.122 2.49762 185.622 3.94068 185.622 5.82777C185.622 7.65935 185.122 9.10242 184.123 10.157C183.179 11.156 181.903 11.6555 180.293 11.6555ZM202.522 32.469C200.857 32.469 199.525 31.9695 198.526 30.9704C197.582 29.9714 197.111 28.5283 197.111 26.6412C197.111 24.8651 197.582 23.4498 198.526 22.3953C199.469 21.3407 200.802 20.8135 202.522 20.8135C204.132 20.8135 205.408 21.313 206.352 22.312C207.351 23.3111 207.85 24.7541 207.85 26.6412C207.85 28.4728 207.351 29.9159 206.352 30.9704C205.408 31.9695 204.132 32.469 202.522 32.469Z" fill="black" fill-opacity="0.2"/>
<path d="M144.228 11.6555C142.563 11.6555 141.231 11.156 140.232 10.157C139.288 9.15792 138.817 7.71485 138.817 5.82777C138.817 4.05169 139.288 2.63637 140.232 1.58183C141.176 0.527275 142.508 0 144.228 0C145.838 0 147.114 0.499525 148.058 1.49857C149.057 2.49762 149.556 3.94068 149.556 5.82777C149.556 7.65935 149.057 9.10242 148.058 10.157C147.114 11.156 145.838 11.6555 144.228 11.6555ZM121.999 11.6555C120.334 11.6555 119.002 11.156 118.003 10.157C117.06 9.15792 116.588 7.71485 116.588 5.82777C116.588 4.05169 117.06 2.63637 118.003 1.58183C118.947 0.527275 120.279 0 121.999 0C123.609 0 124.886 0.499525 125.829 1.49857C126.828 2.49762 127.328 3.94068 127.328 5.82777C127.328 7.65935 126.828 9.10242 125.829 10.157C124.886 11.156 123.609 11.6555 121.999 11.6555Z" fill="black" fill-opacity="0.2"/>
<path d="M85.9342 11.6555C84.2691 11.6555 82.9371 11.156 81.938 10.157C80.9945 9.15792 80.5227 7.71485 80.5227 5.82777C80.5227 4.05169 80.9945 2.63637 81.938 1.58183C82.8816 0.527275 84.2136 0 85.9342 0C87.5438 0 88.8203 0.499525 89.7639 1.49857C90.7629 2.49762 91.2624 3.94068 91.2624 5.82777C91.2624 7.65935 90.7629 9.10242 89.7639 10.157C88.8203 11.156 87.5438 11.6555 85.9342 11.6555ZM63.7054 11.6555C62.0404 11.6555 60.7083 11.156 59.7093 10.157C58.7657 9.15792 58.2939 7.71485 58.2939 5.82777C58.2939 4.05169 58.7657 2.63637 59.7093 1.58183C60.6528 0.527275 61.9849 0 63.7054 0C65.315 0 66.5916 0.499525 67.5351 1.49857C68.5342 2.49762 69.0337 3.94068 69.0337 5.82777C69.0337 7.65935 68.5342 9.10242 67.5351 10.157C66.5916 11.156 65.315 11.6555 63.7054 11.6555Z" fill="black" fill-opacity="0.2"/>
<path d="M5.4115 11.6555C3.74642 11.6555 2.41436 11.156 1.41531 10.157C0.471772 9.15792 0 7.71485 0 5.82777C0 4.05169 0.471772 2.63637 1.41531 1.58183C2.35886 0.527275 3.69092 0 5.4115 0C7.02107 0 8.29763 0.499525 9.24117 1.49857C10.2402 2.49762 10.7397 3.94068 10.7397 5.82777C10.7397 7.65935 10.2402 9.10242 9.24117 10.157C8.29763 11.156 7.02107 11.6555 5.4115 11.6555Z" fill="black" fill-opacity="0.2"/>
</g>
</svg>
