<svg width="1929" height="1021" viewBox="0 0 1929 1021" fill="none" xmlns="http://www.w3.org/2000/svg">
<rect width="1920" height="903.581" transform="translate(4.36328 4.36365)" fill="url(#paint0_linear_652_661)"/>
<rect width="1920" height="903.581" transform="translate(4.36328 4.36365)" fill="url(#paint1_linear_652_661)"/>
<g filter="url(#filter0_f_652_661)">
<rect x="4.50882" y="4.50919" width="112.65" height="112.65" stroke="white" stroke-opacity="0.12" stroke-width="0.291085"/>
<rect x="117.45" y="4.50919" width="112.65" height="112.65" stroke="white" stroke-opacity="0.12" stroke-width="0.291085"/>
<rect x="230.392" y="4.50919" width="112.65" height="112.65" stroke="white" stroke-opacity="0.12" stroke-width="0.291085"/>
<rect x="343.332" y="4.50919" width="112.65" height="112.65" stroke="white" stroke-opacity="0.12" stroke-width="0.291085"/>
<rect x="456.273" y="4.50919" width="112.65" height="112.65" stroke="white" stroke-opacity="0.12" stroke-width="0.291085"/>
<rect x="569.215" y="4.50919" width="112.65" height="112.65" stroke="white" stroke-opacity="0.12" stroke-width="0.291085"/>
<rect x="682.156" y="4.50919" width="112.65" height="112.65" stroke="white" stroke-opacity="0.12" stroke-width="0.291085"/>
<rect x="795.097" y="4.50919" width="112.65" height="112.65" stroke="white" stroke-opacity="0.12" stroke-width="0.291085"/>
<rect x="908.038" y="4.50919" width="112.65" height="112.65" stroke="white" stroke-opacity="0.12" stroke-width="0.291085"/>
<rect x="1020.98" y="4.50919" width="112.65" height="112.65" stroke="white" stroke-opacity="0.12" stroke-width="0.291085"/>
<rect x="1133.92" y="4.50919" width="112.65" height="112.65" stroke="white" stroke-opacity="0.12" stroke-width="0.291085"/>
<rect x="1246.86" y="4.50919" width="112.65" height="112.65" stroke="white" stroke-opacity="0.12" stroke-width="0.291085"/>
<rect x="1359.8" y="4.50919" width="112.65" height="112.65" stroke="white" stroke-opacity="0.12" stroke-width="0.291085"/>
<rect x="1472.74" y="4.50919" width="112.65" height="112.65" stroke="white" stroke-opacity="0.12" stroke-width="0.291085"/>
<rect x="1585.69" y="4.50919" width="112.65" height="112.65" stroke="white" stroke-opacity="0.12" stroke-width="0.291085"/>
<rect x="1698.63" y="4.50919" width="112.65" height="112.65" stroke="white" stroke-opacity="0.12" stroke-width="0.291085"/>
<rect x="1811.57" y="4.50919" width="112.65" height="112.65" stroke="white" stroke-opacity="0.12" stroke-width="0.291085"/>
<rect x="230.392" y="117.45" width="112.65" height="112.65" stroke="white" stroke-opacity="0.12" stroke-width="0.291085"/>
<rect x="343.332" y="117.45" width="112.65" height="112.65" stroke="white" stroke-opacity="0.12" stroke-width="0.291085"/>
<rect x="456.273" y="117.45" width="112.65" height="112.65" stroke="white" stroke-opacity="0.12" stroke-width="0.291085"/>
<rect x="569.215" y="117.45" width="112.65" height="112.65" stroke="white" stroke-opacity="0.12" stroke-width="0.291085"/>
<rect x="682.156" y="117.45" width="112.65" height="112.65" stroke="white" stroke-opacity="0.12" stroke-width="0.291085"/>
<rect x="795.097" y="117.45" width="112.65" height="112.65" stroke="white" stroke-opacity="0.12" stroke-width="0.291085"/>
<rect x="908.038" y="117.45" width="112.65" height="112.65" stroke="white" stroke-opacity="0.12" stroke-width="0.291085"/>
<rect x="1020.98" y="117.45" width="112.65" height="112.65" stroke="white" stroke-opacity="0.12" stroke-width="0.291085"/>
<rect x="1133.92" y="117.45" width="112.65" height="112.65" stroke="white" stroke-opacity="0.12" stroke-width="0.291085"/>
<rect x="1246.86" y="117.45" width="112.65" height="112.65" stroke="white" stroke-opacity="0.12" stroke-width="0.291085"/>
<rect x="1359.8" y="117.45" width="112.65" height="112.65" stroke="white" stroke-opacity="0.12" stroke-width="0.291085"/>
<rect x="1472.74" y="117.45" width="112.65" height="112.65" stroke="white" stroke-opacity="0.12" stroke-width="0.291085"/>
<rect x="1585.69" y="117.45" width="112.65" height="112.65" stroke="white" stroke-opacity="0.12" stroke-width="0.291085"/>
<rect x="1698.63" y="117.45" width="112.65" height="112.65" stroke="white" stroke-opacity="0.12" stroke-width="0.291085"/>
<rect x="1811.57" y="117.45" width="112.65" height="112.65" stroke="white" stroke-opacity="0.12" stroke-width="0.291085"/>
<rect x="4.50882" y="230.392" width="112.65" height="112.65" stroke="white" stroke-opacity="0.12" stroke-width="0.291085"/>
<rect x="117.45" y="230.392" width="112.65" height="112.65" stroke="white" stroke-opacity="0.12" stroke-width="0.291085"/>
<rect x="230.392" y="230.392" width="112.65" height="112.65" stroke="white" stroke-opacity="0.12" stroke-width="0.291085"/>
<rect x="343.332" y="230.392" width="112.65" height="112.65" stroke="white" stroke-opacity="0.12" stroke-width="0.291085"/>
<rect x="456.273" y="230.392" width="112.65" height="112.65" stroke="white" stroke-opacity="0.12" stroke-width="0.291085"/>
<rect x="569.215" y="230.392" width="112.65" height="112.65" stroke="white" stroke-opacity="0.12" stroke-width="0.291085"/>
<rect x="682.156" y="230.392" width="112.65" height="112.65" stroke="white" stroke-opacity="0.12" stroke-width="0.291085"/>
<rect x="795.097" y="230.392" width="112.65" height="112.65" stroke="white" stroke-opacity="0.12" stroke-width="0.291085"/>
<rect x="908.038" y="230.392" width="112.65" height="112.65" stroke="white" stroke-opacity="0.12" stroke-width="0.291085"/>
<rect x="1020.98" y="230.392" width="112.65" height="112.65" stroke="white" stroke-opacity="0.12" stroke-width="0.291085"/>
<rect x="1133.92" y="230.392" width="112.65" height="112.65" stroke="white" stroke-opacity="0.12" stroke-width="0.291085"/>
<rect x="1246.86" y="230.392" width="112.65" height="112.65" stroke="white" stroke-opacity="0.12" stroke-width="0.291085"/>
<rect x="1359.8" y="230.392" width="112.65" height="112.65" stroke="white" stroke-opacity="0.12" stroke-width="0.291085"/>
<rect x="1472.74" y="230.392" width="112.65" height="112.65" stroke="white" stroke-opacity="0.12" stroke-width="0.291085"/>
<rect x="1585.69" y="230.392" width="112.65" height="112.65" stroke="white" stroke-opacity="0.12" stroke-width="0.291085"/>
<rect x="1698.63" y="230.392" width="112.65" height="112.65" stroke="white" stroke-opacity="0.12" stroke-width="0.291085"/>
<rect x="1811.57" y="230.392" width="112.65" height="112.65" stroke="white" stroke-opacity="0.12" stroke-width="0.291085"/>
<rect x="4.50882" y="343.333" width="112.65" height="112.65" stroke="white" stroke-opacity="0.12" stroke-width="0.291085"/>
<rect x="117.45" y="343.333" width="112.65" height="112.65" stroke="white" stroke-opacity="0.12" stroke-width="0.291085"/>
<rect x="230.392" y="343.333" width="112.65" height="112.65" stroke="white" stroke-opacity="0.12" stroke-width="0.291085"/>
<rect x="343.332" y="343.333" width="112.65" height="112.65" stroke="white" stroke-opacity="0.12" stroke-width="0.291085"/>
<rect x="456.273" y="343.333" width="112.65" height="112.65" stroke="white" stroke-opacity="0.12" stroke-width="0.291085"/>
<rect x="569.215" y="343.333" width="112.65" height="112.65" stroke="white" stroke-opacity="0.12" stroke-width="0.291085"/>
<rect x="682.156" y="343.333" width="112.65" height="112.65" stroke="white" stroke-opacity="0.12" stroke-width="0.291085"/>
<rect x="795.097" y="343.333" width="112.65" height="112.65" stroke="white" stroke-opacity="0.12" stroke-width="0.291085"/>
<rect x="908.038" y="343.333" width="112.65" height="112.65" stroke="white" stroke-opacity="0.12" stroke-width="0.291085"/>
<rect x="1020.98" y="343.333" width="112.65" height="112.65" stroke="white" stroke-opacity="0.12" stroke-width="0.291085"/>
<rect x="1133.92" y="343.333" width="112.65" height="112.65" stroke="white" stroke-opacity="0.12" stroke-width="0.291085"/>
<rect x="1246.86" y="343.333" width="112.65" height="112.65" stroke="white" stroke-opacity="0.12" stroke-width="0.291085"/>
<rect x="1359.8" y="343.333" width="112.65" height="112.65" stroke="white" stroke-opacity="0.12" stroke-width="0.291085"/>
<rect x="1472.74" y="343.333" width="112.65" height="112.65" stroke="white" stroke-opacity="0.12" stroke-width="0.291085"/>
<rect x="1585.69" y="343.333" width="112.65" height="112.65" stroke="white" stroke-opacity="0.12" stroke-width="0.291085"/>
<rect x="1698.63" y="343.333" width="112.65" height="112.65" stroke="white" stroke-opacity="0.12" stroke-width="0.291085"/>
<rect x="1811.57" y="343.333" width="112.65" height="112.65" stroke="white" stroke-opacity="0.12" stroke-width="0.291085"/>
<rect x="4.50882" y="456.274" width="112.65" height="112.65" stroke="white" stroke-opacity="0.12" stroke-width="0.291085"/>
<rect x="117.45" y="456.274" width="112.65" height="112.65" stroke="white" stroke-opacity="0.12" stroke-width="0.291085"/>
<rect x="230.392" y="456.274" width="112.65" height="112.65" stroke="white" stroke-opacity="0.12" stroke-width="0.291085"/>
<rect x="343.332" y="456.274" width="112.65" height="112.65" stroke="white" stroke-opacity="0.12" stroke-width="0.291085"/>
<rect x="456.273" y="456.274" width="112.65" height="112.65" stroke="white" stroke-opacity="0.12" stroke-width="0.291085"/>
<rect x="569.215" y="456.274" width="112.65" height="112.65" stroke="white" stroke-opacity="0.12" stroke-width="0.291085"/>
<rect x="682.156" y="456.274" width="112.65" height="112.65" stroke="white" stroke-opacity="0.12" stroke-width="0.291085"/>
<rect x="795.097" y="456.274" width="112.65" height="112.65" stroke="white" stroke-opacity="0.12" stroke-width="0.291085"/>
<rect x="908.038" y="456.274" width="112.65" height="112.65" stroke="white" stroke-opacity="0.12" stroke-width="0.291085"/>
<rect x="1020.98" y="456.274" width="112.65" height="112.65" stroke="white" stroke-opacity="0.12" stroke-width="0.291085"/>
<rect x="1133.92" y="456.274" width="112.65" height="112.65" stroke="white" stroke-opacity="0.12" stroke-width="0.291085"/>
<rect x="1246.86" y="456.274" width="112.65" height="112.65" stroke="white" stroke-opacity="0.12" stroke-width="0.291085"/>
<rect x="1359.8" y="456.274" width="112.65" height="112.65" stroke="white" stroke-opacity="0.12" stroke-width="0.291085"/>
<rect x="1472.74" y="456.274" width="112.65" height="112.65" stroke="white" stroke-opacity="0.12" stroke-width="0.291085"/>
<rect x="1585.69" y="456.274" width="112.65" height="112.65" stroke="white" stroke-opacity="0.12" stroke-width="0.291085"/>
<rect x="1698.63" y="456.274" width="112.65" height="112.65" stroke="white" stroke-opacity="0.12" stroke-width="0.291085"/>
<rect x="1811.57" y="456.274" width="112.65" height="112.65" stroke="white" stroke-opacity="0.12" stroke-width="0.291085"/>
<rect x="4.50882" y="569.215" width="112.65" height="112.65" stroke="white" stroke-opacity="0.12" stroke-width="0.291085"/>
<rect x="117.45" y="569.215" width="112.65" height="112.65" stroke="white" stroke-opacity="0.12" stroke-width="0.291085"/>
<rect x="230.392" y="569.215" width="112.65" height="112.65" stroke="white" stroke-opacity="0.12" stroke-width="0.291085"/>
<rect x="343.332" y="569.215" width="112.65" height="112.65" stroke="white" stroke-opacity="0.12" stroke-width="0.291085"/>
<rect x="456.273" y="569.215" width="112.65" height="112.65" stroke="white" stroke-opacity="0.12" stroke-width="0.291085"/>
<rect x="569.215" y="569.215" width="112.65" height="112.65" stroke="white" stroke-opacity="0.12" stroke-width="0.291085"/>
<rect x="682.156" y="569.215" width="112.65" height="112.65" stroke="white" stroke-opacity="0.12" stroke-width="0.291085"/>
<rect x="795.097" y="569.215" width="112.65" height="112.65" stroke="white" stroke-opacity="0.12" stroke-width="0.291085"/>
<rect x="908.038" y="569.215" width="112.65" height="112.65" stroke="white" stroke-opacity="0.12" stroke-width="0.291085"/>
<rect x="1020.98" y="569.215" width="112.65" height="112.65" stroke="white" stroke-opacity="0.12" stroke-width="0.291085"/>
<rect x="1133.92" y="569.215" width="112.65" height="112.65" stroke="white" stroke-opacity="0.12" stroke-width="0.291085"/>
<rect x="1246.86" y="569.215" width="112.65" height="112.65" stroke="white" stroke-opacity="0.12" stroke-width="0.291085"/>
<rect x="1359.8" y="569.215" width="112.65" height="112.65" stroke="white" stroke-opacity="0.12" stroke-width="0.291085"/>
<rect x="1472.74" y="569.215" width="112.65" height="112.65" stroke="white" stroke-opacity="0.12" stroke-width="0.291085"/>
<rect x="1585.69" y="569.215" width="112.65" height="112.65" stroke="white" stroke-opacity="0.12" stroke-width="0.291085"/>
<rect x="1698.63" y="569.215" width="112.65" height="112.65" stroke="white" stroke-opacity="0.12" stroke-width="0.291085"/>
<rect x="1811.57" y="569.215" width="112.65" height="112.65" stroke="white" stroke-opacity="0.12" stroke-width="0.291085"/>
<rect x="4.50882" y="682.156" width="112.65" height="112.65" stroke="white" stroke-opacity="0.12" stroke-width="0.291085"/>
<rect x="117.45" y="682.156" width="112.65" height="112.65" stroke="white" stroke-opacity="0.12" stroke-width="0.291085"/>
<rect x="230.392" y="682.156" width="112.65" height="112.65" stroke="white" stroke-opacity="0.12" stroke-width="0.291085"/>
<rect x="343.332" y="682.156" width="112.65" height="112.65" stroke="white" stroke-opacity="0.12" stroke-width="0.291085"/>
<rect x="456.273" y="682.156" width="112.65" height="112.65" stroke="white" stroke-opacity="0.12" stroke-width="0.291085"/>
<rect x="569.215" y="682.156" width="112.65" height="112.65" stroke="white" stroke-opacity="0.12" stroke-width="0.291085"/>
<rect x="682.156" y="682.156" width="112.65" height="112.65" stroke="white" stroke-opacity="0.12" stroke-width="0.291085"/>
<rect x="795.097" y="682.156" width="112.65" height="112.65" stroke="white" stroke-opacity="0.12" stroke-width="0.291085"/>
<rect x="908.038" y="682.156" width="112.65" height="112.65" stroke="white" stroke-opacity="0.12" stroke-width="0.291085"/>
<rect x="1020.98" y="682.156" width="112.65" height="112.65" stroke="white" stroke-opacity="0.12" stroke-width="0.291085"/>
<rect x="1133.92" y="682.156" width="112.65" height="112.65" stroke="white" stroke-opacity="0.12" stroke-width="0.291085"/>
<rect x="1246.86" y="682.156" width="112.65" height="112.65" stroke="white" stroke-opacity="0.12" stroke-width="0.291085"/>
<rect x="1359.8" y="682.156" width="112.65" height="112.65" stroke="white" stroke-opacity="0.12" stroke-width="0.291085"/>
<rect x="1472.74" y="682.156" width="112.65" height="112.65" stroke="white" stroke-opacity="0.12" stroke-width="0.291085"/>
<rect x="1585.69" y="682.156" width="112.65" height="112.65" stroke="white" stroke-opacity="0.12" stroke-width="0.291085"/>
<rect x="1698.63" y="682.156" width="112.65" height="112.65" stroke="white" stroke-opacity="0.12" stroke-width="0.291085"/>
<rect x="1811.57" y="682.156" width="112.65" height="112.65" stroke="white" stroke-opacity="0.12" stroke-width="0.291085"/>
<rect x="4.50882" y="795.098" width="112.65" height="112.65" stroke="white" stroke-opacity="0.12" stroke-width="0.291085"/>
<rect x="117.45" y="795.098" width="112.65" height="112.65" stroke="white" stroke-opacity="0.12" stroke-width="0.291085"/>
<rect x="230.392" y="795.097" width="112.65" height="112.65" stroke="white" stroke-opacity="0.12" stroke-width="0.291085"/>
<rect x="343.332" y="795.097" width="112.65" height="112.65" stroke="white" stroke-opacity="0.12" stroke-width="0.291085"/>
<rect x="456.273" y="795.097" width="112.65" height="112.65" stroke="white" stroke-opacity="0.12" stroke-width="0.291085"/>
<rect x="569.215" y="795.097" width="112.65" height="112.65" stroke="white" stroke-opacity="0.12" stroke-width="0.291085"/>
<rect x="682.156" y="795.097" width="112.65" height="112.65" stroke="white" stroke-opacity="0.12" stroke-width="0.291085"/>
<rect x="795.097" y="795.097" width="112.65" height="112.65" stroke="white" stroke-opacity="0.12" stroke-width="0.291085"/>
<rect x="908.038" y="795.098" width="112.65" height="112.65" stroke="white" stroke-opacity="0.12" stroke-width="0.291085"/>
<rect x="1020.98" y="795.098" width="112.65" height="112.65" stroke="white" stroke-opacity="0.12" stroke-width="0.291085"/>
<rect x="1133.92" y="795.098" width="112.65" height="112.65" stroke="white" stroke-opacity="0.12" stroke-width="0.291085"/>
<rect x="1246.86" y="795.098" width="112.65" height="112.65" stroke="white" stroke-opacity="0.12" stroke-width="0.291085"/>
<rect x="1359.8" y="795.098" width="112.65" height="112.65" stroke="white" stroke-opacity="0.12" stroke-width="0.291085"/>
<rect x="1472.74" y="795.097" width="112.65" height="112.65" stroke="white" stroke-opacity="0.12" stroke-width="0.291085"/>
<rect x="1585.69" y="795.097" width="112.65" height="112.65" stroke="white" stroke-opacity="0.12" stroke-width="0.291085"/>
<rect x="1698.63" y="795.098" width="112.65" height="112.65" stroke="white" stroke-opacity="0.12" stroke-width="0.291085"/>
<rect x="1811.57" y="795.098" width="112.65" height="112.65" stroke="white" stroke-opacity="0.12" stroke-width="0.291085"/>
<rect x="4.50882" y="117.45" width="112.65" height="112.65" stroke="white" stroke-opacity="0.12" stroke-width="0.291085"/>
<circle cx="117.304" cy="117.305" r="2.0376" fill="white" fill-opacity="0.12"/>
<circle cx="1020.83" cy="117.305" r="2.0376" fill="white" fill-opacity="0.12"/>
<circle cx="343.186" cy="117.305" r="2.0376" fill="white" fill-opacity="0.12"/>
<circle cx="1246.72" cy="117.305" r="2.0376" fill="white" fill-opacity="0.12"/>
<circle cx="230.245" cy="117.305" r="2.0376" fill="white" fill-opacity="0.12"/>
<circle cx="1133.77" cy="117.305" r="2.0376" fill="white" fill-opacity="0.12"/>
<circle cx="456.127" cy="117.305" r="2.0376" fill="white" fill-opacity="0.12"/>
<circle cx="1359.66" cy="117.305" r="2.0376" fill="white" fill-opacity="0.12"/>
<circle cx="569.069" cy="117.305" r="2.0376" fill="white" fill-opacity="0.12"/>
<circle cx="1472.6" cy="117.305" r="2.0376" fill="white" fill-opacity="0.12"/>
<circle cx="794.952" cy="117.305" r="2.0376" fill="white" fill-opacity="0.12"/>
<circle cx="1698.48" cy="117.305" r="2.0376" fill="white" fill-opacity="0.12"/>
<circle cx="682.01" cy="117.305" r="2.0376" fill="white" fill-opacity="0.12"/>
<circle cx="1585.54" cy="117.305" r="2.0376" fill="white" fill-opacity="0.12"/>
<circle cx="907.892" cy="117.305" r="2.0376" fill="white" fill-opacity="0.12"/>
<circle cx="1811.42" cy="117.305" r="2.0376" fill="white" fill-opacity="0.12"/>
<circle cx="117.304" cy="343.187" r="2.0376" fill="white" fill-opacity="0.12"/>
<circle cx="1020.83" cy="343.187" r="2.0376" fill="white" fill-opacity="0.12"/>
<circle cx="343.186" cy="343.187" r="2.0376" fill="white" fill-opacity="0.12"/>
<circle cx="1246.72" cy="343.187" r="2.0376" fill="white" fill-opacity="0.12"/>
<circle cx="230.245" cy="343.187" r="2.0376" fill="white" fill-opacity="0.12"/>
<circle cx="1133.77" cy="343.187" r="2.0376" fill="white" fill-opacity="0.12"/>
<circle cx="456.127" cy="343.187" r="2.0376" fill="white" fill-opacity="0.12"/>
<circle cx="1359.66" cy="343.187" r="2.0376" fill="white" fill-opacity="0.12"/>
<circle cx="569.069" cy="343.187" r="2.0376" fill="white" fill-opacity="0.12"/>
<circle cx="1472.6" cy="343.187" r="2.0376" fill="white" fill-opacity="0.12"/>
<circle cx="794.952" cy="343.187" r="2.0376" fill="white" fill-opacity="0.12"/>
<circle cx="1698.48" cy="343.187" r="2.0376" fill="white" fill-opacity="0.12"/>
<circle cx="682.01" cy="343.187" r="2.0376" fill="white" fill-opacity="0.12"/>
<circle cx="1585.54" cy="343.187" r="2.0376" fill="white" fill-opacity="0.12"/>
<circle cx="907.892" cy="343.187" r="2.0376" fill="white" fill-opacity="0.12"/>
<circle cx="1811.42" cy="343.187" r="2.0376" fill="white" fill-opacity="0.12"/>
<circle cx="117.304" cy="569.069" r="2.0376" fill="white" fill-opacity="0.12"/>
<circle cx="1020.83" cy="569.069" r="2.0376" fill="white" fill-opacity="0.12"/>
<circle cx="343.186" cy="569.069" r="2.0376" fill="white" fill-opacity="0.12"/>
<circle cx="1246.72" cy="569.069" r="2.0376" fill="white" fill-opacity="0.12"/>
<circle cx="230.245" cy="569.069" r="2.0376" fill="white" fill-opacity="0.12"/>
<circle cx="1133.77" cy="569.069" r="2.0376" fill="white" fill-opacity="0.12"/>
<circle cx="456.127" cy="569.069" r="2.0376" fill="white" fill-opacity="0.12"/>
<circle cx="1359.66" cy="569.069" r="2.0376" fill="white" fill-opacity="0.12"/>
<circle cx="569.069" cy="569.069" r="2.0376" fill="white" fill-opacity="0.12"/>
<circle cx="1472.6" cy="569.069" r="2.0376" fill="white" fill-opacity="0.12"/>
<circle cx="794.952" cy="569.069" r="2.0376" fill="white" fill-opacity="0.12"/>
<circle cx="1698.48" cy="569.069" r="2.0376" fill="white" fill-opacity="0.12"/>
<circle cx="682.01" cy="569.069" r="2.0376" fill="white" fill-opacity="0.12"/>
<circle cx="1585.54" cy="569.069" r="2.0376" fill="white" fill-opacity="0.12"/>
<circle cx="907.892" cy="569.069" r="2.0376" fill="white" fill-opacity="0.12"/>
<circle cx="1811.42" cy="569.069" r="2.0376" fill="white" fill-opacity="0.12"/>
<circle cx="117.304" cy="794.952" r="2.0376" fill="white" fill-opacity="0.12"/>
<circle cx="1020.83" cy="794.952" r="2.0376" fill="white" fill-opacity="0.12"/>
<circle cx="343.186" cy="794.952" r="2.0376" fill="white" fill-opacity="0.12"/>
<circle cx="1246.72" cy="794.952" r="2.0376" fill="white" fill-opacity="0.12"/>
<circle cx="230.245" cy="794.952" r="2.0376" fill="white" fill-opacity="0.12"/>
<circle cx="1133.77" cy="794.952" r="2.0376" fill="white" fill-opacity="0.12"/>
<circle cx="456.127" cy="794.952" r="2.0376" fill="white" fill-opacity="0.12"/>
<circle cx="1359.66" cy="794.952" r="2.0376" fill="white" fill-opacity="0.12"/>
<circle cx="569.069" cy="794.952" r="2.0376" fill="white" fill-opacity="0.12"/>
<circle cx="1472.6" cy="794.952" r="2.0376" fill="white" fill-opacity="0.12"/>
<circle cx="794.952" cy="794.952" r="2.0376" fill="white" fill-opacity="0.12"/>
<circle cx="1698.48" cy="794.952" r="2.0376" fill="white" fill-opacity="0.12"/>
<circle cx="682.01" cy="794.952" r="2.0376" fill="white" fill-opacity="0.12"/>
<circle cx="1585.54" cy="794.952" r="2.0376" fill="white" fill-opacity="0.12"/>
<circle cx="907.892" cy="794.952" r="2.0376" fill="white" fill-opacity="0.12"/>
<circle cx="1811.42" cy="794.952" r="2.0376" fill="white" fill-opacity="0.12"/>
<circle cx="117.304" cy="230.246" r="2.0376" fill="white" fill-opacity="0.12"/>
<circle cx="1020.83" cy="230.246" r="2.0376" fill="white" fill-opacity="0.12"/>
<circle cx="343.186" cy="230.246" r="2.0376" fill="white" fill-opacity="0.12"/>
<circle cx="1246.72" cy="230.246" r="2.0376" fill="white" fill-opacity="0.12"/>
<circle cx="230.245" cy="230.246" r="2.0376" fill="white" fill-opacity="0.12"/>
<circle cx="1133.77" cy="230.246" r="2.0376" fill="white" fill-opacity="0.12"/>
<circle cx="456.127" cy="230.246" r="2.0376" fill="white" fill-opacity="0.12"/>
<circle cx="1359.66" cy="230.246" r="2.0376" fill="white" fill-opacity="0.12"/>
<circle cx="569.069" cy="230.246" r="2.0376" fill="white" fill-opacity="0.12"/>
<circle cx="1472.6" cy="230.246" r="2.0376" fill="white" fill-opacity="0.12"/>
<circle cx="794.952" cy="230.246" r="2.0376" fill="white" fill-opacity="0.12"/>
<circle cx="1698.48" cy="230.246" r="2.0376" fill="white" fill-opacity="0.12"/>
<circle cx="682.01" cy="230.246" r="2.0376" fill="white" fill-opacity="0.12"/>
<circle cx="1585.54" cy="230.246" r="2.0376" fill="white" fill-opacity="0.12"/>
<circle cx="907.892" cy="230.246" r="2.0376" fill="white" fill-opacity="0.12"/>
<circle cx="1811.42" cy="230.246" r="2.0376" fill="white" fill-opacity="0.12"/>
<circle cx="117.304" cy="456.128" r="2.0376" fill="white" fill-opacity="0.12"/>
<circle cx="1020.83" cy="456.128" r="2.0376" fill="white" fill-opacity="0.12"/>
<circle cx="343.186" cy="456.128" r="2.0376" fill="white" fill-opacity="0.12"/>
<circle cx="1246.72" cy="456.128" r="2.0376" fill="white" fill-opacity="0.12"/>
<circle cx="230.245" cy="456.128" r="2.0376" fill="white" fill-opacity="0.12"/>
<circle cx="1133.77" cy="456.128" r="2.0376" fill="white" fill-opacity="0.12"/>
<circle cx="456.127" cy="456.128" r="2.0376" fill="white" fill-opacity="0.12"/>
<circle cx="1359.66" cy="456.128" r="2.0376" fill="white" fill-opacity="0.12"/>
<circle cx="569.069" cy="456.128" r="2.0376" fill="white" fill-opacity="0.12"/>
<circle cx="1472.6" cy="456.128" r="2.0376" fill="white" fill-opacity="0.12"/>
<circle cx="794.952" cy="456.128" r="2.0376" fill="white" fill-opacity="0.12"/>
<circle cx="1698.48" cy="456.128" r="2.0376" fill="white" fill-opacity="0.12"/>
<circle cx="682.01" cy="456.129" r="2.0376" fill="white" fill-opacity="0.12"/>
<circle cx="1585.54" cy="456.128" r="2.0376" fill="white" fill-opacity="0.12"/>
<circle cx="907.892" cy="456.128" r="2.0376" fill="white" fill-opacity="0.12"/>
<circle cx="1811.42" cy="456.128" r="2.0376" fill="white" fill-opacity="0.12"/>
<circle cx="117.304" cy="682.011" r="2.0376" fill="white" fill-opacity="0.12"/>
<circle cx="1020.83" cy="682.011" r="2.0376" fill="white" fill-opacity="0.12"/>
<circle cx="343.186" cy="682.011" r="2.0376" fill="white" fill-opacity="0.12"/>
<circle cx="1246.72" cy="682.011" r="2.0376" fill="white" fill-opacity="0.12"/>
<circle cx="230.245" cy="682.011" r="2.0376" fill="white" fill-opacity="0.12"/>
<circle cx="1133.77" cy="682.011" r="2.0376" fill="white" fill-opacity="0.12"/>
<circle cx="456.127" cy="682.011" r="2.0376" fill="white" fill-opacity="0.12"/>
<circle cx="1359.66" cy="682.011" r="2.0376" fill="white" fill-opacity="0.12"/>
<circle cx="569.069" cy="682.011" r="2.0376" fill="white" fill-opacity="0.12"/>
<circle cx="1472.6" cy="682.011" r="2.0376" fill="white" fill-opacity="0.12"/>
<circle cx="794.952" cy="682.011" r="2.0376" fill="white" fill-opacity="0.12"/>
<circle cx="1698.48" cy="682.011" r="2.0376" fill="white" fill-opacity="0.12"/>
<circle cx="682.01" cy="682.011" r="2.0376" fill="white" fill-opacity="0.12"/>
<circle cx="1585.54" cy="682.011" r="2.0376" fill="white" fill-opacity="0.12"/>
<circle cx="907.892" cy="682.011" r="2.0376" fill="white" fill-opacity="0.12"/>
<circle cx="1811.42" cy="682.011" r="2.0376" fill="white" fill-opacity="0.12"/>
<rect x="117.45" y="117.45" width="112.65" height="112.65" stroke="white" stroke-opacity="0.12" stroke-width="0.291085"/>
</g>
<defs>
<filter id="filter0_f_652_661" x="-0.000355244" y="1.09673e-05" width="1928.73" height="1025.2" filterUnits="userSpaceOnUse" color-interpolation-filters="sRGB">
<feFlood flood-opacity="0" result="BackgroundImageFix"/>
<feBlend mode="normal" in="SourceGraphic" in2="BackgroundImageFix" result="shape"/>
<feGaussianBlur stdDeviation="2.18182" result="effect1_foregroundBlur_652_661"/>
</filter>
<linearGradient id="paint0_linear_652_661" x1="173.477" y1="360.594" x2="1753.1" y2="1156.36" gradientUnits="userSpaceOnUse">
<stop stop-color="#C0412C"/>
<stop offset="1" stop-color="#F4C15D"/>
</linearGradient>
<linearGradient id="paint1_linear_652_661" x1="173.477" y1="360.594" x2="1753.1" y2="1156.36" gradientUnits="userSpaceOnUse">
<stop stop-color="#C0412C"/>
<stop offset="1" stop-color="#F4C15D"/>
</linearGradient>
</defs>
</svg>
