<svg width="252" height="127" viewBox="0 0 252 127" fill="none" xmlns="http://www.w3.org/2000/svg">
<g clip-path="url(#clip0_999_14353)">
<g clip-path="url(#clip1_999_14353)">
<path d="M125.995 4C114.167 4 104.507 13.6234 104.5 25.4075C104.496 37.1915 114.157 46.8653 125.953 46.8871C137.802 46.9112 147.509 37.2287 147.5 25.3965C147.491 13.6103 137.83 3.99781 125.995 4ZM139.863 22.7258C138.383 24.2932 136.937 25.8912 135.416 27.4149C134.83 27.9994 134.677 28.5926 134.784 29.3676C135.206 32.4324 135.596 35.5015 135.996 38.5685C136.02 38.7458 136.033 38.9231 136.068 39.2537C133.603 38.0956 131.156 37.1368 128.909 35.8343C126.857 34.6434 125.128 34.6434 123.076 35.8474C120.855 37.1477 118.423 38.0912 115.939 39.258C116.182 37.2791 116.402 35.4249 116.639 33.5751C116.816 32.2025 116.99 30.8299 117.211 29.4661C117.35 28.608 117.137 27.9687 116.507 27.3251C114.262 25.0331 112.083 22.6754 109.815 20.2761C110.028 20.1623 110.162 20.0419 110.316 20.0134C113.43 19.4202 116.542 18.8007 119.67 18.2818C120.429 18.1571 120.82 17.8199 121.151 17.2026C122.547 14.6041 123.969 12.021 125.387 9.4356C125.556 9.12912 125.755 8.84234 126.032 8.39795C127.013 10.1799 127.921 11.8261 128.826 13.4723C129.545 14.7793 130.226 16.1124 131.005 17.3821C131.235 17.7543 131.718 18.1133 132.142 18.1987C135.322 18.8423 138.515 19.4136 141.704 20.0134C141.838 20.0397 141.963 20.1207 142.222 20.2346C141.394 21.108 140.626 21.9158 139.863 22.7258Z" fill="#3971B2"/>
<path d="M133.547 49V59.985C130.45 59.6151 128.121 57.9404 126.008 55.5367C123.927 57.8966 121.592 59.6063 118.421 60.0004V49C123.464 50.5127 128.461 50.5499 133.547 49Z" fill="#3971B2"/>
<path d="M140.896 45.3066V52.5023C140.392 52.3906 139.961 52.3206 139.547 52.2002C136.838 51.4209 136.411 50.7313 136.948 47.9905C136.99 47.7782 137.165 47.5352 137.352 47.4213C138.489 46.7164 139.648 46.0444 140.896 45.3066Z" fill="#3971B2"/>
<path d="M112.047 52.34C111.766 52.4013 111.472 52.4144 111.058 52.4669V45.2822C112.368 46.0594 113.623 46.7599 114.821 47.5502C115.03 47.6881 115.058 48.1916 115.065 48.5287C115.116 51.4402 114.909 51.6942 112.047 52.34Z" fill="#3971B2"/>
<path d="M135.794 22.2701C135.017 23.0866 134.4 23.8944 133.632 24.5095C131.615 26.1185 130.803 28.0209 131.637 30.5778C131.934 31.4841 131.876 32.5064 132.004 33.6995C130.222 32.8654 128.604 32.1496 127.028 31.3484C126.315 30.985 125.738 30.9543 125.005 31.3352C123.436 32.1518 121.805 32.8589 119.979 33.7148C120.207 31.8409 120.346 30.1837 120.635 28.555C120.811 27.5656 120.642 26.8453 119.898 26.1317C118.667 24.9495 117.539 23.6623 116.229 22.2722C118.05 21.9242 119.694 21.5564 121.357 21.309C122.376 21.158 123.036 20.7574 123.495 19.7854C124.204 18.2771 125.08 16.8476 125.993 15.1904C126.835 16.7031 127.685 18.0407 128.339 19.4658C128.879 20.6457 129.612 21.2302 130.939 21.3572C132.491 21.5061 134.014 21.922 135.794 22.2701Z" fill="#3971B2"/>
</g>
</g>
<path d="M4.69903 121V103.12H16.339V105.28H7.05103V110.944H15.859V113.104H7.05103V118.84H16.339V121H4.69903ZM17.5257 121L22.0617 114.52L17.5497 108.064H20.2377L24.1017 113.68H22.7337L26.5497 108.064H29.2617L24.7497 114.52L29.2377 121H26.5497L22.7337 115.384H24.0777L20.2617 121H17.5257ZM31.2475 125.8V108.064H33.4315V110.848L33.1435 110.296C33.6235 109.528 34.2795 108.92 35.1115 108.472C35.9435 108.008 36.8955 107.776 37.9675 107.776C39.1835 107.776 40.2715 108.072 41.2315 108.664C42.2075 109.256 42.9755 110.064 43.5355 111.088C44.0955 112.096 44.3755 113.248 44.3755 114.544C44.3755 115.808 44.0955 116.952 43.5355 117.976C42.9755 119 42.2075 119.808 41.2315 120.4C40.2715 120.992 39.1755 121.288 37.9435 121.288C36.9035 121.288 35.9515 121.056 35.0875 120.592C34.2395 120.128 33.5835 119.472 33.1195 118.624L33.4795 118.24V125.8H31.2475ZM37.7755 119.128C38.5915 119.128 39.3195 118.928 39.9595 118.528C40.5995 118.128 41.0955 117.584 41.4475 116.896C41.8155 116.192 41.9995 115.408 41.9995 114.544C41.9995 113.648 41.8155 112.864 41.4475 112.192C41.0955 111.504 40.5995 110.96 39.9595 110.56C39.3195 110.144 38.5915 109.936 37.7755 109.936C36.9595 109.936 36.2235 110.136 35.5675 110.536C34.9275 110.936 34.4155 111.488 34.0315 112.192C33.6635 112.88 33.4795 113.664 33.4795 114.544C33.4795 115.408 33.6635 116.192 34.0315 116.896C34.4155 117.584 34.9275 118.128 35.5675 118.528C36.2235 118.928 36.9595 119.128 37.7755 119.128ZM53.2542 121.288C52.0062 121.288 50.8942 120.992 49.9182 120.4C48.9422 119.808 48.1742 119 47.6142 117.976C47.0542 116.936 46.7742 115.776 46.7742 114.496C46.7742 113.2 47.0462 112.048 47.5902 111.04C48.1502 110.032 48.9022 109.24 49.8462 108.664C50.8062 108.072 51.8782 107.776 53.0622 107.776C54.0222 107.776 54.8702 107.952 55.6062 108.304C56.3582 108.64 56.9902 109.104 57.5022 109.696C58.0302 110.272 58.4302 110.936 58.7022 111.688C58.9902 112.424 59.1342 113.192 59.1342 113.992C59.1342 114.168 59.1182 114.368 59.0862 114.592C59.0702 114.8 59.0462 115 59.0142 115.192H48.4062V113.272H57.7182L56.6622 114.136C56.8062 113.304 56.7262 112.56 56.4222 111.904C56.1182 111.248 55.6702 110.728 55.0782 110.344C54.4862 109.96 53.8142 109.768 53.0622 109.768C52.3102 109.768 51.6222 109.96 50.9982 110.344C50.3742 110.728 49.8862 111.28 49.5342 112C49.1982 112.704 49.0622 113.544 49.1262 114.52C49.0622 115.464 49.2062 116.296 49.5582 117.016C49.9262 117.72 50.4382 118.272 51.0942 118.672C51.7662 119.056 52.4942 119.248 53.2782 119.248C54.1422 119.248 54.8702 119.048 55.4622 118.648C56.0542 118.248 56.5342 117.736 56.9022 117.112L58.7742 118.072C58.5182 118.664 58.1182 119.208 57.5742 119.704C57.0462 120.184 56.4142 120.568 55.6782 120.856C54.9582 121.144 54.1502 121.288 53.2542 121.288ZM62.0444 121V108.064H64.2284V110.44L63.9884 110.104C64.2924 109.368 64.7564 108.824 65.3804 108.472C66.0044 108.104 66.7644 107.92 67.6604 107.92H68.4524V110.032H67.3244C66.4124 110.032 65.6764 110.32 65.1164 110.896C64.5564 111.456 64.2764 112.256 64.2764 113.296V121H62.0444ZM70.435 121V108.064H72.667V121H70.435ZM70.435 106V103.12H72.667V106H70.435ZM82.0823 121.288C80.8343 121.288 79.7223 120.992 78.7463 120.4C77.7703 119.808 77.0023 119 76.4423 117.976C75.8823 116.936 75.6023 115.776 75.6023 114.496C75.6023 113.2 75.8743 112.048 76.4183 111.04C76.9783 110.032 77.7303 109.24 78.6743 108.664C79.6343 108.072 80.7063 107.776 81.8903 107.776C82.8503 107.776 83.6983 107.952 84.4343 108.304C85.1863 108.64 85.8183 109.104 86.3303 109.696C86.8583 110.272 87.2583 110.936 87.5303 111.688C87.8183 112.424 87.9623 113.192 87.9623 113.992C87.9623 114.168 87.9463 114.368 87.9143 114.592C87.8983 114.8 87.8743 115 87.8423 115.192H77.2343V113.272H86.5463L85.4903 114.136C85.6343 113.304 85.5543 112.56 85.2503 111.904C84.9463 111.248 84.4983 110.728 83.9063 110.344C83.3143 109.96 82.6423 109.768 81.8903 109.768C81.1383 109.768 80.4503 109.96 79.8263 110.344C79.2023 110.728 78.7143 111.28 78.3623 112C78.0263 112.704 77.8903 113.544 77.9543 114.52C77.8903 115.464 78.0343 116.296 78.3863 117.016C78.7543 117.72 79.2663 118.272 79.9223 118.672C80.5943 119.056 81.3223 119.248 82.1063 119.248C82.9703 119.248 83.6983 119.048 84.2903 118.648C84.8823 118.248 85.3623 117.736 85.7303 117.112L87.6023 118.072C87.3463 118.664 86.9463 119.208 86.4023 119.704C85.8743 120.184 85.2423 120.568 84.5063 120.856C83.7863 121.144 82.9783 121.288 82.0823 121.288ZM90.8725 121V108.064H93.0565V110.584L92.6965 110.368C93.0165 109.552 93.5285 108.92 94.2325 108.472C94.9525 108.008 95.7925 107.776 96.7525 107.776C97.6805 107.776 98.5045 107.984 99.2245 108.4C99.9605 108.816 100.537 109.392 100.953 110.128C101.385 110.864 101.601 111.696 101.601 112.624V121H99.3445V113.344C99.3445 112.624 99.2165 112.016 98.9605 111.52C98.7045 111.024 98.3365 110.64 97.8565 110.368C97.3925 110.08 96.8565 109.936 96.2485 109.936C95.6405 109.936 95.0965 110.08 94.6165 110.368C94.1525 110.64 93.7845 111.032 93.5125 111.544C93.2405 112.04 93.1045 112.64 93.1045 113.344V121H90.8725ZM110.794 121.288C109.53 121.288 108.402 120.992 107.41 120.4C106.434 119.808 105.666 119 105.106 117.976C104.546 116.952 104.266 115.8 104.266 114.52C104.266 113.224 104.546 112.072 105.106 111.064C105.666 110.056 106.434 109.256 107.41 108.664C108.402 108.072 109.53 107.776 110.794 107.776C111.642 107.776 112.434 107.928 113.17 108.232C113.906 108.536 114.554 108.944 115.114 109.456C115.674 109.968 116.082 110.568 116.338 111.256L114.346 112.216C114.042 111.544 113.578 111 112.954 110.584C112.33 110.152 111.61 109.936 110.794 109.936C110.01 109.936 109.298 110.136 108.658 110.536C108.034 110.936 107.538 111.48 107.17 112.168C106.802 112.856 106.618 113.648 106.618 114.544C106.618 115.408 106.802 116.192 107.17 116.896C107.538 117.584 108.034 118.128 108.658 118.528C109.298 118.928 110.01 119.128 110.794 119.128C111.61 119.128 112.33 118.92 112.954 118.504C113.578 118.072 114.042 117.504 114.346 116.8L116.338 117.808C116.082 118.48 115.674 119.08 115.114 119.608C114.554 120.12 113.906 120.528 113.17 120.832C112.434 121.136 111.642 121.288 110.794 121.288ZM125.207 121.288C123.959 121.288 122.847 120.992 121.871 120.4C120.895 119.808 120.127 119 119.567 117.976C119.007 116.936 118.727 115.776 118.727 114.496C118.727 113.2 118.999 112.048 119.543 111.04C120.103 110.032 120.855 109.24 121.799 108.664C122.759 108.072 123.831 107.776 125.015 107.776C125.975 107.776 126.823 107.952 127.559 108.304C128.311 108.64 128.943 109.104 129.455 109.696C129.983 110.272 130.383 110.936 130.655 111.688C130.943 112.424 131.087 113.192 131.087 113.992C131.087 114.168 131.071 114.368 131.039 114.592C131.023 114.8 130.999 115 130.967 115.192H120.359V113.272H129.671L128.615 114.136C128.759 113.304 128.679 112.56 128.375 111.904C128.071 111.248 127.623 110.728 127.031 110.344C126.439 109.96 125.767 109.768 125.015 109.768C124.263 109.768 123.575 109.96 122.951 110.344C122.327 110.728 121.839 111.28 121.487 112C121.151 112.704 121.015 113.544 121.079 114.52C121.015 115.464 121.159 116.296 121.511 117.016C121.879 117.72 122.391 118.272 123.047 118.672C123.719 119.056 124.447 119.248 125.231 119.248C126.095 119.248 126.823 119.048 127.415 118.648C128.007 118.248 128.487 117.736 128.855 117.112L130.727 118.072C130.471 118.664 130.071 119.208 129.527 119.704C128.999 120.184 128.367 120.568 127.631 120.856C126.911 121.144 126.103 121.288 125.207 121.288ZM144.554 121.288C143.418 121.288 142.378 121.08 141.434 120.664C140.49 120.232 139.69 119.648 139.034 118.912C138.378 118.176 137.906 117.352 137.618 116.44L139.658 115.6C140.09 116.752 140.73 117.64 141.578 118.264C142.442 118.872 143.45 119.176 144.602 119.176C145.306 119.176 145.922 119.064 146.45 118.84C146.978 118.616 147.386 118.304 147.674 117.904C147.978 117.488 148.13 117.008 148.13 116.464C148.13 115.712 147.914 115.12 147.482 114.688C147.066 114.24 146.45 113.904 145.634 113.68L142.346 112.672C141.05 112.272 140.058 111.64 139.37 110.776C138.682 109.912 138.338 108.92 138.338 107.8C138.338 106.824 138.57 105.968 139.034 105.232C139.514 104.48 140.17 103.896 141.002 103.48C141.85 103.048 142.81 102.832 143.882 102.832C144.954 102.832 145.922 103.024 146.786 103.408C147.666 103.792 148.41 104.312 149.018 104.968C149.626 105.608 150.074 106.344 150.362 107.176L148.346 108.016C147.962 107.008 147.386 106.248 146.618 105.736C145.85 105.208 144.946 104.944 143.906 104.944C143.266 104.944 142.698 105.056 142.202 105.28C141.722 105.488 141.346 105.8 141.074 106.216C140.818 106.616 140.69 107.096 140.69 107.656C140.69 108.312 140.898 108.896 141.314 109.408C141.73 109.92 142.362 110.312 143.21 110.584L146.21 111.472C147.618 111.904 148.682 112.52 149.402 113.32C150.122 114.12 150.482 115.112 150.482 116.296C150.482 117.272 150.226 118.136 149.714 118.888C149.218 119.64 148.522 120.232 147.626 120.664C146.746 121.08 145.722 121.288 144.554 121.288ZM158.246 121.288C157.318 121.288 156.478 121.072 155.726 120.64C154.99 120.208 154.414 119.608 153.998 118.84C153.598 118.056 153.398 117.16 153.398 116.152V108.064H155.63V115.912C155.63 116.552 155.758 117.112 156.014 117.592C156.286 118.072 156.654 118.448 157.118 118.72C157.598 118.992 158.142 119.128 158.75 119.128C159.358 119.128 159.894 118.992 160.358 118.72C160.838 118.448 161.206 118.056 161.462 117.544C161.734 117.032 161.87 116.424 161.87 115.72V108.064H164.126V121H161.942V118.48L162.302 118.696C161.998 119.512 161.478 120.152 160.742 120.616C160.022 121.064 159.19 121.288 158.246 121.288ZM167.583 121V108.064H169.767V110.704L169.455 110.296C169.775 109.48 170.287 108.856 170.991 108.424C171.695 107.992 172.487 107.776 173.367 107.776C174.375 107.776 175.279 108.056 176.079 108.616C176.895 109.176 177.455 109.912 177.759 110.824L177.135 110.848C177.471 109.84 178.039 109.08 178.839 108.568C179.639 108.04 180.527 107.776 181.503 107.776C182.399 107.776 183.207 107.984 183.927 108.4C184.663 108.816 185.247 109.392 185.679 110.128C186.111 110.864 186.327 111.696 186.327 112.624V121H184.071V113.344C184.071 112.624 183.943 112.016 183.687 111.52C183.431 111.024 183.079 110.64 182.631 110.368C182.199 110.08 181.687 109.936 181.095 109.936C180.519 109.936 179.999 110.08 179.535 110.368C179.087 110.64 178.727 111.032 178.455 111.544C178.199 112.04 178.071 112.64 178.071 113.344V121H175.815V113.344C175.815 112.624 175.687 112.016 175.431 111.52C175.175 111.024 174.823 110.64 174.375 110.368C173.943 110.08 173.431 109.936 172.839 109.936C172.263 109.936 171.743 110.08 171.279 110.368C170.831 110.64 170.471 111.032 170.199 111.544C169.943 112.04 169.815 112.64 169.815 113.344V121H167.583ZM189.498 121V108.064H191.682V110.704L191.37 110.296C191.69 109.48 192.202 108.856 192.906 108.424C193.61 107.992 194.402 107.776 195.282 107.776C196.29 107.776 197.194 108.056 197.994 108.616C198.81 109.176 199.37 109.912 199.674 110.824L199.05 110.848C199.386 109.84 199.954 109.08 200.754 108.568C201.554 108.04 202.442 107.776 203.418 107.776C204.314 107.776 205.122 107.984 205.842 108.4C206.578 108.816 207.162 109.392 207.594 110.128C208.026 110.864 208.242 111.696 208.242 112.624V121H205.986V113.344C205.986 112.624 205.858 112.016 205.602 111.52C205.346 111.024 204.994 110.64 204.546 110.368C204.114 110.08 203.602 109.936 203.01 109.936C202.434 109.936 201.914 110.08 201.45 110.368C201.002 110.64 200.642 111.032 200.37 111.544C200.114 112.04 199.986 112.64 199.986 113.344V121H197.73V113.344C197.73 112.624 197.602 112.016 197.346 111.52C197.09 111.024 196.738 110.64 196.29 110.368C195.858 110.08 195.346 109.936 194.754 109.936C194.178 109.936 193.658 110.08 193.194 110.368C192.746 110.64 192.386 111.032 192.114 111.544C191.858 112.04 191.73 112.64 191.73 113.344V121H189.498ZM215.204 121.288C214.356 121.288 213.604 121.136 212.948 120.832C212.308 120.512 211.804 120.08 211.436 119.536C211.068 118.976 210.884 118.336 210.884 117.616C210.884 116.928 211.028 116.312 211.316 115.768C211.62 115.208 212.084 114.736 212.708 114.352C213.348 113.968 214.148 113.696 215.108 113.536L219.908 112.744V114.616L215.612 115.336C214.78 115.48 214.172 115.744 213.788 116.128C213.42 116.512 213.236 116.984 213.236 117.544C213.236 118.072 213.444 118.512 213.86 118.864C214.292 119.216 214.828 119.392 215.468 119.392C216.284 119.392 216.988 119.224 217.58 118.888C218.188 118.536 218.66 118.064 218.996 117.472C219.348 116.88 219.524 116.224 219.524 115.504V112.216C219.524 111.512 219.26 110.944 218.732 110.512C218.22 110.064 217.54 109.84 216.692 109.84C215.956 109.84 215.3 110.032 214.724 110.416C214.164 110.784 213.748 111.28 213.476 111.904L211.532 110.896C211.772 110.304 212.156 109.776 212.684 109.312C213.212 108.832 213.828 108.456 214.532 108.184C215.236 107.912 215.972 107.776 216.74 107.776C217.732 107.776 218.604 107.968 219.356 108.352C220.108 108.72 220.692 109.24 221.108 109.912C221.54 110.568 221.756 111.336 221.756 112.216V121H219.572V118.552L219.98 118.696C219.708 119.208 219.34 119.656 218.876 120.04C218.412 120.424 217.868 120.728 217.244 120.952C216.62 121.176 215.94 121.288 215.204 121.288ZM225.216 121V108.064H227.4V110.44L227.16 110.104C227.464 109.368 227.928 108.824 228.552 108.472C229.176 108.104 229.936 107.92 230.832 107.92H231.624V110.032H230.496C229.584 110.032 228.848 110.32 228.288 110.896C227.728 111.456 227.448 112.256 227.448 113.296V121H225.216ZM234.303 126.28C234.015 126.28 233.727 126.256 233.439 126.208C233.151 126.176 232.879 126.104 232.623 125.992V124C232.799 124.016 233.015 124.048 233.271 124.096C233.543 124.144 233.807 124.168 234.063 124.168C234.815 124.168 235.383 124 235.767 123.664C236.167 123.328 236.543 122.76 236.895 121.96L237.711 120.016L237.663 121.96L232.143 108.064H234.567L238.863 119.104H238.143L242.415 108.064H244.887L239.055 122.536C238.783 123.224 238.431 123.856 237.999 124.432C237.583 125.008 237.071 125.456 236.463 125.776C235.855 126.112 235.135 126.28 234.303 126.28Z" fill="white"/>
<defs>
<clipPath id="clip0_999_14353">
<rect width="43" height="64" fill="white" transform="translate(104.5)"/>
</clipPath>
<clipPath id="clip1_999_14353">
<rect width="43" height="56" fill="white" transform="translate(104.5 4)"/>
</clipPath>
</defs>
</svg>
