<svg width="252" height="127" viewBox="0 0 252 127" fill="none" xmlns="http://www.w3.org/2000/svg">
<g clip-path="url(#clip0_999_14340)">
<g clip-path="url(#clip1_999_14340)">
<path d="M119.952 16.7224C119.96 25.5961 119.96 34.4723 119.952 43.3459C119.952 43.9715 119.935 44.6097 119.816 45.2202C119.531 46.715 118.648 47.4185 117.168 47.4235H115.315C113.64 47.421 113.118 47.0542 112.586 45.5041C112.11 44.1223 112.4 43.4515 113.622 42.3862C113.949 42.1023 113.942 41.4215 114.088 40.9215C113.608 40.8411 113.051 40.5597 112.665 40.7155C111.17 41.3159 110.613 42.6575 110.378 44.1574C108.391 44.3509 106.642 43.1525 105.934 41.1325C105.214 39.0749 105.897 36.7259 107.622 35.5576C108.159 35.1933 108.861 35.0702 109.376 34.6833C109.737 34.4145 109.908 33.8844 110.166 33.4698C109.7 33.2362 109.087 32.686 108.795 32.8267C107.404 33.4924 106.102 34.3466 104.524 35.2812C102.482 34.2135 101.376 32.3167 101.512 29.7113C101.633 27.3799 102.754 25.6815 104.843 24.6891C106.412 23.9454 107.891 24.1087 109.183 25.3348C109.713 25.8347 110.24 26.2543 110.853 25.5433C111.45 24.8524 110.987 24.3173 110.485 23.8274C109.22 22.5938 107.659 22.1868 105.974 22.1692C105.11 20.1141 105.892 17.868 107.904 16.5742C109.809 15.3481 112.355 15.6571 113.763 17.2877C113.791 17.3203 113.813 17.3555 113.838 17.3882C114.35 18.0087 114.84 19.0463 115.768 18.2549C116.718 17.446 115.859 16.6219 115.295 16.0365C114.59 15.3054 113.724 14.7351 112.92 14.0894C113.6 12.5267 114.867 11.8384 116.683 12.0645C118.287 12.2629 119.571 13.4262 119.833 14.9713C119.93 15.5441 119.952 16.137 119.952 16.7224Z" fill="#3971B2"/>
<path d="M139.394 24.1038C138.488 17.4184 132.903 11.7882 126.378 11.0747C124.602 10.8812 124.28 11.1751 124.28 13.0142C124.277 24.0209 124.277 35.025 124.277 46.0317V47.3457H129.662C129.758 46.9487 129.867 46.5894 129.932 46.2226C130.481 43.0571 131.976 40.4266 134.319 38.2911C138.501 34.4748 140.159 29.7591 139.394 24.1038ZM135.747 27.4352C134.67 27.4251 134.863 26.5056 134.68 25.7921C134.274 24.1967 133.93 22.5411 133.223 21.0789C132.193 18.9534 130.397 17.5239 128.224 16.637C127.512 16.3456 126.878 15.9788 127.276 15.0869C127.645 14.2628 128.35 14.5292 128.984 14.7703C133.223 16.3933 136.529 21.0688 136.689 25.664C136.692 25.7067 136.697 25.7494 136.694 25.7896C136.677 26.5182 136.902 27.4452 135.747 27.4352Z" fill="#3971B2"/>
<path d="M131.875 59.294C131.461 59.4498 130.991 59.5252 130.546 59.5277C124.728 59.5403 118.913 59.5553 113.096 59.5252C111.242 59.5151 110.037 58.1233 110.319 56.4827C110.463 55.6385 110.817 55.1738 111.787 55.1888C115.127 55.2416 118.47 55.2089 121.811 55.2089C124.946 55.2089 128.081 55.219 131.216 55.2014C132.181 55.1964 133.151 55.0657 133.394 56.4124C133.592 57.5103 132.921 58.8946 131.875 59.294Z" fill="#3971B2"/>
<path d="M131.575 53.4904C128.321 53.4929 125.067 53.4904 121.813 53.4904C118.559 53.4904 115.553 53.4804 112.423 53.4954C111.453 53.5005 110.5 53.6186 110.317 52.2267C110.158 51.0183 110.839 49.6817 111.965 49.3299C112.39 49.1968 112.858 49.1491 113.306 49.1491C118.987 49.1365 124.671 49.134 130.355 49.1491C132.001 49.1491 132.849 49.7018 133.285 50.9429C133.81 52.4428 133.112 53.4904 131.575 53.4929V53.4904Z" fill="#3971B2"/>
<path d="M128.697 61.3545C128.249 63.0101 127.445 63.8819 125.975 63.9322C123.219 64.0226 120.455 64.0226 117.698 63.9246C116.241 63.8719 115.372 62.9096 115.043 61.3545H128.697Z" fill="#3971B2"/>
<path d="M150.477 26.664C150.398 27.0584 149.77 27.6061 149.366 27.6262C147.362 27.7242 145.345 27.7242 143.341 27.6262C142.923 27.6061 142.262 27.0735 142.188 26.6841C142.049 25.9304 142.66 25.6465 143.38 25.6565C144.363 25.6741 145.348 25.6615 146.332 25.6615C147.317 25.6615 148.302 25.6691 149.287 25.659C149.985 25.6515 150.636 25.865 150.477 26.664Z" fill="#3971B2"/>
<path d="M125.268 4.28358C125.265 5.2835 125.364 6.2985 125.223 7.27832C125.159 7.72803 124.674 8.39381 124.295 8.45913C123.57 8.58978 123.278 7.97927 123.283 7.24064C123.301 5.24079 123.298 3.24095 123.286 1.24111C123.281 0.525083 123.503 -0.145719 124.268 0.0276343C124.674 0.118079 125.152 0.811492 125.223 1.29135C125.372 2.26615 125.268 3.28366 125.268 4.28358Z" fill="#3971B2"/>
<path d="M143.183 44.9659C143.012 45.1819 142.842 45.5839 142.562 45.6945C142.278 45.8075 141.76 45.7623 141.555 45.5638C139.949 44.0036 138.368 42.4133 136.851 40.7652C136.655 40.5516 136.712 39.8055 136.93 39.5718C137.153 39.3332 137.905 39.2151 138.101 39.401C139.781 40.9989 141.392 42.6771 143.01 44.3428C143.111 44.4433 143.102 44.6543 143.183 44.9659Z" fill="#3971B2"/>
<path d="M143.284 8.49685C143.017 8.87622 142.844 9.20283 142.599 9.45658C141.27 10.8308 139.924 12.1875 138.585 13.5517C138.076 14.0718 137.516 14.4512 136.9 13.7678C136.353 13.1598 136.687 12.6347 137.175 12.1473C138.585 10.7354 139.954 9.28322 141.396 7.90896C141.664 7.65521 142.22 7.56728 142.604 7.63762C142.851 7.68285 143.025 8.15015 143.284 8.49685Z" fill="#3971B2"/>
</g>
</g>
<path d="M42.1907 121.288C41.0547 121.288 40.0147 121.08 39.0707 120.664C38.1267 120.232 37.3267 119.648 36.6707 118.912C36.0147 118.176 35.5427 117.352 35.2547 116.44L37.2947 115.6C37.7267 116.752 38.3667 117.64 39.2147 118.264C40.0787 118.872 41.0867 119.176 42.2387 119.176C42.9427 119.176 43.5587 119.064 44.0867 118.84C44.6147 118.616 45.0227 118.304 45.3107 117.904C45.6147 117.488 45.7667 117.008 45.7667 116.464C45.7667 115.712 45.5507 115.12 45.1187 114.688C44.7027 114.24 44.0867 113.904 43.2707 113.68L39.9827 112.672C38.6867 112.272 37.6947 111.64 37.0067 110.776C36.3187 109.912 35.9747 108.92 35.9747 107.8C35.9747 106.824 36.2067 105.968 36.6707 105.232C37.1507 104.48 37.8067 103.896 38.6387 103.48C39.4867 103.048 40.4467 102.832 41.5187 102.832C42.5907 102.832 43.5587 103.024 44.4227 103.408C45.3027 103.792 46.0467 104.312 46.6547 104.968C47.2627 105.608 47.7107 106.344 47.9987 107.176L45.9827 108.016C45.5987 107.008 45.0227 106.248 44.2547 105.736C43.4867 105.208 42.5827 104.944 41.5427 104.944C40.9027 104.944 40.3347 105.056 39.8387 105.28C39.3587 105.488 38.9827 105.8 38.7107 106.216C38.4547 106.616 38.3267 107.096 38.3267 107.656C38.3267 108.312 38.5347 108.896 38.9507 109.408C39.3667 109.92 39.9987 110.312 40.8467 110.584L43.8467 111.472C45.2547 111.904 46.3187 112.52 47.0387 113.32C47.7587 114.12 48.1187 115.112 48.1187 116.296C48.1187 117.272 47.8627 118.136 47.3507 118.888C46.8547 119.64 46.1587 120.232 45.2627 120.664C44.3827 121.08 43.3587 121.288 42.1907 121.288ZM51.2983 121V102.832H53.5303V115.288L52.6183 115.072L59.4823 108.064H62.3383L57.3703 113.272L62.6743 121H60.0343L55.1863 113.992L56.5783 113.92L52.8103 117.856L53.5303 116.224V121H51.2983ZM64.6811 121V108.064H66.9131V121H64.6811ZM64.6811 106V103.12H66.9131V106H64.6811ZM70.3764 121V102.832H72.6084V121H70.3764ZM76.0718 121V102.832H78.3038V121H76.0718ZM86.3991 121.288C85.1031 121.288 83.9751 120.968 83.0151 120.328C82.0551 119.688 81.3751 118.824 80.9751 117.736L82.7511 116.872C83.1191 117.64 83.6231 118.248 84.2631 118.696C84.9031 119.144 85.6151 119.368 86.3991 119.368C87.1031 119.368 87.6871 119.2 88.1511 118.864C88.6151 118.528 88.8471 118.088 88.8471 117.544C88.8471 117.16 88.7351 116.856 88.5111 116.632C88.3031 116.392 88.0471 116.208 87.7431 116.08C87.4391 115.936 87.1591 115.832 86.9031 115.768L84.9591 115.216C83.7911 114.88 82.9351 114.4 82.3911 113.776C81.8631 113.152 81.5991 112.424 81.5991 111.592C81.5991 110.824 81.7911 110.16 82.1751 109.6C82.5751 109.024 83.1111 108.576 83.7831 108.256C84.4711 107.936 85.2391 107.776 86.0871 107.776C87.2231 107.776 88.2391 108.064 89.1351 108.64C90.0471 109.216 90.6951 110.024 91.0791 111.064L89.2551 111.904C88.9671 111.232 88.5351 110.704 87.9591 110.32C87.3831 109.92 86.7351 109.72 86.0151 109.72C85.3591 109.72 84.8391 109.888 84.4551 110.224C84.0711 110.544 83.8791 110.952 83.8791 111.448C83.8791 111.816 83.9751 112.12 84.1671 112.36C84.3591 112.584 84.5911 112.76 84.8631 112.888C85.1351 113 85.3991 113.096 85.6551 113.176L87.7671 113.8C88.8231 114.104 89.6391 114.576 90.2151 115.216C90.8071 115.856 91.1031 116.624 91.1031 117.52C91.1031 118.24 90.9031 118.888 90.5031 119.464C90.1031 120.04 89.5511 120.488 88.8471 120.808C88.1431 121.128 87.3271 121.288 86.3991 121.288ZM96.7093 121L103.117 103.12H105.901L112.309 121H109.789L108.325 116.8H100.693L99.2293 121H96.7093ZM101.437 114.64H107.581L104.173 104.824H104.845L101.437 114.64ZM114.298 121V102.832H116.53V121H114.298ZM119.994 121V108.064H122.226V121H119.994ZM119.994 106V103.12H122.226V106H119.994ZM131.857 126.28C130.945 126.28 130.097 126.136 129.313 125.848C128.545 125.56 127.881 125.16 127.321 124.648C126.777 124.152 126.361 123.568 126.073 122.896L128.161 121.936C128.385 122.544 128.809 123.056 129.433 123.472C130.073 123.904 130.873 124.12 131.833 124.12C132.569 124.12 133.233 123.976 133.825 123.688C134.433 123.416 134.913 123 135.265 122.44C135.617 121.896 135.793 121.232 135.793 120.448V117.544L136.201 117.976C135.753 118.856 135.105 119.528 134.257 119.992C133.425 120.456 132.505 120.688 131.497 120.688C130.281 120.688 129.193 120.408 128.233 119.848C127.273 119.272 126.521 118.496 125.977 117.52C125.433 116.528 125.161 115.432 125.161 114.232C125.161 113.016 125.433 111.92 125.977 110.944C126.521 109.968 127.265 109.2 128.209 108.64C129.169 108.064 130.257 107.776 131.473 107.776C132.481 107.776 133.393 108.008 134.209 108.472C135.041 108.92 135.705 109.544 136.201 110.344L135.865 110.944V108.064H138.049V120.448C138.049 121.568 137.785 122.568 137.257 123.448C136.729 124.328 135.993 125.016 135.049 125.512C134.121 126.024 133.057 126.28 131.857 126.28ZM131.689 118.528C132.457 118.528 133.145 118.336 133.753 117.952C134.377 117.568 134.873 117.056 135.241 116.416C135.609 115.76 135.793 115.032 135.793 114.232C135.793 113.448 135.609 112.728 135.241 112.072C134.873 111.416 134.377 110.896 133.753 110.512C133.145 110.128 132.457 109.936 131.689 109.936C130.905 109.936 130.193 110.128 129.553 110.512C128.913 110.896 128.409 111.416 128.041 112.072C127.689 112.712 127.513 113.432 127.513 114.232C127.513 115.032 127.689 115.76 128.041 116.416C128.409 117.056 128.905 117.568 129.529 117.952C130.169 118.336 130.889 118.528 131.689 118.528ZM141.509 121V108.064H143.693V110.584L143.333 110.368C143.653 109.552 144.165 108.92 144.869 108.472C145.589 108.008 146.429 107.776 147.389 107.776C148.317 107.776 149.141 107.984 149.861 108.4C150.597 108.816 151.173 109.392 151.589 110.128C152.021 110.864 152.237 111.696 152.237 112.624V121H149.981V113.344C149.981 112.624 149.853 112.016 149.597 111.52C149.341 111.024 148.973 110.64 148.493 110.368C148.029 110.08 147.493 109.936 146.885 109.936C146.277 109.936 145.733 110.08 145.253 110.368C144.789 110.64 144.421 111.032 144.149 111.544C143.877 112.04 143.741 112.64 143.741 113.344V121H141.509ZM155.431 121V108.064H157.615V110.704L157.303 110.296C157.623 109.48 158.135 108.856 158.839 108.424C159.543 107.992 160.335 107.776 161.215 107.776C162.223 107.776 163.127 108.056 163.927 108.616C164.743 109.176 165.303 109.912 165.607 110.824L164.983 110.848C165.319 109.84 165.887 109.08 166.687 108.568C167.487 108.04 168.375 107.776 169.351 107.776C170.247 107.776 171.055 107.984 171.775 108.4C172.511 108.816 173.095 109.392 173.527 110.128C173.959 110.864 174.175 111.696 174.175 112.624V121H171.919V113.344C171.919 112.624 171.791 112.016 171.535 111.52C171.279 111.024 170.927 110.64 170.479 110.368C170.047 110.08 169.535 109.936 168.943 109.936C168.367 109.936 167.847 110.08 167.383 110.368C166.935 110.64 166.575 111.032 166.303 111.544C166.047 112.04 165.919 112.64 165.919 113.344V121H163.663V113.344C163.663 112.624 163.535 112.016 163.279 111.52C163.023 111.024 162.671 110.64 162.223 110.368C161.791 110.08 161.279 109.936 160.687 109.936C160.111 109.936 159.591 110.08 159.127 110.368C158.679 110.64 158.319 111.032 158.047 111.544C157.791 112.04 157.663 112.64 157.663 113.344V121H155.431ZM183.297 121.288C182.049 121.288 180.937 120.992 179.961 120.4C178.985 119.808 178.217 119 177.657 117.976C177.097 116.936 176.817 115.776 176.817 114.496C176.817 113.2 177.089 112.048 177.633 111.04C178.193 110.032 178.945 109.24 179.889 108.664C180.849 108.072 181.921 107.776 183.105 107.776C184.065 107.776 184.913 107.952 185.649 108.304C186.401 108.64 187.033 109.104 187.545 109.696C188.073 110.272 188.473 110.936 188.745 111.688C189.033 112.424 189.177 113.192 189.177 113.992C189.177 114.168 189.161 114.368 189.129 114.592C189.113 114.8 189.089 115 189.057 115.192H178.449V113.272H187.761L186.705 114.136C186.849 113.304 186.769 112.56 186.465 111.904C186.161 111.248 185.713 110.728 185.121 110.344C184.529 109.96 183.857 109.768 183.105 109.768C182.353 109.768 181.665 109.96 181.041 110.344C180.417 110.728 179.929 111.28 179.577 112C179.241 112.704 179.105 113.544 179.169 114.52C179.105 115.464 179.249 116.296 179.601 117.016C179.969 117.72 180.481 118.272 181.137 118.672C181.809 119.056 182.537 119.248 183.321 119.248C184.185 119.248 184.913 119.048 185.505 118.648C186.097 118.248 186.577 117.736 186.945 117.112L188.817 118.072C188.561 118.664 188.161 119.208 187.617 119.704C187.089 120.184 186.457 120.568 185.721 120.856C185.001 121.144 184.193 121.288 183.297 121.288ZM192.087 121V108.064H194.271V110.584L193.911 110.368C194.231 109.552 194.743 108.92 195.447 108.472C196.167 108.008 197.007 107.776 197.967 107.776C198.895 107.776 199.719 107.984 200.439 108.4C201.175 108.816 201.751 109.392 202.167 110.128C202.599 110.864 202.815 111.696 202.815 112.624V121H200.559V113.344C200.559 112.624 200.431 112.016 200.175 111.52C199.919 111.024 199.551 110.64 199.071 110.368C198.607 110.08 198.071 109.936 197.463 109.936C196.855 109.936 196.311 110.08 195.831 110.368C195.367 110.64 194.999 111.032 194.727 111.544C194.455 112.04 194.319 112.64 194.319 113.344V121H192.087ZM211.265 121.144C210.001 121.144 209.025 120.784 208.337 120.064C207.665 119.344 207.329 118.328 207.329 117.016V110.2H204.977V108.064H205.457C206.033 108.064 206.489 107.888 206.825 107.536C207.161 107.184 207.329 106.72 207.329 106.144V105.088H209.561V108.064H212.465V110.2H209.561V116.944C209.561 117.376 209.625 117.752 209.753 118.072C209.897 118.392 210.129 118.648 210.449 118.84C210.769 119.016 211.193 119.104 211.721 119.104C211.833 119.104 211.969 119.096 212.129 119.08C212.305 119.064 212.465 119.048 212.609 119.032V121C212.401 121.048 212.169 121.08 211.913 121.096C211.657 121.128 211.441 121.144 211.265 121.144Z" fill="white"/>
<defs>
<clipPath id="clip0_999_14340">
<rect width="49" height="64" fill="white" transform="translate(101.5)"/>
</clipPath>
<clipPath id="clip1_999_14340">
<rect width="49" height="64" fill="white" transform="translate(101.5)"/>
</clipPath>
</defs>
</svg>
