<svg width="88" height="88" viewBox="0 0 88 88" fill="none" xmlns="http://www.w3.org/2000/svg">
<g clip-path="url(#clip0_903_4376)">
<rect x="87.5789" y="87.5791" width="87.5789" height="87.5789" rx="43.7895" transform="rotate(180 87.5789 87.5791)" fill="#1B2A3D"/>
<path d="M19.9597 41.8543C18.8909 42.9231 18.8909 44.656 19.9597 45.7248L37.3769 63.1419C38.4457 64.2108 40.1785 64.2108 41.2473 63.1419C42.3161 62.0731 42.3161 60.3403 41.2473 59.2715L25.7654 43.7896L41.2473 28.3076C42.3161 27.2388 42.3161 25.506 41.2473 24.4372C40.1785 23.3684 38.4457 23.3684 37.3769 24.4372L19.9597 41.8543ZM65.6844 43.7896V41.0527H21.8949V43.7896V46.5264H65.6844V43.7896Z" fill="white"/>
</g>
<defs>
<clipPath id="clip0_903_4376">
<rect x="87.5789" y="87.5791" width="87.5789" height="87.5789" rx="43.7895" transform="rotate(180 87.5789 87.5791)" fill="white"/>
</clipPath>
</defs>
</svg>
