<svg width="96" height="96" viewBox="0 0 96 96" fill="none" xmlns="http://www.w3.org/2000/svg">
<path d="M96.0004 15.3307C95.7381 15.5438 95.5091 15.8403 95.2068 15.9567C94.1086 16.3851 92.9771 16.73 91.8745 17.1451C87.3307 18.852 84.1518 21.9251 82.4179 26.4239C81.9844 27.5486 81.5865 28.6865 81.153 29.8112C81.0285 30.1298 80.8373 30.4219 80.535 30.9974C80.206 30.2879 79.9904 29.8486 79.797 29.4005C78.9456 27.4256 78.2875 25.3388 77.2072 23.4936C75.2776 20.2007 72.2566 18.1315 68.6264 16.9123C67.4171 16.5059 66.2256 16.0534 65.0274 15.6228C65.0185 15.513 65.0118 15.4032 65.0029 15.2955C65.3542 15.1044 65.6921 14.8826 66.0589 14.7288C68.1262 13.8545 70.3025 13.1757 72.2499 12.095C75.5021 10.2893 77.5851 7.4248 78.85 3.97381C79.3346 2.6536 79.8214 1.33339 80.3083 0.0131804C80.4172 0.00878705 80.5283 0.00439337 80.6373 0C80.8018 0.283373 81.0085 0.553565 81.1263 0.856708C81.5642 1.97921 81.9666 3.1149 82.3956 4.2418C84.1229 8.79334 87.3285 11.8841 91.9101 13.5997C93.0149 14.0149 94.1419 14.3685 95.2446 14.7903C95.5247 14.8957 95.7514 15.1462 96.0004 15.3307Z" fill="url(#paint0_linear_999_16981)"/>
<path d="M40.0986 15.1953C62.2446 15.1953 80.1982 33.149 80.1982 55.2949C80.1981 70.8386 71.3526 84.3151 58.4219 90.9697C52.2319 90.2344 48.1014 88.0305 45.2881 85.2852C42.172 82.2441 40.3986 78.2732 39.4658 74.1309C38.5326 69.9859 38.4823 65.8377 38.6816 62.6797C38.7247 61.9978 38.7803 61.3663 38.8389 60.7979C46.656 61.9625 51.092 65.2707 53.5811 68.1143C54.8681 69.5847 55.6748 70.9778 56.1514 71.9756C56.3891 72.4734 56.5436 72.8704 56.6328 73.1221C56.6771 73.247 56.7054 73.3366 56.7197 73.3838C56.7239 73.3976 56.7267 73.4086 56.7285 73.415C56.7281 73.4132 56.7281 73.4098 56.7275 73.4072C56.7271 73.4056 56.7262 73.4032 56.7256 73.4014C56.7254 73.4005 56.7249 73.3984 56.7246 73.3975C56.7296 73.3942 56.8598 73.3589 59.9414 72.5596C62.9975 71.7668 63.1501 71.7247 63.1572 71.7207C63.1571 71.7201 63.1558 71.7181 63.1553 71.7168C63.1545 71.714 63.1541 71.7094 63.1533 71.7061C63.1516 71.6995 63.1487 71.6916 63.1465 71.6836C63.142 71.667 63.1362 71.6465 63.1299 71.624C63.117 71.5781 63.1002 71.5186 63.0791 71.4492C63.0368 71.3101 62.9771 71.1241 62.8975 70.8994C62.738 70.4497 62.4961 69.8374 62.1494 69.1113C61.4562 67.6599 60.3331 65.7348 58.583 63.7354C55.0912 59.7463 49.2485 55.6283 39.8271 54.2227L39.376 54.1582C34.7581 53.519 31.6792 52.0085 29.5928 50.2725C27.4988 48.53 26.2269 46.4119 25.458 44.2979C24.6822 42.1643 24.4324 40.0648 24.3848 38.4746C24.3612 37.6877 24.3882 37.0452 24.4189 36.6143C24.4343 36.4001 24.4499 36.2388 24.4609 36.1406L24.4727 36.042L21.1855 35.5537C18.0725 35.0886 17.9064 35.0659 17.8975 35.0664C17.8975 35.0674 17.8976 35.0694 17.8975 35.0703C17.897 35.0731 17.896 35.0769 17.8955 35.0801C17.8945 35.0869 17.8929 35.0956 17.8916 35.1045C17.889 35.1229 17.8864 35.1466 17.8828 35.1738C17.8755 35.2296 17.8657 35.3047 17.8555 35.3955C17.8349 35.5777 17.8103 35.8297 17.7881 36.1406C17.7437 36.7624 17.7091 37.6317 17.7402 38.6738C17.8022 40.7439 18.1261 43.5857 19.2109 46.5693C20.3033 49.5729 22.1806 52.752 25.3408 55.3818C27.2446 56.9659 29.552 58.2978 32.3203 59.2793C32.2186 60.131 32.1188 61.1364 32.0479 62.2598C31.8245 65.7982 31.8635 70.6263 32.9814 75.5918C34.1003 80.5602 36.3402 85.8394 40.6465 90.042C42.5368 91.8866 44.7758 93.473 47.4004 94.7275C46.9993 94.8013 46.5966 94.8718 46.1914 94.9336C46.1085 94.942 46.0254 94.952 45.9424 94.96C45.9527 94.9614 45.9633 94.9624 45.9736 94.9639C44.0561 95.2454 42.0944 95.3936 40.0986 95.3936C17.953 95.3934 0.00025165 77.4406 0 55.2949C0 33.1491 17.9528 15.1955 40.0986 15.1953ZM42.4082 23.2715C33.1429 23.2717 26.157 32.6811 30.1924 42.2559L30.3926 42.7119C31.614 45.3804 33.7777 47.5078 36.4365 48.7041C45.1666 52.6366 53.8793 47.3157 55.5127 39.3398L49.4824 38.1055C48.6215 42.3083 44.097 45.2473 39.1973 43.1943L38.9629 43.0928L38.9619 43.0918L38.7178 42.9756C37.5945 42.4078 36.6752 41.4973 36.1055 40.3906L35.9893 40.1514L35.9883 40.1504L35.874 39.8906C33.5696 34.4434 37.4404 29.427 42.4082 29.4268C43.9081 29.4269 45.3028 29.8836 46.459 30.668L41.7051 32.9395L44.3574 38.4932L52.8721 34.4258L52.9971 34.3516L53.1367 34.2627C53.8118 33.8081 54.1857 33.1738 54.3594 32.6318C54.5397 32.0682 54.6076 31.2715 54.2559 30.4551L54.1797 30.292L54.1504 30.2344L54.1201 30.1787L53.9004 29.7969C51.5696 25.895 47.2966 23.2716 42.4082 23.2715ZM24.4727 36.042L24.4736 36.0381C24.4738 36.0369 24.4736 36.0352 24.4736 36.0342L24.4727 36.042Z" fill="url(#paint1_linear_999_16981)"/>
<defs>
<linearGradient id="paint0_linear_999_16981" x1="67.8036" y1="12.3702" x2="98.0765" y2="19.5474" gradientUnits="userSpaceOnUse">
<stop stop-color="#C0412C"/>
<stop offset="1" stop-color="#F4C15D"/>
</linearGradient>
<linearGradient id="paint1_linear_999_16981" x1="7.24611" y1="47.2002" x2="85.5696" y2="65.7693" gradientUnits="userSpaceOnUse">
<stop stop-color="#C0412C"/>
<stop offset="1" stop-color="#F4C15D"/>
</linearGradient>
</defs>
</svg>
