<svg width="248" height="64" viewBox="0 0 248 64" fill="none" xmlns="http://www.w3.org/2000/svg">
<path d="M0 32C0 14.3269 14.3269 0 32 0H216C233.673 0 248 14.3269 248 32C248 49.6731 233.673 64 216 64H32C14.3269 64 0 49.6731 0 32Z" fill="url(#paint0_linear_49_1550)"/>
<path d="M32 0.5H216C233.397 0.5 247.5 14.603 247.5 32C247.5 49.397 233.397 63.5 216 63.5H32C14.603 63.5 0.5 49.397 0.5 32C0.5 14.603 14.603 0.5 32 0.5Z" stroke="url(#paint1_linear_49_1550)" stroke-opacity="0.16"/>
<path d="M25.9599 41V26.1H31.3799C32.3799 26.1 33.2599 26.2867 34.0199 26.66C34.7799 27.02 35.3733 27.5533 35.7999 28.26C36.2399 28.9533 36.4599 29.7867 36.4599 30.76C36.4599 31.7867 36.1999 32.6667 35.6799 33.4C35.1733 34.1333 34.4866 34.6667 33.6199 35L37.0599 41H34.3799L30.7199 34.5L32.2599 35.4H28.3199V41H25.9599ZM28.3199 33.3H31.4199C31.9666 33.3 32.4399 33.1933 32.8399 32.98C33.2399 32.7667 33.5466 32.4733 33.7599 32.1C33.9866 31.7133 34.0999 31.26 34.0999 30.74C34.0999 30.22 33.9866 29.7733 33.7599 29.4C33.5466 29.0133 33.2399 28.72 32.8399 28.52C32.4399 28.3067 31.9666 28.2 31.4199 28.2H28.3199V33.3ZM43.3004 41.24C42.2204 41.24 41.2604 40.9933 40.4204 40.5C39.5937 39.9933 38.9471 39.3133 38.4804 38.46C38.0137 37.5933 37.7804 36.6267 37.7804 35.56C37.7804 34.4667 38.0137 33.5 38.4804 32.66C38.9604 31.82 39.6004 31.16 40.4004 30.68C41.2004 30.1867 42.1071 29.94 43.1204 29.94C43.9337 29.94 44.6604 30.08 45.3004 30.36C45.9404 30.64 46.4804 31.0267 46.9204 31.52C47.3604 32 47.6937 32.5533 47.9204 33.18C48.1604 33.8067 48.2804 34.4733 48.2804 35.18C48.2804 35.3533 48.2737 35.5333 48.2604 35.72C48.2471 35.9067 48.2204 36.08 48.1804 36.24H39.5604V34.44H46.9004L45.8204 35.26C45.9537 34.6067 45.9071 34.0267 45.6804 33.52C45.4671 33 45.1337 32.5933 44.6804 32.3C44.2404 31.9933 43.7204 31.84 43.1204 31.84C42.5204 31.84 41.9871 31.9933 41.5204 32.3C41.0537 32.5933 40.6937 33.02 40.4404 33.58C40.1871 34.1267 40.0871 34.7933 40.1404 35.58C40.0737 36.3133 40.1737 36.9533 40.4404 37.5C40.7204 38.0467 41.1071 38.4733 41.6004 38.78C42.1071 39.0867 42.6804 39.24 43.3204 39.24C43.9737 39.24 44.5271 39.0933 44.9804 38.8C45.4471 38.5067 45.8137 38.1267 46.0804 37.66L47.9204 38.56C47.7071 39.0667 47.3737 39.5267 46.9204 39.94C46.4804 40.34 45.9471 40.66 45.3204 40.9C44.7071 41.1267 44.0337 41.24 43.3004 41.24ZM53.6284 41.24C52.895 41.24 52.2484 41.1133 51.6884 40.86C51.1417 40.5933 50.715 40.2333 50.4084 39.78C50.1017 39.3133 49.9484 38.7667 49.9484 38.14C49.9484 37.5533 50.075 37.0267 50.3284 36.56C50.595 36.0933 51.0017 35.7 51.5484 35.38C52.095 35.06 52.7817 34.8333 53.6084 34.7L57.3684 34.08V35.86L54.0484 36.44C53.4484 36.5467 53.0084 36.74 52.7284 37.02C52.4484 37.2867 52.3084 37.6333 52.3084 38.06C52.3084 38.4733 52.4617 38.8133 52.7684 39.08C53.0884 39.3333 53.495 39.46 53.9884 39.46C54.6017 39.46 55.135 39.3267 55.5884 39.06C56.055 38.7933 56.415 38.44 56.6684 38C56.9217 37.5467 57.0484 37.0467 57.0484 36.5V33.72C57.0484 33.1867 56.8484 32.7533 56.4484 32.42C56.0617 32.0733 55.5417 31.9 54.8884 31.9C54.2884 31.9 53.7617 32.06 53.3084 32.38C52.8684 32.6867 52.5417 33.0867 52.3284 33.58L50.4484 32.64C50.6484 32.1067 50.975 31.64 51.4284 31.24C51.8817 30.8267 52.4084 30.5067 53.0084 30.28C53.6217 30.0533 54.2684 29.94 54.9484 29.94C55.8017 29.94 56.555 30.1 57.2084 30.42C57.875 30.74 58.3884 31.1867 58.7484 31.76C59.1217 32.32 59.3084 32.9733 59.3084 33.72V41H57.1484V39.04L57.6084 39.1C57.355 39.54 57.0284 39.92 56.6284 40.24C56.2417 40.56 55.795 40.8067 55.2884 40.98C54.795 41.1533 54.2417 41.24 53.6284 41.24ZM66.9509 41.24C65.9109 41.24 64.9775 40.9933 64.1509 40.5C63.3375 39.9933 62.6909 39.3133 62.2109 38.46C61.7442 37.6067 61.5109 36.6467 61.5109 35.58C61.5109 34.5133 61.7509 33.5533 62.2309 32.7C62.7109 31.8467 63.3575 31.1733 64.1709 30.68C64.9842 30.1867 65.9042 29.94 66.9309 29.94C67.7975 29.94 68.5642 30.1133 69.2309 30.46C69.8975 30.8067 70.4242 31.2867 70.8109 31.9L70.4709 32.42V25.86H72.7109V41H70.5709V38.8L70.8309 39.22C70.4575 39.8733 69.9242 40.3733 69.2309 40.72C68.5375 41.0667 67.7775 41.24 66.9509 41.24ZM67.1709 39.14C67.7975 39.14 68.3575 38.9867 68.8509 38.68C69.3575 38.3733 69.7509 37.9533 70.0309 37.42C70.3242 36.8733 70.4709 36.26 70.4709 35.58C70.4709 34.9 70.3242 34.2933 70.0309 33.76C69.7509 33.2267 69.3575 32.8067 68.8509 32.5C68.3575 32.1933 67.7975 32.04 67.1709 32.04C66.5442 32.04 65.9775 32.1933 65.4709 32.5C64.9642 32.8067 64.5709 33.2267 64.2909 33.76C64.0109 34.2933 63.8709 34.9 63.8709 35.58C63.8709 36.26 64.0109 36.8733 64.2909 37.42C64.5709 37.9533 64.9575 38.3733 65.4509 38.68C65.9575 38.9867 66.5309 39.14 67.1709 39.14ZM83.5254 41.12C82.3921 41.12 81.5121 40.8 80.8854 40.16C80.2587 39.52 79.9454 38.62 79.9454 37.46V32.22H78.0454V30.18H78.3454C78.8521 30.18 79.2454 30.0333 79.5254 29.74C79.8054 29.4467 79.9454 29.0467 79.9454 28.54V27.7H82.2054V30.18H84.6654V32.22H82.2054V37.36C82.2054 37.7333 82.2654 38.0533 82.3854 38.32C82.5054 38.5733 82.6987 38.7733 82.9654 38.92C83.2321 39.0533 83.5787 39.12 84.0054 39.12C84.1121 39.12 84.2321 39.1133 84.3654 39.1C84.4987 39.0867 84.6254 39.0733 84.7454 39.06V41C84.5587 41.0267 84.3521 41.0533 84.1254 41.08C83.8987 41.1067 83.6987 41.12 83.5254 41.12ZM86.9509 41V25.86H89.2109V32.3L88.8509 32.02C89.1175 31.34 89.5442 30.8267 90.1309 30.48C90.7175 30.12 91.3975 29.94 92.1709 29.94C92.9709 29.94 93.6775 30.1133 94.2909 30.46C94.9042 30.8067 95.3842 31.2867 95.7309 31.9C96.0775 32.5133 96.2509 33.2133 96.2509 34V41H94.0109V34.62C94.0109 34.0733 93.9042 33.6133 93.6909 33.24C93.4909 32.8533 93.2109 32.56 92.8509 32.36C92.4909 32.1467 92.0775 32.04 91.6109 32.04C91.1575 32.04 90.7442 32.1467 90.3709 32.36C90.0109 32.56 89.7242 32.8533 89.5109 33.24C89.3109 33.6267 89.2109 34.0867 89.2109 34.62V41H86.9509ZM103.75 41.24C102.67 41.24 101.71 40.9933 100.87 40.5C100.043 39.9933 99.3963 39.3133 98.9296 38.46C98.4629 37.5933 98.2296 36.6267 98.2296 35.56C98.2296 34.4667 98.4629 33.5 98.9296 32.66C99.4096 31.82 100.05 31.16 100.85 30.68C101.65 30.1867 102.556 29.94 103.57 29.94C104.383 29.94 105.11 30.08 105.75 30.36C106.39 30.64 106.93 31.0267 107.37 31.52C107.81 32 108.143 32.5533 108.37 33.18C108.61 33.8067 108.73 34.4733 108.73 35.18C108.73 35.3533 108.723 35.5333 108.71 35.72C108.696 35.9067 108.67 36.08 108.63 36.24H100.01V34.44H107.35L106.27 35.26C106.403 34.6067 106.356 34.0267 106.13 33.52C105.916 33 105.583 32.5933 105.13 32.3C104.69 31.9933 104.17 31.84 103.57 31.84C102.97 31.84 102.436 31.9933 101.97 32.3C101.503 32.5933 101.143 33.02 100.89 33.58C100.636 34.1267 100.536 34.7933 100.59 35.58C100.523 36.3133 100.623 36.9533 100.89 37.5C101.17 38.0467 101.556 38.4733 102.05 38.78C102.556 39.0867 103.13 39.24 103.77 39.24C104.423 39.24 104.976 39.0933 105.43 38.8C105.896 38.5067 106.263 38.1267 106.53 37.66L108.37 38.56C108.156 39.0667 107.823 39.5267 107.37 39.94C106.93 40.34 106.396 40.66 105.77 40.9C105.156 41.1267 104.483 41.24 103.75 41.24ZM121.591 41.24C120.538 41.24 119.558 41.0467 118.651 40.66C117.758 40.2733 116.978 39.74 116.311 39.06C115.658 38.3667 115.145 37.5533 114.771 36.62C114.398 35.6867 114.211 34.66 114.211 33.54C114.211 32.4333 114.391 31.4133 114.751 30.48C115.125 29.5333 115.645 28.72 116.311 28.04C116.978 27.3467 117.758 26.8133 118.651 26.44C119.545 26.0533 120.525 25.86 121.591 25.86C122.645 25.86 123.585 26.04 124.411 26.4C125.251 26.76 125.958 27.2333 126.531 27.82C127.105 28.3933 127.518 29.02 127.771 29.7L125.651 30.7C125.331 29.9 124.818 29.2533 124.111 28.76C123.418 28.2533 122.578 28 121.591 28C120.605 28 119.731 28.2333 118.971 28.7C118.211 29.1667 117.618 29.8133 117.191 30.64C116.778 31.4667 116.571 32.4333 116.571 33.54C116.571 34.6467 116.778 35.62 117.191 36.46C117.618 37.2867 118.211 37.9333 118.971 38.4C119.731 38.8533 120.605 39.08 121.591 39.08C122.578 39.08 123.418 38.8333 124.111 38.34C124.818 37.8467 125.331 37.2 125.651 36.4L127.771 37.4C127.518 38.0667 127.105 38.6933 126.531 39.28C125.958 39.8667 125.251 40.34 124.411 40.7C123.585 41.06 122.645 41.24 121.591 41.24ZM133.023 41.24C132.29 41.24 131.643 41.1133 131.083 40.86C130.536 40.5933 130.11 40.2333 129.803 39.78C129.496 39.3133 129.343 38.7667 129.343 38.14C129.343 37.5533 129.47 37.0267 129.723 36.56C129.99 36.0933 130.396 35.7 130.943 35.38C131.49 35.06 132.176 34.8333 133.003 34.7L136.763 34.08V35.86L133.443 36.44C132.843 36.5467 132.403 36.74 132.123 37.02C131.843 37.2867 131.703 37.6333 131.703 38.06C131.703 38.4733 131.856 38.8133 132.163 39.08C132.483 39.3333 132.89 39.46 133.383 39.46C133.996 39.46 134.53 39.3267 134.983 39.06C135.45 38.7933 135.81 38.44 136.063 38C136.316 37.5467 136.443 37.0467 136.443 36.5V33.72C136.443 33.1867 136.243 32.7533 135.843 32.42C135.456 32.0733 134.936 31.9 134.283 31.9C133.683 31.9 133.156 32.06 132.703 32.38C132.263 32.6867 131.936 33.0867 131.723 33.58L129.843 32.64C130.043 32.1067 130.37 31.64 130.823 31.24C131.276 30.8267 131.803 30.5067 132.403 30.28C133.016 30.0533 133.663 29.94 134.343 29.94C135.196 29.94 135.95 30.1 136.603 30.42C137.27 30.74 137.783 31.1867 138.143 31.76C138.516 32.32 138.703 32.9733 138.703 33.72V41H136.543V39.04L137.003 39.1C136.75 39.54 136.423 39.92 136.023 40.24C135.636 40.56 135.19 40.8067 134.683 40.98C134.19 41.1533 133.636 41.24 133.023 41.24ZM145.345 41.24C144.239 41.24 143.265 40.9667 142.425 40.42C141.599 39.8733 141.019 39.14 140.685 38.22L142.425 37.4C142.719 38.0133 143.119 38.5 143.625 38.86C144.145 39.22 144.719 39.4 145.345 39.4C145.879 39.4 146.312 39.28 146.645 39.04C146.979 38.8 147.145 38.4733 147.145 38.06C147.145 37.7933 147.072 37.58 146.925 37.42C146.779 37.2467 146.592 37.1067 146.365 37C146.152 36.8933 145.932 36.8133 145.705 36.76L144.005 36.28C143.072 36.0133 142.372 35.6133 141.905 35.08C141.452 34.5333 141.225 33.9 141.225 33.18C141.225 32.5267 141.392 31.96 141.725 31.48C142.059 30.9867 142.519 30.6067 143.105 30.34C143.692 30.0733 144.352 29.94 145.085 29.94C146.072 29.94 146.952 30.1867 147.725 30.68C148.499 31.16 149.045 31.8333 149.365 32.7L147.625 33.52C147.412 33 147.072 32.5867 146.605 32.28C146.152 31.9733 145.639 31.82 145.065 31.82C144.572 31.82 144.179 31.94 143.885 32.18C143.592 32.4067 143.445 32.7067 143.445 33.08C143.445 33.3333 143.512 33.5467 143.645 33.72C143.779 33.88 143.952 34.0133 144.165 34.12C144.379 34.2133 144.599 34.2933 144.825 34.36L146.585 34.88C147.479 35.1333 148.165 35.5333 148.645 36.08C149.125 36.6133 149.365 37.2533 149.365 38C149.365 38.64 149.192 39.2067 148.845 39.7C148.512 40.18 148.045 40.56 147.445 40.84C146.845 41.1067 146.145 41.24 145.345 41.24ZM156.66 41.24C155.58 41.24 154.62 40.9933 153.78 40.5C152.953 39.9933 152.306 39.3133 151.84 38.46C151.373 37.5933 151.14 36.6267 151.14 35.56C151.14 34.4667 151.373 33.5 151.84 32.66C152.32 31.82 152.96 31.16 153.76 30.68C154.56 30.1867 155.466 29.94 156.48 29.94C157.293 29.94 158.02 30.08 158.66 30.36C159.3 30.64 159.84 31.0267 160.28 31.52C160.72 32 161.053 32.5533 161.28 33.18C161.52 33.8067 161.64 34.4733 161.64 35.18C161.64 35.3533 161.633 35.5333 161.62 35.72C161.606 35.9067 161.58 36.08 161.54 36.24H152.92V34.44H160.26L159.18 35.26C159.313 34.6067 159.266 34.0267 159.04 33.52C158.826 33 158.493 32.5933 158.04 32.3C157.6 31.9933 157.08 31.84 156.48 31.84C155.88 31.84 155.346 31.9933 154.88 32.3C154.413 32.5933 154.053 33.02 153.8 33.58C153.546 34.1267 153.446 34.7933 153.5 35.58C153.433 36.3133 153.533 36.9533 153.8 37.5C154.08 38.0467 154.466 38.4733 154.96 38.78C155.466 39.0867 156.04 39.24 156.68 39.24C157.333 39.24 157.886 39.0933 158.34 38.8C158.806 38.5067 159.173 38.1267 159.44 37.66L161.28 38.56C161.066 39.0667 160.733 39.5267 160.28 39.94C159.84 40.34 159.306 40.66 158.68 40.9C158.066 41.1267 157.393 41.24 156.66 41.24ZM172.781 41.24C171.848 41.24 170.981 41.0667 170.181 40.72C169.381 40.36 168.701 39.8733 168.141 39.26C167.581 38.6467 167.168 37.94 166.901 37.14L168.901 36.3C169.261 37.22 169.788 37.9267 170.481 38.42C171.175 38.9133 171.975 39.16 172.881 39.16C173.415 39.16 173.881 39.08 174.281 38.92C174.681 38.7467 174.988 38.5067 175.201 38.2C175.428 37.8933 175.541 37.54 175.541 37.14C175.541 36.5933 175.388 36.16 175.081 35.84C174.775 35.52 174.321 35.2667 173.721 35.08L170.921 34.2C169.801 33.8533 168.948 33.3267 168.361 32.62C167.775 31.9 167.481 31.06 167.481 30.1C167.481 29.26 167.688 28.5267 168.101 27.9C168.515 27.26 169.081 26.76 169.801 26.4C170.535 26.04 171.368 25.86 172.301 25.86C173.195 25.86 174.008 26.02 174.741 26.34C175.475 26.6467 176.101 27.0733 176.621 27.62C177.155 28.1667 177.541 28.8 177.781 29.52L175.821 30.38C175.528 29.5933 175.068 28.9867 174.441 28.56C173.828 28.1333 173.115 27.92 172.301 27.92C171.808 27.92 171.375 28.0067 171.001 28.18C170.628 28.34 170.335 28.58 170.121 28.9C169.921 29.2067 169.821 29.5667 169.821 29.98C169.821 30.46 169.975 30.8867 170.281 31.26C170.588 31.6333 171.055 31.9133 171.681 32.1L174.281 32.92C175.468 33.28 176.361 33.8 176.961 34.48C177.561 35.1467 177.861 35.98 177.861 36.98C177.861 37.8067 177.641 38.54 177.201 39.18C176.775 39.82 176.181 40.3267 175.421 40.7C174.661 41.06 173.781 41.24 172.781 41.24ZM184.971 41.12C183.837 41.12 182.957 40.8 182.331 40.16C181.704 39.52 181.391 38.62 181.391 37.46V32.22H179.491V30.18H179.791C180.297 30.18 180.691 30.0333 180.971 29.74C181.251 29.4467 181.391 29.0467 181.391 28.54V27.7H183.651V30.18H186.111V32.22H183.651V37.36C183.651 37.7333 183.711 38.0533 183.831 38.32C183.951 38.5733 184.144 38.7733 184.411 38.92C184.677 39.0533 185.024 39.12 185.451 39.12C185.557 39.12 185.677 39.1133 185.811 39.1C185.944 39.0867 186.071 39.0733 186.191 39.06V41C186.004 41.0267 185.797 41.0533 185.571 41.08C185.344 41.1067 185.144 41.12 184.971 41.12ZM192.256 41.24C191.443 41.24 190.73 41.06 190.116 40.7C189.503 40.3267 189.023 39.8133 188.676 39.16C188.343 38.4933 188.176 37.7267 188.176 36.86V30.18H190.436V36.66C190.436 37.1533 190.536 37.5867 190.736 37.96C190.936 38.3333 191.216 38.6267 191.576 38.84C191.936 39.04 192.35 39.14 192.816 39.14C193.296 39.14 193.716 39.0333 194.076 38.82C194.436 38.6067 194.716 38.3067 194.916 37.92C195.13 37.5333 195.236 37.08 195.236 36.56V30.18H197.476V41H195.336V38.88L195.576 39.16C195.323 39.8267 194.903 40.34 194.316 40.7C193.73 41.06 193.043 41.24 192.256 41.24ZM205.115 41.24C204.075 41.24 203.142 40.9933 202.315 40.5C201.502 39.9933 200.855 39.3133 200.375 38.46C199.908 37.6067 199.675 36.6467 199.675 35.58C199.675 34.5133 199.915 33.5533 200.395 32.7C200.875 31.8467 201.522 31.1733 202.335 30.68C203.148 30.1867 204.068 29.94 205.095 29.94C205.962 29.94 206.728 30.1133 207.395 30.46C208.062 30.8067 208.588 31.2867 208.975 31.9L208.635 32.42V25.86H210.875V41H208.735V38.8L208.995 39.22C208.622 39.8733 208.088 40.3733 207.395 40.72C206.702 41.0667 205.942 41.24 205.115 41.24ZM205.335 39.14C205.962 39.14 206.522 38.9867 207.015 38.68C207.522 38.3733 207.915 37.9533 208.195 37.42C208.488 36.8733 208.635 36.26 208.635 35.58C208.635 34.9 208.488 34.2933 208.195 33.76C207.915 33.2267 207.522 32.8067 207.015 32.5C206.522 32.1933 205.962 32.04 205.335 32.04C204.708 32.04 204.142 32.1933 203.635 32.5C203.128 32.8067 202.735 33.2267 202.455 33.76C202.175 34.2933 202.035 34.9 202.035 35.58C202.035 36.26 202.175 36.8733 202.455 37.42C202.735 37.9533 203.122 38.3733 203.615 38.68C204.122 38.9867 204.695 39.14 205.335 39.14ZM214.473 45.4C214.207 45.4 213.94 45.3733 213.673 45.32C213.42 45.28 213.187 45.2133 212.973 45.12V43.18C213.133 43.22 213.327 43.2533 213.553 43.28C213.78 43.32 214 43.34 214.213 43.34C214.84 43.34 215.3 43.2 215.593 42.92C215.9 42.6533 216.173 42.24 216.413 41.68L217.133 40.04L217.093 41.94L212.413 30.18H214.833L218.293 39.2H217.473L220.913 30.18H223.353L218.573 42.18C218.32 42.82 218 43.38 217.613 43.86C217.24 44.3533 216.793 44.7333 216.273 45C215.767 45.2667 215.167 45.4 214.473 45.4Z" fill="black"/>
<defs>
<linearGradient id="paint0_linear_49_1550" x1="0" y1="32" x2="248" y2="32" gradientUnits="userSpaceOnUse">
<stop stop-color="#FFD071"/>
<stop offset="1" stop-color="#EFB745"/>
</linearGradient>
<linearGradient id="paint1_linear_49_1550" x1="166.438" y1="64" x2="104.907" y2="-17.6033" gradientUnits="userSpaceOnUse">
<stop stop-color="white"/>
<stop offset="1"/>
</linearGradient>
</defs>
</svg>
