<svg width="317" height="64" viewBox="0 0 317 64" fill="none" xmlns="http://www.w3.org/2000/svg">
<rect width="317" height="64" rx="32" fill="url(#paint0_linear_2718_431)"/>
<rect x="0.5" y="0.5" width="316" height="63" rx="31.5" stroke="url(#paint1_linear_2718_431)" stroke-opacity="0.16"/>
<path d="M31.1261 40.7402C30.1919 40.7402 29.3244 40.5667 28.5236 40.2197C27.7229 39.8594 27.0422 39.3723 26.4817 38.7583C25.9211 38.1444 25.5074 37.4371 25.2405 36.6363L27.2424 35.7955C27.6027 36.7164 28.1299 37.4237 28.8239 37.9175C29.5179 38.4113 30.3187 38.6582 31.2262 38.6582C31.76 38.6582 32.2272 38.5782 32.6275 38.418C33.0279 38.2445 33.3349 38.0043 33.5484 37.6973C33.7753 37.3904 33.8887 37.0367 33.8887 36.6363C33.8887 36.0891 33.7353 35.6554 33.4283 35.3351C33.1213 35.0148 32.6676 34.7612 32.067 34.5743L29.2643 33.6935C28.1433 33.3465 27.2891 32.8193 26.7019 32.112C26.1147 31.3913 25.821 30.5505 25.821 29.5896C25.821 28.7488 26.0279 28.0147 26.4416 27.3875C26.8554 26.7469 27.4226 26.2464 28.1433 25.886C28.8773 25.5257 29.7114 25.3455 30.6457 25.3455C31.5398 25.3455 32.3539 25.5057 33.088 25.826C33.822 26.133 34.4493 26.56 34.9698 27.1072C35.5036 27.6544 35.8907 28.2883 36.1309 29.009L34.169 29.8699C33.8754 29.0824 33.415 28.4752 32.7877 28.0481C32.1738 27.621 31.4598 27.4075 30.6457 27.4075C30.1518 27.4075 29.7181 27.4942 29.3444 27.6677C28.9707 27.8279 28.6771 28.0681 28.4636 28.3884C28.2634 28.6954 28.1633 29.0557 28.1633 29.4695C28.1633 29.9499 28.3168 30.377 28.6237 30.7507C28.9307 31.1244 29.3978 31.4046 30.0251 31.5915L32.6275 32.4123C33.8153 32.7726 34.7095 33.2931 35.3101 33.9738C35.9107 34.6411 36.211 35.4752 36.211 36.4762C36.211 37.3036 35.9908 38.0376 35.5503 38.6783C35.1233 39.3189 34.5294 39.826 33.7686 40.1997C33.0079 40.5601 32.1271 40.7402 31.1261 40.7402ZM42.5062 40.7402C41.6921 40.7402 40.9781 40.5601 40.3641 40.1997C39.7502 39.826 39.2698 39.3122 38.9228 38.6582C38.5891 37.9909 38.4223 37.2235 38.4223 36.356V29.6697H40.6845V36.1559C40.6845 36.6497 40.7845 37.0834 40.9847 37.4571C41.1849 37.8308 41.4652 38.1244 41.8255 38.3379C42.1859 38.5381 42.5996 38.6382 43.0667 38.6382C43.5472 38.6382 43.9676 38.5315 44.3279 38.3179C44.6883 38.1044 44.9685 37.8041 45.1687 37.4171C45.3823 37.03 45.489 36.5763 45.489 36.0558V29.6697H47.7312V40.5H45.5891V38.378L45.8294 38.6582C45.5758 39.3255 45.1554 39.8394 44.5682 40.1997C43.9809 40.5601 43.2936 40.7402 42.5062 40.7402ZM50.3725 44.5038V29.6697H52.5345V31.9118L52.2743 31.3913C52.6746 30.7774 53.2085 30.2969 53.8758 29.9499C54.5431 29.6029 55.3038 29.4294 56.158 29.4294C57.1856 29.4294 58.1065 29.6763 58.9206 30.1701C59.7481 30.6639 60.3954 31.3379 60.8625 32.1921C61.3429 33.0462 61.5832 34.0071 61.5832 35.0748C61.5832 36.1425 61.3429 37.1034 60.8625 37.9576C60.3954 38.8117 59.7547 39.4924 58.9406 39.9995C58.1265 40.4933 57.199 40.7402 56.158 40.7402C55.3172 40.7402 54.5498 40.5667 53.8558 40.2197C53.1751 39.8727 52.648 39.3723 52.2743 38.7183L52.6346 38.2979V44.5038H50.3725ZM55.9378 38.6382C56.5784 38.6382 57.1456 38.4847 57.6394 38.1778C58.1332 37.8708 58.5202 37.4504 58.8005 36.9166C59.0941 36.3694 59.2409 35.7555 59.2409 35.0748C59.2409 34.3942 59.0941 33.7869 58.8005 33.2531C58.5202 32.7192 58.1332 32.2988 57.6394 31.9919C57.1456 31.6849 56.5784 31.5314 55.9378 31.5314C55.3105 31.5314 54.7433 31.6849 54.2361 31.9919C53.7423 32.2988 53.3486 32.7192 53.055 33.2531C52.7747 33.7869 52.6346 34.3942 52.6346 35.0748C52.6346 35.7555 52.7747 36.3694 53.055 36.9166C53.3486 37.4504 53.7423 37.8708 54.2361 38.1778C54.7433 38.4847 55.3105 38.6382 55.9378 38.6382ZM63.7837 44.5038V29.6697H65.9458V31.9118L65.6855 31.3913C66.0859 30.7774 66.6197 30.2969 67.287 29.9499C67.9543 29.6029 68.7151 29.4294 69.5692 29.4294C70.5969 29.4294 71.5177 29.6763 72.3319 30.1701C73.1593 30.6639 73.8066 31.3379 74.2737 32.1921C74.7542 33.0462 74.9944 34.0071 74.9944 35.0748C74.9944 36.1425 74.7542 37.1034 74.2737 37.9576C73.8066 38.8117 73.166 39.4924 72.3519 39.9995C71.5378 40.4933 70.6102 40.7402 69.5692 40.7402C68.7284 40.7402 67.961 40.5667 67.267 40.2197C66.5864 39.8727 66.0592 39.3723 65.6855 38.7183L66.0459 38.2979V44.5038H63.7837ZM69.349 38.6382C69.9896 38.6382 70.5568 38.4847 71.0506 38.1778C71.5444 37.8708 71.9315 37.4504 72.2117 36.9166C72.5054 36.3694 72.6522 35.7555 72.6522 35.0748C72.6522 34.3942 72.5054 33.7869 72.2117 33.2531C71.9315 32.7192 71.5444 32.2988 71.0506 31.9919C70.5568 31.6849 69.9896 31.5314 69.349 31.5314C68.7217 31.5314 68.1545 31.6849 67.6474 31.9919C67.1536 32.2988 66.7599 32.7192 66.4663 33.2531C66.186 33.7869 66.0459 34.3942 66.0459 35.0748C66.0459 35.7555 66.186 36.3694 66.4663 36.9166C66.7599 37.4504 67.1536 37.8708 67.6474 38.1778C68.1545 38.4847 68.7217 38.6382 69.349 38.6382ZM82.4199 40.7402C81.3789 40.7402 80.4247 40.4933 79.5572 39.9995C78.703 39.5057 78.0224 38.8317 77.5152 37.9776C77.0081 37.1234 76.7545 36.1559 76.7545 35.0748C76.7545 33.9804 77.0081 33.0129 77.5152 32.172C78.0224 31.3179 78.703 30.6506 79.5572 30.1701C80.4113 29.6763 81.3656 29.4294 82.4199 29.4294C83.4876 29.4294 84.4419 29.6763 85.2827 30.1701C86.1368 30.6506 86.8108 31.3179 87.3046 32.172C87.8117 33.0129 88.0653 33.9804 88.0653 35.0748C88.0653 36.1692 87.8117 37.1435 87.3046 37.9976C86.7974 38.8518 86.1168 39.5257 85.2626 40.0195C84.4085 40.5 83.4609 40.7402 82.4199 40.7402ZM82.4199 38.6382C83.0605 38.6382 83.6277 38.4847 84.1215 38.1778C84.6154 37.8708 85.0024 37.4504 85.2827 36.9166C85.5763 36.3694 85.7231 35.7555 85.7231 35.0748C85.7231 34.3942 85.5763 33.7869 85.2827 33.2531C85.0024 32.7192 84.6154 32.2988 84.1215 31.9919C83.6277 31.6849 83.0605 31.5314 82.4199 31.5314C81.7927 31.5314 81.2254 31.6849 80.7183 31.9919C80.2245 32.2988 79.8308 32.7192 79.5372 33.2531C79.2569 33.7869 79.1168 34.3942 79.1168 35.0748C79.1168 35.7555 79.2569 36.3694 79.5372 36.9166C79.8308 37.4504 80.2245 37.8708 80.7183 38.1778C81.2254 38.4847 81.7927 38.6382 82.4199 38.6382ZM90.2738 40.5V29.6697H92.4359V31.8517L92.2357 31.5314C92.4759 30.8241 92.863 30.3169 93.3968 30.01C93.9306 29.6897 94.5713 29.5295 95.3186 29.5295H95.9793V31.5915H95.0384C94.291 31.5915 93.6837 31.8251 93.2166 32.2922C92.7629 32.7459 92.536 33.3999 92.536 34.254V40.5H90.2738ZM102.407 40.6201C101.272 40.6201 100.392 40.2998 99.7643 39.6592C99.137 39.0186 98.8234 38.1177 98.8234 36.9566V31.7116H96.9216V29.6697H97.2219C97.729 29.6697 98.1227 29.5229 98.403 29.2292C98.6833 28.9356 98.8234 28.5352 98.8234 28.0281V27.1873H101.086V29.6697H103.548V31.7116H101.086V36.8565C101.086 37.2302 101.146 37.5505 101.266 37.8174C101.386 38.071 101.579 38.2712 101.846 38.418C102.113 38.5515 102.46 38.6182 102.887 38.6182C102.994 38.6182 103.114 38.6115 103.248 38.5982C103.381 38.5848 103.508 38.5715 103.628 38.5581V40.5C103.441 40.5267 103.234 40.5534 103.007 40.5801C102.781 40.6068 102.58 40.6201 102.407 40.6201ZM110.296 44.9042C110.029 44.9042 109.762 44.8775 109.495 44.8241C109.242 44.7841 109.008 44.7174 108.794 44.6239V42.6821C108.955 42.7221 109.148 42.7555 109.375 42.7822C109.602 42.8222 109.822 42.8422 110.036 42.8422C110.663 42.8422 111.123 42.7021 111.417 42.4218C111.724 42.1549 111.998 41.7412 112.238 41.1806L112.958 39.5391L112.918 41.4409L108.234 29.6697H110.656L114.12 38.6983H113.299L116.742 29.6697H119.184L114.4 41.6811C114.146 42.3217 113.826 42.8823 113.439 43.3627C113.065 43.8565 112.618 44.2369 112.098 44.5038C111.59 44.7707 110.99 44.9042 110.296 44.9042ZM125.762 40.7402C124.721 40.7402 123.767 40.4933 122.899 39.9995C122.045 39.5057 121.365 38.8317 120.857 37.9776C120.35 37.1234 120.097 36.1559 120.097 35.0748C120.097 33.9804 120.35 33.0129 120.857 32.172C121.365 31.3179 122.045 30.6506 122.899 30.1701C123.753 29.6763 124.708 29.4294 125.762 29.4294C126.83 29.4294 127.784 29.6763 128.625 30.1701C129.479 30.6506 130.153 31.3179 130.647 32.172C131.154 33.0129 131.407 33.9804 131.407 35.0748C131.407 36.1692 131.154 37.1435 130.647 37.9976C130.14 38.8518 129.459 39.5257 128.605 40.0195C127.751 40.5 126.803 40.7402 125.762 40.7402ZM125.762 38.6382C126.403 38.6382 126.97 38.4847 127.464 38.1778C127.958 37.8708 128.345 37.4504 128.625 36.9166C128.918 36.3694 129.065 35.7555 129.065 35.0748C129.065 34.3942 128.918 33.7869 128.625 33.2531C128.345 32.7192 127.958 32.2988 127.464 31.9919C126.97 31.6849 126.403 31.5314 125.762 31.5314C125.135 31.5314 124.568 31.6849 124.06 31.9919C123.567 32.2988 123.173 32.7192 122.879 33.2531C122.599 33.7869 122.459 34.3942 122.459 35.0748C122.459 35.7555 122.599 36.3694 122.879 36.9166C123.173 37.4504 123.567 37.8708 124.06 38.1778C124.568 38.4847 125.135 38.6382 125.762 38.6382ZM137.48 40.7402C136.666 40.7402 135.952 40.5601 135.338 40.1997C134.724 39.826 134.243 39.3122 133.896 38.6582C133.563 37.9909 133.396 37.2235 133.396 36.356V29.6697H135.658V36.1559C135.658 36.6497 135.758 37.0834 135.958 37.4571C136.158 37.8308 136.439 38.1244 136.799 38.3379C137.159 38.5381 137.573 38.6382 138.04 38.6382C138.521 38.6382 138.941 38.5315 139.301 38.3179C139.662 38.1044 139.942 37.8041 140.142 37.4171C140.356 37.03 140.463 36.5763 140.463 36.0558V29.6697H142.705V40.5H140.563V38.378L140.803 38.6582C140.549 39.3255 140.129 39.8394 139.542 40.1997C138.954 40.5601 138.267 40.7402 137.48 40.7402ZM145.346 40.5V29.6697H147.508V31.8517L147.308 31.5314C147.548 30.8241 147.935 30.3169 148.469 30.01C149.003 29.6897 149.643 29.5295 150.391 29.5295H151.051V31.5915H150.11C149.363 31.5915 148.756 31.8251 148.289 32.2922C147.835 32.7459 147.608 33.3999 147.608 34.254V40.5H145.346ZM160.102 40.7402C158.994 40.7402 158.02 40.4666 157.179 39.9194C156.352 39.3723 155.771 38.6382 155.438 37.7173L157.179 36.8966C157.473 37.5105 157.873 37.9976 158.381 38.358C158.901 38.7183 159.475 38.8985 160.102 38.8985C160.636 38.8985 161.07 38.7784 161.403 38.5381C161.737 38.2979 161.904 37.9709 161.904 37.5572C161.904 37.2903 161.831 37.0767 161.684 36.9166C161.537 36.7431 161.35 36.6029 161.123 36.4962C160.91 36.3894 160.689 36.3093 160.463 36.2559L158.761 35.7755C157.827 35.5086 157.126 35.1082 156.659 34.5743C156.205 34.0272 155.978 33.3932 155.978 32.6725C155.978 32.0186 156.145 31.4514 156.479 30.9709C156.812 30.4771 157.273 30.0967 157.86 29.8298C158.447 29.5629 159.108 29.4294 159.842 29.4294C160.83 29.4294 161.71 29.6763 162.484 30.1701C163.259 30.6506 163.806 31.3246 164.126 32.1921L162.384 33.0129C162.171 32.4924 161.831 32.0786 161.363 31.7717C160.91 31.4647 160.396 31.3112 159.822 31.3112C159.328 31.3112 158.934 31.4313 158.641 31.6716C158.347 31.8985 158.2 32.1987 158.2 32.5724C158.2 32.826 158.267 33.0395 158.401 33.213C158.534 33.3732 158.708 33.5067 158.921 33.6134C159.135 33.7068 159.355 33.7869 159.582 33.8537L161.343 34.3742C162.238 34.6277 162.925 35.0281 163.405 35.5753C163.886 36.1091 164.126 36.7498 164.126 37.4971C164.126 38.1377 163.953 38.705 163.606 39.1988C163.272 39.6792 162.805 40.0596 162.204 40.3398C161.604 40.6068 160.903 40.7402 160.102 40.7402ZM171.027 40.6201C169.893 40.6201 169.012 40.2998 168.384 39.6592C167.757 39.0186 167.444 38.1177 167.444 36.9566V31.7116H165.542V29.6697H165.842C166.349 29.6697 166.743 29.5229 167.023 29.2292C167.303 28.9356 167.444 28.5352 167.444 28.0281V27.1873H169.706V29.6697H172.168V31.7116H169.706V36.8565C169.706 37.2302 169.766 37.5505 169.886 37.8174C170.006 38.071 170.2 38.2712 170.466 38.418C170.733 38.5515 171.08 38.6182 171.507 38.6182C171.614 38.6182 171.734 38.6115 171.868 38.5982C172.001 38.5848 172.128 38.5715 172.248 38.5581V40.5C172.061 40.5267 171.854 40.5534 171.628 40.5801C171.401 40.6068 171.201 40.6201 171.027 40.6201ZM178.319 40.7402C177.505 40.7402 176.791 40.5601 176.177 40.1997C175.563 39.826 175.083 39.3122 174.736 38.6582C174.402 37.9909 174.236 37.2235 174.236 36.356V29.6697H176.498V36.1559C176.498 36.6497 176.598 37.0834 176.798 37.4571C176.998 37.8308 177.278 38.1244 177.639 38.3379C177.999 38.5381 178.413 38.6382 178.88 38.6382C179.36 38.6382 179.781 38.5315 180.141 38.3179C180.502 38.1044 180.782 37.8041 180.982 37.4171C181.196 37.03 181.302 36.5763 181.302 36.0558V29.6697H183.544V40.5H181.402V38.378L181.643 38.6582C181.389 39.3255 180.969 39.8394 180.381 40.1997C179.794 40.5601 179.107 40.7402 178.319 40.7402ZM191.19 40.7402C190.149 40.7402 189.215 40.4933 188.388 39.9995C187.574 39.4924 186.926 38.8117 186.446 37.9576C185.979 37.1034 185.745 36.1425 185.745 35.0748C185.745 34.0071 185.986 33.0462 186.466 32.1921C186.946 31.3379 187.594 30.6639 188.408 30.1701C189.222 29.6763 190.143 29.4294 191.17 29.4294C192.038 29.4294 192.805 29.6029 193.473 29.9499C194.14 30.2969 194.667 30.7774 195.054 31.3913L194.714 31.9118V25.3455H196.956V40.5H194.814V38.2979L195.074 38.7183C194.7 39.3723 194.167 39.8727 193.473 40.2197C192.779 40.5667 192.018 40.7402 191.19 40.7402ZM191.411 38.6382C192.038 38.6382 192.598 38.4847 193.092 38.1778C193.599 37.8708 193.993 37.4504 194.273 36.9166C194.567 36.3694 194.714 35.7555 194.714 35.0748C194.714 34.3942 194.567 33.7869 194.273 33.2531C193.993 32.7192 193.599 32.2988 193.092 31.9919C192.598 31.6849 192.038 31.5314 191.411 31.5314C190.783 31.5314 190.216 31.6849 189.709 31.9919C189.202 32.2988 188.808 32.7192 188.528 33.2531C188.248 33.7869 188.108 34.3942 188.108 35.0748C188.108 35.7555 188.248 36.3694 188.528 36.9166C188.808 37.4504 189.195 37.8708 189.689 38.1778C190.196 38.4847 190.77 38.6382 191.411 38.6382ZM204.682 40.7402C203.601 40.7402 202.64 40.4933 201.799 39.9995C200.972 39.4924 200.324 38.8117 199.857 37.9576C199.39 37.0901 199.157 36.1225 199.157 35.0548C199.157 33.9604 199.39 32.9928 199.857 32.152C200.338 31.3112 200.978 30.6506 201.779 30.1701C202.58 29.6763 203.487 29.4294 204.502 29.4294C205.316 29.4294 206.043 29.5696 206.684 29.8498C207.324 30.1301 207.865 30.5171 208.305 31.0109C208.746 31.4914 209.079 32.0453 209.306 32.6725C209.546 33.2998 209.667 33.9671 209.667 34.6744C209.667 34.8479 209.66 35.0281 209.647 35.215C209.633 35.4018 209.606 35.5753 209.566 35.7355H200.938V33.9337H208.285L207.204 34.7545C207.338 34.1006 207.291 33.52 207.064 33.0129C206.851 32.4924 206.517 32.0853 206.063 31.7917C205.623 31.4847 205.102 31.3312 204.502 31.3312C203.901 31.3312 203.367 31.4847 202.9 31.7917C202.433 32.0853 202.073 32.5124 201.819 33.0729C201.565 33.6201 201.465 34.2874 201.519 35.0748C201.452 35.8089 201.552 36.4495 201.819 36.9967C202.099 37.5438 202.486 37.9709 202.98 38.2779C203.487 38.5848 204.061 38.7383 204.702 38.7383C205.356 38.7383 205.91 38.5915 206.363 38.2979C206.831 38.0043 207.198 37.6239 207.464 37.1568L209.306 38.0577C209.093 38.5648 208.759 39.0253 208.305 39.439C207.865 39.8394 207.331 40.1597 206.704 40.3999C206.09 40.6268 205.416 40.7402 204.682 40.7402ZM211.874 40.5V29.6697H214.036V31.7917L213.776 31.5114C214.043 30.8308 214.47 30.3169 215.057 29.9699C215.645 29.6096 216.325 29.4294 217.099 29.4294C217.9 29.4294 218.607 29.6029 219.221 29.9499C219.835 30.2969 220.316 30.7774 220.663 31.3913C221.01 32.0052 221.183 32.7126 221.183 33.5133V40.5H218.941V34.1139C218.941 33.5667 218.841 33.1063 218.641 32.7326C218.441 32.3455 218.154 32.0519 217.78 31.8517C217.42 31.6382 217.006 31.5314 216.539 31.5314C216.072 31.5314 215.651 31.6382 215.278 31.8517C214.917 32.0519 214.637 32.3455 214.437 32.7326C214.237 33.1196 214.136 33.5801 214.136 34.1139V40.5H211.874ZM228.289 40.6201C227.154 40.6201 226.273 40.2998 225.646 39.6592C225.019 39.0186 224.705 38.1177 224.705 36.9566V31.7116H222.803V29.6697H223.104C223.611 29.6697 224.005 29.5229 224.285 29.2292C224.565 28.9356 224.705 28.5352 224.705 28.0281V27.1873H226.967V29.6697H229.43V31.7116H226.967V36.8565C226.967 37.2302 227.028 37.5505 227.148 37.8174C227.268 38.071 227.461 38.2712 227.728 38.418C227.995 38.5515 228.342 38.6182 228.769 38.6182C228.876 38.6182 228.996 38.6115 229.13 38.5982C229.263 38.5848 229.39 38.5715 229.51 38.5581V40.5C229.323 40.5267 229.116 40.5534 228.889 40.5801C228.662 40.6068 228.462 40.6201 228.289 40.6201ZM235.721 40.7402C234.614 40.7402 233.639 40.4666 232.798 39.9194C231.971 39.3723 231.39 38.6382 231.057 37.7173L232.798 36.8966C233.092 37.5105 233.492 37.9976 234 38.358C234.52 38.7183 235.094 38.8985 235.721 38.8985C236.255 38.8985 236.689 38.7784 237.023 38.5381C237.356 38.2979 237.523 37.9709 237.523 37.5572C237.523 37.2903 237.45 37.0767 237.303 36.9166C237.156 36.7431 236.969 36.6029 236.742 36.4962C236.529 36.3894 236.309 36.3093 236.082 36.2559L234.38 35.7755C233.446 35.5086 232.745 35.1082 232.278 34.5743C231.824 34.0272 231.597 33.3932 231.597 32.6725C231.597 32.0186 231.764 31.4514 232.098 30.9709C232.431 30.4771 232.892 30.0967 233.479 29.8298C234.066 29.5629 234.727 29.4294 235.461 29.4294C236.449 29.4294 237.329 29.6763 238.104 30.1701C238.878 30.6506 239.425 31.3246 239.745 32.1921L238.003 33.0129C237.79 32.4924 237.45 32.0786 236.982 31.7717C236.529 31.4647 236.015 31.3112 235.441 31.3112C234.947 31.3112 234.553 31.4313 234.26 31.6716C233.966 31.8985 233.819 32.1987 233.819 32.5724C233.819 32.826 233.886 33.0395 234.02 33.213C234.153 33.3732 234.327 33.5067 234.54 33.6134C234.754 33.7068 234.974 33.7869 235.201 33.8537L236.962 34.3742C237.857 34.6277 238.544 35.0281 239.024 35.5753C239.505 36.1091 239.745 36.7498 239.745 37.4971C239.745 38.1377 239.572 38.705 239.225 39.1988C238.891 39.6792 238.424 40.0596 237.823 40.3398C237.223 40.6068 236.522 40.7402 235.721 40.7402Z" fill="white"/>
<g clip-path="url(#clip0_2718_431)">
<rect x="261" y="8" width="48" height="48" rx="24" fill="white" fill-opacity="0.16"/>
<path d="M298.061 33.0607C298.646 32.4749 298.646 31.5251 298.061 30.9393L288.515 21.3934C287.929 20.8076 286.979 20.8076 286.393 21.3934C285.808 21.9792 285.808 22.9289 286.393 23.5147L294.879 32L286.393 40.4853C285.808 41.0711 285.808 42.0208 286.393 42.6066C286.979 43.1924 287.929 43.1924 288.515 42.6066L298.061 33.0607ZM273 32V33.5H297V32V30.5H273V32Z" fill="white"/>
</g>
<defs>
<linearGradient id="paint0_linear_2718_431" x1="0" y1="32" x2="317" y2="32" gradientUnits="userSpaceOnUse">
<stop stop-color="#2B476D"/>
<stop offset="1" stop-color="#182434"/>
</linearGradient>
<linearGradient id="paint1_linear_2718_431" x1="212.746" y1="64" x2="156.731" y2="-30.9563" gradientUnits="userSpaceOnUse">
<stop stop-color="white"/>
<stop offset="1"/>
</linearGradient>
<clipPath id="clip0_2718_431">
<rect x="261" y="8" width="48" height="48" rx="24" fill="white"/>
</clipPath>
</defs>
</svg>
