<svg width="243" height="64" viewBox="0 0 243 64" fill="none" xmlns="http://www.w3.org/2000/svg">
<rect width="243" height="64" rx="32" fill="url(#paint0_linear_2782_114)"/>
<rect x="0.5" y="0.5" width="242" height="63" rx="31.5" stroke="url(#paint1_linear_2782_114)" stroke-opacity="0.16"/>
<path d="M25.7119 40.5V25.6H27.6119L35.9719 37.14L35.0719 37.28V25.6H37.4119V40.5H35.5119L27.2119 28.88L28.0719 28.72V40.5H25.7119ZM45.497 40.74C44.457 40.74 43.5037 40.4933 42.637 40C41.7837 39.5067 41.1037 38.8333 40.597 37.98C40.0904 37.1267 39.837 36.16 39.837 35.08C39.837 33.9867 40.0904 33.02 40.597 32.18C41.1037 31.3267 41.7837 30.66 42.637 30.18C43.4904 29.6867 44.4437 29.44 45.497 29.44C46.5637 29.44 47.517 29.6867 48.357 30.18C49.2104 30.66 49.8837 31.3267 50.377 32.18C50.8837 33.02 51.137 33.9867 51.137 35.08C51.137 36.1733 50.8837 37.1467 50.377 38C49.8704 38.8533 49.1904 39.5267 48.337 40.02C47.4837 40.5 46.537 40.74 45.497 40.74ZM45.497 38.64C46.137 38.64 46.7037 38.4867 47.197 38.18C47.6904 37.8733 48.077 37.4533 48.357 36.92C48.6504 36.3733 48.797 35.76 48.797 35.08C48.797 34.4 48.6504 33.7933 48.357 33.26C48.077 32.7267 47.6904 32.3067 47.197 32C46.7037 31.6933 46.137 31.54 45.497 31.54C44.8704 31.54 44.3037 31.6933 43.797 32C43.3037 32.3067 42.9104 32.7267 42.617 33.26C42.337 33.7933 42.197 34.4 42.197 35.08C42.197 35.76 42.337 36.3733 42.617 36.92C42.9104 37.4533 43.3037 37.8733 43.797 38.18C44.3037 38.4867 44.8704 38.64 45.497 38.64ZM53.3434 40.5V29.68H55.5034V32.02L55.2234 31.66C55.4501 30.9267 55.8634 30.3733 56.4634 30C57.0634 29.6267 57.7501 29.44 58.5234 29.44C59.3901 29.44 60.1568 29.6733 60.8234 30.14C61.5034 30.5933 61.9568 31.2 62.1834 31.96L61.5434 32.02C61.8634 31.1533 62.3501 30.5067 63.0034 30.08C63.6701 29.6533 64.4301 29.44 65.2834 29.44C66.0301 29.44 66.7034 29.6133 67.3034 29.96C67.9168 30.3067 68.4034 30.7867 68.7634 31.4C69.1234 32.0133 69.3034 32.7133 69.3034 33.5V40.5H67.0434V34.12C67.0434 33.5733 66.9434 33.1133 66.7434 32.74C66.5568 32.3533 66.2901 32.06 65.9434 31.86C65.6101 31.6467 65.2168 31.54 64.7634 31.54C64.3101 31.54 63.9101 31.6467 63.5634 31.86C63.2168 32.06 62.9434 32.3533 62.7434 32.74C62.5434 33.1267 62.4434 33.5867 62.4434 34.12V40.5H60.2034V34.12C60.2034 33.5733 60.1034 33.1133 59.9034 32.74C59.7168 32.3533 59.4501 32.06 59.1034 31.86C58.7701 31.6467 58.3701 31.54 57.9034 31.54C57.4501 31.54 57.0501 31.6467 56.7034 31.86C56.3568 32.06 56.0834 32.3533 55.8834 32.74C55.6968 33.1267 55.6034 33.5867 55.6034 34.12V40.5H53.3434ZM71.7223 40.5V29.68H73.9823V40.5H71.7223ZM71.7223 28.2V25.6H73.9823V28.2H71.7223ZM76.6247 40.5V29.68H78.7847V31.8L78.5247 31.52C78.7914 30.84 79.218 30.3267 79.8047 29.98C80.3914 29.62 81.0714 29.44 81.8447 29.44C82.6447 29.44 83.3514 29.6133 83.9647 29.96C84.578 30.3067 85.058 30.7867 85.4047 31.4C85.7514 32.0133 85.9247 32.72 85.9247 33.52V40.5H83.6847V34.12C83.6847 33.5733 83.5847 33.1133 83.3847 32.74C83.1847 32.3533 82.898 32.06 82.5247 31.86C82.1647 31.6467 81.7514 31.54 81.2847 31.54C80.818 31.54 80.398 31.6467 80.0247 31.86C79.6647 32.06 79.3847 32.3533 79.1847 32.74C78.9847 33.1267 78.8847 33.5867 78.8847 34.12V40.5H76.6247ZM91.5834 40.74C90.8501 40.74 90.2034 40.6133 89.6434 40.36C89.0968 40.0933 88.6701 39.7333 88.3634 39.28C88.0568 38.8133 87.9034 38.2667 87.9034 37.64C87.9034 37.0533 88.0301 36.5267 88.2834 36.06C88.5501 35.5933 88.9568 35.2 89.5034 34.88C90.0501 34.56 90.7368 34.3333 91.5634 34.2L95.3234 33.58V35.36L92.0034 35.94C91.4034 36.0467 90.9634 36.24 90.6834 36.52C90.4034 36.7867 90.2634 37.1333 90.2634 37.56C90.2634 37.9733 90.4168 38.3133 90.7234 38.58C91.0434 38.8333 91.4501 38.96 91.9434 38.96C92.5568 38.96 93.0901 38.8267 93.5434 38.56C94.0101 38.2933 94.3701 37.94 94.6234 37.5C94.8768 37.0467 95.0034 36.5467 95.0034 36V33.22C95.0034 32.6867 94.8034 32.2533 94.4034 31.92C94.0168 31.5733 93.4968 31.4 92.8434 31.4C92.2434 31.4 91.7168 31.56 91.2634 31.88C90.8234 32.1867 90.4968 32.5867 90.2834 33.08L88.4034 32.14C88.6034 31.6067 88.9301 31.14 89.3834 30.74C89.8368 30.3267 90.3634 30.0067 90.9634 29.78C91.5768 29.5533 92.2234 29.44 92.9034 29.44C93.7568 29.44 94.5101 29.6 95.1634 29.92C95.8301 30.24 96.3434 30.6867 96.7034 31.26C97.0768 31.82 97.2634 32.4733 97.2634 33.22V40.5H95.1034V38.54L95.5634 38.6C95.3101 39.04 94.9834 39.42 94.5834 39.74C94.1968 40.06 93.7501 40.3067 93.2434 40.48C92.7501 40.6533 92.1968 40.74 91.5834 40.74ZM104.391 40.62C103.257 40.62 102.377 40.3 101.751 39.66C101.124 39.02 100.811 38.12 100.811 36.96V31.72H98.9106V29.68H99.2106C99.7173 29.68 100.111 29.5333 100.391 29.24C100.671 28.9467 100.811 28.5467 100.811 28.04V27.2H103.071V29.68H105.531V31.72H103.071V36.86C103.071 37.2333 103.131 37.5533 103.251 37.82C103.371 38.0733 103.564 38.2733 103.831 38.42C104.097 38.5533 104.444 38.62 104.871 38.62C104.977 38.62 105.097 38.6133 105.231 38.6C105.364 38.5867 105.491 38.5733 105.611 38.56V40.5C105.424 40.5267 105.217 40.5533 104.991 40.58C104.764 40.6067 104.564 40.62 104.391 40.62ZM112.701 40.74C111.621 40.74 110.661 40.4933 109.821 40C108.994 39.4933 108.347 38.8133 107.881 37.96C107.414 37.0933 107.181 36.1267 107.181 35.06C107.181 33.9667 107.414 33 107.881 32.16C108.361 31.32 109.001 30.66 109.801 30.18C110.601 29.6867 111.507 29.44 112.521 29.44C113.334 29.44 114.061 29.58 114.701 29.86C115.341 30.14 115.881 30.5267 116.321 31.02C116.761 31.5 117.094 32.0533 117.321 32.68C117.561 33.3067 117.681 33.9733 117.681 34.68C117.681 34.8533 117.674 35.0333 117.661 35.22C117.647 35.4067 117.621 35.58 117.581 35.74H108.961V33.94H116.301L115.221 34.76C115.354 34.1067 115.307 33.5267 115.081 33.02C114.867 32.5 114.534 32.0933 114.081 31.8C113.641 31.4933 113.121 31.34 112.521 31.34C111.921 31.34 111.387 31.4933 110.921 31.8C110.454 32.0933 110.094 32.52 109.841 33.08C109.587 33.6267 109.487 34.2933 109.541 35.08C109.474 35.8133 109.574 36.4533 109.841 37C110.121 37.5467 110.507 37.9733 111.001 38.28C111.507 38.5867 112.081 38.74 112.721 38.74C113.374 38.74 113.927 38.5933 114.381 38.3C114.847 38.0067 115.214 37.6267 115.481 37.16L117.321 38.06C117.107 38.5667 116.774 39.0267 116.321 39.44C115.881 39.84 115.347 40.16 114.721 40.4C114.107 40.6267 113.434 40.74 112.701 40.74ZM123.603 40.5V25.6H125.503L133.863 37.14L132.963 37.28V25.6H135.303V40.5H133.403L125.103 28.88L125.963 28.72V40.5H123.603ZM143.388 40.74C142.348 40.74 141.394 40.4933 140.528 40C139.674 39.5067 138.994 38.8333 138.488 37.98C137.981 37.1267 137.728 36.16 137.728 35.08C137.728 33.9867 137.981 33.02 138.488 32.18C138.994 31.3267 139.674 30.66 140.528 30.18C141.381 29.6867 142.334 29.44 143.388 29.44C144.454 29.44 145.408 29.6867 146.248 30.18C147.101 30.66 147.774 31.3267 148.268 32.18C148.774 33.02 149.028 33.9867 149.028 35.08C149.028 36.1733 148.774 37.1467 148.268 38C147.761 38.8533 147.081 39.5267 146.228 40.02C145.374 40.5 144.428 40.74 143.388 40.74ZM143.388 38.64C144.028 38.64 144.594 38.4867 145.088 38.18C145.581 37.8733 145.968 37.4533 146.248 36.92C146.541 36.3733 146.688 35.76 146.688 35.08C146.688 34.4 146.541 33.7933 146.248 33.26C145.968 32.7267 145.581 32.3067 145.088 32C144.594 31.6933 144.028 31.54 143.388 31.54C142.761 31.54 142.194 31.6933 141.688 32C141.194 32.3067 140.801 32.7267 140.508 33.26C140.228 33.7933 140.088 34.4 140.088 35.08C140.088 35.76 140.228 36.3733 140.508 36.92C140.801 37.4533 141.194 37.8733 141.688 38.18C142.194 38.4867 142.761 38.64 143.388 38.64ZM153.659 40.5L149.939 29.68H152.339L155.179 38.3H154.339L157.239 29.68H159.299L162.179 38.3H161.339L164.199 29.68H166.599L162.859 40.5H160.819L157.899 31.68H158.639L155.719 40.5H153.659Z" fill="black"/>
<g clip-path="url(#clip0_2782_114)">
<rect x="187" y="8" width="48" height="48" rx="24" fill="black" fill-opacity="0.16"/>
<path d="M224.061 33.0607C224.646 32.4749 224.646 31.5251 224.061 30.9393L214.515 21.3934C213.929 20.8076 212.979 20.8076 212.393 21.3934C211.808 21.9792 211.808 22.9289 212.393 23.5147L220.879 32L212.393 40.4853C211.808 41.0711 211.808 42.0208 212.393 42.6066C212.979 43.1924 213.929 43.1924 214.515 42.6066L224.061 33.0607ZM199 32V33.5H223V32V30.5H199V32Z" fill="#182434"/>
</g>
<defs>
<linearGradient id="paint0_linear_2782_114" x1="0" y1="32" x2="243" y2="32" gradientUnits="userSpaceOnUse">
<stop stop-color="#FFD071"/>
<stop offset="1" stop-color="#EFB745"/>
</linearGradient>
<linearGradient id="paint1_linear_2782_114" x1="163.083" y1="64" x2="101.218" y2="-16.3917" gradientUnits="userSpaceOnUse">
<stop stop-color="white"/>
<stop offset="1"/>
</linearGradient>
<clipPath id="clip0_2782_114">
<rect x="187" y="8" width="48" height="48" rx="24" fill="white"/>
</clipPath>
</defs>
</svg>
