<svg width="257" height="64" viewBox="0 0 257 64" fill="none" xmlns="http://www.w3.org/2000/svg">
<rect width="257" height="64" rx="32" fill="url(#paint0_linear_2718_64)"/>
<rect x="0.5" y="0.5" width="256" height="63" rx="31.5" stroke="url(#paint1_linear_2718_64)" stroke-opacity="0.16"/>
<path d="M25.9736 40.5V25.6H31.3936C32.3936 25.6 33.2736 25.7867 34.0336 26.16C34.7936 26.52 35.3869 27.0533 35.8136 27.76C36.2536 28.4533 36.4736 29.2867 36.4736 30.26C36.4736 31.2867 36.2136 32.1667 35.6936 32.9C35.1869 33.6333 34.5003 34.1667 33.6336 34.5L37.0736 40.5H34.3936L30.7336 34L32.2736 34.9H28.3336V40.5H25.9736ZM28.3336 32.8H31.4336C31.9803 32.8 32.4536 32.6933 32.8536 32.48C33.2536 32.2667 33.5603 31.9733 33.7736 31.6C34.0003 31.2133 34.1136 30.76 34.1136 30.24C34.1136 29.72 34.0003 29.2733 33.7736 28.9C33.5603 28.5133 33.2536 28.22 32.8536 28.02C32.4536 27.8067 31.9803 27.7 31.4336 27.7H28.3336V32.8ZM43.3141 40.74C42.2341 40.74 41.2741 40.4933 40.4341 40C39.6074 39.4933 38.9607 38.8133 38.4941 37.96C38.0274 37.0933 37.7941 36.1267 37.7941 35.06C37.7941 33.9667 38.0274 33 38.4941 32.16C38.9741 31.32 39.6141 30.66 40.4141 30.18C41.2141 29.6867 42.1207 29.44 43.1341 29.44C43.9474 29.44 44.6741 29.58 45.3141 29.86C45.9541 30.14 46.4941 30.5267 46.9341 31.02C47.3741 31.5 47.7074 32.0533 47.9341 32.68C48.1741 33.3067 48.2941 33.9733 48.2941 34.68C48.2941 34.8533 48.2874 35.0333 48.2741 35.22C48.2607 35.4067 48.2341 35.58 48.1941 35.74H39.5741V33.94H46.9141L45.8341 34.76C45.9674 34.1067 45.9207 33.5267 45.6941 33.02C45.4807 32.5 45.1474 32.0933 44.6941 31.8C44.2541 31.4933 43.7341 31.34 43.1341 31.34C42.5341 31.34 42.0007 31.4933 41.5341 31.8C41.0674 32.0933 40.7074 32.52 40.4541 33.08C40.2007 33.6267 40.1007 34.2933 40.1541 35.08C40.0874 35.8133 40.1874 36.4533 40.4541 37C40.7341 37.5467 41.1207 37.9733 41.6141 38.28C42.1207 38.5867 42.6941 38.74 43.3341 38.74C43.9874 38.74 44.5407 38.5933 44.9941 38.3C45.4607 38.0067 45.8274 37.6267 46.0941 37.16L47.9341 38.06C47.7207 38.5667 47.3874 39.0267 46.9341 39.44C46.4941 39.84 45.9607 40.16 45.3341 40.4C44.7207 40.6267 44.0474 40.74 43.3141 40.74ZM59.0197 44.5V38.3L59.3797 38.72C59.0064 39.3733 58.473 39.8733 57.7797 40.22C57.0864 40.5667 56.3264 40.74 55.4997 40.74C54.4597 40.74 53.5264 40.4933 52.6997 40C51.8864 39.4933 51.2397 38.8133 50.7597 37.96C50.293 37.1067 50.0597 36.1467 50.0597 35.08C50.0597 34.0133 50.2997 33.0533 50.7797 32.2C51.2597 31.3467 51.9064 30.6733 52.7197 30.18C53.533 29.6867 54.453 29.44 55.4797 29.44C56.3464 29.44 57.113 29.6133 57.7797 29.96C58.4464 30.3067 58.973 30.7867 59.3597 31.4L59.1197 31.92V29.68H61.2597V44.5H59.0197ZM55.7197 38.64C56.3464 38.64 56.9064 38.4867 57.3997 38.18C57.9064 37.8733 58.2997 37.4533 58.5797 36.92C58.873 36.3733 59.0197 35.76 59.0197 35.08C59.0197 34.4 58.873 33.7933 58.5797 33.26C58.2997 32.7267 57.9064 32.3067 57.3997 32C56.9064 31.6933 56.3464 31.54 55.7197 31.54C55.093 31.54 54.5264 31.6933 54.0197 32C53.513 32.3067 53.1197 32.7267 52.8397 33.26C52.5597 33.7933 52.4197 34.4 52.4197 35.08C52.4197 35.76 52.5597 36.3733 52.8397 36.92C53.1197 37.4533 53.5064 37.8733 53.9997 38.18C54.5064 38.4867 55.0797 38.64 55.7197 38.64ZM67.7581 40.74C66.9448 40.74 66.2315 40.56 65.6181 40.2C65.0048 39.8267 64.5248 39.3133 64.1781 38.66C63.8448 37.9933 63.6781 37.2267 63.6781 36.36V29.68H65.9381V36.16C65.9381 36.6533 66.0381 37.0867 66.2381 37.46C66.4381 37.8333 66.7181 38.1267 67.0781 38.34C67.4381 38.54 67.8515 38.64 68.3181 38.64C68.7981 38.64 69.2181 38.5333 69.5781 38.32C69.9381 38.1067 70.2181 37.8067 70.4181 37.42C70.6315 37.0333 70.7381 36.58 70.7381 36.06V29.68H72.9781V40.5H70.8381V38.38L71.0781 38.66C70.8248 39.3267 70.4048 39.84 69.8181 40.2C69.2315 40.56 68.5448 40.74 67.7581 40.74ZM80.6969 40.74C79.6169 40.74 78.6569 40.4933 77.8169 40C76.9902 39.4933 76.3435 38.8133 75.8769 37.96C75.4102 37.0933 75.1769 36.1267 75.1769 35.06C75.1769 33.9667 75.4102 33 75.8769 32.16C76.3569 31.32 76.9969 30.66 77.7969 30.18C78.5969 29.6867 79.5035 29.44 80.5169 29.44C81.3302 29.44 82.0569 29.58 82.6969 29.86C83.3369 30.14 83.8769 30.5267 84.3169 31.02C84.7569 31.5 85.0902 32.0533 85.3169 32.68C85.5569 33.3067 85.6769 33.9733 85.6769 34.68C85.6769 34.8533 85.6702 35.0333 85.6569 35.22C85.6435 35.4067 85.6169 35.58 85.5769 35.74H76.9569V33.94H84.2969L83.2169 34.76C83.3502 34.1067 83.3035 33.5267 83.0769 33.02C82.8635 32.5 82.5302 32.0933 82.0769 31.8C81.6369 31.4933 81.1169 31.34 80.5169 31.34C79.9169 31.34 79.3835 31.4933 78.9169 31.8C78.4502 32.0933 78.0902 32.52 77.8369 33.08C77.5835 33.6267 77.4835 34.2933 77.5369 35.08C77.4702 35.8133 77.5702 36.4533 77.8369 37C78.1169 37.5467 78.5035 37.9733 78.9969 38.28C79.5035 38.5867 80.0769 38.74 80.7169 38.74C81.3702 38.74 81.9235 38.5933 82.3769 38.3C82.8435 38.0067 83.2102 37.6267 83.4769 37.16L85.3169 38.06C85.1035 38.5667 84.7702 39.0267 84.3169 39.44C83.8769 39.84 83.3435 40.16 82.7169 40.4C82.1035 40.6267 81.4302 40.74 80.6969 40.74ZM91.8825 40.74C90.7758 40.74 89.8025 40.4667 88.9625 39.92C88.1358 39.3733 87.5558 38.64 87.2225 37.72L88.9625 36.9C89.2558 37.5133 89.6558 38 90.1625 38.36C90.6825 38.72 91.2558 38.9 91.8825 38.9C92.4158 38.9 92.8492 38.78 93.1825 38.54C93.5158 38.3 93.6825 37.9733 93.6825 37.56C93.6825 37.2933 93.6092 37.08 93.4625 36.92C93.3158 36.7467 93.1292 36.6067 92.9025 36.5C92.6892 36.3933 92.4692 36.3133 92.2425 36.26L90.5425 35.78C89.6092 35.5133 88.9092 35.1133 88.4425 34.58C87.9892 34.0333 87.7625 33.4 87.7625 32.68C87.7625 32.0267 87.9292 31.46 88.2625 30.98C88.5958 30.4867 89.0558 30.1067 89.6425 29.84C90.2292 29.5733 90.8892 29.44 91.6225 29.44C92.6092 29.44 93.4892 29.6867 94.2625 30.18C95.0358 30.66 95.5825 31.3333 95.9025 32.2L94.1625 33.02C93.9492 32.5 93.6092 32.0867 93.1425 31.78C92.6892 31.4733 92.1758 31.32 91.6025 31.32C91.1092 31.32 90.7158 31.44 90.4225 31.68C90.1292 31.9067 89.9825 32.2067 89.9825 32.58C89.9825 32.8333 90.0492 33.0467 90.1825 33.22C90.3158 33.38 90.4892 33.5133 90.7025 33.62C90.9158 33.7133 91.1358 33.7933 91.3625 33.86L93.1225 34.38C94.0158 34.6333 94.7025 35.0333 95.1825 35.58C95.6625 36.1133 95.9025 36.7533 95.9025 37.5C95.9025 38.14 95.7292 38.7067 95.3825 39.2C95.0492 39.68 94.5825 40.06 93.9825 40.34C93.3825 40.6067 92.6825 40.74 91.8825 40.74ZM102.797 40.62C101.664 40.62 100.784 40.3 100.157 39.66C99.5302 39.02 99.2169 38.12 99.2169 36.96V31.72H97.3169V29.68H97.6169C98.1235 29.68 98.5169 29.5333 98.7969 29.24C99.0769 28.9467 99.2169 28.5467 99.2169 28.04V27.2H101.477V29.68H103.937V31.72H101.477V36.86C101.477 37.2333 101.537 37.5533 101.657 37.82C101.777 38.0733 101.97 38.2733 102.237 38.42C102.504 38.5533 102.85 38.62 103.277 38.62C103.384 38.62 103.504 38.6133 103.637 38.6C103.77 38.5867 103.897 38.5733 104.017 38.56V40.5C103.83 40.5267 103.624 40.5533 103.397 40.58C103.17 40.6067 102.97 40.62 102.797 40.62ZM112.958 40.74C112.225 40.74 111.578 40.6133 111.018 40.36C110.472 40.0933 110.045 39.7333 109.738 39.28C109.432 38.8133 109.278 38.2667 109.278 37.64C109.278 37.0533 109.405 36.5267 109.658 36.06C109.925 35.5933 110.332 35.2 110.878 34.88C111.425 34.56 112.112 34.3333 112.938 34.2L116.698 33.58V35.36L113.378 35.94C112.778 36.0467 112.338 36.24 112.058 36.52C111.778 36.7867 111.638 37.1333 111.638 37.56C111.638 37.9733 111.792 38.3133 112.098 38.58C112.418 38.8333 112.825 38.96 113.318 38.96C113.932 38.96 114.465 38.8267 114.918 38.56C115.385 38.2933 115.745 37.94 115.998 37.5C116.252 37.0467 116.378 36.5467 116.378 36V33.22C116.378 32.6867 116.178 32.2533 115.778 31.92C115.392 31.5733 114.872 31.4 114.218 31.4C113.618 31.4 113.092 31.56 112.638 31.88C112.198 32.1867 111.872 32.5867 111.658 33.08L109.778 32.14C109.978 31.6067 110.305 31.14 110.758 30.74C111.212 30.3267 111.738 30.0067 112.338 29.78C112.952 29.5533 113.598 29.44 114.278 29.44C115.132 29.44 115.885 29.6 116.538 29.92C117.205 30.24 117.718 30.6867 118.078 31.26C118.452 31.82 118.638 32.4733 118.638 33.22V40.5H116.478V38.54L116.938 38.6C116.685 39.04 116.358 39.42 115.958 39.74C115.572 40.06 115.125 40.3067 114.618 40.48C114.125 40.6533 113.572 40.74 112.958 40.74ZM129.777 40.74C128.737 40.74 127.804 40.4933 126.977 40C126.164 39.4933 125.517 38.8133 125.037 37.96C124.57 37.1067 124.337 36.1467 124.337 35.08C124.337 34.0133 124.577 33.0533 125.057 32.2C125.537 31.3467 126.184 30.6733 126.997 30.18C127.81 29.6867 128.73 29.44 129.757 29.44C130.624 29.44 131.39 29.6133 132.057 29.96C132.724 30.3067 133.25 30.7867 133.637 31.4L133.297 31.92V25.36H135.537V40.5H133.397V38.3L133.657 38.72C133.284 39.3733 132.75 39.8733 132.057 40.22C131.364 40.5667 130.604 40.74 129.777 40.74ZM129.997 38.64C130.624 38.64 131.184 38.4867 131.677 38.18C132.184 37.8733 132.577 37.4533 132.857 36.92C133.15 36.3733 133.297 35.76 133.297 35.08C133.297 34.4 133.15 33.7933 132.857 33.26C132.577 32.7267 132.184 32.3067 131.677 32C131.184 31.6933 130.624 31.54 129.997 31.54C129.37 31.54 128.804 31.6933 128.297 32C127.79 32.3067 127.397 32.7267 127.117 33.26C126.837 33.7933 126.697 34.4 126.697 35.08C126.697 35.76 126.837 36.3733 127.117 36.92C127.397 37.4533 127.784 37.8733 128.277 38.18C128.784 38.4867 129.357 38.64 129.997 38.64ZM143.255 40.74C142.175 40.74 141.215 40.4933 140.375 40C139.549 39.4933 138.902 38.8133 138.435 37.96C137.969 37.0933 137.735 36.1267 137.735 35.06C137.735 33.9667 137.969 33 138.435 32.16C138.915 31.32 139.555 30.66 140.355 30.18C141.155 29.6867 142.062 29.44 143.075 29.44C143.889 29.44 144.615 29.58 145.255 29.86C145.895 30.14 146.435 30.5267 146.875 31.02C147.315 31.5 147.649 32.0533 147.875 32.68C148.115 33.3067 148.235 33.9733 148.235 34.68C148.235 34.8533 148.229 35.0333 148.215 35.22C148.202 35.4067 148.175 35.58 148.135 35.74H139.515V33.94H146.855L145.775 34.76C145.909 34.1067 145.862 33.5267 145.635 33.02C145.422 32.5 145.089 32.0933 144.635 31.8C144.195 31.4933 143.675 31.34 143.075 31.34C142.475 31.34 141.942 31.4933 141.475 31.8C141.009 32.0933 140.649 32.52 140.395 33.08C140.142 33.6267 140.042 34.2933 140.095 35.08C140.029 35.8133 140.129 36.4533 140.395 37C140.675 37.5467 141.062 37.9733 141.555 38.28C142.062 38.5867 142.635 38.74 143.275 38.74C143.929 38.74 144.482 38.5933 144.935 38.3C145.402 38.0067 145.769 37.6267 146.035 37.16L147.875 38.06C147.662 38.5667 147.329 39.0267 146.875 39.44C146.435 39.84 145.902 40.16 145.275 40.4C144.662 40.6267 143.989 40.74 143.255 40.74ZM150.441 40.5V29.68H152.601V32.02L152.321 31.66C152.548 30.9267 152.961 30.3733 153.561 30C154.161 29.6267 154.848 29.44 155.621 29.44C156.488 29.44 157.254 29.6733 157.921 30.14C158.601 30.5933 159.054 31.2 159.281 31.96L158.641 32.02C158.961 31.1533 159.448 30.5067 160.101 30.08C160.768 29.6533 161.528 29.44 162.381 29.44C163.128 29.44 163.801 29.6133 164.401 29.96C165.014 30.3067 165.501 30.7867 165.861 31.4C166.221 32.0133 166.401 32.7133 166.401 33.5V40.5H164.141V34.12C164.141 33.5733 164.041 33.1133 163.841 32.74C163.654 32.3533 163.388 32.06 163.041 31.86C162.708 31.6467 162.314 31.54 161.861 31.54C161.408 31.54 161.008 31.6467 160.661 31.86C160.314 32.06 160.041 32.3533 159.841 32.74C159.641 33.1267 159.541 33.5867 159.541 34.12V40.5H157.301V34.12C157.301 33.5733 157.201 33.1133 157.001 32.74C156.814 32.3533 156.548 32.06 156.201 31.86C155.868 31.6467 155.468 31.54 155.001 31.54C154.548 31.54 154.148 31.6467 153.801 31.86C153.454 32.06 153.181 32.3533 152.981 32.74C152.794 33.1267 152.701 33.5867 152.701 34.12V40.5H150.441ZM174.04 40.74C173 40.74 172.047 40.4933 171.18 40C170.327 39.5067 169.647 38.8333 169.14 37.98C168.633 37.1267 168.38 36.16 168.38 35.08C168.38 33.9867 168.633 33.02 169.14 32.18C169.647 31.3267 170.327 30.66 171.18 30.18C172.033 29.6867 172.987 29.44 174.04 29.44C175.107 29.44 176.06 29.6867 176.9 30.18C177.753 30.66 178.427 31.3267 178.92 32.18C179.427 33.02 179.68 33.9867 179.68 35.08C179.68 36.1733 179.427 37.1467 178.92 38C178.413 38.8533 177.733 39.5267 176.88 40.02C176.027 40.5 175.08 40.74 174.04 40.74ZM174.04 38.64C174.68 38.64 175.247 38.4867 175.74 38.18C176.233 37.8733 176.62 37.4533 176.9 36.92C177.193 36.3733 177.34 35.76 177.34 35.08C177.34 34.4 177.193 33.7933 176.9 33.26C176.62 32.7267 176.233 32.3067 175.74 32C175.247 31.6933 174.68 31.54 174.04 31.54C173.413 31.54 172.847 31.6933 172.34 32C171.847 32.3067 171.453 32.7267 171.16 33.26C170.88 33.7933 170.74 34.4 170.74 35.08C170.74 35.76 170.88 36.3733 171.16 36.92C171.453 37.4533 171.847 37.8733 172.34 38.18C172.847 38.4867 173.413 38.64 174.04 38.64Z" fill="white"/>
<g clip-path="url(#clip0_2718_64)">
<rect x="201" y="8" width="48" height="48" rx="24" fill="white" fill-opacity="0.16"/>
<path d="M238.061 33.0607C238.646 32.4749 238.646 31.5251 238.061 30.9393L228.515 21.3934C227.929 20.8076 226.979 20.8076 226.393 21.3934C225.808 21.9792 225.808 22.9289 226.393 23.5147L234.879 32L226.393 40.4853C225.808 41.0711 225.808 42.0208 226.393 42.6066C226.979 43.1924 227.929 43.1924 228.515 42.6066L238.061 33.0607ZM213 32V33.5H237V32V30.5H213V32Z" fill="white"/>
</g>
<defs>
<linearGradient id="paint0_linear_2718_64" x1="0" y1="32" x2="257" y2="32" gradientUnits="userSpaceOnUse">
<stop stop-color="#2B476D"/>
<stop offset="1" stop-color="#182434"/>
</linearGradient>
<linearGradient id="paint1_linear_2718_64" x1="172.479" y1="64" x2="111.583" y2="-19.6907" gradientUnits="userSpaceOnUse">
<stop stop-color="white"/>
<stop offset="1"/>
</linearGradient>
<clipPath id="clip0_2718_64">
<rect x="201" y="8" width="48" height="48" rx="24" fill="white"/>
</clipPath>
</defs>
</svg>
