<svg width="251" height="64" viewBox="0 0 251 64" fill="none" xmlns="http://www.w3.org/2000/svg">
<rect width="251" height="64" rx="32" fill="url(#paint0_linear_2718_184)"/>
<rect x="0.5" y="0.5" width="250" height="63" rx="31.5" stroke="url(#paint1_linear_2718_184)" stroke-opacity="0.16"/>
<path d="M28.2894 40.5V27.7H24.3294V25.6H34.5294V27.7H30.6294V40.5H28.2894ZM38.1225 40.74C37.3892 40.74 36.7425 40.6133 36.1825 40.36C35.6358 40.0933 35.2092 39.7333 34.9025 39.28C34.5958 38.8133 34.4425 38.2667 34.4425 37.64C34.4425 37.0533 34.5692 36.5267 34.8225 36.06C35.0892 35.5933 35.4958 35.2 36.0425 34.88C36.5892 34.56 37.2758 34.3333 38.1025 34.2L41.8625 33.58V35.36L38.5425 35.94C37.9425 36.0467 37.5025 36.24 37.2225 36.52C36.9425 36.7867 36.8025 37.1333 36.8025 37.56C36.8025 37.9733 36.9558 38.3133 37.2625 38.58C37.5825 38.8333 37.9892 38.96 38.4825 38.96C39.0958 38.96 39.6292 38.8267 40.0825 38.56C40.5492 38.2933 40.9092 37.94 41.1625 37.5C41.4158 37.0467 41.5425 36.5467 41.5425 36V33.22C41.5425 32.6867 41.3425 32.2533 40.9425 31.92C40.5558 31.5733 40.0358 31.4 39.3825 31.4C38.7825 31.4 38.2558 31.56 37.8025 31.88C37.3625 32.1867 37.0358 32.5867 36.8225 33.08L34.9425 32.14C35.1425 31.6067 35.4692 31.14 35.9225 30.74C36.3758 30.3267 36.9025 30.0067 37.5025 29.78C38.1158 29.5533 38.7625 29.44 39.4425 29.44C40.2958 29.44 41.0492 29.6 41.7025 29.92C42.3692 30.24 42.8825 30.6867 43.2425 31.26C43.6158 31.82 43.8025 32.4733 43.8025 33.22V40.5H41.6425V38.54L42.1025 38.6C41.8492 39.04 41.5225 39.42 41.1225 39.74C40.7358 40.06 40.2892 40.3067 39.7825 40.48C39.2892 40.6533 38.7358 40.74 38.1225 40.74ZM46.445 40.5V25.36H48.705V40.5H46.445ZM51.3473 40.5V25.36H53.6073V35.5L52.7273 35.28L58.1473 29.68H60.9673L56.8873 34.02L61.1473 40.5H58.5473L54.7473 34.76L56.0873 34.58L52.8873 37.98L53.6073 36.48V40.5H51.3473ZM70.8711 40.62C69.7378 40.62 68.8578 40.3 68.2311 39.66C67.6044 39.02 67.2911 38.12 67.2911 36.96V31.72H65.3911V29.68H65.6911C66.1978 29.68 66.5911 29.5333 66.8711 29.24C67.1511 28.9467 67.2911 28.5467 67.2911 28.04V27.2H69.5511V29.68H72.0111V31.72H69.5511V36.86C69.5511 37.2333 69.6111 37.5533 69.7311 37.82C69.8511 38.0733 70.0444 38.2733 70.3111 38.42C70.5778 38.5533 70.9244 38.62 71.3511 38.62C71.4578 38.62 71.5778 38.6133 71.7111 38.6C71.8444 38.5867 71.9711 38.5733 72.0911 38.56V40.5C71.9044 40.5267 71.6978 40.5533 71.4711 40.58C71.2444 40.6067 71.0444 40.62 70.8711 40.62ZM79.3213 40.74C78.2813 40.74 77.3279 40.4933 76.4613 40C75.6079 39.5067 74.9279 38.8333 74.4213 37.98C73.9146 37.1267 73.6613 36.16 73.6613 35.08C73.6613 33.9867 73.9146 33.02 74.4213 32.18C74.9279 31.3267 75.6079 30.66 76.4613 30.18C77.3146 29.6867 78.2679 29.44 79.3213 29.44C80.3879 29.44 81.3413 29.6867 82.1813 30.18C83.0346 30.66 83.7079 31.3267 84.2013 32.18C84.7079 33.02 84.9613 33.9867 84.9613 35.08C84.9613 36.1733 84.7079 37.1467 84.2013 38C83.6946 38.8533 83.0146 39.5267 82.1613 40.02C81.3079 40.5 80.3613 40.74 79.3213 40.74ZM79.3213 38.64C79.9613 38.64 80.5279 38.4867 81.0213 38.18C81.5146 37.8733 81.9013 37.4533 82.1813 36.92C82.4746 36.3733 82.6213 35.76 82.6213 35.08C82.6213 34.4 82.4746 33.7933 82.1813 33.26C81.9013 32.7267 81.5146 32.3067 81.0213 32C80.5279 31.6933 79.9613 31.54 79.3213 31.54C78.6946 31.54 78.1279 31.6933 77.6213 32C77.1279 32.3067 76.7346 32.7267 76.4413 33.26C76.1613 33.7933 76.0213 34.4 76.0213 35.08C76.0213 35.76 76.1613 36.3733 76.4413 36.92C76.7346 37.4533 77.1279 37.8733 77.6213 38.18C78.1279 38.4867 78.6946 38.64 79.3213 38.64ZM95.8838 40.74C94.8438 40.74 93.8904 40.4933 93.0238 40C92.1704 39.5067 91.4904 38.8333 90.9838 37.98C90.4771 37.1267 90.2238 36.16 90.2238 35.08C90.2238 33.9867 90.4771 33.02 90.9838 32.18C91.4904 31.3267 92.1704 30.66 93.0238 30.18C93.8771 29.6867 94.8304 29.44 95.8838 29.44C96.9504 29.44 97.9038 29.6867 98.7438 30.18C99.5971 30.66 100.27 31.3267 100.764 32.18C101.27 33.02 101.524 33.9867 101.524 35.08C101.524 36.1733 101.27 37.1467 100.764 38C100.257 38.8533 99.5771 39.5267 98.7238 40.02C97.8704 40.5 96.9238 40.74 95.8838 40.74ZM95.8838 38.64C96.5238 38.64 97.0904 38.4867 97.5838 38.18C98.0771 37.8733 98.4638 37.4533 98.7438 36.92C99.0371 36.3733 99.1838 35.76 99.1838 35.08C99.1838 34.4 99.0371 33.7933 98.7438 33.26C98.4638 32.7267 98.0771 32.3067 97.5838 32C97.0904 31.6933 96.5238 31.54 95.8838 31.54C95.2571 31.54 94.6904 31.6933 94.1838 32C93.6904 32.3067 93.2971 32.7267 93.0038 33.26C92.7238 33.7933 92.5838 34.4 92.5838 35.08C92.5838 35.76 92.7238 36.3733 93.0038 36.92C93.2971 37.4533 93.6904 37.8733 94.1838 38.18C94.6904 38.4867 95.2571 38.64 95.8838 38.64ZM107.59 40.74C106.777 40.74 106.063 40.56 105.45 40.2C104.837 39.8267 104.357 39.3133 104.01 38.66C103.677 37.9933 103.51 37.2267 103.51 36.36V29.68H105.77V36.16C105.77 36.6533 105.87 37.0867 106.07 37.46C106.27 37.8333 106.55 38.1267 106.91 38.34C107.27 38.54 107.683 38.64 108.15 38.64C108.63 38.64 109.05 38.5333 109.41 38.32C109.77 38.1067 110.05 37.8067 110.25 37.42C110.463 37.0333 110.57 36.58 110.57 36.06V29.68H112.81V40.5H110.67V38.38L110.91 38.66C110.657 39.3267 110.237 39.84 109.65 40.2C109.063 40.56 108.377 40.74 107.59 40.74ZM115.449 40.5V29.68H117.609V31.86L117.409 31.54C117.649 30.8333 118.036 30.3267 118.569 30.02C119.102 29.7 119.742 29.54 120.489 29.54H121.149V31.6H120.209C119.462 31.6 118.856 31.8333 118.389 32.3C117.936 32.7533 117.709 33.4067 117.709 34.26V40.5H115.449ZM130.871 40.62C129.738 40.62 128.858 40.3 128.231 39.66C127.604 39.02 127.291 38.12 127.291 36.96V31.72H125.391V29.68H125.691C126.198 29.68 126.591 29.5333 126.871 29.24C127.151 28.9467 127.291 28.5467 127.291 28.04V27.2H129.551V29.68H132.011V31.72H129.551V36.86C129.551 37.2333 129.611 37.5533 129.731 37.82C129.851 38.0733 130.044 38.2733 130.311 38.42C130.578 38.5533 130.924 38.62 131.351 38.62C131.458 38.62 131.578 38.6133 131.711 38.6C131.844 38.5867 131.971 38.5733 132.091 38.56V40.5C131.904 40.5267 131.698 40.5533 131.471 40.58C131.244 40.6067 131.044 40.62 130.871 40.62ZM139.181 40.74C138.101 40.74 137.141 40.4933 136.301 40C135.475 39.4933 134.828 38.8133 134.361 37.96C133.895 37.0933 133.661 36.1267 133.661 35.06C133.661 33.9667 133.895 33 134.361 32.16C134.841 31.32 135.481 30.66 136.281 30.18C137.081 29.6867 137.988 29.44 139.001 29.44C139.815 29.44 140.541 29.58 141.181 29.86C141.821 30.14 142.361 30.5267 142.801 31.02C143.241 31.5 143.575 32.0533 143.801 32.68C144.041 33.3067 144.161 33.9733 144.161 34.68C144.161 34.8533 144.155 35.0333 144.141 35.22C144.128 35.4067 144.101 35.58 144.061 35.74H135.441V33.94H142.781L141.701 34.76C141.835 34.1067 141.788 33.5267 141.561 33.02C141.348 32.5 141.015 32.0933 140.561 31.8C140.121 31.4933 139.601 31.34 139.001 31.34C138.401 31.34 137.868 31.4933 137.401 31.8C136.935 32.0933 136.575 32.52 136.321 33.08C136.068 33.6267 135.968 34.2933 136.021 35.08C135.955 35.8133 136.055 36.4533 136.321 37C136.601 37.5467 136.988 37.9733 137.481 38.28C137.988 38.5867 138.561 38.74 139.201 38.74C139.855 38.74 140.408 38.5933 140.861 38.3C141.328 38.0067 141.695 37.6267 141.961 37.16L143.801 38.06C143.588 38.5667 143.255 39.0267 142.801 39.44C142.361 39.84 141.828 40.16 141.201 40.4C140.588 40.6267 139.915 40.74 139.181 40.74ZM149.509 40.74C148.776 40.74 148.129 40.6133 147.569 40.36C147.023 40.0933 146.596 39.7333 146.289 39.28C145.983 38.8133 145.829 38.2667 145.829 37.64C145.829 37.0533 145.956 36.5267 146.209 36.06C146.476 35.5933 146.883 35.2 147.429 34.88C147.976 34.56 148.663 34.3333 149.489 34.2L153.249 33.58V35.36L149.929 35.94C149.329 36.0467 148.889 36.24 148.609 36.52C148.329 36.7867 148.189 37.1333 148.189 37.56C148.189 37.9733 148.343 38.3133 148.649 38.58C148.969 38.8333 149.376 38.96 149.869 38.96C150.483 38.96 151.016 38.8267 151.469 38.56C151.936 38.2933 152.296 37.94 152.549 37.5C152.803 37.0467 152.929 36.5467 152.929 36V33.22C152.929 32.6867 152.729 32.2533 152.329 31.92C151.943 31.5733 151.423 31.4 150.769 31.4C150.169 31.4 149.643 31.56 149.189 31.88C148.749 32.1867 148.423 32.5867 148.209 33.08L146.329 32.14C146.529 31.6067 146.856 31.14 147.309 30.74C147.763 30.3267 148.289 30.0067 148.889 29.78C149.503 29.5533 150.149 29.44 150.829 29.44C151.683 29.44 152.436 29.6 153.089 29.92C153.756 30.24 154.269 30.6867 154.629 31.26C155.003 31.82 155.189 32.4733 155.189 33.22V40.5H153.029V38.54L153.489 38.6C153.236 39.04 152.909 39.42 152.509 39.74C152.123 40.06 151.676 40.3067 151.169 40.48C150.676 40.6533 150.123 40.74 149.509 40.74ZM157.832 40.5V29.68H159.992V32.02L159.712 31.66C159.938 30.9267 160.352 30.3733 160.952 30C161.552 29.6267 162.238 29.44 163.012 29.44C163.878 29.44 164.645 29.6733 165.312 30.14C165.992 30.5933 166.445 31.2 166.672 31.96L166.032 32.02C166.352 31.1533 166.838 30.5067 167.492 30.08C168.158 29.6533 168.918 29.44 169.772 29.44C170.518 29.44 171.192 29.6133 171.792 29.96C172.405 30.3067 172.892 30.7867 173.252 31.4C173.612 32.0133 173.792 32.7133 173.792 33.5V40.5H171.532V34.12C171.532 33.5733 171.432 33.1133 171.232 32.74C171.045 32.3533 170.778 32.06 170.432 31.86C170.098 31.6467 169.705 31.54 169.252 31.54C168.798 31.54 168.398 31.6467 168.052 31.86C167.705 32.06 167.432 32.3533 167.232 32.74C167.032 33.1267 166.932 33.5867 166.932 34.12V40.5H164.692V34.12C164.692 33.5733 164.592 33.1133 164.392 32.74C164.205 32.3533 163.938 32.06 163.592 31.86C163.258 31.6467 162.858 31.54 162.392 31.54C161.938 31.54 161.538 31.6467 161.192 31.86C160.845 32.06 160.572 32.3533 160.372 32.74C160.185 33.1267 160.092 33.5867 160.092 34.12V40.5H157.832Z" fill="black"/>
<g clip-path="url(#clip0_2718_184)">
<rect x="195" y="8" width="48" height="48" rx="24" fill="black" fill-opacity="0.16"/>
<path d="M232.061 33.0607C232.646 32.4749 232.646 31.5251 232.061 30.9393L222.515 21.3934C221.929 20.8076 220.979 20.8076 220.393 21.3934C219.808 21.9792 219.808 22.9289 220.393 23.5147L228.879 32L220.393 40.4853C219.808 41.0711 219.808 42.0208 220.393 42.6066C220.979 43.1924 221.929 43.1924 222.515 42.6066L232.061 33.0607ZM207 32V33.5H231V32V30.5H207V32Z" fill="#182434"/>
</g>
<defs>
<linearGradient id="paint0_linear_2718_184" x1="0" y1="32" x2="251" y2="32" gradientUnits="userSpaceOnUse">
<stop stop-color="#FFD071"/>
<stop offset="1" stop-color="#EFB745"/>
</linearGradient>
<linearGradient id="paint1_linear_2718_184" x1="168.452" y1="64" x2="107.128" y2="-18.3122" gradientUnits="userSpaceOnUse">
<stop stop-color="white"/>
<stop offset="1"/>
</linearGradient>
<clipPath id="clip0_2718_184">
<rect x="195" y="8" width="48" height="48" rx="24" fill="white"/>
</clipPath>
</defs>
</svg>
