<svg width="32" height="34" viewBox="0 0 32 34" fill="none" xmlns="http://www.w3.org/2000/svg">
<g clip-path="url(#clip0_1018_4389)">
<path fill-rule="evenodd" clip-rule="evenodd" d="M29.2243 19.9275C28.4924 19.5131 27.8959 18.1115 27.8959 17.2706C27.8953 14.8115 26.6526 12.6404 25.2389 10.6282C23.8253 8.6161 22.2382 7.47716 19.925 6.64281C17.6118 5.80847 15.6552 4.66785 13.2827 5.31434C10.9101 5.96083 8.21049 7.40725 6.64031 9.29976C5.07014 11.1923 4.18083 13.491 3.98337 15.9421C3.78591 18.3932 4.06487 21.7935 5.31184 23.913C6.55881 26.0324 8.38725 26.8804 10.6257 27.8984C12.8642 28.9163 16.1796 29.6801 18.5966 29.2268C21.219 28.738 23.8985 29.2268 26.5674 29.2268C27.742 29.227 28.2942 28.6158 29.2243 27.8984C30.1544 27.181 31.5832 26.3776 31.8813 25.2414C32.1794 24.1052 32.3393 22.3377 31.8813 21.256C31.4232 20.1744 30.2477 20.5041 29.2243 19.9275Z" fill="url(#paint0_linear_1018_4389)"/>
<path d="M21.2528 13.2852L14.6104 19.9275L10.625 17.2706" stroke="#FAFAF3" stroke-width="1.99271" stroke-linecap="round" stroke-linejoin="round"/>
</g>
<defs>
<linearGradient id="paint0_linear_1018_4389" x1="6.47753" y1="14.7961" x2="33.544" y2="22.2737" gradientUnits="userSpaceOnUse">
<stop stop-color="#C0412C"/>
<stop offset="1" stop-color="#F4C15D"/>
</linearGradient>
<clipPath id="clip0_1018_4389">
<rect width="31.8833" height="33.2118" fill="white"/>
</clipPath>
</defs>
</svg>
