<svg width="56" height="56" viewBox="0 0 56 56" fill="none" xmlns="http://www.w3.org/2000/svg">
<path d="M28 0C43.4638 0 55.9999 12.5363 56 28C56 43.4638 43.4638 56 28 56C12.5362 55.9999 0 43.4638 0 28C0.000143036 12.5363 12.5363 6.38623e-05 28 0ZM28 3.74609C14.605 3.74616 3.74624 14.6051 3.74609 28C3.74609 41.3951 14.6049 52.2538 28 52.2539C29.115 52.2539 30.2121 52.1769 31.2871 52.0312C29.6609 51.2628 28.2768 50.2857 27.1104 49.1475C24.4894 46.5896 23.1262 43.3765 22.4453 40.3525C21.7649 37.3305 21.7419 34.3927 21.8779 32.2393C21.9212 31.5547 21.981 30.9426 22.043 30.4238C20.3585 29.8265 18.9543 29.0176 17.7959 28.0537C15.8725 26.4532 14.7302 24.5185 14.0654 22.6904C13.4051 20.8744 13.2076 19.1447 13.1699 17.8848C13.151 17.2506 13.1722 16.7221 13.1992 16.3438C13.2128 16.1542 13.2277 16.0006 13.2402 15.8896C13.2465 15.8342 13.2524 15.7888 13.2568 15.7549C13.259 15.7382 13.2611 15.7242 13.2627 15.7129C13.2635 15.7072 13.264 15.7015 13.2646 15.6973C13.2649 15.6953 13.2654 15.6931 13.2656 15.6914L13.2666 15.6895C13.2741 15.6895 13.3912 15.7061 15.2666 15.9863L17.2676 16.2832L17.2607 16.3438C17.254 16.4035 17.2437 16.5013 17.2344 16.6318C17.2156 16.8941 17.1995 17.2846 17.2139 17.7637C17.2428 18.7315 17.395 20.009 17.8672 21.3076C18.3351 22.5943 19.1093 23.8828 20.3838 24.9434C21.6536 26 23.5272 26.9196 26.3379 27.3086L26.6123 27.3477C32.3458 28.203 35.9012 30.7091 38.0264 33.1367C39.0917 34.3538 39.7754 35.5257 40.1973 36.4092C40.4083 36.8511 40.5553 37.2234 40.6523 37.4971C40.7009 37.634 40.7379 37.7473 40.7637 37.832C40.7764 37.8741 40.7861 37.9096 40.7939 37.9375C40.7979 37.9515 40.8019 37.9643 40.8047 37.9746C40.806 37.9795 40.8075 37.9843 40.8086 37.9883C40.8091 37.9902 40.8091 37.9924 40.8096 37.9941L40.8105 37.9971C40.8087 37.9989 40.7452 38.0162 38.8535 38.5068C36.9467 39.0015 36.8965 39.0161 36.8955 39.0176L36.8965 39.0195C36.8968 39.0209 36.8972 39.0223 36.8975 39.0234C36.8979 39.0252 36.8972 39.0271 36.8975 39.0283C36.8964 39.0244 36.8952 39.0175 36.8926 39.0088C36.8838 38.98 36.8669 38.9258 36.8398 38.8496C36.7855 38.6964 36.6916 38.4554 36.5469 38.1523C36.2568 37.545 35.7659 36.6969 34.9824 35.8018C33.4675 34.0712 30.7682 32.0574 26.0107 31.3486C25.975 31.695 25.9413 32.0796 25.915 32.4951C25.7937 34.4171 25.8246 36.9412 26.3926 39.4639C26.9602 41.985 28.0391 44.4011 29.9355 46.252C31.7576 48.0301 34.4874 49.4326 38.6699 49.7842C46.7148 45.8363 52.2539 37.566 52.2539 28C52.2538 14.605 41.395 3.74609 28 3.74609ZM28.1826 8.51074C31.1577 8.51079 33.7582 10.1077 35.1768 12.4824L35.3105 12.7148L35.3291 12.749L35.3467 12.7842L35.3926 12.8828C35.6067 13.3796 35.5658 13.864 35.4561 14.207C35.3504 14.537 35.123 14.9234 34.7119 15.2002L34.627 15.2539L34.5508 15.2998L29.3691 17.7754L27.7539 14.3945L30.6475 13.0127C29.9438 12.5353 29.0955 12.2569 28.1826 12.2568C25.1591 12.2568 22.8036 15.3098 24.2061 18.625L24.2754 18.7832V18.7842L24.3467 18.9297C24.6934 19.6034 25.2527 20.1573 25.9365 20.5029L26.085 20.5732L26.0859 20.5742L26.2275 20.6357C29.2097 21.8856 31.9634 20.0971 32.4873 17.5391L36.1572 18.29C35.1633 23.1444 29.8612 26.3829 24.5479 23.9893C22.9296 23.2611 21.6134 21.966 20.8701 20.3418C18.1578 14.4204 22.4543 8.51074 28.1826 8.51074ZM17.2686 16.2812L17.2676 16.2832L17.2686 16.2783C17.2685 16.279 17.2687 16.2802 17.2686 16.2812Z" fill="url(#paint0_linear_49_1589)"/>
<defs>
<linearGradient id="paint0_linear_49_1589" x1="5.05974" y1="22.3481" x2="59.7506" y2="35.3143" gradientUnits="userSpaceOnUse">
<stop stop-color="#C0412C"/>
<stop offset="1" stop-color="#F4C15D"/>
</linearGradient>
</defs>
</svg>
