<svg width="213" height="64" viewBox="0 0 213 64" fill="none" xmlns="http://www.w3.org/2000/svg">
<rect width="213" height="64" rx="32" fill="url(#paint0_linear_2782_49)"/>
<rect x="0.5" y="0.5" width="212" height="63" rx="31.5" stroke="url(#paint1_linear_2782_49)" stroke-opacity="0.16"/>
<path d="M31.0979 40.74C30.1646 40.74 29.2979 40.5667 28.4979 40.22C27.6979 39.86 27.0179 39.3733 26.4579 38.76C25.8979 38.1467 25.4846 37.44 25.2179 36.64L27.2179 35.8C27.5779 36.72 28.1046 37.4267 28.7979 37.92C29.4912 38.4133 30.2912 38.66 31.1979 38.66C31.7312 38.66 32.1979 38.58 32.5979 38.42C32.9979 38.2467 33.3046 38.0067 33.5179 37.7C33.7446 37.3933 33.8579 37.04 33.8579 36.64C33.8579 36.0933 33.7046 35.66 33.3979 35.34C33.0912 35.02 32.6379 34.7667 32.0379 34.58L29.2379 33.7C28.1179 33.3533 27.2646 32.8267 26.6779 32.12C26.0912 31.4 25.7979 30.56 25.7979 29.6C25.7979 28.76 26.0046 28.0267 26.4179 27.4C26.8312 26.76 27.3979 26.26 28.1179 25.9C28.8512 25.54 29.6846 25.36 30.6179 25.36C31.5112 25.36 32.3246 25.52 33.0579 25.84C33.7912 26.1467 34.4179 26.5733 34.9379 27.12C35.4712 27.6667 35.8579 28.3 36.0979 29.02L34.1379 29.88C33.8446 29.0933 33.3846 28.4867 32.7579 28.06C32.1446 27.6333 31.4312 27.42 30.6179 27.42C30.1246 27.42 29.6912 27.5067 29.3179 27.68C28.9446 27.84 28.6512 28.08 28.4379 28.4C28.2379 28.7067 28.1379 29.0667 28.1379 29.48C28.1379 29.96 28.2912 30.3867 28.5979 30.76C28.9046 31.1333 29.3712 31.4133 29.9979 31.6L32.5979 32.42C33.7846 32.78 34.6779 33.3 35.2779 33.98C35.8779 34.6467 36.1779 35.48 36.1779 36.48C36.1779 37.3067 35.9579 38.04 35.5179 38.68C35.0912 39.32 34.4979 39.8267 33.7379 40.2C32.9779 40.56 32.0979 40.74 31.0979 40.74ZM41.6518 40.74C40.9185 40.74 40.2718 40.6133 39.7118 40.36C39.1651 40.0933 38.7385 39.7333 38.4318 39.28C38.1251 38.8133 37.9718 38.2667 37.9718 37.64C37.9718 37.0533 38.0985 36.5267 38.3518 36.06C38.6185 35.5933 39.0251 35.2 39.5718 34.88C40.1185 34.56 40.8051 34.3333 41.6318 34.2L45.3918 33.58V35.36L42.0718 35.94C41.4718 36.0467 41.0318 36.24 40.7518 36.52C40.4718 36.7867 40.3318 37.1333 40.3318 37.56C40.3318 37.9733 40.4851 38.3133 40.7918 38.58C41.1118 38.8333 41.5185 38.96 42.0118 38.96C42.6251 38.96 43.1585 38.8267 43.6118 38.56C44.0785 38.2933 44.4385 37.94 44.6918 37.5C44.9451 37.0467 45.0718 36.5467 45.0718 36V33.22C45.0718 32.6867 44.8718 32.2533 44.4718 31.92C44.0851 31.5733 43.5651 31.4 42.9118 31.4C42.3118 31.4 41.7851 31.56 41.3318 31.88C40.8918 32.1867 40.5651 32.5867 40.3518 33.08L38.4718 32.14C38.6718 31.6067 38.9985 31.14 39.4518 30.74C39.9051 30.3267 40.4318 30.0067 41.0318 29.78C41.6451 29.5533 42.2918 29.44 42.9718 29.44C43.8251 29.44 44.5785 29.6 45.2318 29.92C45.8985 30.24 46.4118 30.6867 46.7718 31.26C47.1451 31.82 47.3318 32.4733 47.3318 33.22V40.5H45.1718V38.54L45.6318 38.6C45.3785 39.04 45.0518 39.42 44.6518 39.74C44.2651 40.06 43.8185 40.3067 43.3118 40.48C42.8185 40.6533 42.2651 40.74 41.6518 40.74ZM49.9743 40.5V25.36H52.2343V40.5H49.9743ZM59.9566 40.74C58.8766 40.74 57.9166 40.4933 57.0766 40C56.25 39.4933 55.6033 38.8133 55.1366 37.96C54.67 37.0933 54.4366 36.1267 54.4366 35.06C54.4366 33.9667 54.67 33 55.1366 32.16C55.6166 31.32 56.2566 30.66 57.0566 30.18C57.8566 29.6867 58.7633 29.44 59.7766 29.44C60.59 29.44 61.3166 29.58 61.9566 29.86C62.5966 30.14 63.1366 30.5267 63.5766 31.02C64.0166 31.5 64.35 32.0533 64.5766 32.68C64.8166 33.3067 64.9366 33.9733 64.9366 34.68C64.9366 34.8533 64.93 35.0333 64.9166 35.22C64.9033 35.4067 64.8766 35.58 64.8366 35.74H56.2166V33.94H63.5566L62.4766 34.76C62.61 34.1067 62.5633 33.5267 62.3366 33.02C62.1233 32.5 61.79 32.0933 61.3366 31.8C60.8966 31.4933 60.3766 31.34 59.7766 31.34C59.1766 31.34 58.6433 31.4933 58.1766 31.8C57.71 32.0933 57.35 32.52 57.0966 33.08C56.8433 33.6267 56.7433 34.2933 56.7966 35.08C56.73 35.8133 56.83 36.4533 57.0966 37C57.3766 37.5467 57.7633 37.9733 58.2566 38.28C58.7633 38.5867 59.3366 38.74 59.9766 38.74C60.63 38.74 61.1833 38.5933 61.6366 38.3C62.1033 38.0067 62.47 37.6267 62.7366 37.16L64.5766 38.06C64.3633 38.5667 64.03 39.0267 63.5766 39.44C63.1366 39.84 62.6033 40.16 61.9766 40.4C61.3633 40.6267 60.69 40.74 59.9566 40.74ZM71.1423 40.74C70.0356 40.74 69.0623 40.4667 68.2223 39.92C67.3956 39.3733 66.8156 38.64 66.4823 37.72L68.2223 36.9C68.5156 37.5133 68.9156 38 69.4223 38.36C69.9423 38.72 70.5156 38.9 71.1423 38.9C71.6756 38.9 72.1089 38.78 72.4423 38.54C72.7756 38.3 72.9423 37.9733 72.9423 37.56C72.9423 37.2933 72.8689 37.08 72.7223 36.92C72.5756 36.7467 72.3889 36.6067 72.1623 36.5C71.9489 36.3933 71.7289 36.3133 71.5023 36.26L69.8023 35.78C68.8689 35.5133 68.1689 35.1133 67.7023 34.58C67.2489 34.0333 67.0223 33.4 67.0223 32.68C67.0223 32.0267 67.1889 31.46 67.5223 30.98C67.8556 30.4867 68.3156 30.1067 68.9023 29.84C69.4889 29.5733 70.1489 29.44 70.8823 29.44C71.8689 29.44 72.7489 29.6867 73.5223 30.18C74.2956 30.66 74.8423 31.3333 75.1623 32.2L73.4223 33.02C73.2089 32.5 72.8689 32.0867 72.4023 31.78C71.9489 31.4733 71.4356 31.32 70.8623 31.32C70.3689 31.32 69.9756 31.44 69.6823 31.68C69.3889 31.9067 69.2423 32.2067 69.2423 32.58C69.2423 32.8333 69.3089 33.0467 69.4423 33.22C69.5756 33.38 69.7489 33.5133 69.9623 33.62C70.1756 33.7133 70.3956 33.7933 70.6223 33.86L72.3823 34.38C73.2756 34.6333 73.9623 35.0333 74.4423 35.58C74.9223 36.1133 75.1623 36.7533 75.1623 37.5C75.1623 38.14 74.9889 38.7067 74.6423 39.2C74.3089 39.68 73.8423 40.06 73.2423 40.34C72.6423 40.6067 71.9423 40.74 71.1423 40.74ZM85.8727 40.74C84.8327 40.74 83.8994 40.4933 83.0727 40C82.2594 39.4933 81.6127 38.8133 81.1327 37.96C80.6661 37.1067 80.4327 36.1467 80.4327 35.08C80.4327 34.0133 80.6727 33.0533 81.1527 32.2C81.6327 31.3467 82.2794 30.6733 83.0927 30.18C83.9061 29.6867 84.8261 29.44 85.8527 29.44C86.7194 29.44 87.4861 29.6133 88.1527 29.96C88.8194 30.3067 89.3461 30.7867 89.7327 31.4L89.3927 31.92V25.36H91.6327V40.5H89.4927V38.3L89.7527 38.72C89.3794 39.3733 88.8461 39.8733 88.1527 40.22C87.4594 40.5667 86.6994 40.74 85.8727 40.74ZM86.0927 38.64C86.7194 38.64 87.2794 38.4867 87.7727 38.18C88.2794 37.8733 88.6727 37.4533 88.9527 36.92C89.2461 36.3733 89.3927 35.76 89.3927 35.08C89.3927 34.4 89.2461 33.7933 88.9527 33.26C88.6727 32.7267 88.2794 32.3067 87.7727 32C87.2794 31.6933 86.7194 31.54 86.0927 31.54C85.4661 31.54 84.8994 31.6933 84.3927 32C83.8861 32.3067 83.4927 32.7267 83.2127 33.26C82.9327 33.7933 82.7927 34.4 82.7927 35.08C82.7927 35.76 82.9327 36.3733 83.2127 36.92C83.4927 37.4533 83.8794 37.8733 84.3727 38.18C84.8794 38.4867 85.4527 38.64 86.0927 38.64ZM99.3512 40.74C98.2712 40.74 97.3112 40.4933 96.4712 40C95.6445 39.4933 94.9978 38.8133 94.5312 37.96C94.0645 37.0933 93.8312 36.1267 93.8312 35.06C93.8312 33.9667 94.0645 33 94.5312 32.16C95.0112 31.32 95.6512 30.66 96.4512 30.18C97.2512 29.6867 98.1578 29.44 99.1712 29.44C99.9845 29.44 100.711 29.58 101.351 29.86C101.991 30.14 102.531 30.5267 102.971 31.02C103.411 31.5 103.745 32.0533 103.971 32.68C104.211 33.3067 104.331 33.9733 104.331 34.68C104.331 34.8533 104.325 35.0333 104.311 35.22C104.298 35.4067 104.271 35.58 104.231 35.74H95.6112V33.94H102.951L101.871 34.76C102.005 34.1067 101.958 33.5267 101.731 33.02C101.518 32.5 101.185 32.0933 100.731 31.8C100.291 31.4933 99.7712 31.34 99.1712 31.34C98.5712 31.34 98.0378 31.4933 97.5712 31.8C97.1045 32.0933 96.7445 32.52 96.4912 33.08C96.2378 33.6267 96.1378 34.2933 96.1912 35.08C96.1245 35.8133 96.2245 36.4533 96.4912 37C96.7712 37.5467 97.1578 37.9733 97.6512 38.28C98.1578 38.5867 98.7312 38.74 99.3712 38.74C100.025 38.74 100.578 38.5933 101.031 38.3C101.498 38.0067 101.865 37.6267 102.131 37.16L103.971 38.06C103.758 38.5667 103.425 39.0267 102.971 39.44C102.531 39.84 101.998 40.16 101.371 40.4C100.758 40.6267 100.085 40.74 99.3512 40.74ZM106.537 40.5V29.68H108.697V32.02L108.417 31.66C108.643 30.9267 109.057 30.3733 109.657 30C110.257 29.6267 110.943 29.44 111.717 29.44C112.583 29.44 113.35 29.6733 114.017 30.14C114.697 30.5933 115.15 31.2 115.377 31.96L114.737 32.02C115.057 31.1533 115.543 30.5067 116.197 30.08C116.863 29.6533 117.623 29.44 118.477 29.44C119.223 29.44 119.897 29.6133 120.497 29.96C121.11 30.3067 121.597 30.7867 121.957 31.4C122.317 32.0133 122.497 32.7133 122.497 33.5V40.5H120.237V34.12C120.237 33.5733 120.137 33.1133 119.937 32.74C119.75 32.3533 119.483 32.06 119.137 31.86C118.803 31.6467 118.41 31.54 117.957 31.54C117.503 31.54 117.103 31.6467 116.757 31.86C116.41 32.06 116.137 32.3533 115.937 32.74C115.737 33.1267 115.637 33.5867 115.637 34.12V40.5H113.397V34.12C113.397 33.5733 113.297 33.1133 113.097 32.74C112.91 32.3533 112.643 32.06 112.297 31.86C111.963 31.6467 111.563 31.54 111.097 31.54C110.643 31.54 110.243 31.6467 109.897 31.86C109.55 32.06 109.277 32.3533 109.077 32.74C108.89 33.1267 108.797 33.5867 108.797 34.12V40.5H106.537ZM130.136 40.74C129.096 40.74 128.142 40.4933 127.276 40C126.422 39.5067 125.742 38.8333 125.236 37.98C124.729 37.1267 124.476 36.16 124.476 35.08C124.476 33.9867 124.729 33.02 125.236 32.18C125.742 31.3267 126.422 30.66 127.276 30.18C128.129 29.6867 129.082 29.44 130.136 29.44C131.202 29.44 132.156 29.6867 132.996 30.18C133.849 30.66 134.522 31.3267 135.016 32.18C135.522 33.02 135.776 33.9867 135.776 35.08C135.776 36.1733 135.522 37.1467 135.016 38C134.509 38.8533 133.829 39.5267 132.976 40.02C132.122 40.5 131.176 40.74 130.136 40.74ZM130.136 38.64C130.776 38.64 131.342 38.4867 131.836 38.18C132.329 37.8733 132.716 37.4533 132.996 36.92C133.289 36.3733 133.436 35.76 133.436 35.08C133.436 34.4 133.289 33.7933 132.996 33.26C132.716 32.7267 132.329 32.3067 131.836 32C131.342 31.6933 130.776 31.54 130.136 31.54C129.509 31.54 128.942 31.6933 128.436 32C127.942 32.3067 127.549 32.7267 127.256 33.26C126.976 33.7933 126.836 34.4 126.836 35.08C126.836 35.76 126.976 36.3733 127.256 36.92C127.549 37.4533 127.942 37.8733 128.436 38.18C128.942 38.4867 129.509 38.64 130.136 38.64Z" fill="black"/>
<g clip-path="url(#clip0_2782_49)">
<rect x="157" y="8" width="48" height="48" rx="24" fill="black" fill-opacity="0.16"/>
<path d="M194.061 33.0607C194.646 32.4749 194.646 31.5251 194.061 30.9393L184.515 21.3934C183.929 20.8076 182.979 20.8076 182.393 21.3934C181.808 21.9792 181.808 22.9289 182.393 23.5147L190.879 32L182.393 40.4853C181.808 41.0711 181.808 42.0208 182.393 42.6066C182.979 43.1924 183.929 43.1924 184.515 42.6066L194.061 33.0607ZM169 32V33.5H193V32V30.5H169V32Z" fill="#182434"/>
</g>
<defs>
<linearGradient id="paint0_linear_2782_49" x1="0" y1="32" x2="213" y2="32" gradientUnits="userSpaceOnUse">
<stop stop-color="#FFD071"/>
<stop offset="1" stop-color="#EFB745"/>
</linearGradient>
<linearGradient id="paint1_linear_2782_49" x1="142.949" y1="64" x2="79.4877" y2="-8.28499" gradientUnits="userSpaceOnUse">
<stop stop-color="white"/>
<stop offset="1"/>
</linearGradient>
<clipPath id="clip0_2782_49">
<rect x="157" y="8" width="48" height="48" rx="24" fill="white"/>
</clipPath>
</defs>
</svg>
