<svg width="274" height="25" viewBox="0 0 274 25" fill="none" xmlns="http://www.w3.org/2000/svg">
<mask id="path-1-inside-1_49_634" fill="white">
<path d="M0 0H274V25H0V0Z"/>
</mask>
<path d="M0 25H3V0H0H-3V25H0Z" fill="url(#paint0_linear_49_634)" mask="url(#path-1-inside-1_49_634)"/>
<path d="M11.44 21V6.1H21.34V8.5H14.16V12.32H20.94V14.72H14.16V18.6H21.34V21H11.44ZM27.3345 21V6.1H29.4545L37.6545 17.14L36.5545 17.36V6.1H39.2745V21H37.1345L29.0545 9.88L30.0545 9.66V21H27.3345ZM44.9388 21L50.0788 6.1H53.5988L58.7388 21H55.7788L54.7188 17.8H48.9588L47.8788 21H44.9388ZM49.7388 15.4H53.9388L51.4588 7.98H52.2188L49.7388 15.4ZM64.397 21V6.1H70.677C71.6637 6.1 72.5037 6.27333 73.197 6.62C73.9037 6.95333 74.4437 7.43333 74.817 8.06C75.2037 8.67333 75.397 9.42 75.397 10.3C75.397 10.98 75.2104 11.62 74.837 12.22C74.477 12.8067 73.897 13.2933 73.097 13.68V12.42C73.8304 12.7 74.4104 13.0467 74.837 13.46C75.2637 13.8733 75.5637 14.3333 75.737 14.84C75.9104 15.3467 75.997 15.88 75.997 16.44C75.997 17.8667 75.5237 18.9867 74.577 19.8C73.6437 20.6 72.3437 21 70.677 21H64.397ZM67.117 18.6H70.957C71.6637 18.6 72.2237 18.4067 72.637 18.02C73.0637 17.62 73.277 17.0933 73.277 16.44C73.277 15.7867 73.0637 15.26 72.637 14.86C72.2237 14.46 71.6637 14.26 70.957 14.26H67.117V18.6ZM67.117 11.88H70.817C71.377 11.88 71.8237 11.72 72.157 11.4C72.4904 11.0667 72.657 10.64 72.657 10.12C72.657 9.6 72.4904 9.18667 72.157 8.88C71.8237 8.57333 71.377 8.42 70.817 8.42H67.117V11.88ZM82.2252 21V6.1H84.9452V18.6H91.3252V21H82.2252ZM97.0845 21V6.1H106.985V8.5H99.8045V12.32H106.585V14.72H99.8045V18.6H106.985V21H97.0845ZM112.979 21V6.1H117.839C119.412 6.1 120.779 6.42 121.939 7.06C123.112 7.68667 124.019 8.56 124.659 9.68C125.299 10.7867 125.619 12.0733 125.619 13.54C125.619 14.9933 125.299 16.2867 124.659 17.42C124.019 18.54 123.112 19.42 121.939 20.06C120.779 20.6867 119.412 21 117.839 21H112.979ZM115.699 18.6H117.899C118.912 18.6 119.786 18.3933 120.519 17.98C121.266 17.5533 121.846 16.9667 122.259 16.22C122.672 15.46 122.879 14.5667 122.879 13.54C122.879 12.5 122.672 11.6067 122.259 10.86C121.846 10.1133 121.266 9.53333 120.519 9.12C119.786 8.70667 118.912 8.5 117.899 8.5H115.699V18.6ZM138.118 21L143.258 6.1H146.778L151.918 21H148.958L147.898 17.8H142.138L141.058 21H138.118ZM142.918 15.4H147.118L144.638 7.98H145.398L142.918 15.4ZM163.971 21.24C162.905 21.24 161.918 21.0467 161.011 20.66C160.118 20.2733 159.331 19.7333 158.651 19.04C157.985 18.3467 157.465 17.5333 157.091 16.6C156.718 15.6667 156.531 14.6467 156.531 13.54C156.531 12.4333 156.711 11.4133 157.071 10.48C157.445 9.53333 157.965 8.72 158.631 8.04C159.311 7.34667 160.105 6.81333 161.011 6.44C161.918 6.05333 162.905 5.86 163.971 5.86C165.038 5.86 165.991 6.04 166.831 6.4C167.685 6.76 168.405 7.24 168.991 7.84C169.578 8.42667 169.998 9.07333 170.251 9.78L167.811 10.92C167.531 10.1733 167.058 9.56 166.391 9.08C165.725 8.58667 164.918 8.34 163.971 8.34C163.038 8.34 162.211 8.56 161.491 9C160.785 9.44 160.231 10.0467 159.831 10.82C159.445 11.5933 159.251 12.5 159.251 13.54C159.251 14.58 159.445 15.4933 159.831 16.28C160.231 17.0533 160.785 17.66 161.491 18.1C162.211 18.54 163.038 18.76 163.971 18.76C164.918 18.76 165.725 18.52 166.391 18.04C167.058 17.5467 167.531 16.9267 167.811 16.18L170.251 17.32C169.998 18.0267 169.578 18.68 168.991 19.28C168.405 19.8667 167.685 20.34 166.831 20.7C165.991 21.06 165.038 21.24 163.971 21.24ZM175.24 21L180.38 6.1H183.9L189.04 21H186.08L185.02 17.8H179.26L178.18 21H175.24ZM180.04 15.4H184.24L181.76 7.98H182.52L180.04 15.4ZM194.698 21V6.1H199.558C201.131 6.1 202.498 6.42 203.658 7.06C204.831 7.68667 205.738 8.56 206.378 9.68C207.018 10.7867 207.338 12.0733 207.338 13.54C207.338 14.9933 207.018 16.2867 206.378 17.42C205.738 18.54 204.831 19.42 203.658 20.06C202.498 20.6867 201.131 21 199.558 21H194.698ZM197.418 18.6H199.618C200.631 18.6 201.504 18.3933 202.238 17.98C202.984 17.5533 203.564 16.9667 203.978 16.22C204.391 15.46 204.598 14.5667 204.598 13.54C204.598 12.5 204.391 11.6067 203.978 10.86C203.564 10.1133 202.984 9.53333 202.238 9.12C201.504 8.70667 200.631 8.5 199.618 8.5H197.418V18.6ZM213.503 21V6.1H223.403V8.5H216.223V12.32H223.003V14.72H216.223V18.6H223.403V21H213.503ZM229.397 21V6.1H231.997L237.577 13.68H236.337L241.797 6.1H244.397V21H241.657V9.2L242.717 9.46L237.057 17H236.737L231.217 9.46L232.117 9.2V21H229.397ZM255.049 21V14.4L250.029 6.1H253.129L256.969 12.58H255.869L259.689 6.1H262.789L257.789 14.38V21H255.049Z" fill="url(#paint1_linear_49_634)"/>
<defs>
<linearGradient id="paint0_linear_49_634" x1="0" y1="12.5" x2="274" y2="12.5" gradientUnits="userSpaceOnUse">
<stop stop-color="#C0412C"/>
<stop offset="1" stop-color="#666666"/>
</linearGradient>
<linearGradient id="paint1_linear_49_634" x1="32.9495" y1="9.97681" x2="71.4679" y2="102.758" gradientUnits="userSpaceOnUse">
<stop stop-color="#C0412C"/>
<stop offset="1" stop-color="#F4C15D"/>
</linearGradient>
</defs>
</svg>
