<svg width="284" height="64" viewBox="0 0 284 64" fill="none" xmlns="http://www.w3.org/2000/svg">
<rect width="284" height="64" rx="32" fill="url(#paint0_linear_2718_426)"/>
<rect x="0.5" y="0.5" width="283" height="63" rx="31.5" stroke="url(#paint1_linear_2718_426)" stroke-opacity="0.16"/>
<path d="M32.6338 40.7402C31.5794 40.7402 30.5985 40.5467 29.691 40.1597C28.7968 39.7726 28.0094 39.2388 27.3287 38.5581C26.6614 37.8642 26.1409 37.05 25.7672 36.1158C25.3935 35.1816 25.2067 34.1539 25.2067 33.0329C25.2067 31.9251 25.3869 30.9042 25.7472 29.9699C26.1209 29.0224 26.6414 28.2083 27.3087 27.5276C27.976 26.8336 28.7567 26.2998 29.6509 25.9261C30.5451 25.539 31.526 25.3455 32.5937 25.3455C33.6481 25.3455 34.589 25.5257 35.4164 25.886C36.2572 26.2464 36.9646 26.7202 37.5385 27.3074C38.1123 27.8813 38.5261 28.5086 38.7796 29.1892L36.6776 30.2102C36.3707 29.3961 35.8635 28.7421 35.1562 28.2483C34.4488 27.7412 33.5947 27.4876 32.5937 27.4876C31.6061 27.4876 30.732 27.7211 29.9712 28.1882C29.2105 28.6554 28.6166 29.3026 28.1895 30.1301C27.7758 30.9576 27.5689 31.9251 27.5689 33.0329C27.5689 34.1406 27.7825 35.1149 28.2095 35.9557C28.65 36.7831 29.2505 37.4304 30.0113 37.8975C30.772 38.3513 31.6462 38.5782 32.6338 38.5782C33.4612 38.5782 34.2153 38.4113 34.8959 38.0777C35.5899 37.7307 36.1438 37.2502 36.5575 36.6363C36.9712 36.009 37.1781 35.2817 37.1781 34.4542V33.4333L38.2391 34.3942H32.5937V32.3923H39.5203V33.7936C39.5203 34.888 39.3335 35.8689 38.9598 36.7364C38.5861 37.5906 38.079 38.3179 37.4384 38.9185C36.7977 39.5191 36.0637 39.9728 35.2363 40.2798C34.4088 40.5867 33.5413 40.7402 32.6338 40.7402ZM46.7968 40.7402C45.7158 40.7402 44.7549 40.4933 43.9141 39.9995C43.0866 39.4924 42.4393 38.8117 41.9722 37.9576C41.5051 37.0901 41.2715 36.1225 41.2715 35.0548C41.2715 33.9604 41.5051 32.9928 41.9722 32.152C42.4527 31.3112 43.0933 30.6506 43.8941 30.1701C44.6948 29.6763 45.6023 29.4294 46.6167 29.4294C47.4308 29.4294 48.1581 29.5696 48.7987 29.8498C49.4393 30.1301 49.9799 30.5171 50.4203 31.0109C50.8607 31.4914 51.1944 32.0453 51.4212 32.6725C51.6615 33.2998 51.7816 33.9671 51.7816 34.6744C51.7816 34.8479 51.7749 35.0281 51.7616 35.215C51.7482 35.4018 51.7215 35.5753 51.6815 35.7355H43.0532V33.9337H50.4003L49.3192 34.7545C49.4527 34.1006 49.406 33.52 49.1791 33.0129C48.9656 32.4924 48.6319 32.0853 48.1781 31.7917C47.7377 31.4847 47.2172 31.3312 46.6167 31.3312C46.0161 31.3312 45.4822 31.4847 45.0151 31.7917C44.548 32.0853 44.1877 32.5124 43.9341 33.0729C43.6805 33.6201 43.5804 34.2874 43.6338 35.0748C43.5671 35.8089 43.6672 36.4495 43.9341 36.9967C44.2144 37.5438 44.6014 37.9709 45.0952 38.2779C45.6023 38.5848 46.1762 38.7383 46.8168 38.7383C47.4708 38.7383 48.0247 38.5915 48.4784 38.2979C48.9455 38.0043 49.3126 37.6239 49.5795 37.1568L51.4212 38.0577C51.2077 38.5648 50.874 39.0253 50.4203 39.439C49.9799 39.8394 49.446 40.1597 48.8188 40.3999C48.2048 40.6268 47.5309 40.7402 46.7968 40.7402ZM58.6738 40.6201C57.5394 40.6201 56.6585 40.2998 56.0313 39.6592C55.404 39.0186 55.0904 38.1177 55.0904 36.9566V31.7116H53.1885V29.6697H53.4888C53.996 29.6697 54.3897 29.5229 54.67 29.2292C54.9502 28.9356 55.0904 28.5352 55.0904 28.0281V27.1873H57.3525V29.6697H59.8149V31.7116H57.3525V36.8565C57.3525 37.2302 57.4126 37.5505 57.5327 37.8174C57.6528 38.071 57.8463 38.2712 58.1133 38.418C58.3802 38.5515 58.7272 38.6182 59.1542 38.6182C59.261 38.6182 59.3811 38.6115 59.5146 38.5982C59.6481 38.5848 59.7748 38.5715 59.895 38.5581V40.5C59.7081 40.5267 59.5012 40.5534 59.2744 40.5801C59.0475 40.6068 58.8473 40.6201 58.6738 40.6201ZM70.7469 40.7402C69.6658 40.7402 68.7049 40.4933 67.8641 39.9995C67.0367 39.4924 66.376 38.8117 65.8822 37.9576C65.4018 37.1034 65.1615 36.1358 65.1615 35.0548C65.1615 33.9871 65.4018 33.0262 65.8822 32.172C66.3627 31.3179 67.0233 30.6506 67.8641 30.1701C68.7049 29.6763 69.6658 29.4294 70.7469 29.4294C71.4809 29.4294 72.1682 29.5629 72.8088 29.8298C73.4495 30.0834 74.0033 30.4371 74.4704 30.8908C74.9509 31.3446 75.3046 31.8718 75.5314 32.4723L73.5495 33.3932C73.3227 32.8327 72.9556 32.3856 72.4485 32.0519C71.9547 31.7049 71.3875 31.5314 70.7469 31.5314C70.133 31.5314 69.5791 31.6849 69.0853 31.9919C68.6048 32.2855 68.2245 32.7059 67.9442 33.2531C67.6639 33.7869 67.5238 34.3942 67.5238 35.0748C67.5238 35.7555 67.6639 36.3694 67.9442 36.9166C68.2245 37.4504 68.6048 37.8708 69.0853 38.1778C69.5791 38.4847 70.133 38.6382 70.7469 38.6382C71.4008 38.6382 71.968 38.4714 72.4485 38.1377C72.9423 37.7907 73.3093 37.3303 73.5495 36.7564L75.5314 37.6973C75.3179 38.2712 74.9709 38.7917 74.4904 39.2588C74.0233 39.7126 73.4695 40.0729 72.8289 40.3398C72.1882 40.6068 71.4943 40.7402 70.7469 40.7402ZM80.8878 40.7402C80.1538 40.7402 79.5065 40.6134 78.946 40.3599C78.3988 40.0929 77.9717 39.7326 77.6647 39.2788C77.3578 38.8117 77.2043 38.2645 77.2043 37.6373C77.2043 37.05 77.3311 36.5229 77.5847 36.0558C77.8516 35.5886 78.2586 35.1949 78.8058 34.8746C79.353 34.5543 80.0403 34.3274 80.8678 34.194L84.6314 33.5734V35.3551L81.3082 35.9356C80.7076 36.0424 80.2672 36.2359 79.9869 36.5162C79.7067 36.7831 79.5665 37.1301 79.5665 37.5572C79.5665 37.9709 79.72 38.3112 80.027 38.5782C80.3473 38.8317 80.7543 38.9585 81.2481 38.9585C81.8621 38.9585 82.3959 38.8251 82.8497 38.5581C83.3168 38.2912 83.6771 37.9376 83.9307 37.4971C84.1843 37.0434 84.3111 36.5429 84.3111 35.9957V33.213C84.3111 32.6792 84.1109 32.2455 83.7105 31.9118C83.3235 31.5648 82.803 31.3913 82.149 31.3913C81.5484 31.3913 81.0213 31.5515 80.5675 31.8718C80.1271 32.1787 79.8001 32.5791 79.5866 33.0729L77.7048 32.132C77.905 31.5982 78.2319 31.1311 78.6857 30.7307C79.1395 30.3169 79.6666 29.9966 80.2672 29.7698C80.8811 29.5429 81.5284 29.4294 82.2091 29.4294C83.0632 29.4294 83.8173 29.5896 84.4712 29.9099C85.1385 30.2302 85.6524 30.6773 86.0127 31.2512C86.3864 31.8117 86.5732 32.4657 86.5732 33.213V40.5H84.4112V38.5381L84.8716 38.5982C84.618 39.0386 84.2911 39.419 83.8907 39.7393C83.5036 40.0596 83.0565 40.3065 82.5494 40.48C82.0556 40.6535 81.5017 40.7402 80.8878 40.7402ZM89.2183 40.5V29.6697H91.3803V31.8517L91.1801 31.5314C91.4204 30.8241 91.8074 30.3169 92.3412 30.01C92.8751 29.6897 93.5157 29.5295 94.2631 29.5295H94.9237V31.5915H93.9828C93.2354 31.5915 92.6282 31.8251 92.1611 32.2922C91.7073 32.7459 91.4804 33.3999 91.4804 34.254V40.5H89.2183ZM101.556 40.7402C100.475 40.7402 99.5142 40.4933 98.6734 39.9995C97.8459 39.4924 97.1986 38.8117 96.7315 37.9576C96.2644 37.0901 96.0309 36.1225 96.0309 35.0548C96.0309 33.9604 96.2644 32.9928 96.7315 32.152C97.212 31.3112 97.8526 30.6506 98.6534 30.1701C99.4541 29.6763 100.362 29.4294 101.376 29.4294C102.19 29.4294 102.917 29.5696 103.558 29.8498C104.199 30.1301 104.739 30.5171 105.18 31.0109C105.62 31.4914 105.954 32.0453 106.181 32.6725C106.421 33.2998 106.541 33.9671 106.541 34.6744C106.541 34.8479 106.534 35.0281 106.521 35.215C106.508 35.4018 106.481 35.5753 106.441 35.7355H97.8126V33.9337H105.16L104.079 34.7545C104.212 34.1006 104.165 33.52 103.938 33.0129C103.725 32.4924 103.391 32.0853 102.937 31.7917C102.497 31.4847 101.977 31.3312 101.376 31.3312C100.775 31.3312 100.242 31.4847 99.7744 31.7917C99.3073 32.0853 98.947 32.5124 98.6934 33.0729C98.4398 33.6201 98.3397 34.2874 98.3931 35.0748C98.3264 35.8089 98.4265 36.4495 98.6934 36.9967C98.9737 37.5438 99.3607 37.9709 99.8545 38.2779C100.362 38.5848 100.936 38.7383 101.576 38.7383C102.23 38.7383 102.784 38.5915 103.238 38.2979C103.705 38.0043 104.072 37.6239 104.339 37.1568L106.181 38.0577C105.967 38.5648 105.633 39.0253 105.18 39.439C104.739 39.8394 104.205 40.1597 103.578 40.3999C102.964 40.6268 102.29 40.7402 101.556 40.7402ZM113.833 40.7402C112.752 40.7402 111.792 40.4933 110.951 39.9995C110.123 39.4924 109.476 38.8117 109.009 37.9576C108.542 37.0901 108.308 36.1225 108.308 35.0548C108.308 33.9604 108.542 32.9928 109.009 32.152C109.489 31.3112 110.13 30.6506 110.931 30.1701C111.731 29.6763 112.639 29.4294 113.653 29.4294C114.467 29.4294 115.195 29.5696 115.835 29.8498C116.476 30.1301 117.017 30.5171 117.457 31.0109C117.897 31.4914 118.231 32.0453 118.458 32.6725C118.698 33.2998 118.818 33.9671 118.818 34.6744C118.818 34.8479 118.812 35.0281 118.798 35.215C118.785 35.4018 118.758 35.5753 118.718 35.7355H110.09V33.9337H117.437L116.356 34.7545C116.489 34.1006 116.443 33.52 116.216 33.0129C116.002 32.4924 115.669 32.0853 115.215 31.7917C114.774 31.4847 114.254 31.3312 113.653 31.3312C113.053 31.3312 112.519 31.4847 112.052 31.7917C111.585 32.0853 111.224 32.5124 110.971 33.0729C110.717 33.6201 110.617 34.2874 110.67 35.0748C110.604 35.8089 110.704 36.4495 110.971 36.9967C111.251 37.5438 111.638 37.9709 112.132 38.2779C112.639 38.5848 113.213 38.7383 113.853 38.7383C114.507 38.7383 115.061 38.5915 115.515 38.2979C115.982 38.0043 116.349 37.6239 116.616 37.1568L118.458 38.0577C118.244 38.5648 117.911 39.0253 117.457 39.439C117.017 39.8394 116.483 40.1597 115.855 40.3999C115.241 40.6268 114.568 40.7402 113.833 40.7402ZM121.026 40.5V29.6697H123.188V31.8517L122.988 31.5314C123.228 30.8241 123.615 30.3169 124.149 30.01C124.683 29.6897 125.323 29.5295 126.071 29.5295H126.731V31.5915H125.791C125.043 31.5915 124.436 31.8251 123.969 32.2922C123.515 32.7459 123.288 33.3999 123.288 34.254V40.5H121.026ZM135.782 40.7402C134.675 40.7402 133.7 40.4666 132.859 39.9194C132.032 39.3723 131.451 38.6382 131.118 37.7173L132.859 36.8966C133.153 37.5105 133.553 37.9976 134.061 38.358C134.581 38.7183 135.155 38.8985 135.782 38.8985C136.316 38.8985 136.75 38.7784 137.083 38.5381C137.417 38.2979 137.584 37.9709 137.584 37.5572C137.584 37.2903 137.511 37.0767 137.364 36.9166C137.217 36.7431 137.03 36.6029 136.803 36.4962C136.59 36.3894 136.369 36.3093 136.143 36.2559L134.441 35.7755C133.507 35.5086 132.806 35.1082 132.339 34.5743C131.885 34.0272 131.658 33.3932 131.658 32.6725C131.658 32.0186 131.825 31.4514 132.159 30.9709C132.492 30.4771 132.953 30.0967 133.54 29.8298C134.127 29.5629 134.788 29.4294 135.522 29.4294C136.51 29.4294 137.39 29.6763 138.165 30.1701C138.939 30.6506 139.486 31.3246 139.806 32.1921L138.064 33.0129C137.851 32.4924 137.511 32.0786 137.043 31.7717C136.59 31.4647 136.076 31.3112 135.502 31.3112C135.008 31.3112 134.614 31.4313 134.321 31.6716C134.027 31.8985 133.88 32.1987 133.88 32.5724C133.88 32.826 133.947 33.0395 134.081 33.213C134.214 33.3732 134.388 33.5067 134.601 33.6134C134.815 33.7068 135.035 33.7869 135.262 33.8537L137.023 34.3742C137.918 34.6277 138.605 35.0281 139.085 35.5753C139.566 36.1091 139.806 36.7498 139.806 37.4971C139.806 38.1377 139.633 38.705 139.286 39.1988C138.952 39.6792 138.485 40.0596 137.884 40.3398C137.284 40.6068 136.583 40.7402 135.782 40.7402ZM145.886 40.7402C145.072 40.7402 144.358 40.5601 143.744 40.1997C143.13 39.826 142.65 39.3122 142.303 38.6582C141.969 37.9909 141.802 37.2235 141.802 36.356V29.6697H144.065V36.1559C144.065 36.6497 144.165 37.0834 144.365 37.4571C144.565 37.8308 144.845 38.1244 145.206 38.3379C145.566 38.5381 145.98 38.6382 146.447 38.6382C146.927 38.6382 147.348 38.5315 147.708 38.3179C148.068 38.1044 148.349 37.8041 148.549 37.4171C148.762 37.03 148.869 36.5763 148.869 36.0558V29.6697H151.111V40.5H148.969V38.378L149.209 38.6582C148.956 39.3255 148.535 39.8394 147.948 40.1997C147.361 40.5601 146.674 40.7402 145.886 40.7402ZM153.753 44.5038V29.6697H155.915V31.9118L155.654 31.3913C156.055 30.7774 156.589 30.2969 157.256 29.9499C157.923 29.6029 158.684 29.4294 159.538 29.4294C160.566 29.4294 161.487 29.6763 162.301 30.1701C163.128 30.6639 163.775 31.3379 164.243 32.1921C164.723 33.0462 164.963 34.0071 164.963 35.0748C164.963 36.1425 164.723 37.1034 164.243 37.9576C163.775 38.8117 163.135 39.4924 162.321 39.9995C161.507 40.4933 160.579 40.7402 159.538 40.7402C158.697 40.7402 157.93 40.5667 157.236 40.2197C156.555 39.8727 156.028 39.3723 155.654 38.7183L156.015 38.2979V44.5038H153.753ZM159.318 38.6382C159.958 38.6382 160.526 38.4847 161.019 38.1778C161.513 37.8708 161.9 37.4504 162.181 36.9166C162.474 36.3694 162.621 35.7555 162.621 35.0748C162.621 34.3942 162.474 33.7869 162.181 33.2531C161.9 32.7192 161.513 32.2988 161.019 31.9919C160.526 31.6849 159.958 31.5314 159.318 31.5314C158.691 31.5314 158.123 31.6849 157.616 31.9919C157.122 32.2988 156.729 32.7192 156.435 33.2531C156.155 33.7869 156.015 34.3942 156.015 35.0748C156.015 35.7555 156.155 36.3694 156.435 36.9166C156.729 37.4504 157.122 37.8708 157.616 38.1778C158.123 38.4847 158.691 38.6382 159.318 38.6382ZM167.164 44.5038V29.6697H169.326V31.9118L169.066 31.3913C169.466 30.7774 170 30.2969 170.667 29.9499C171.334 29.6029 172.095 29.4294 172.949 29.4294C173.977 29.4294 174.898 29.6763 175.712 30.1701C176.539 30.6639 177.187 31.3379 177.654 32.1921C178.134 33.0462 178.374 34.0071 178.374 35.0748C178.374 36.1425 178.134 37.1034 177.654 37.9576C177.187 38.8117 176.546 39.4924 175.732 39.9995C174.918 40.4933 173.99 40.7402 172.949 40.7402C172.108 40.7402 171.341 40.5667 170.647 40.2197C169.966 39.8727 169.439 39.3723 169.066 38.7183L169.426 38.2979V44.5038H167.164ZM172.729 38.6382C173.37 38.6382 173.937 38.4847 174.431 38.1778C174.925 37.8708 175.312 37.4504 175.592 36.9166C175.885 36.3694 176.032 35.7555 176.032 35.0748C176.032 34.3942 175.885 33.7869 175.592 33.2531C175.312 32.7192 174.925 32.2988 174.431 31.9919C173.937 31.6849 173.37 31.5314 172.729 31.5314C172.102 31.5314 171.535 31.6849 171.027 31.9919C170.534 32.2988 170.14 32.7192 169.846 33.2531C169.566 33.7869 169.426 34.3942 169.426 35.0748C169.426 35.7555 169.566 36.3694 169.846 36.9166C170.14 37.4504 170.534 37.8708 171.027 38.1778C171.535 38.4847 172.102 38.6382 172.729 38.6382ZM185.8 40.7402C184.759 40.7402 183.805 40.4933 182.937 39.9995C182.083 39.5057 181.402 38.8317 180.895 37.9776C180.388 37.1234 180.135 36.1559 180.135 35.0748C180.135 33.9804 180.388 33.0129 180.895 32.172C181.402 31.3179 182.083 30.6506 182.937 30.1701C183.791 29.6763 184.746 29.4294 185.8 29.4294C186.868 29.4294 187.822 29.6763 188.663 30.1701C189.517 30.6506 190.191 31.3179 190.685 32.172C191.192 33.0129 191.445 33.9804 191.445 35.0748C191.445 36.1692 191.192 37.1435 190.685 37.9976C190.178 38.8518 189.497 39.5257 188.643 40.0195C187.789 40.5 186.841 40.7402 185.8 40.7402ZM185.8 38.6382C186.441 38.6382 187.008 38.4847 187.502 38.1778C187.995 37.8708 188.382 37.4504 188.663 36.9166C188.956 36.3694 189.103 35.7555 189.103 35.0748C189.103 34.3942 188.956 33.7869 188.663 33.2531C188.382 32.7192 187.995 32.2988 187.502 31.9919C187.008 31.6849 186.441 31.5314 185.8 31.5314C185.173 31.5314 184.606 31.6849 184.098 31.9919C183.605 32.2988 183.211 32.7192 182.917 33.2531C182.637 33.7869 182.497 34.3942 182.497 35.0748C182.497 35.7555 182.637 36.3694 182.917 36.9166C183.211 37.4504 183.605 37.8708 184.098 38.1778C184.606 38.4847 185.173 38.6382 185.8 38.6382ZM193.654 40.5V29.6697H195.816V31.8517L195.616 31.5314C195.856 30.8241 196.243 30.3169 196.777 30.01C197.311 29.6897 197.951 29.5295 198.699 29.5295H199.359V31.5915H198.418C197.671 31.5915 197.064 31.8251 196.597 32.2922C196.143 32.7459 195.916 33.3999 195.916 34.254V40.5H193.654ZM205.787 40.6201C204.652 40.6201 203.772 40.2998 203.144 39.6592C202.517 39.0186 202.203 38.1177 202.203 36.9566V31.7116H200.302V29.6697H200.602C201.109 29.6697 201.503 29.5229 201.783 29.2292C202.063 28.9356 202.203 28.5352 202.203 28.0281V27.1873H204.466V29.6697H206.928V31.7116H204.466V36.8565C204.466 37.2302 204.526 37.5505 204.646 37.8174C204.766 38.071 204.959 38.2712 205.226 38.418C205.493 38.5515 205.84 38.6182 206.267 38.6182C206.374 38.6182 206.494 38.6115 206.628 38.5982C206.761 38.5848 206.888 38.5715 207.008 38.5581V40.5C206.821 40.5267 206.614 40.5534 206.387 40.5801C206.161 40.6068 205.96 40.6201 205.787 40.6201Z" fill="white"/>
<g clip-path="url(#clip0_2718_426)">
<rect x="228" y="8" width="48" height="48" rx="24" fill="white" fill-opacity="0.16"/>
<path d="M265.061 33.0607C265.646 32.4749 265.646 31.5251 265.061 30.9393L255.515 21.3934C254.929 20.8076 253.979 20.8076 253.393 21.3934C252.808 21.9792 252.808 22.9289 253.393 23.5147L261.879 32L253.393 40.4853C252.808 41.0711 252.808 42.0208 253.393 42.6066C253.979 43.1924 254.929 43.1924 255.515 42.6066L265.061 33.0607ZM240 32V33.5H264V32V30.5H240V32Z" fill="white"/>
</g>
<defs>
<linearGradient id="paint0_linear_2718_426" x1="0" y1="32" x2="284" y2="32" gradientUnits="userSpaceOnUse">
<stop stop-color="#2B476D"/>
<stop offset="1" stop-color="#182434"/>
</linearGradient>
<linearGradient id="paint1_linear_2718_426" x1="190.599" y1="64" x2="131.807" y2="-25.2884" gradientUnits="userSpaceOnUse">
<stop stop-color="white"/>
<stop offset="1"/>
</linearGradient>
<clipPath id="clip0_2718_426">
<rect x="228" y="8" width="48" height="48" rx="24" fill="white"/>
</clipPath>
</defs>
</svg>
